<svg xmlns="http://www.w3.org/2000/svg" xmlns:xlink="http://www.w3.org/1999/xlink" width="113" height="113" viewBox="0 0 113 113">
  <defs>
    <filter id="Path_982547" x="0" y="0" width="113" height="113" filterUnits="userSpaceOnUse">
      <feOffset dy="3" input="SourceAlpha"/>
      <feGaussianBlur stdDeviation="3" result="blur"/>
      <feFlood flood-opacity="0.161"/>
      <feComposite operator="in" in2="blur"/>
      <feComposite in="SourceGraphic"/>
    </filter>
  </defs>
  <g id="Group_1148582" data-name="Group 1148582" transform="translate(-744 -3704.178)">
    <g id="Group_1147087" data-name="Group 1147087" transform="translate(753 3710.178)">
      <g transform="matrix(1, 0, 0, 1, -9, -6)" filter="url(#Path_982547)">
        <g id="Path_982547-2" data-name="Path 982547" transform="translate(9 6)" fill="#fdeffe">
          <path d="M 47.5 93.5 C 41.28937149047852 93.5 35.26533508300781 92.28397369384766 29.59518623352051 89.88570404052734 C 24.11771965026855 87.56893157958984 19.19813346862793 84.25196075439453 14.97309303283691 80.02691650390625 C 10.74804019927979 75.80186462402344 7.431066513061523 70.88229370117188 5.114293098449707 65.40481567382812 C 2.716026782989502 59.73468017578125 1.5 53.71062850952148 1.5 47.5 C 1.5 41.28937149047852 2.716026782989502 35.26533508300781 5.114293098449707 29.59518623352051 C 7.431066513061523 24.11771965026855 10.74804019927979 19.19813346862793 14.97309303283691 14.97309303283691 C 19.19813346862793 10.74804019927979 24.11771965026855 7.431066513061523 29.59518623352051 5.114293098449707 C 35.26533508300781 2.716026782989502 41.28937149047852 1.5 47.5 1.5 C 53.71062850952148 1.5 59.73468017578125 2.716026782989502 65.40481567382812 5.114293098449707 C 70.88229370117188 7.431066513061523 75.80186462402344 10.74804019927979 80.02691650390625 14.97309303283691 C 84.25196075439453 19.19813346862793 87.56893157958984 24.11771965026855 89.88570404052734 29.59518623352051 C 92.28397369384766 35.26533508300781 93.5 41.28937149047852 93.5 47.5 C 93.5 53.71062850952148 92.28397369384766 59.73468017578125 89.88570404052734 65.40481567382812 C 87.56893157958984 70.88229370117188 84.25196075439453 75.80186462402344 80.02691650390625 80.02691650390625 C 75.80186462402344 84.25196075439453 70.88229370117188 87.56893157958984 65.40481567382812 89.88570404052734 C 59.73468017578125 92.28397369384766 53.71062850952148 93.5 47.5 93.5 Z" stroke="none"/>
          <path d="M 47.5 3 C 41.49121475219727 3 35.66376876831055 4.176155090332031 30.17950439453125 6.495796203613281 C 24.88084411621094 8.736953735351562 20.12152099609375 11.94598388671875 16.03375244140625 16.03375244140625 C 11.94598388671875 20.12152099609375 8.736953735351562 24.88084411621094 6.495796203613281 30.17950439453125 C 4.176155090332031 35.66376876831055 3 41.49121475219727 3 47.5 C 3 53.50878524780273 4.176155090332031 59.33623123168945 6.495796203613281 64.82049560546875 C 8.736953735351562 70.11915588378906 11.94598388671875 74.87847900390625 16.03375244140625 78.96624755859375 C 20.12152099609375 83.05401611328125 24.88084411621094 86.26304626464844 30.17950439453125 88.50419616699219 C 35.66376876831055 90.82384490966797 41.49121475219727 92 47.5 92 C 53.50878524780273 92 59.33623123168945 90.82384490966797 64.82049560546875 88.50419616699219 C 70.11915588378906 86.26304626464844 74.87847900390625 83.05401611328125 78.96624755859375 78.96624755859375 C 83.05401611328125 74.87847900390625 86.26304626464844 70.11915588378906 88.50419616699219 64.82049560546875 C 90.82384490966797 59.33623123168945 92 53.50878524780273 92 47.5 C 92 41.49121475219727 90.82384490966797 35.66376876831055 88.50419616699219 30.17950439453125 C 86.26304626464844 24.88084411621094 83.05401611328125 20.12152099609375 78.96624755859375 16.03375244140625 C 74.87847900390625 11.94598388671875 70.11915588378906 8.736953735351562 64.82049560546875 6.495796203613281 C 59.33623123168945 4.176155090332031 53.50878524780273 3 47.5 3 M 47.5 0 C 73.7335205078125 0 95 21.2664794921875 95 47.5 C 95 73.7335205078125 73.7335205078125 95 47.5 95 C 21.2664794921875 95 0 73.7335205078125 0 47.5 C 0 21.2664794921875 21.2664794921875 0 47.5 0 Z" stroke="none" fill="#ee70f7"/>
        </g>
      </g>
    </g>
    <g id="website" transform="translate(765.555 3723.233)">
      <g id="Group_1148580" data-name="Group 1148580" transform="translate(4.064 4.064)">
        <g id="Group_1148579" data-name="Group 1148579">
          <rect id="Rectangle_406107" data-name="Rectangle 406107" width="60.762" height="56.422" rx="4" fill="#f5f5f5"/>
          <path id="Path_983049" data-name="Path 983049" d="M8.34,4H60.422a4.342,4.342,0,0,1,4.34,4.34v6.51H4V8.34A4.342,4.342,0,0,1,8.34,4Z" transform="translate(-4 -4)" fill="#455a64"/>
        </g>
        <circle id="Ellipse_11568" data-name="Ellipse 11568" cx="21.701" cy="21.701" r="21.701" transform="translate(8.68 17.361)" fill="#1e88e5"/>
      </g>
      <g id="Group_1148581" data-name="Group 1148581" transform="translate(3.25 3.25)">
        <path id="Path_983050" data-name="Path 983050" d="M4.064,24.937a.814.814,0,0,0,.814-.814V22.78a.814.814,0,1,0-1.628,0v1.344A.814.814,0,0,0,4.064,24.937Z" transform="translate(-3.25 -1.658)" fill="#030611"/>
        <path id="Path_983051" data-name="Path 983051" d="M60.486,3.25H8.4A5.16,5.16,0,0,0,3.25,8.4V21.627a.814.814,0,1,0,1.628,0v-5.9H64.012V56.146a3.53,3.53,0,0,1-3.526,3.526H49.66A22.45,22.45,0,0,0,48.315,25.4a.814.814,0,0,0-1,1.28,21.079,21.079,0,0,1,4.453,4.779h-9.17c-.975-3.881-2.426-6.967-4.18-8.838a20.81,20.81,0,0,1,5.978,2.139.814.814,0,1,0,.778-1.431A22.49,22.49,0,0,0,19.23,59.672H8.4a3.53,3.53,0,0,1-3.526-3.526V28.489a.814.814,0,1,0-1.628,0V56.146A5.16,5.16,0,0,0,8.4,61.3H21.211a22.346,22.346,0,0,0,26.468,0H60.486a5.16,5.16,0,0,0,5.154-5.154V8.4A5.16,5.16,0,0,0,60.486,3.25ZM38.418,63.622c1.753-1.872,3.2-4.956,4.176-8.833h9.169A20.929,20.929,0,0,1,38.418,63.622ZM27.957,54.789H40.932c-1.514,5.764-4.053,9.223-6.487,9.223S29.472,60.553,27.957,54.789ZM13.6,43.939H24.968a49.676,49.676,0,0,0,.957,9.223H16.137A20.742,20.742,0,0,1,13.6,43.939Zm2.538-10.85h9.788a49.666,49.666,0,0,0-.957,9.223H13.6a20.741,20.741,0,0,1,2.538-9.223Zm39.154,10.85a20.741,20.741,0,0,1-2.538,9.223H42.965a49.667,49.667,0,0,0,.957-9.223H55.291ZM27.57,33.089H41.32a47.88,47.88,0,0,1,.975,9.223H26.6a47.872,47.872,0,0,1,.975-9.223Zm-.975,10.85h15.7a47.872,47.872,0,0,1-.975,9.223H27.57a47.88,47.88,0,0,1-.975-9.223Zm26.17-10.85a20.745,20.745,0,0,1,2.544,9.223H43.922a49.676,49.676,0,0,0-.957-9.223h9.8ZM40.932,31.461H27.958c1.514-5.764,4.053-9.223,6.487-9.223S39.418,25.7,40.932,31.461ZM30.472,22.628c-1.753,1.872-3.2,4.956-4.176,8.833H17.127A20.929,20.929,0,0,1,30.472,22.628ZM17.127,54.789H26.3c.974,3.877,2.423,6.961,4.176,8.833A20.929,20.929,0,0,1,17.127,54.789ZM4.878,14.1V8.4A3.53,3.53,0,0,1,8.4,4.878H60.486A3.53,3.53,0,0,1,64.012,8.4v5.7Z" transform="translate(-3.25 -3.25)" fill="#030611"/>
        <circle id="Ellipse_11569" data-name="Ellipse 11569" cx="1.573" cy="1.573" r="1.573" transform="translate(6.51 4.666)" fill="#030611"/>
        <circle id="Ellipse_11570" data-name="Ellipse 11570" cx="1.573" cy="1.573" r="1.573" transform="translate(13.02 4.666)" fill="#030611"/>
        <circle id="Ellipse_11571" data-name="Ellipse 11571" cx="1.573" cy="1.573" r="1.573" transform="translate(19.531 4.666)" fill="#030611"/>
      </g>
    </g>
  </g>
</svg>
