<svg xmlns="http://www.w3.org/2000/svg" xmlns:xlink="http://www.w3.org/1999/xlink" width="113" height="113" viewBox="0 0 113 113">
  <defs>
    <filter id="Path_982547" x="0" y="0" width="113" height="113" filterUnits="userSpaceOnUse">
      <feOffset dy="3" input="SourceAlpha"/>
      <feGaussianBlur stdDeviation="3" result="blur"/>
      <feFlood flood-opacity="0.161"/>
      <feComposite operator="in" in2="blur"/>
      <feComposite in="SourceGraphic"/>
    </filter>
  </defs>
  <g id="Group_1148631" data-name="Group 1148631" transform="translate(-1216.328 -3715.333)">
    <g id="Group_1148528" data-name="Group 1148528" transform="translate(1225.328 3721.333)">
      <g transform="matrix(1, 0, 0, 1, -9, -6)" filter="url(#Path_982547)">
        <g id="Path_982547-2" data-name="Path 982547" transform="translate(9 6)" fill="#fdeffe">
          <path d="M 47.5 93.5 C 41.28937149047852 93.5 35.26533508300781 92.28397369384766 29.59518623352051 89.88570404052734 C 24.11771965026855 87.56893157958984 19.19813346862793 84.25196075439453 14.97309303283691 80.02691650390625 C 10.74804019927979 75.80186462402344 7.431066513061523 70.88229370117188 5.114293098449707 65.40481567382812 C 2.716026782989502 59.73468017578125 1.5 53.71062850952148 1.5 47.5 C 1.5 41.28937149047852 2.716026782989502 35.26533508300781 5.114293098449707 29.59518623352051 C 7.431066513061523 24.11771965026855 10.74804019927979 19.19813346862793 14.97309303283691 14.97309303283691 C 19.19813346862793 10.74804019927979 24.11771965026855 7.431066513061523 29.59518623352051 5.114293098449707 C 35.26533508300781 2.716026782989502 41.28937149047852 1.5 47.5 1.5 C 53.71062850952148 1.5 59.73468017578125 2.716026782989502 65.40481567382812 5.114293098449707 C 70.88229370117188 7.431066513061523 75.80186462402344 10.74804019927979 80.02691650390625 14.97309303283691 C 84.25196075439453 19.19813346862793 87.56893157958984 24.11771965026855 89.88570404052734 29.59518623352051 C 92.28397369384766 35.26533508300781 93.5 41.28937149047852 93.5 47.5 C 93.5 53.71062850952148 92.28397369384766 59.73468017578125 89.88570404052734 65.40481567382812 C 87.56893157958984 70.88229370117188 84.25196075439453 75.80186462402344 80.02691650390625 80.02691650390625 C 75.80186462402344 84.25196075439453 70.88229370117188 87.56893157958984 65.40481567382812 89.88570404052734 C 59.73468017578125 92.28397369384766 53.71062850952148 93.5 47.5 93.5 Z" stroke="none"/>
          <path d="M 47.5 3 C 41.49121475219727 3 35.66376876831055 4.176155090332031 30.17950439453125 6.495796203613281 C 24.88084411621094 8.736953735351562 20.12152099609375 11.94598388671875 16.03375244140625 16.03375244140625 C 11.94598388671875 20.12152099609375 8.736953735351562 24.88084411621094 6.495796203613281 30.17950439453125 C 4.176155090332031 35.66376876831055 3 41.49121475219727 3 47.5 C 3 53.50878524780273 4.176155090332031 59.33623123168945 6.495796203613281 64.82049560546875 C 8.736953735351562 70.11915588378906 11.94598388671875 74.87847900390625 16.03375244140625 78.96624755859375 C 20.12152099609375 83.05401611328125 24.88084411621094 86.26304626464844 30.17950439453125 88.50419616699219 C 35.66376876831055 90.82384490966797 41.49121475219727 92 47.5 92 C 53.50878524780273 92 59.33623123168945 90.82384490966797 64.82049560546875 88.50419616699219 C 70.11915588378906 86.26304626464844 74.87847900390625 83.05401611328125 78.96624755859375 78.96624755859375 C 83.05401611328125 74.87847900390625 86.26304626464844 70.11915588378906 88.50419616699219 64.82049560546875 C 90.82384490966797 59.33623123168945 92 53.50878524780273 92 47.5 C 92 41.49121475219727 90.82384490966797 35.66376876831055 88.50419616699219 30.17950439453125 C 86.26304626464844 24.88084411621094 83.05401611328125 20.12152099609375 78.96624755859375 16.03375244140625 C 74.87847900390625 11.94598388671875 70.11915588378906 8.736953735351562 64.82049560546875 6.495796203613281 C 59.33623123168945 4.176155090332031 53.50878524780273 3 47.5 3 M 47.5 0 C 73.7335205078125 0 95 21.2664794921875 95 47.5 C 95 73.7335205078125 73.7335205078125 95 47.5 95 C 21.2664794921875 95 0 73.7335205078125 0 47.5 C 0 21.2664794921875 21.2664794921875 0 47.5 0 Z" stroke="none" fill="#ee70f7"/>
        </g>
      </g>
    </g>
    <g id="recovery_6159421" transform="translate(1239.837 3736.026)">
      <path id="Path_983157" data-name="Path 983157" d="M55.166,132.649A28.173,28.173,0,0,1,14,96.837a.131.131,0,0,1,.183-.054l2.681,1.553a.13.13,0,0,0,.2-.113l.013-10.08a.13.13,0,0,0-.2-.113L8.138,93.057a.13.13,0,0,0,0,.226l2.765,1.6a.13.13,0,0,1,.05.171,31.691,31.691,0,0,0,46.213,40.49l1.341-.926a.13.13,0,0,0,.033-.181l-1.852-2.683a.13.13,0,0,0-.181-.033Z" transform="translate(-6.544 -76.646)" fill="#8ac9fe"/>
      <path id="Path_983158" data-name="Path 983158" d="M155.085,39.35a31.689,31.689,0,0,0-49.666-26.093l-1.341.926a.13.13,0,0,0-.033.181l1.852,2.683a.13.13,0,0,0,.181.033l1.341-.926A28.172,28.172,0,0,1,148.6,51.943a.131.131,0,0,1-.183.055l-2.683-1.55a.13.13,0,0,0-.2.113l0,10.08a.13.13,0,0,0,.2.113l8.732-5.035a.13.13,0,0,0,0-.226l-2.767-1.6a.129.129,0,0,1-.05-.171,31.708,31.708,0,0,0,3.44-14.371Z" transform="translate(-90.758 -6.544)" fill="#8ac9fe"/>
      <path id="Path_983159" data-name="Path 983159" d="M132.474,107.754l-4.388-1.1a.139.139,0,0,1-.1-.094,17.175,17.175,0,0,0-1.266-3.053.139.139,0,0,1,0-.137l2.328-3.88a.14.14,0,0,0-.021-.171l-5.277-5.277a.14.14,0,0,0-.171-.021L119.7,96.352a.138.138,0,0,1-.137,0,17.171,17.171,0,0,0-3.053-1.266.139.139,0,0,1-.094-.1l-1.1-4.388a.14.14,0,0,0-.136-.106h-7.463a.14.14,0,0,0-.136.106l-1.1,4.388a.139.139,0,0,1-.094.1,17.188,17.188,0,0,0-3.053,1.266.138.138,0,0,1-.137,0l-3.88-2.328a.14.14,0,0,0-.171.021l-5.277,5.277a.14.14,0,0,0-.021.171l2.328,3.88a.138.138,0,0,1,0,.137,17.174,17.174,0,0,0-1.266,3.053.139.139,0,0,1-.1.094l-4.388,1.1a.14.14,0,0,0-.106.136v7.463a.14.14,0,0,0,.106.136l4.388,1.1a.139.139,0,0,1,.1.094,17.178,17.178,0,0,0,1.266,3.053.139.139,0,0,1,0,.137l-2.328,3.88a.14.14,0,0,0,.021.171l5.277,5.277a.14.14,0,0,0,.171.021l3.88-2.328a.138.138,0,0,1,.137,0,17.182,17.182,0,0,0,3.053,1.266.139.139,0,0,1,.094.1l1.1,4.388a.14.14,0,0,0,.136.106h7.463a.14.14,0,0,0,.136-.106l1.1-4.388a.139.139,0,0,1,.094-.1,17.175,17.175,0,0,0,3.053-1.266.138.138,0,0,1,.137,0l3.879,2.328a.14.14,0,0,0,.171-.021l5.277-5.277a.14.14,0,0,0,.021-.171l-2.328-3.88a.138.138,0,0,1,0-.137,17.174,17.174,0,0,0,1.266-3.053.139.139,0,0,1,.1-.094l4.388-1.1a.14.14,0,0,0,.106-.136v-7.463a.14.14,0,0,0-.106-.136Zm-21.018,10.389a6.781,6.781,0,1,1,6.781-6.781A6.781,6.781,0,0,1,111.457,118.142Z" transform="translate(-78.815 -78.814)" fill="#6fd7a3"/>
      <path id="Path_983160" data-name="Path 983160" d="M156.476,107.754l-4.388-1.1a.139.139,0,0,1-.1-.094,17.186,17.186,0,0,0-1.266-3.053.139.139,0,0,1,0-.137l2.328-3.88a.14.14,0,0,0-.021-.171l-5.277-5.277a.14.14,0,0,0-.171-.021l-3.88,2.328a.138.138,0,0,1-.137,0,17.171,17.171,0,0,0-3.053-1.266.139.139,0,0,1-.094-.1l-1.1-4.388a.14.14,0,0,0-.136-.106h-7.463a.14.14,0,0,0-.136.106l-.3,1.206a17.027,17.027,0,1,1-12.15,29.81l-1.277,2.129a.14.14,0,0,0,.021.171l5.277,5.277a.14.14,0,0,0,.171.021l3.88-2.328a.138.138,0,0,1,.137,0,17.165,17.165,0,0,0,3.053,1.266.139.139,0,0,1,.094.1l1.1,4.388a.14.14,0,0,0,.136.106h7.463a.14.14,0,0,0,.136-.106l1.1-4.388a.139.139,0,0,1,.094-.1,17.174,17.174,0,0,0,3.053-1.266.138.138,0,0,1,.137,0l3.88,2.328a.14.14,0,0,0,.171-.021l5.277-5.277a.14.14,0,0,0,.021-.171l-2.328-3.88a.138.138,0,0,1,0-.137,17.171,17.171,0,0,0,1.266-3.053.139.139,0,0,1,.1-.094l4.388-1.1a.14.14,0,0,0,.106-.136v-7.463A.14.14,0,0,0,156.476,107.754Z" transform="translate(-102.817 -78.814)" fill="#3ec3a4"/>
      <path id="Path_983161" data-name="Path 983161" d="M50.932,124.673a1.087,1.087,0,0,0-1.512-.278l-1.341.926a27.205,27.205,0,0,1-27.713,1.87A.956.956,0,0,0,19.5,128.9a29.118,29.118,0,0,0,29.666-2l.662-.457.914,1.323-.662.457A30.737,30.737,0,0,1,5.262,88.95a1.086,1.086,0,0,0-.423-1.433l-1.527-.885,6.257-3.6-.01,7.219-1.443-.836a1.088,1.088,0,0,0-1.517.453,29.122,29.122,0,0,0,8.888,36.564.956.956,0,0,0,1.129-1.544A27.21,27.21,0,0,1,7.928,91.517l1.91,1.107a1.087,1.087,0,0,0,1.631-.939l.013-10.08a1.087,1.087,0,0,0-1.629-.943L1.117,85.689a1.087,1.087,0,0,0,0,1.882L3.21,88.784A32.8,32.8,0,0,0,0,102.913a32.646,32.646,0,0,0,51.166,26.88l1.343-.927a1.088,1.088,0,0,0,.276-1.511Z" transform="translate(0 -70.107)"/>
      <path id="Path_983162" data-name="Path 983162" d="M148.4,48.12l-2.1-1.212A32.648,32.648,0,0,0,98.335,5.927l-1.342.926a1.088,1.088,0,0,0-.276,1.511l1.852,2.682a1.088,1.088,0,0,0,1.512.278l1.341-.926c.253-.174.513-.347.772-.514a.956.956,0,1,0-1.033-1.61c-.52.334-.831.553-1.487,1.006L98.76,7.958l.662-.457a30.733,30.733,0,0,1,48.166,25.306,30.862,30.862,0,0,1-3.336,13.938,1.086,1.086,0,0,0,.425,1.432l1.528.883-6.254,3.606,0-7.219,1.444.834a1.087,1.087,0,0,0,1.517-.455A29.131,29.131,0,0,0,116.859,3.685a28.919,28.919,0,0,0-11.5,2.358.956.956,0,1,0,.756,1.757,27.227,27.227,0,0,1,37.954,25.007,27.37,27.37,0,0,1-2.485,11.373l-1.911-1.1a1.087,1.087,0,0,0-1.63.941l0,10.079a1.087,1.087,0,0,0,1.629.943L148.4,50a1.087,1.087,0,0,0,0-1.882Z" transform="translate(-84.217 0)"/>
      <path id="Path_983163" data-name="Path 983163" d="M195.317,201.18a7.738,7.738,0,1,0,14.3-4.1.956.956,0,0,0-1.621,1.015,5.813,5.813,0,1,1-3.02-2.414.956.956,0,1,0,.63-1.806,7.742,7.742,0,0,0-10.288,7.307Z" transform="translate(-170.413 -168.633)"/>
      <path id="Path_983164" data-name="Path 983164" d="M83.664,100.282a1.1,1.1,0,0,0-.831,1.064v7.463a1.1,1.1,0,0,0,.83,1.064l3.946.987a18.192,18.192,0,0,0,.98,2.365L86.5,116.713a1.094,1.094,0,0,0,.165,1.339l5.278,5.278a1.1,1.1,0,0,0,1.338.164l3.489-2.093a18.2,18.2,0,0,0,2.365.981l.986,3.946a1.1,1.1,0,0,0,1.064.83h7.463a1.1,1.1,0,0,0,1.064-.83l.987-3.946a18.212,18.212,0,0,0,2.365-.98l3.489,2.093a1.1,1.1,0,0,0,1.339-.165l5.276-5.276a1.094,1.094,0,0,0,.166-1.34l-2.093-3.489a18.2,18.2,0,0,0,.981-2.365l3.946-.987a1.1,1.1,0,0,0,.83-1.064v-7.463a1.1,1.1,0,0,0-.83-1.064l-3.946-.987a18.2,18.2,0,0,0-.981-2.365l2.093-3.488a1.093,1.093,0,0,0-.164-1.34l-5.278-5.278a1.1,1.1,0,0,0-1.338-.164l-3.489,2.093a18.21,18.21,0,0,0-2.365-.98l-.987-3.946a1.1,1.1,0,0,0-1.064-.83h-7.463a1.1,1.1,0,0,0-1.064.83l-.986,3.946a18.178,18.178,0,0,0-2.365.981L93.277,86.66a1.1,1.1,0,0,0-1.339.165L86.663,92.1a1.094,1.094,0,0,0-.166,1.34L88.59,96.93a18.184,18.184,0,0,0-.98,2.365Zm5.633.016a16.255,16.255,0,0,1,1.2-2.883,1.1,1.1,0,0,0-.028-1.078l-2-3.333,4.376-4.376,3.334,2a1.1,1.1,0,0,0,1.077.027,16.251,16.251,0,0,1,2.882-1.2,1.1,1.1,0,0,0,.743-.782l.942-3.769h6.188l.943,3.77a1.1,1.1,0,0,0,.742.781,16.259,16.259,0,0,1,2.882,1.195,1.1,1.1,0,0,0,1.078-.027l3.333-2L121.361,93l-2,3.332a1.1,1.1,0,0,0-.028,1.079,16.27,16.27,0,0,1,1.195,2.882,1.1,1.1,0,0,0,.782.744l3.769.942v6.188l-3.769.942a1.1,1.1,0,0,0-.782.742,16.269,16.269,0,0,1-1.2,2.883,1.1,1.1,0,0,0,.028,1.078l2,3.333-4.376,4.376-3.334-2a1.1,1.1,0,0,0-1.077-.027,16.258,16.258,0,0,1-2.882,1.2,1.1,1.1,0,0,0-.743.782l-.942,3.769h-6.188l-.942-3.77a1.1,1.1,0,0,0-.742-.781,16.259,16.259,0,0,1-2.883-1.2,1.1,1.1,0,0,0-1.078.028l-3.333,2-4.376-4.376,2-3.332a1.1,1.1,0,0,0,.028-1.079,16.256,16.256,0,0,1-1.2-2.884,1.1,1.1,0,0,0-.781-.742l-3.769-.942v-6.188l3.769-.942a1.1,1.1,0,0,0,.781-.743Z" transform="translate(-72.271 -72.27)"/>
      <path id="Path_983165" data-name="Path 983165" d="M159.72,172.284a.956.956,0,0,0,.956-.956,10.5,10.5,0,0,1,10.486-10.486.956.956,0,0,0,0-1.913,12.412,12.412,0,0,0-12.4,12.4A.956.956,0,0,0,159.72,172.284Z" transform="translate(-138.52 -138.52)"/>
      <path id="Path_983166" data-name="Path 983166" d="M267.945,259.879a.956.956,0,0,0,.4,1.871,12.4,12.4,0,0,0,9.817-12.129.956.956,0,1,0-1.913,0A10.53,10.53,0,0,1,267.945,259.879Z" transform="translate(-233.118 -216.815)"/>
    </g>
  </g>
</svg>
