<svg xmlns="http://www.w3.org/2000/svg" xmlns:xlink="http://www.w3.org/1999/xlink" width="101.5" height="101.5" viewBox="0 0 101.5 101.5">
  <defs>
    <filter id="Path_982547" x="0" y="0" width="101.5" height="101.5" filterUnits="userSpaceOnUse">
      <feOffset dy="3" input="SourceAlpha"/>
      <feGaussianBlur stdDeviation="3" result="blur"/>
      <feFlood flood-opacity="0.161"/>
      <feComposite operator="in" in2="blur"/>
      <feComposite in="SourceGraphic"/>
    </filter>
  </defs>
  <g id="Group_1156468" data-name="Group 1156468" transform="translate(-192.377 -4096.167)">
    <g id="Group_1155995" data-name="Group 1155995" transform="translate(0 -169.007)">
      <g id="Group_1154230" data-name="Group 1154230" transform="translate(0 -6936.758)">
        <g id="Group_1149576" data-name="Group 1149576" transform="translate(-131.623 7497.754)">
          <g id="Group_1147086" data-name="Group 1147086" transform="translate(333 3710.178)">
            <g transform="matrix(1, 0, 0, 1, -9, -6)" filter="url(#Path_982547)">
              <g id="Path_982547-2" data-name="Path 982547" transform="translate(9 6)" fill="#fdeffe">
                <path d="M 41.75 82 C 36.31562423706055 82 31.04459953308105 80.93599700927734 26.08334159851074 78.83757781982422 C 21.29058837890625 76.81040191650391 16.98592948913574 73.90802001953125 13.28895282745361 70.21104431152344 C 9.591976165771484 66.51406860351562 6.689599990844727 62.20942306518555 4.662435531616211 57.41666030883789 C 2.563999891281128 52.45539855957031 1.5 47.18437576293945 1.5 41.75 C 1.5 36.31562423706055 2.563999891281128 31.04459953308105 4.662435531616211 26.08334159851074 C 6.689599990844727 21.29058837890625 9.591976165771484 16.98592948913574 13.28895282745361 13.28895282745361 C 16.98592948913574 9.591976165771484 21.29058837890625 6.689599990844727 26.08334159851074 4.662435531616211 C 31.04459953308105 2.563999891281128 36.31562423706055 1.5 41.75 1.5 C 47.18437576293945 1.5 52.45539855957031 2.563999891281128 57.41666030883789 4.662435531616211 C 62.20942306518555 6.689599990844727 66.51406860351562 9.591976165771484 70.21104431152344 13.28895282745361 C 73.90802001953125 16.98592948913574 76.81040191650391 21.29058837890625 78.83757781982422 26.08334159851074 C 80.93599700927734 31.04459953308105 82 36.31562423706055 82 41.75 C 82 47.18437576293945 80.93599700927734 52.45539855957031 78.83757781982422 57.41666030883789 C 76.81040191650391 62.20942306518555 73.90802001953125 66.51408386230469 70.21104431152344 70.21104431152344 C 66.51408386230469 73.90802001953125 62.20942306518555 76.81040191650391 57.41666030883789 78.83757781982422 C 52.45539855957031 80.93599700927734 47.18437576293945 82 41.75 82 Z" stroke="none"/>
                <path d="M 41.75 3 C 36.5174674987793 3 31.44303894042969 4.024131774902344 26.66767883300781 6.043930053710938 C 22.05370712280273 7.9954833984375 17.90931701660156 10.7899169921875 14.34961700439453 14.34961700439453 C 10.7899169921875 17.90931701660156 7.9954833984375 22.05370712280273 6.043930053710938 26.66767883300781 C 4.024131774902344 31.44303894042969 3 36.5174674987793 3 41.75 C 3 46.9825325012207 4.024131774902344 52.05697250366211 6.043930053710938 56.83233261108398 C 7.9954833984375 61.44629287719727 10.7899169921875 65.59069061279297 14.34961700439453 69.150390625 C 17.90931701660156 72.71009063720703 22.05370712280273 75.5045166015625 26.66767883300781 77.45606994628906 C 31.44303894042969 79.47586822509766 36.5174674987793 80.5 41.75 80.5 C 46.9825325012207 80.5 52.05697250366211 79.47586822509766 56.83233261108398 77.45606994628906 C 61.44629287719727 75.5045166015625 65.59069061279297 72.71009063720703 69.150390625 69.150390625 C 72.71009063720703 65.59069061279297 75.5045166015625 61.44629287719727 77.45606994628906 56.83233261108398 C 79.47586822509766 52.05697250366211 80.5 46.9825325012207 80.5 41.75 C 80.5 36.5174674987793 79.47586822509766 31.44303894042969 77.45606994628906 26.66767883300781 C 75.5045166015625 22.05370712280273 72.71009063720703 17.90931701660156 69.150390625 14.34961700439453 C 65.59069061279297 10.7899169921875 61.44629287719727 7.9954833984375 56.83233261108398 6.043930053710938 C 52.05697250366211 4.024131774902344 46.9825325012207 3 41.75 3 M 41.75 0 C 64.80789184570312 0 83.5 18.69212341308594 83.5 41.75 C 83.5 64.80789184570312 64.80789184570312 83.5 41.75 83.5 C 18.69212341308594 83.5 0 64.80789184570312 0 41.75 C 0 18.69212341308594 18.69212341308594 0 41.75 0 Z" stroke="none" fill="#ee70f7"/>
              </g>
            </g>
          </g>
        </g>
      </g>
      <g id="organizado" transform="translate(218.258 4281.691)">
        <g id="Group_1155983" data-name="Group 1155983" transform="translate(0.729 7.777)">
          <g id="Group_1155975" data-name="Group 1155975">
            <g id="Group_1155971" data-name="Group 1155971" transform="translate(38.619)">
              <g id="Group_1155969" data-name="Group 1155969">
                <path id="Path_993648" data-name="Path 993648" d="M412.234,14.548h-6.713a.486.486,0,0,0-.486.486V26.66a.486.486,0,0,0,.486.486h8.691a.486.486,0,0,0,.486-.486V17.012a.486.486,0,0,0-.142-.344l-1.978-1.978A.486.486,0,0,0,412.234,14.548Z" transform="translate(-405.035 -14.548)" fill="#dff6fd"/>
              </g>
              <g id="Group_1155970" data-name="Group 1155970" transform="translate(4.184 0)">
                <path id="Path_993649" data-name="Path 993649" d="M453.441,16.668l-1.978-1.978a.486.486,0,0,0-.344-.142h-3.015a.486.486,0,0,1,.344.142l1.978,1.978a.486.486,0,0,1,.142.343V26.66a.486.486,0,0,1-.486.486H453.1a.486.486,0,0,0,.486-.486V17.012A.486.486,0,0,0,453.441,16.668Z" transform="translate(-448.105 -14.548)" fill="#c8effe"/>
              </g>
            </g>
            <g id="Group_1155974" data-name="Group 1155974">
              <g id="Group_1155972" data-name="Group 1155972">
                <path id="Path_993650" data-name="Path 993650" d="M14.7,14.548H7.986a.486.486,0,0,0-.486.486V26.66a.486.486,0,0,0,.486.486h8.691a.486.486,0,0,0,.486-.486V17.012a.486.486,0,0,0-.142-.344L15.043,14.69a.486.486,0,0,0-.344-.142Z" transform="translate(-7.5 -14.548)" fill="#dff6fd"/>
              </g>
              <g id="Group_1155973" data-name="Group 1155973" transform="translate(4.139 0)">
                <path id="Path_993651" data-name="Path 993651" d="M55.485,16.668,53.508,14.69a.486.486,0,0,0-.344-.142H50.1a.486.486,0,0,1,.344.142l1.978,1.978a.486.486,0,0,1,.142.343V26.66a.486.486,0,0,1-.486.486h3.06a.486.486,0,0,0,.486-.486V17.012A.486.486,0,0,0,55.485,16.668Z" transform="translate(-50.104 -14.548)" fill="#c8effe"/>
              </g>
            </g>
          </g>
          <g id="Group_1155982" data-name="Group 1155982" transform="translate(0 34.315)">
            <g id="Group_1155978" data-name="Group 1155978" transform="translate(38.619)">
              <g id="Group_1155976" data-name="Group 1155976">
                <path id="Path_993652" data-name="Path 993652" d="M412.234,367.776h-6.713a.486.486,0,0,0-.486.486v11.626a.486.486,0,0,0,.486.486h8.691a.486.486,0,0,0,.486-.486V370.24a.486.486,0,0,0-.142-.344l-1.978-1.978A.486.486,0,0,0,412.234,367.776Z" transform="translate(-405.035 -367.776)" fill="#dff6fd"/>
              </g>
              <g id="Group_1155977" data-name="Group 1155977" transform="translate(4.184 0)">
                <path id="Path_993653" data-name="Path 993653" d="M453.441,369.9l-1.978-1.978a.486.486,0,0,0-.344-.142h-3.015a.486.486,0,0,1,.344.142l1.978,1.978a.486.486,0,0,1,.142.343v9.648a.486.486,0,0,1-.486.486H453.1a.486.486,0,0,0,.486-.486V370.24A.486.486,0,0,0,453.441,369.9Z" transform="translate(-448.105 -367.776)" fill="#c8effe"/>
              </g>
            </g>
            <g id="Group_1155981" data-name="Group 1155981">
              <g id="Group_1155979" data-name="Group 1155979">
                <path id="Path_993654" data-name="Path 993654" d="M14.7,367.776H7.986a.486.486,0,0,0-.486.486v11.626a.486.486,0,0,0,.486.486h8.691a.486.486,0,0,0,.486-.486V370.24a.486.486,0,0,0-.142-.344l-1.978-1.978a.486.486,0,0,0-.344-.142Z" transform="translate(-7.5 -367.776)" fill="#dff6fd"/>
              </g>
              <g id="Group_1155980" data-name="Group 1155980" transform="translate(4.139 0)">
                <path id="Path_993655" data-name="Path 993655" d="M55.485,369.9l-1.978-1.978a.486.486,0,0,0-.344-.142H50.1a.486.486,0,0,1,.344.142l1.978,1.978a.486.486,0,0,1,.142.343v9.648a.486.486,0,0,1-.486.486h3.06a.486.486,0,0,0,.486-.486V370.24A.485.485,0,0,0,55.485,369.9Z" transform="translate(-50.104 -367.776)" fill="#c8effe"/>
              </g>
            </g>
          </g>
        </g>
        <g id="Group_1155990" data-name="Group 1155990" transform="translate(14.054 21.8)">
          <g id="Group_1155989" data-name="Group 1155989">
            <g id="Group_1155984" data-name="Group 1155984">
              <path id="Path_993656" data-name="Path 993656" d="M155.47,162.75l-1.6-3.067a1.457,1.457,0,0,0-1.291-.782h-6.937a.971.971,0,0,0-.971.971v2.877Z" transform="translate(-144.667 -158.901)" fill="#ffc344"/>
            </g>
            <g id="Group_1155985" data-name="Group 1155985" transform="translate(4.521 0)">
              <path id="Path_993657" data-name="Path 993657" d="M195.88,159.683a1.457,1.457,0,0,0-1.291-.782H191.2a1.457,1.457,0,0,1,1.291.782l1.6,3.067h3.388Z" transform="translate(-191.201 -158.901)" fill="#feb237"/>
            </g>
            <g id="Group_1155986" data-name="Group 1155986" transform="translate(0 3.753)">
              <path id="Path_993658" data-name="Path 993658" d="M165.327,197.538h-20.66v10a4.582,4.582,0,0,1,7.042,5.108h13.618a.971.971,0,0,0,.971-.971V198.509A.971.971,0,0,0,165.327,197.538Z" transform="translate(-144.667 -197.538)" fill="#ffd15b"/>
            </g>
            <g id="Group_1155988" data-name="Group 1155988" transform="translate(16.612 3.753)">
              <g id="Group_1155987" data-name="Group 1155987">
                <path id="Path_993659" data-name="Path 993659" d="M319.714,197.538h-4.048a.971.971,0,0,1,.971.971v13.169a.971.971,0,0,1-.971.971h4.048a.971.971,0,0,0,.971-.971V198.509A.971.971,0,0,0,319.714,197.538Z" transform="translate(-315.666 -197.538)" fill="#ffc344"/>
              </g>
            </g>
          </g>
        </g>
        <g id="Group_1155993" data-name="Group 1155993" transform="translate(12.046 34.597)">
          <g id="Group_1155991" data-name="Group 1155991">
            <circle id="Ellipse_11710" data-name="Ellipse 11710" cx="4.681" cy="4.681" r="4.681" fill="#05e39c"/>
          </g>
          <g id="Group_1155992" data-name="Group 1155992" transform="translate(3.157 0)">
            <path id="Path_993660" data-name="Path 993660" d="M158.024,290.633a4.672,4.672,0,0,0-1.524.255,4.681,4.681,0,0,1,0,8.852,4.681,4.681,0,1,0,1.524-9.107Z" transform="translate(-156.5 -290.633)" fill="#0ed290"/>
          </g>
        </g>
        <g id="Group_1155994" data-name="Group 1155994" transform="translate(0 7.048)">
          <path id="Path_993661" data-name="Path 993661" d="M241.165,431.971h-.971a.729.729,0,0,0,0,1.457h.971a.729.729,0,0,0,0-1.457Z" transform="translate(-216.202 -390.691)"/>
          <path id="Path_993662" data-name="Path 993662" d="M171.165,431.971h-.971a.729.729,0,0,0,0,1.457h.971a.729.729,0,0,0,0-1.457Z" transform="translate(-153.002 -390.691)"/>
          <path id="Path_993663" data-name="Path 993663" d="M206.165,431.971h-.971a.729.729,0,0,0,0,1.457h.971a.729.729,0,0,0,0-1.457Z" transform="translate(-184.602 -390.691)"/>
          <path id="Path_993664" data-name="Path 993664" d="M136.165,431.971h-.971a.729.729,0,0,0,0,1.457h.971a.729.729,0,0,0,0-1.457Z" transform="translate(-121.402 -390.691)"/>
          <path id="Path_993665" data-name="Path 993665" d="M11.363,367.242H11.12v-3.773a1.206,1.206,0,0,0-.356-.859l-1.978-1.978a1.207,1.207,0,0,0-.859-.356H1.214A1.216,1.216,0,0,0,0,361.491v11.626a1.216,1.216,0,0,0,1.214,1.214h1.36a.729.729,0,0,0,0-1.457H1.457v-11.14h6.37l1.836,1.836v9.3H5.974a.729.729,0,1,0,0,1.457H9.905a1.216,1.216,0,0,0,1.214-1.214V368.7h.243a.729.729,0,1,0,0-1.457Z" transform="translate(0 -325.962)"/>
          <path id="Path_993666" data-name="Path 993666" d="M346.165,431.971h-.971a.729.729,0,0,0,0,1.457h.971a.729.729,0,0,0,0-1.457Z" transform="translate(-311.002 -390.691)"/>
          <path id="Path_993667" data-name="Path 993667" d="M311.165,431.971h-.971a.729.729,0,0,0,0,1.457h.971a.729.729,0,1,0,0-1.457Z" transform="translate(-279.402 -390.691)"/>
          <path id="Path_993668" data-name="Path 993668" d="M276.165,431.971h-.971a.729.729,0,0,0,0,1.457h.971a.729.729,0,1,0,0-1.457Z" transform="translate(-247.802 -390.691)"/>
          <path id="Path_993669" data-name="Path 993669" d="M213.264,66.486h.971a.729.729,0,0,0,0-1.457h-.971a.729.729,0,1,0,0,1.457Z" transform="translate(-191.888 -59.396)"/>
          <path id="Path_993670" data-name="Path 993670" d="M178.264,66.486h.971a.729.729,0,0,0,0-1.457h-.971a.729.729,0,1,0,0,1.457Z" transform="translate(-160.288 -59.396)"/>
          <path id="Path_993671" data-name="Path 993671" d="M143.264,66.486h.971a.729.729,0,1,0,0-1.457h-.971a.729.729,0,1,0,0,1.457Z" transform="translate(-128.688 -59.396)"/>
          <path id="Path_993672" data-name="Path 993672" d="M248.264,66.486h.971a.729.729,0,1,0,0-1.457h-.971a.729.729,0,0,0,0,1.457Z" transform="translate(-223.488 -59.396)"/>
          <path id="Path_993673" data-name="Path 993673" d="M283.264,66.486h.971a.729.729,0,1,0,0-1.457h-.971a.729.729,0,1,0,0,1.457Z" transform="translate(-255.088 -59.396)"/>
          <path id="Path_993674" data-name="Path 993674" d="M353.264,66.486h.971a.729.729,0,0,0,0-1.457h-.971a.729.729,0,0,0,0,1.457Z" transform="translate(-318.288 -59.396)"/>
          <path id="Path_993675" data-name="Path 993675" d="M318.264,66.486h.971a.729.729,0,1,0,0-1.457h-.971a.729.729,0,1,0,0,1.457Z" transform="translate(-286.688 -59.396)"/>
          <path id="Path_993676" data-name="Path 993676" d="M70.754,160.646a.439.439,0,0,1,.438.438v4.642l-.641-.641a.729.729,0,0,0-1.03,1.03L71.405,168a.729.729,0,0,0,1.03,0l1.884-1.884a.729.729,0,0,0-1.03-1.03l-.641.641v-4.643a1.9,1.9,0,0,0-1.9-1.9H64.2v-2.334a1.7,1.7,0,0,0-1.7-1.7H53.033l-1.349-2.58a2.18,2.18,0,0,0-1.937-1.173H42.81a1.7,1.7,0,0,0-1.7,1.7v4.77a.729.729,0,0,0,1.457,0v-1.259H62.5a.243.243,0,0,1,.243.243v13.169a.243.243,0,0,1-.243.243H49.879a5.406,5.406,0,0,0-7.312-5.705v-3.29a.729.729,0,1,0-1.457,0v1.318H34.554a.439.439,0,0,1-.438-.438v-4.642l.641.641a.729.729,0,1,0,1.03-1.03L33.9,155.234a.729.729,0,0,0-1.031,0l-1.884,1.884a.729.729,0,0,0,1.031,1.03l.641-.641v4.642a1.9,1.9,0,0,0,1.9,1.9H41.11v1.36a5.408,5.408,0,1,0,8.38,6.318H62.5a1.7,1.7,0,0,0,1.7-1.7v-9.378h6.556Zm-28.187-5.491V153.1a.243.243,0,0,1,.243-.243h6.937a.726.726,0,0,1,.646.391l1,1.905H42.567Zm1.945,18.406a3.952,3.952,0,1,1,3.952-3.952A3.957,3.957,0,0,1,44.512,173.56Z" transform="translate(-27.785 -137.378)"/>
          <path id="Path_993677" data-name="Path 993677" d="M399.272,9.381,397.294,7.4a1.206,1.206,0,0,0-.859-.356h-6.713a1.216,1.216,0,0,0-1.214,1.214v4.418h-.243a.729.729,0,1,0,0,1.457h.243v.969a.729.729,0,1,0,1.457,0v-6.6h6.37l1.836,1.836v9.3h-8.205V18.507a.729.729,0,1,0-1.457,0v1.382a1.216,1.216,0,0,0,1.214,1.214h8.691a1.216,1.216,0,0,0,1.214-1.214V10.24a1.208,1.208,0,0,0-.356-.859Z" transform="translate(-349.888 -7.048)"/>
          <path id="Path_993678" data-name="Path 993678" d="M430.092,46.673h3.479a.729.729,0,0,0,0-1.457h-3.479a.729.729,0,1,0,0,1.457Z" transform="translate(-387.652 -41.508)"/>
          <path id="Path_993679" data-name="Path 993679" d="M430.092,75.721h3.479a.729.729,0,0,0,0-1.457h-3.479a.729.729,0,1,0,0,1.457Z" transform="translate(-387.652 -67.734)"/>
          <path id="Path_993680" data-name="Path 993680" d="M430.092,104.769h1.664a.729.729,0,0,0,0-1.457h-1.664a.729.729,0,0,0,0,1.457Z" transform="translate(-387.652 -93.96)"/>
          <path id="Path_993681" data-name="Path 993681" d="M1.214,21.1H9.905a1.216,1.216,0,0,0,1.214-1.214V14.135l.055,0h.971a.729.729,0,1,0,0-1.457h-.971l-.055,0V10.24a1.206,1.206,0,0,0-.356-.859L8.786,7.4a1.207,1.207,0,0,0-.859-.356H1.214A1.216,1.216,0,0,0,0,8.262V19.888A1.216,1.216,0,0,0,1.214,21.1Zm.243-12.6h6.37l1.836,1.836v9.3H1.457Z" transform="translate(0 -7.048)"/>
          <path id="Path_993682" data-name="Path 993682" d="M36.036,45.216H32.558a.729.729,0,1,0,0,1.457h3.479a.729.729,0,1,0,0-1.457Z" transform="translate(-28.737 -41.508)"/>
          <path id="Path_993683" data-name="Path 993683" d="M36.036,74.264H32.558a.729.729,0,1,0,0,1.457h3.479a.729.729,0,1,0,0-1.457Z" transform="translate(-28.737 -67.734)"/>
          <path id="Path_993684" data-name="Path 993684" d="M34.222,103.312H32.558a.729.729,0,1,0,0,1.457h1.664a.729.729,0,1,0,0-1.457Z" transform="translate(-28.737 -93.96)"/>
          <path id="Path_993685" data-name="Path 993685" d="M390.007,360.633a1.207,1.207,0,0,0-.859-.356h-6.713a1.216,1.216,0,0,0-1.214,1.214v5.753l-.055,0h-.971a.729.729,0,1,0,0,1.457h.971l.055,0v4.421a1.216,1.216,0,0,0,1.214,1.214h8.691a1.216,1.216,0,0,0,1.214-1.214v-9.648a1.206,1.206,0,0,0-.356-.859Zm.876,12.242h-8.205v-11.14h6.37l1.836,1.836Z" transform="translate(-342.601 -325.962)"/>
          <path id="Path_993686" data-name="Path 993686" d="M433.57,398.444h-3.479a.729.729,0,1,0,0,1.457h3.479a.729.729,0,1,0,0-1.457Z" transform="translate(-387.652 -360.421)"/>
          <path id="Path_993687" data-name="Path 993687" d="M433.57,427.492h-3.479a.729.729,0,1,0,0,1.457h3.479a.729.729,0,1,0,0-1.457Z" transform="translate(-387.652 -386.648)"/>
          <path id="Path_993688" data-name="Path 993688" d="M431.756,456.54h-1.664a.729.729,0,0,0,0,1.457h1.664a.729.729,0,0,0,0-1.457Z" transform="translate(-387.652 -412.874)"/>
          <path id="Path_993689" data-name="Path 993689" d="M32.558,399.9h3.479a.729.729,0,1,0,0-1.457H32.558a.729.729,0,1,0,0,1.457Z" transform="translate(-28.737 -360.421)"/>
          <path id="Path_993690" data-name="Path 993690" d="M32.558,428.949h3.479a.729.729,0,0,0,0-1.457H32.558a.729.729,0,0,0,0,1.457Z" transform="translate(-28.737 -386.648)"/>
          <path id="Path_993691" data-name="Path 993691" d="M34.951,457.269a.729.729,0,0,0-.729-.729H32.558a.729.729,0,0,0,0,1.457h1.664A.729.729,0,0,0,34.951,457.269Z" transform="translate(-28.737 -412.874)"/>
          <path id="Path_993692" data-name="Path 993692" d="M145.768,318.966l-2.151,2.247-1.2-1.255a.729.729,0,1,0-1.053,1.008l1.727,1.8a.729.729,0,0,0,1.053,0l2.677-2.8a.729.729,0,0,0-1.053-1.008Z" transform="translate(-127.448 -288.461)"/>
        </g>
      </g>
    </g>
  </g>
</svg>
