<svg xmlns="http://www.w3.org/2000/svg" xmlns:xlink="http://www.w3.org/1999/xlink" width="108" height="108" viewBox="0 0 108 108">
  <defs>
    <filter id="Path_982538" x="0" y="0" width="108" height="108" filterUnits="userSpaceOnUse">
      <feOffset dy="3" input="SourceAlpha"/>
      <feGaussianBlur stdDeviation="3" result="blur"/>
      <feFlood flood-opacity="0.161"/>
      <feComposite operator="in" in2="blur"/>
      <feComposite in="SourceGraphic"/>
    </filter>
  </defs>
  <g id="Group_1156457" data-name="Group 1156457" transform="translate(-617.623 -534)">
    <g id="Group_1154951" data-name="Group 1154951" transform="translate(0 -28)">
      <g id="Group_1154221" data-name="Group 1154221" transform="translate(0.623 -9020)">
        <g id="Group_1149573" data-name="Group 1149573" transform="translate(416 5416.88)">
          <g id="Group_1146955" data-name="Group 1146955" transform="translate(0 1196.12)">
            <g transform="matrix(1, 0, 0, 1, 201, 2969)" filter="url(#Path_982538)">
              <g id="Path_982538-2" data-name="Path 982538" transform="translate(9 6)" fill="#eaf4fb">
                <path d="M 45 88.5 C 39.12687683105469 88.5 33.43022537231445 87.35007476806641 28.06830024719238 85.08217620849609 C 22.88852500915527 82.89131164550781 18.23629951477051 79.75458526611328 14.2408504486084 75.75914764404297 C 10.24541282653809 71.76370239257812 7.108687400817871 67.11147308349609 4.917825222015381 61.93170166015625 C 2.649924993515015 56.56977462768555 1.5 50.87312316894531 1.5 45 C 1.5 39.12687683105469 2.649924993515015 33.43022537231445 4.917825222015381 28.06830024719238 C 7.108687400817871 22.88852500915527 10.24541282653809 18.23629951477051 14.2408504486084 14.2408504486084 C 18.23629951477051 10.24541282653809 22.88852500915527 7.108687400817871 28.06830024719238 4.917825222015381 C 33.43022537231445 2.649924993515015 39.12687683105469 1.5 45 1.5 C 50.87312316894531 1.5 56.56977462768555 2.649924993515015 61.93170166015625 4.917825222015381 C 67.11147308349609 7.108687400817871 71.76370239257812 10.24541282653809 75.75914764404297 14.2408504486084 C 79.75458526611328 18.23629951477051 82.89131164550781 22.88852500915527 85.08217620849609 28.06830024719238 C 87.35007476806641 33.43022537231445 88.5 39.12687683105469 88.5 45 C 88.5 50.87312316894531 87.35007476806641 56.56977462768555 85.08217620849609 61.93170166015625 C 82.89131164550781 67.11147308349609 79.75458526611328 71.76370239257812 75.75914764404297 75.75914764404297 C 71.76370239257812 79.75458526611328 67.11147308349609 82.89131164550781 61.93170166015625 85.08217620849609 C 56.56977462768555 87.35007476806641 50.87312316894531 88.5 45 88.5 Z" stroke="none"/>
                <path d="M 45 3 C 39.32871246337891 3 33.82865524291992 4.110054016113281 28.65262985229492 6.299339294433594 C 23.65165710449219 8.414573669433594 19.15968322753906 11.44334411621094 15.301513671875 15.301513671875 C 11.44334411621094 19.15968322753906 8.414573669433594 23.65165710449219 6.299339294433594 28.65262985229492 C 4.110054016113281 33.82865524291992 3 39.32871246337891 3 45 C 3 50.67128753662109 4.110054016113281 56.17134475708008 6.299339294433594 61.34737396240234 C 8.414573669433594 66.34834289550781 11.44334411621094 70.84031677246094 15.301513671875 74.698486328125 C 19.15968322753906 78.55665588378906 23.65165710449219 81.58542633056641 28.65262985229492 83.70066070556641 C 33.82865524291992 85.88994598388672 39.32871246337891 87 45 87 C 50.67128753662109 87 56.17134475708008 85.88994598388672 61.34737396240234 83.70066070556641 C 66.34834289550781 81.58542633056641 70.84031677246094 78.55665588378906 74.698486328125 74.698486328125 C 78.55665588378906 70.84031677246094 81.58542633056641 66.34834289550781 83.70066070556641 61.34737396240234 C 85.88994598388672 56.17134475708008 87 50.67128753662109 87 45 C 87 39.32871246337891 85.88994598388672 33.82865524291992 83.70066070556641 28.65262985229492 C 81.58542633056641 23.65165710449219 78.55665588378906 19.15968322753906 74.698486328125 15.301513671875 C 70.84031677246094 11.44334411621094 66.34834289550781 8.414573669433594 61.34737396240234 6.299339294433594 C 56.17134475708008 4.110054016113281 50.67128753662109 3 45 3 M 45 0 C 69.85281372070312 0 90 20.14718627929688 90 45 C 90 69.85281372070312 69.85281372070312 90 45 90 C 20.14718627929688 90 0 69.85281372070312 0 45 C 0 20.14718627929688 20.14718627929688 0 45 0 Z" stroke="none" fill="#3c97da"/>
              </g>
            </g>
          </g>
        </g>
      </g>
      <g id="ibm" transform="translate(645.623 587)">
        <path id="Path_992026" data-name="Path 992026" d="M56.729,58.651H8.382a1.229,1.229,0,0,1-1.225-1.225V9.079A1.229,1.229,0,0,1,8.382,7.854H56.729a1.229,1.229,0,0,1,1.225,1.225V57.426A1.229,1.229,0,0,1,56.729,58.651Z" transform="translate(-6.427 -7.052)" fill="#579add"/>
        <path id="Path_992027" data-name="Path 992027" d="M9.2,57.426V9.079a1.229,1.229,0,0,1,1.225-1.225H8.382A1.229,1.229,0,0,0,7.157,9.079V57.426a1.229,1.229,0,0,0,1.225,1.225h2.041A1.228,1.228,0,0,1,9.2,57.426Z" transform="translate(-6.427 -7.052)" fill="#4987ce"/>
        <path id="Path_992028" data-name="Path 992028" d="M63.485,176.992a.151.151,0,0,0,.151-.151v-.785a.183.183,0,0,0-.183-.183H55.747a.071.071,0,0,0-.071.071v.969a.079.079,0,0,0,.079.079Z" transform="translate(-49.993 -157.922)"/>
        <path id="Path_992029" data-name="Path 992029" d="M56.394,326.282h7.742a.111.111,0,0,0,.111-.111v-.895a.114.114,0,0,0-.114-.113H56.378a.09.09,0,0,0-.091.09v.922A.107.107,0,0,0,56.394,326.282Z" transform="translate(-50.542 -291.975)"/>
        <path id="Path_992030" data-name="Path 992030" d="M167.12,240.873a.1.1,0,0,0,.1.1h8.634a.2.2,0,0,0,.126-.045,3.892,3.892,0,0,0,.864-.968.072.072,0,0,0-.063-.106h-9.549a.112.112,0,0,0-.112.112v.907Z" transform="translate(-150.063 -215.373)"/>
        <path id="Path_992031" data-name="Path 992031" d="M55.676,198.132a.182.182,0,0,0,.182.182h7.559a.219.219,0,0,0,.219-.219v-.689a.211.211,0,0,0-.211-.211H55.876a.2.2,0,0,0-.2.2Z" transform="translate(-49.993 -177.068)"/>
        <path id="Path_992032" data-name="Path 992032" d="M78.2,282.5a.112.112,0,0,0-.112.112v.882a.125.125,0,0,0,.125.125h3.224a.1.1,0,0,0,.1-.1v-.918a.1.1,0,0,0-.1-.1Z" transform="translate(-70.116 -253.669)"/>
        <path id="Path_992033" data-name="Path 992033" d="M81.534,240.006a.152.152,0,0,0-.152-.152H78.24a.154.154,0,0,0-.154.154v.824a.141.141,0,0,0,.141.141h3.159a.148.148,0,0,0,.148-.148Z" transform="translate(-70.116 -215.373)"/>
        <path id="Path_992034" data-name="Path 992034" d="M81.534,218.654a.139.139,0,0,0-.139-.139H78.2a.116.116,0,0,0-.116.116v.876a.129.129,0,0,0,.129.129h3.23a.089.089,0,0,0,.089-.089v-.893Z" transform="translate(-70.117 -196.212)"/>
        <path id="Path_992035" data-name="Path 992035" d="M167.12,283.5a.124.124,0,0,0,.124.124h3.2a.122.122,0,0,0,.122-.122V282.6a.1.1,0,0,0-.1-.1h-3.208a.136.136,0,0,0-.136.136v.859h0Z" transform="translate(-150.063 -253.668)"/>
        <path id="Path_992036" data-name="Path 992036" d="M81.534,261.316a.135.135,0,0,0-.135-.135H78.22a.133.133,0,0,0-.133.133v.833a.153.153,0,0,0,.154.153h3.13a.164.164,0,0,0,.164-.164v-.819Z" transform="translate(-70.117 -234.523)"/>
        <path id="Path_992037" data-name="Path 992037" d="M167.27,219.637h3.2a.094.094,0,0,0,.094-.094v-.916a.111.111,0,0,0-.111-.111h-3.223a.113.113,0,0,0-.113.113v.86A.147.147,0,0,0,167.27,219.637Z" transform="translate(-150.064 -196.213)"/>
        <path id="Path_992038" data-name="Path 992038" d="M167.119,262.176a.123.123,0,0,0,.123.123h9.547a.066.066,0,0,0,.058-.1,3.855,3.855,0,0,0-.853-.964.246.246,0,0,0-.158-.057H167.23a.111.111,0,0,0-.111.111v.885Z" transform="translate(-150.062 -234.522)"/>
        <path id="Path_992039" data-name="Path 992039" d="M374.464,218.575l-.342.939a.091.091,0,0,0,.085.122h5.921a.091.091,0,0,0,.091-.091v-.939a.091.091,0,0,0-.091-.091H374.55A.091.091,0,0,0,374.464,218.575Z" transform="translate(-335.932 -196.212)"/>
        <path id="Path_992040" data-name="Path 992040" d="M382.07,197.272l-.316.936a.091.091,0,0,0,.086.12h7.368a.091.091,0,0,0,.091-.091V197.3a.091.091,0,0,0-.091-.091h-7.052A.091.091,0,0,0,382.07,197.272Z" transform="translate(-342.785 -177.081)"/>
        <path id="Path_992041" data-name="Path 992041" d="M396.138,175.873H389.9a.091.091,0,0,0-.085.06l-.341.938a.091.091,0,0,0,.085.122h6.58a.091.091,0,0,0,.091-.091v-.938A.091.091,0,0,0,396.138,175.873Z" transform="translate(-349.716 -157.922)"/>
        <path id="Path_992042" data-name="Path 992042" d="M305.786,218.575a.091.091,0,0,0-.085-.06h-5.506a.135.135,0,0,0-.135.135v.817a.169.169,0,0,0,.169.169h5.813a.091.091,0,0,0,.085-.122Z" transform="translate(-269.434 -196.212)"/>
        <path id="Path_992043" data-name="Path 992043" d="M144.71,197.35v.849a.129.129,0,0,0,.129.129h12.419a.092.092,0,0,0,.09-.11,3.017,3.017,0,0,0-.326-.935.175.175,0,0,0-.144-.072H144.85A.14.14,0,0,0,144.71,197.35Z" transform="translate(-129.94 -177.081)"/>
        <path id="Path_992044" data-name="Path 992044" d="M284.376,176.99a.091.091,0,0,0,.085-.122l-.341-.938a.091.091,0,0,0-.085-.06h-6.267a.125.125,0,0,0-.125.125v.867a.127.127,0,0,0,.127.127Z" transform="translate(-249.305 -157.92)"/>
        <path id="Path_992045" data-name="Path 992045" d="M144.832,175.872a.122.122,0,0,0-.122.122v.856a.141.141,0,0,0,.141.141h11.014a.07.07,0,0,0,.045-.125,4.233,4.233,0,0,0-2.55-.995h-8.528Z" transform="translate(-129.94 -157.921)"/>
        <path id="Path_992046" data-name="Path 992046" d="M363.222,325.164a.037.037,0,0,0-.035.05l.381,1.066h.068l.392-1.079a.028.028,0,0,0-.027-.038Z" transform="translate(-326.115 -291.976)"/>
        <path id="Path_992047" data-name="Path 992047" d="M345.484,262.24l.332-.938a.091.091,0,0,0-.086-.121h-5.289a.091.091,0,0,0-.085.122l.35.938a.091.091,0,0,0,.085.059H345.4A.091.091,0,0,0,345.484,262.24Z" transform="translate(-305.612 -234.523)"/>
        <path id="Path_992048" data-name="Path 992048" d="M351.571,283.562l.341-.938a.091.091,0,0,0-.085-.122H348.1a.091.091,0,0,0-.085.121l.338.938a.091.091,0,0,0,.085.06h3.046A.09.09,0,0,0,351.571,283.562Z" transform="translate(-312.49 -253.669)"/>
        <path id="Path_992049" data-name="Path 992049" d="M307.229,239.914l-.237.653a.091.091,0,0,1-.17,0l-.238-.653a.091.091,0,0,0-.085-.06h-6.3a.139.139,0,0,0-.139.139v.824a.156.156,0,0,0,.156.156h3.2a.091.091,0,0,0,.091-.091.091.091,0,0,1,.176-.03l.021.06a.091.091,0,0,0,.086.061h6.188a.091.091,0,0,0,.085-.059l.037-.1a.091.091,0,0,1,.176.032v.035a.091.091,0,0,0,.091.091h3.265a.091.091,0,0,0,.091-.091v-.938a.091.091,0,0,0-.091-.091h-6.316A.091.091,0,0,0,307.229,239.914Z" transform="translate(-269.433 -215.373)"/>
        <path id="Path_992050" data-name="Path 992050" d="M357.711,304.885l.326-.939a.091.091,0,0,0-.086-.12H355.79a.091.091,0,0,0-.085.122l.348.939a.091.091,0,0,0,.085.059h1.488A.091.091,0,0,0,357.711,304.885Z" transform="translate(-319.394 -272.815)"/>
        <path id="Path_992051" data-name="Path 992051" d="M400.233,262.3H403.5a.091.091,0,0,0,.091-.091v-.938a.091.091,0,0,0-.091-.091h-3.265a.091.091,0,0,0-.091.091v.938A.091.091,0,0,0,400.233,262.3Z" transform="translate(-359.301 -234.522)"/>
        <path id="Path_992052" data-name="Path 992052" d="M64.248,303.907a.083.083,0,0,0-.083-.083H56.37a.082.082,0,0,0-.082.082v.929a.11.11,0,0,0,.11.11h7.775a.075.075,0,0,0,.075-.075Z" transform="translate(-50.543 -272.814)"/>
        <path id="Path_992053" data-name="Path 992053" d="M405.785,325.164h-5.553a.091.091,0,0,0-.091.091v.938a.091.091,0,0,0,.091.091h5.553a.091.091,0,0,0,.091-.091v-.938A.091.091,0,0,0,405.785,325.164Z" transform="translate(-359.3 -291.976)"/>
        <path id="Path_992054" data-name="Path 992054" d="M400.142,283.531a.091.091,0,0,0,.091.091H403.5a.091.091,0,0,0,.091-.091v-.938a.091.091,0,0,0-.091-.091h-3.265a.091.091,0,0,0-.091.091Z" transform="translate(-359.301 -253.669)"/>
        <path id="Path_992055" data-name="Path 992055" d="M303.505,261.272a.091.091,0,0,0-.091-.091h-3.2a.152.152,0,0,0-.152.152v.795a.173.173,0,0,0,.173.173h3.183a.091.091,0,0,0,.091-.091Z" transform="translate(-269.433 -234.523)"/>
        <path id="Path_992056" data-name="Path 992056" d="M405.875,303.915a.091.091,0,0,0-.091-.091h-5.553a.091.091,0,0,0-.091.091v.939a.091.091,0,0,0,.091.091h5.553a.091.091,0,0,0,.091-.091v-.939Z" transform="translate(-359.3 -272.814)"/>
        <path id="Path_992057" data-name="Path 992057" d="M237.337,218.515h-3.493a.1.1,0,0,0-.1.1v.925a.1.1,0,0,0,.1.1h3.281a.1.1,0,0,0,.094-.067,3.83,3.83,0,0,0,.194-.98A.072.072,0,0,0,237.337,218.515Z" transform="translate(-209.887 -196.212)"/>
        <path id="Path_992058" data-name="Path 992058" d="M237.407,283.514a3.857,3.857,0,0,0-.188-.929.119.119,0,0,0-.113-.082h-3.223a.139.139,0,0,0-.139.139v.823a.158.158,0,0,0,.158.158h3.4A.1.1,0,0,0,237.407,283.514Z" transform="translate(-209.887 -253.669)"/>
        <path id="Path_992059" data-name="Path 992059" d="M157.01,304.891a3.007,3.007,0,0,0,.345-.988.066.066,0,0,0-.065-.079H144.809a.1.1,0,0,0-.1.1v.924a.1.1,0,0,0,.1.1H156.9A.135.135,0,0,0,157.01,304.891Z" transform="translate(-129.94 -272.814)"/>
        <path id="Path_992060" data-name="Path 992060" d="M144.824,325.164a.114.114,0,0,0-.114.114v.9a.1.1,0,0,0,.1.1h8.546a4.249,4.249,0,0,0,2.574-1.012.06.06,0,0,0-.039-.105Z" transform="translate(-129.94 -291.976)"/>
        <path id="Path_992061" data-name="Path 992061" d="M277.643,198.206a.122.122,0,0,0,.122.122h7.366a.091.091,0,0,0,.086-.12l-.316-.936a.091.091,0,0,0-.086-.062h-7.031a.142.142,0,0,0-.142.142Z" transform="translate(-249.305 -177.082)"/>
        <path id="Path_992062" data-name="Path 992062" d="M283.928,303.894a.07.07,0,0,0-.07-.07h-5.485a.117.117,0,0,0-.116.116v.872a.132.132,0,0,0,.132.132h5.469a.07.07,0,0,0,.07-.07v-.981Z" transform="translate(-249.855 -272.814)"/>
        <path id="Path_992063" data-name="Path 992063" d="M303.5,282.593a.091.091,0,0,0-.091-.091h-3.2a.157.157,0,0,0-.157.157v.812a.151.151,0,0,0,.151.151h3.2a.091.091,0,0,0,.091-.091v-.938h0Z" transform="translate(-269.432 -253.668)"/>
        <path id="Path_992064" data-name="Path 992064" d="M278.373,325.163a.117.117,0,0,0-.117.117v.887a.115.115,0,0,0,.115.115h5.507a.051.051,0,0,0,.051-.051v-1a.065.065,0,0,0-.065-.064Z" transform="translate(-249.855 -291.975)"/>
        <path id="Path_992065" data-name="Path 992065" d="M289.119,0H266.767a.766.766,0,1,0,0,1.531h22.352a.465.465,0,0,1,.459.459V24.343a.766.766,0,1,0,1.531,0V1.99A1.992,1.992,0,0,0,289.119,0Z" transform="translate(-238.851)"/>
        <path id="Path_992066" data-name="Path 992066" d="M51.493,27.151a.765.765,0,0,0-.765.766V50.268a.465.465,0,0,1-.459.459H1.99a.465.465,0,0,1-.459-.459V1.991a.465.465,0,0,1,.459-.459H24.343a.766.766,0,0,0,0-1.531H1.99A1.993,1.993,0,0,0,0,1.991V50.269a1.993,1.993,0,0,0,1.99,1.99H50.268a1.993,1.993,0,0,0,1.99-1.99V27.916A.766.766,0,0,0,51.493,27.151Z" transform="translate(0 -0.001)"/>
      </g>
    </g>
  </g>
</svg>
