<svg xmlns="http://www.w3.org/2000/svg" xmlns:xlink="http://www.w3.org/1999/xlink" width="113" height="113" viewBox="0 0 113 113">
  <defs>
    <filter id="Path_982547" x="0" y="0" width="113" height="113" filterUnits="userSpaceOnUse">
      <feOffset dy="3" input="SourceAlpha"/>
      <feGaussianBlur stdDeviation="3" result="blur"/>
      <feFlood flood-opacity="0.161"/>
      <feComposite operator="in" in2="blur"/>
      <feComposite in="SourceGraphic"/>
    </filter>
  </defs>
  <g id="Group_1148612" data-name="Group 1148612" transform="translate(-271.328 -3715.333)">
    <g id="Group_1148525" data-name="Group 1148525" transform="translate(280.328 3721.333)">
      <g transform="matrix(1, 0, 0, 1, -9, -6)" filter="url(#Path_982547)">
        <g id="Path_982547-2" data-name="Path 982547" transform="translate(9 6)" fill="#fdeffe">
          <path d="M 47.5 93.5 C 41.28937149047852 93.5 35.26533508300781 92.28397369384766 29.59518623352051 89.88570404052734 C 24.11771965026855 87.56893157958984 19.19813346862793 84.25196075439453 14.97309303283691 80.02691650390625 C 10.74804019927979 75.80186462402344 7.431066513061523 70.88229370117188 5.114293098449707 65.40481567382812 C 2.716026782989502 59.73468017578125 1.5 53.71062850952148 1.5 47.5 C 1.5 41.28937149047852 2.716026782989502 35.26533508300781 5.114293098449707 29.59518623352051 C 7.431066513061523 24.11771965026855 10.74804019927979 19.19813346862793 14.97309303283691 14.97309303283691 C 19.19813346862793 10.74804019927979 24.11771965026855 7.431066513061523 29.59518623352051 5.114293098449707 C 35.26533508300781 2.716026782989502 41.28937149047852 1.5 47.5 1.5 C 53.71062850952148 1.5 59.73468017578125 2.716026782989502 65.40481567382812 5.114293098449707 C 70.88229370117188 7.431066513061523 75.80186462402344 10.74804019927979 80.02691650390625 14.97309303283691 C 84.25196075439453 19.19813346862793 87.56893157958984 24.11771965026855 89.88570404052734 29.59518623352051 C 92.28397369384766 35.26533508300781 93.5 41.28937149047852 93.5 47.5 C 93.5 53.71062850952148 92.28397369384766 59.73468017578125 89.88570404052734 65.40481567382812 C 87.56893157958984 70.88229370117188 84.25196075439453 75.80186462402344 80.02691650390625 80.02691650390625 C 75.80186462402344 84.25196075439453 70.88229370117188 87.56893157958984 65.40481567382812 89.88570404052734 C 59.73468017578125 92.28397369384766 53.71062850952148 93.5 47.5 93.5 Z" stroke="none"/>
          <path d="M 47.5 3 C 41.49121475219727 3 35.66376876831055 4.176155090332031 30.17950439453125 6.495796203613281 C 24.88084411621094 8.736953735351562 20.12152099609375 11.94598388671875 16.03375244140625 16.03375244140625 C 11.94598388671875 20.12152099609375 8.736953735351562 24.88084411621094 6.495796203613281 30.17950439453125 C 4.176155090332031 35.66376876831055 3 41.49121475219727 3 47.5 C 3 53.50878524780273 4.176155090332031 59.33623123168945 6.495796203613281 64.82049560546875 C 8.736953735351562 70.11915588378906 11.94598388671875 74.87847900390625 16.03375244140625 78.96624755859375 C 20.12152099609375 83.05401611328125 24.88084411621094 86.26304626464844 30.17950439453125 88.50419616699219 C 35.66376876831055 90.82384490966797 41.49121475219727 92 47.5 92 C 53.50878524780273 92 59.33623123168945 90.82384490966797 64.82049560546875 88.50419616699219 C 70.11915588378906 86.26304626464844 74.87847900390625 83.05401611328125 78.96624755859375 78.96624755859375 C 83.05401611328125 74.87847900390625 86.26304626464844 70.11915588378906 88.50419616699219 64.82049560546875 C 90.82384490966797 59.33623123168945 92 53.50878524780273 92 47.5 C 92 41.49121475219727 90.82384490966797 35.66376876831055 88.50419616699219 30.17950439453125 C 86.26304626464844 24.88084411621094 83.05401611328125 20.12152099609375 78.96624755859375 16.03375244140625 C 74.87847900390625 11.94598388671875 70.11915588378906 8.736953735351562 64.82049560546875 6.495796203613281 C 59.33623123168945 4.176155090332031 53.50878524780273 3 47.5 3 M 47.5 0 C 73.7335205078125 0 95 21.2664794921875 95 47.5 C 95 73.7335205078125 73.7335205078125 95 47.5 95 C 21.2664794921875 95 0 73.7335205078125 0 47.5 C 0 21.2664794921875 21.2664794921875 0 47.5 0 Z" stroke="none" fill="#ee70f7"/>
        </g>
      </g>
    </g>
    <g id="Filled_outline" data-name="Filled outline" transform="translate(298.324 3737.313)">
      <g id="Original" transform="translate(3.025 2.983)">
        <path id="Path_983104" data-name="Path 983104" d="M51.19,24.735h-.983a9.835,9.835,0,0,0-13.621-9.077,10.818,10.818,0,0,0-20.653,2.2h-.148A6.884,6.884,0,0,0,8.9,24.744a4.336,4.336,0,0,0,0,.511,8.851,8.851,0,0,0,2.95,17.181H51.19a8.851,8.851,0,0,0,0-17.7Z" transform="translate(-3.042 -3.098)" fill="#3fa9f5"/>
        <g id="Group_1148609" data-name="Group 1148609" transform="translate(1.729 16.237)" opacity="0.3">
          <path id="Path_983105" data-name="Path 983105" d="M48.875,19.844c-.089-.108-.177-.226-.275-.334v.334Z" transform="translate(-5.525 -19.51)"/>
          <path id="Path_983106" data-name="Path 983106" d="M59.087,30.37a9.913,9.913,0,0,1-10.031,8.969H4.8a8.989,8.989,0,0,0,7.081,3.452H51.219A8.694,8.694,0,0,0,60.07,34.3,8.133,8.133,0,0,0,59.087,30.37Z" transform="translate(-4.8 -19.69)"/>
        </g>
        <path id="Path_983107" data-name="Path 983107" d="M34,3H51.7V38.4H34Z" transform="translate(-3.554 -3)" fill="#f8a747"/>
        <g id="Group_1148610" data-name="Group 1148610" transform="translate(34.38 11.801)">
          <path id="Path_983108" data-name="Path 983108" d="M38,15h9.835v3.934H38Z" transform="translate(-38 -15)" fill="#3fa9f5"/>
          <path id="Path_983109" data-name="Path 983109" d="M38,23h9.835v3.934H38Z" transform="translate(-38 -15.132)" fill="#3fa9f5"/>
          <path id="Path_983110" data-name="Path 983110" d="M38,31h9.835v3.934H38Z" transform="translate(-38 -15.265)" fill="#3fa9f5"/>
        </g>
        <circle id="Ellipse_11582" data-name="Ellipse 11582" cx="0.983" cy="0.983" r="0.983" transform="translate(38.314 3.934)" fill="#c69c6d"/>
        <circle id="Ellipse_11583" data-name="Ellipse 11583" cx="1.967" cy="1.967" r="1.967" transform="translate(15.694 16.719)" fill="#f8a747"/>
        <circle id="Ellipse_11584" data-name="Ellipse 11584" cx="1.967" cy="1.967" r="1.967" transform="translate(19.628 10.818)" fill="#f8a747"/>
        <circle id="Ellipse_11585" data-name="Ellipse 11585" cx="1.967" cy="1.967" r="1.967" transform="translate(23.562 16.719)" fill="#f8a747"/>
        <g id="Group_1148611" data-name="Group 1148611" transform="translate(30.446)" opacity="0.3">
          <path id="Path_983111" data-name="Path 983111" d="M45.8,3V20.7A11.8,11.8,0,0,1,34,32.5v5.9H51.7V3Z" transform="translate(-34 -3)"/>
        </g>
      </g>
      <g id="expand_outline" data-name="expand outline" transform="translate(2 2)">
        <path id="Path_983112" data-name="Path 983112" d="M52.156,23.685V2.983A.983.983,0,0,0,51.173,2h-17.7a.983.983,0,0,0-.983.983v6.5a11.8,11.8,0,0,0-17.329,7.268A7.868,7.868,0,0,0,7.9,24.472,9.835,9.835,0,0,0,9.868,43.1v3.639L3.4,51.34a.983.983,0,0,0-.413.816v5.2a1.967,1.967,0,1,0,1.967,0V52.638l6.432-4.6a.983.983,0,0,0,.452-.8V43.305h3.934v3.531l-4.612,4.6a.983.983,0,0,0-.3.718v5.212a1.95,1.95,0,1,0,1.967-.02V52.54l4.6-4.6a.983.983,0,0,0,.315-.7V43.305h3.934V57.349a1.967,1.967,0,1,0,1.967,0V43.305H27.57v3.934a.983.983,0,0,0,.413.8l6.471,4.622v4.691a1.967,1.967,0,1,0,1.967,0V52.156a.983.983,0,0,0-.413-.8l-6.471-4.622V43.305H51.173a9.835,9.835,0,0,0,.983-19.62ZM34.454,3.967H50.189V37.4H34.454ZM51.173,41.338H29.537V33.185a1.953,1.953,0,1,0-1.967.02v8.133H23.636V33.2a1.967,1.967,0,1,0-1.967,0v8.143H17.735V33.225a1.967,1.967,0,1,0-1.967,0v8.114H11.835V33.225a1.967,1.967,0,1,0-1.967,0v7.868a7.868,7.868,0,0,1-.59-15.017.983.983,0,0,0,.59-1.062c0-.128,0-.256,0-.393a5.9,5.9,0,0,1,5.9-5.9h.167a.983.983,0,0,0,.983-.806,9.835,9.835,0,0,1,15.568-6.078V38.388a.983.983,0,0,0,.983.983h17.7a.983.983,0,0,0,.983-.983V25.672a7.868,7.868,0,0,1-.983,15.666Z" transform="translate(-2 -2)" fill="#333"/>
        <path id="Path_983113" data-name="Path 983113" d="M47.818,14H37.983a.983.983,0,0,0-.983.983v3.934a.983.983,0,0,0,.983.983h9.835a.983.983,0,0,0,.983-.983V14.983A.983.983,0,0,0,47.818,14Zm-.983,3.934H38.967V15.967h7.868Z" transform="translate(-2.579 -2.199)" fill="#333"/>
        <path id="Path_983114" data-name="Path 983114" d="M47.818,22H37.983a.983.983,0,0,0-.983.983v3.934a.983.983,0,0,0,.983.983h9.835a.983.983,0,0,0,.983-.983V22.983A.983.983,0,0,0,47.818,22Zm-.983,3.934H38.967V23.967h7.868Z" transform="translate(-2.579 -2.331)" fill="#333"/>
        <path id="Path_983115" data-name="Path 983115" d="M47.818,30H37.983a.983.983,0,0,0-.983.983v3.934a.983.983,0,0,0,.983.983h9.835a.983.983,0,0,0,.983-.983V30.983A.983.983,0,0,0,47.818,30Zm-.983,3.934H38.967V31.967h7.868Z" transform="translate(-2.579 -2.463)" fill="#333"/>
        <circle id="Ellipse_11586" data-name="Ellipse 11586" cx="1.967" cy="1.967" r="1.967" transform="translate(38.355 3.934)" fill="#333"/>
        <path id="Path_983116" data-name="Path 983116" d="M20.95,19a2.95,2.95,0,1,0,2.95,2.95A2.95,2.95,0,0,0,20.95,19Zm0,3.934a.983.983,0,1,1,.983-.983A.983.983,0,0,1,20.95,22.934Z" transform="translate(-2.265 -2.281)" fill="#333"/>
        <path id="Path_983117" data-name="Path 983117" d="M27.9,15.95a2.95,2.95,0,1,0-2.95,2.95,2.95,2.95,0,0,0,2.95-2.95Zm-2.95.983a.983.983,0,1,1,.983-.983A.983.983,0,0,1,24.95,16.934Z" transform="translate(-2.331 -2.182)" fill="#333"/>
        <path id="Path_983118" data-name="Path 983118" d="M28.95,19a2.95,2.95,0,1,0,2.95,2.95A2.95,2.95,0,0,0,28.95,19Zm0,3.934a.983.983,0,1,1,.983-.983A.983.983,0,0,1,28.95,22.934Z" transform="translate(-2.397 -2.281)" fill="#333"/>
      </g>
    </g>
  </g>
</svg>
