<svg xmlns="http://www.w3.org/2000/svg" xmlns:xlink="http://www.w3.org/1999/xlink" width="108" height="108" viewBox="0 0 108 108">
  <defs>
    <filter id="Path_982547" x="0" y="0" width="108" height="108" filterUnits="userSpaceOnUse">
      <feOffset dy="3" input="SourceAlpha"/>
      <feGaussianBlur stdDeviation="3" result="blur"/>
      <feFlood flood-opacity="0.161"/>
      <feComposite operator="in" in2="blur"/>
      <feComposite in="SourceGraphic"/>
    </filter>
  </defs>
  <g id="Group_1148633" data-name="Group 1148633" transform="translate(-1221 -3427)">
    <g id="Group_1148553" data-name="Group 1148553">
      <g id="Group_1147068" data-name="Group 1147068" transform="translate(605 -556)">
        <g transform="matrix(1, 0, 0, 1, 616, 3983)" filter="url(#Path_982547)">
          <g id="Path_982547-2" data-name="Path 982547" transform="translate(9 6)" fill="#fdeffe">
            <path d="M 45 88.5 C 39.12687683105469 88.5 33.43022537231445 87.35007476806641 28.06830024719238 85.08217620849609 C 22.88852500915527 82.89131164550781 18.23629951477051 79.75458526611328 14.2408504486084 75.75914764404297 C 10.24541282653809 71.76370239257812 7.108687400817871 67.11147308349609 4.917825222015381 61.93170166015625 C 2.649924993515015 56.56977462768555 1.5 50.87312316894531 1.5 45 C 1.5 39.12687683105469 2.649924993515015 33.43022537231445 4.917825222015381 28.06830024719238 C 7.108687400817871 22.88852500915527 10.24541282653809 18.23629951477051 14.2408504486084 14.2408504486084 C 18.23629951477051 10.24541282653809 22.88852500915527 7.108687400817871 28.06830024719238 4.917825222015381 C 33.43022537231445 2.649924993515015 39.12687683105469 1.5 45 1.5 C 50.87312316894531 1.5 56.56977462768555 2.649924993515015 61.93170166015625 4.917825222015381 C 67.11147308349609 7.108687400817871 71.76370239257812 10.24541282653809 75.75914764404297 14.2408504486084 C 79.75458526611328 18.23629951477051 82.89131164550781 22.88852500915527 85.08217620849609 28.06830024719238 C 87.35007476806641 33.43022537231445 88.5 39.12687683105469 88.5 45 C 88.5 50.87312316894531 87.35007476806641 56.56977462768555 85.08217620849609 61.93170166015625 C 82.89131164550781 67.11147308349609 79.75458526611328 71.76370239257812 75.75914764404297 75.75914764404297 C 71.76370239257812 79.75458526611328 67.11147308349609 82.89131164550781 61.93170166015625 85.08217620849609 C 56.56977462768555 87.35007476806641 50.87312316894531 88.5 45 88.5 Z" stroke="none"/>
            <path d="M 45 3 C 39.32871246337891 3 33.82865524291992 4.110054016113281 28.65262985229492 6.299339294433594 C 23.65165710449219 8.414573669433594 19.15968322753906 11.44334411621094 15.301513671875 15.301513671875 C 11.44334411621094 19.15968322753906 8.414573669433594 23.65165710449219 6.299339294433594 28.65262985229492 C 4.110054016113281 33.82865524291992 3 39.32871246337891 3 45 C 3 50.67128753662109 4.110054016113281 56.17134475708008 6.299339294433594 61.34737396240234 C 8.414573669433594 66.34834289550781 11.44334411621094 70.84031677246094 15.301513671875 74.698486328125 C 19.15968322753906 78.55665588378906 23.65165710449219 81.58542633056641 28.65262985229492 83.70066070556641 C 33.82865524291992 85.88994598388672 39.32871246337891 87 45 87 C 50.67128753662109 87 56.17134475708008 85.88994598388672 61.34737396240234 83.70066070556641 C 66.34834289550781 81.58542633056641 70.84031677246094 78.55665588378906 74.698486328125 74.698486328125 C 78.55665588378906 70.84031677246094 81.58542633056641 66.34834289550781 83.70066070556641 61.34737396240234 C 85.88994598388672 56.17134475708008 87 50.67128753662109 87 45 C 87 39.32871246337891 85.88994598388672 33.82865524291992 83.70066070556641 28.65262985229492 C 81.58542633056641 23.65165710449219 78.55665588378906 19.15968322753906 74.698486328125 15.301513671875 C 70.84031677246094 11.44334411621094 66.34834289550781 8.414573669433594 61.34737396240234 6.299339294433594 C 56.17134475708008 4.110054016113281 50.67128753662109 3 45 3 M 45 0 C 69.85281372070312 0 90 20.14718627929688 90 45 C 90 69.85281372070312 69.85281372070312 90 45 90 C 20.14718627929688 90 0 69.85281372070312 0 45 C 0 20.14718627929688 20.14718627929688 0 45 0 Z" stroke="none" fill="#ee70f7"/>
          </g>
        </g>
      </g>
    </g>
    <g id="conveyor" transform="translate(1247.636 3447.872)">
      <circle id="Ellipse_11558" data-name="Ellipse 11558" cx="3.335" cy="3.335" r="3.335" transform="translate(36.696 19.309)" fill="#766d78"/>
      <path id="Path_982926" data-name="Path 982926" d="M345.124,184.5a3.334,3.334,0,1,1-1.644-5.728,3.335,3.335,0,0,0,1.644,5.728Z" transform="translate(-302.83 -159.407)" fill="#655e67"/>
      <path id="Path_982927" data-name="Path 982927" d="M240.348,38.753,231.16,24.171l-7.516,5.173,10.34,13.789a2.368,2.368,0,0,0,3.237.53l2.468-1.7A2.366,2.366,0,0,0,240.348,38.753Z" transform="translate(-199.469 -21.559)" fill="#f0a70a"/>
      <path id="Path_982928" data-name="Path 982928" d="M237.843,43.236l-.624.43a2.368,2.368,0,0,1-3.237-.53l-10.34-13.79,7.516-5.173,1.144,1.815-4.879,3.358,10.34,13.79c.026.035.052.068.08.1Z" transform="translate(-199.467 -21.561)" fill="#e38803"/>
      <path id="Path_982929" data-name="Path 982929" d="M77.1,33.842a6.333,6.333,0,0,1,.143-9.134L94.746,8.42a3.284,3.284,0,0,1,4.548.071l2.951,2.924a3.284,3.284,0,0,1,.113,4.547L86.235,33.614A6.333,6.333,0,0,1,77.1,33.842Z" transform="translate(-67.087 -6.725)" fill="#fdc202"/>
      <circle id="Ellipse_11559" data-name="Ellipse 11559" cx="1.65" cy="1.65" r="1.65" transform="translate(28.024 5.538)" fill="#655e67"/>
      <path id="Path_982930" data-name="Path 982930" d="M79.733,35.065a6.186,6.186,0,0,0,.539.476,6.332,6.332,0,0,1-3.025-10.835l17.5-16.288A3.284,3.284,0,0,1,99.3,8.49l.277.274a3.262,3.262,0,0,0-2.2.878L79.875,25.93a6.333,6.333,0,0,0-.143,9.134Z" transform="translate(-67.088 -6.724)" fill="#f0a70a"/>
      <path id="Path_982931" data-name="Path 982931" d="M228.128,401.033v3.01a3.241,3.241,0,0,1-3.241,3.241H194.653v-9.492h30.234A3.241,3.241,0,0,1,228.128,401.033Z" transform="translate(-173.61 -354.813)" fill="#8e8391"/>
      <circle id="Ellipse_11560" data-name="Ellipse 11560" cx="1.776" cy="1.776" r="1.776" transform="translate(34.229 46.093)" fill="#d8cecc"/>
      <circle id="Ellipse_11561" data-name="Ellipse 11561" cx="1.776" cy="1.776" r="1.776" transform="translate(45.584 46.093)" fill="#d8cecc"/>
      <g id="Group_1148551" data-name="Group 1148551" transform="translate(31.048 36.17)">
        <path id="Path_982932" data-name="Path 982932" d="M293.091,341.581h-5.834v-6.268a.54.54,0,0,1,.54-.54h4.754a.54.54,0,0,1,.54.54v6.268Z" transform="translate(-287.257 -334.772)" fill="#40c1fa"/>
        <path id="Path_982933" data-name="Path 982933" d="M405.379,341.581h-5.834v-6.268a.54.54,0,0,1,.54-.54h4.754a.54.54,0,0,1,.54.54v6.268Z" transform="translate(-387.413 -334.772)" fill="#40c1fa"/>
      </g>
      <path id="Path_982934" data-name="Path 982934" d="M290.715,334.776a.54.54,0,0,0-.54.54v6.268h-2.917v-6.268a.54.54,0,0,1,.54-.54Z" transform="translate(-256.21 -298.606)" fill="#07a9f0"/>
      <path id="Path_982935" data-name="Path 982935" d="M403,334.776a.54.54,0,0,0-.54.54v6.268h-2.917v-6.268a.54.54,0,0,1,.54-.54Z" transform="translate(-356.361 -298.606)" fill="#07a9f0"/>
      <path id="Path_982936" data-name="Path 982936" d="M205.274,400.528v6.757H194.653v-9.492h9.7A4.487,4.487,0,0,1,205.274,400.528Z" transform="translate(-173.61 -354.814)" fill="#766d78"/>
      <path id="Path_982937" data-name="Path 982937" d="M58.478,151H37.733l1.015-25.009a6.3,6.3,0,0,1,6.294-6.043H51.17a6.3,6.3,0,0,1,6.294,6.043Z" transform="translate(-33.644 -106.985)" fill="#b3adb6"/>
      <circle id="Ellipse_11562" data-name="Ellipse 11562" cx="2.438" cy="2.438" r="2.438" transform="translate(12.024 16.767)" fill="#655e67"/>
      <path id="Path_982938" data-name="Path 982938" d="M48.822,119.948a6.3,6.3,0,0,0-6.294,6.044L41.513,151H37.732l1.015-25.008a6.3,6.3,0,0,1,6.294-6.044Z" transform="translate(-33.643 -106.988)" fill="#a49ca7"/>
      <path id="Path_982939" data-name="Path 982939" d="M44.948,252.222H25.094a2.127,2.127,0,0,1-2.127-2.127v-6.078a2.127,2.127,0,0,1,2.127-2.127H44.948a2.127,2.127,0,0,1,2.127,2.127v6.078A2.127,2.127,0,0,1,44.948,252.222Z" transform="translate(-20.473 -215.755)" fill="#fdc202"/>
      <path id="Path_982940" data-name="Path 982940" d="M8.593,394.681H33.708a1.08,1.08,0,0,0,1.08-1.08v-7.714a4.508,4.508,0,0,0-4.508-4.508H12.021a4.508,4.508,0,0,0-4.508,4.508V393.6A1.08,1.08,0,0,0,8.593,394.681Z" transform="translate(-6.689 -340.174)" fill="#fdc202"/>
      <circle id="Ellipse_11563" data-name="Ellipse 11563" cx="1.776" cy="1.776" r="1.776" transform="translate(4.896 46.991)" fill="#655e67"/>
      <path id="Path_982941" data-name="Path 982941" d="M28.871,252.223H25.09a2.128,2.128,0,0,1-2.127-2.127v-6.077a2.127,2.127,0,0,1,2.127-2.127h3.781a2.127,2.127,0,0,0-2.127,2.127V250.1A2.128,2.128,0,0,0,28.871,252.223Z" transform="translate(-20.47 -215.756)" fill="#f0a70a"/>
      <path id="Path_982942" data-name="Path 982942" d="M11.3,385.891V393.6a1.08,1.08,0,0,0,1.08,1.08H8.594a1.08,1.08,0,0,1-1.08-1.08v-7.713a4.508,4.508,0,0,1,4.508-4.508H15.8A4.508,4.508,0,0,0,11.3,385.891Z" transform="translate(-6.69 -340.177)" fill="#f0a70a"/>
      <path id="Path_982943" data-name="Path 982943" d="M59.558,275.28H54.452a.54.54,0,0,1-.54-.54v-3.191a.54.54,0,0,1,.54-.54h5.106a.54.54,0,0,1,.54.54v3.191A.54.54,0,0,1,59.558,275.28Z" transform="translate(-48.075 -241.727)" fill="#fff5f4"/>
      <path id="Path_982944" data-name="Path 982944" d="M58.232,275.281H54.451a.54.54,0,0,1-.54-.54v-3.191a.54.54,0,0,1,.54-.54h3.781a.54.54,0,0,0-.54.54v3.191A.54.54,0,0,0,58.232,275.281Z" transform="translate(-48.074 -241.728)" fill="#ebe0da"/>
      <g id="Group_1148552" data-name="Group 1148552" transform="translate(0.014 0)">
        <path id="Path_982945" data-name="Path 982945" d="M51.277,42.168H49.824V36.71a1.352,1.352,0,0,0-1.35-1.35H43.72a1.352,1.352,0,0,0-1.35,1.35v5.464a.813.813,0,0,0-.094-.006H37.692V36.71a1.352,1.352,0,0,0-1.35-1.35H31.588a1.352,1.352,0,0,0-1.35,1.35v5.458H27.551a5.339,5.339,0,0,0-2.038-1.412l-.147-3.618a2.942,2.942,0,0,0,2.046-2.8V28.262a2.941,2.941,0,0,0-2.524-2.908l-.138-3.4,4.964-5.434,4.153,5.538a3.169,3.169,0,0,0,2.07,1.238,4.143,4.143,0,0,0,7.214,2.072l1.674.825a4.36,4.36,0,0,0,5.607,5.3.81.81,0,0,0-.521-1.535,2.745,2.745,0,1,1,1.716-3.481.81.81,0,1,0,1.534-.521,4.362,4.362,0,0,0-7.62-1.22l-1.581-.779A4.146,4.146,0,0,0,42.011,19a3.167,3.167,0,0,0-.446-2.237L36.541,8.79a4.108,4.108,0,0,0-.812-4.676L32.778,1.191A4.083,4.083,0,0,0,27.107,1.1L15.236,12.15H11.4a7.091,7.091,0,0,0-7.1,6.821l-.26,6.413a2.942,2.942,0,0,0-2.35,2.878v6.078A2.942,2.942,0,0,0,3.56,37.077L3.41,40.756a5.326,5.326,0,0,0-3.4,4.958v8.254a1.352,1.352,0,0,0,1.35,1.35H27.559a1.352,1.352,0,0,0,1.35-1.35v-.686H47.546a.81.81,0,0,0,0-1.621H28.909V45.714a5.287,5.287,0,0,0-.362-1.925h22.73a2.434,2.434,0,0,1,2.431,2.431v3.01a2.434,2.434,0,0,1-2.431,2.431h-.491a.81.81,0,1,0,0,1.621h.491a4.056,4.056,0,0,0,4.051-4.051V46.22a4.056,4.056,0,0,0-4.051-4.051ZM31.859,36.98h4.213v5.188H31.859Zm10.7-14.336a2.525,2.525,0,0,1-5,.477,3.212,3.212,0,0,0,.66-.349l2.468-1.7a3.2,3.2,0,0,0,.652-.6,2.512,2.512,0,0,1,1.225,2.167Zm-2.272-3.522-.01.022a1.553,1.553,0,0,1-.514.6l-2.468,1.7a1.555,1.555,0,0,1-.7.264h0a1.555,1.555,0,0,1-1.428-.614l-4.337-5.783L35.5,10.185l4.689,7.442a1.55,1.55,0,0,1,.091,1.5ZM11.4,13.77h6.128a5.427,5.427,0,0,1,2.532.617.81.81,0,0,0,.748-1.437,7.128,7.128,0,0,0-3.192-.8l10.6-9.863a2.467,2.467,0,0,1,3.426.054l2.951,2.923a2.478,2.478,0,0,1,.086,3.425l-5.5,6.024,0,0-4.51,4.938-.028-.686a7.1,7.1,0,0,0-1.145-3.591.81.81,0,0,0-1.357.885,5.483,5.483,0,0,1,.883,2.772l.255,6.288H5.658l.255-6.288A5.475,5.475,0,0,1,11.4,13.77ZM3.3,28.262a1.318,1.318,0,0,1,1.317-1.317H24.475a1.318,1.318,0,0,1,1.317,1.317v6.078a1.318,1.318,0,0,1-1.317,1.317H4.621A1.318,1.318,0,0,1,3.3,34.339ZM1.635,53.7V45.714a3.7,3.7,0,0,1,3.7-3.7h2.3a.81.81,0,0,0,0-1.621c-2.521,0-2.384,0-2.587.008l.127-3.126H23.75l.127,3.126c-.218-.012.7-.008-13-.008a.81.81,0,0,0,0,1.621H23.591a3.7,3.7,0,0,1,3.7,3.7V53.7ZM43.99,36.98H48.2v5.188H43.99Z" transform="translate(-0.014 0)"/>
        <path id="Path_982946" data-name="Path 982946" d="M309.2,421.706a2.586,2.586,0,1,0,2.586-2.586A2.589,2.589,0,0,0,309.2,421.706Zm3.551,0a.965.965,0,1,1-.965-.965A.967.967,0,0,1,312.751,421.706Z" transform="translate(-275.795 -373.838)"/>
        <path id="Path_982947" data-name="Path 982947" d="M414.3,421.894a2.586,2.586,0,0,0,5.172,0C419.467,418.477,414.3,418.477,414.3,421.894Zm2.586.966a.965.965,0,1,1,.965-.966A.967.967,0,0,1,416.881,422.86Z" transform="translate(-369.535 -374.026)"/>
        <path id="Path_982948" data-name="Path 982948" d="M106.919,154.183a3.248,3.248,0,1,0-3.248-3.248A3.252,3.252,0,0,0,106.919,154.183Zm0-4.876a1.628,1.628,0,1,1-1.628,1.628A1.63,1.63,0,0,1,106.919,149.307Z" transform="translate(-92.472 -131.73)"/>
        <path id="Path_982949" data-name="Path 982949" d="M255.239,48.386a2.461,2.461,0,1,0-3.275-1.175A2.464,2.464,0,0,0,255.239,48.386ZM253.4,45.877a.84.84,0,1,1,1.149,1.043A.84.84,0,0,1,253.4,45.877Z" transform="translate(-224.528 -38.973)"/>
        <path id="Path_982950" data-name="Path 982950" d="M47.223,269.4H53.41a.81.81,0,0,0,.81-.81v-4.272a.81.81,0,0,0-.81-.81H47.223a.81.81,0,0,0-.81.81v4.272A.81.81,0,0,0,47.223,269.4Zm.81-4.272H52.6v2.651H48.034Z" transform="translate(-41.4 -235.038)"/>
        <path id="Path_982951" data-name="Path 982951" d="M139.726,269.335h.331a.81.81,0,0,0,0-1.621h-.331a.81.81,0,1,0,0,1.621Z" transform="translate(-123.909 -238.79)"/>
        <path id="Path_982952" data-name="Path 982952" d="M170.555,269.335h.331a.81.81,0,0,0,0-1.621h-.331a.81.81,0,0,0,0,1.621Z" transform="translate(-151.407 -238.79)"/>
        <path id="Path_982953" data-name="Path 982953" d="M201.385,269.335h.331a.81.81,0,1,0,0-1.621h-.331a.81.81,0,1,0,0,1.621Z" transform="translate(-178.906 -238.79)"/>
        <path id="Path_982954" data-name="Path 982954" d="M139.726,298.311h.331a.81.81,0,0,0,0-1.621h-.331a.81.81,0,1,0,0,1.621Z" transform="translate(-123.909 -264.635)"/>
        <path id="Path_982955" data-name="Path 982955" d="M170.555,298.311h.331a.81.81,0,0,0,0-1.621h-.331a.81.81,0,0,0,0,1.621Z" transform="translate(-151.407 -264.635)"/>
        <path id="Path_982956" data-name="Path 982956" d="M201.385,298.311h.331a.81.81,0,1,0,0-1.621h-.331a.81.81,0,1,0,0,1.621Z" transform="translate(-178.906 -264.635)"/>
        <path id="Path_982957" data-name="Path 982957" d="M40.285,427.427a2.586,2.586,0,1,0,2.586,2.586A2.589,2.589,0,0,0,40.285,427.427Zm0,3.552a.966.966,0,1,1,.965-.966A.967.967,0,0,1,40.285,430.979Z" transform="translate(-33.627 -381.247)"/>
        <path id="Path_982958" data-name="Path 982958" d="M189.978,410.227h-.2v-.27a.81.81,0,0,0-1.621,0v.27h-.2a.81.81,0,0,0,0,1.621h.2v3.791a.81.81,0,0,0,1.621,0v-3.791h.2a.81.81,0,1,0,0-1.621Z" transform="translate(-166.937 -364.942)"/>
        <path id="Path_982959" data-name="Path 982959" d="M149.534,413.158h-.2v-3.2a.81.81,0,1,0-1.621,0v3.2h-.2a.81.81,0,1,0,0,1.621h.2v.859a.81.81,0,1,0,1.621,0v-.859h.2a.81.81,0,0,0,0-1.621Z" transform="translate(-130.862 -364.941)"/>
        <path id="Path_982960" data-name="Path 982960" d="M109.089,411.121h-.2v-1.165a.81.81,0,1,0-1.621,0v1.165h-.2a.81.81,0,1,0,0,1.621h.2v2.9a.81.81,0,1,0,1.621,0v-2.9h.2a.81.81,0,1,0,0-1.621Z" transform="translate(-94.787 -364.941)"/>
      </g>
    </g>
  </g>
</svg>
