<svg xmlns="http://www.w3.org/2000/svg" width="44.01" height="38.328" viewBox="0 0 44.01 38.328">
  <path id="data-storage_17955679" d="M11.928,38.337v-.09a.6.6,0,1,1,1.2,0v.09a.6.6,0,0,1-1.2,0Zm4.41.556h8.728a.6.6,0,0,0,0-1.2H16.338a.6.6,0,1,0,0,1.2Zm-6.593.046a.6.6,0,0,0,.6-.6v-.09a.6.6,0,1,0-1.2,0v.09A.6.6,0,0,0,9.745,38.939Zm-2.785,0a.6.6,0,0,0,.6-.6v-.09a.6.6,0,1,0-1.2,0v.09A.6.6,0,0,0,6.96,38.939Zm5.57,12.624a.6.6,0,0,0,.6-.6v-.09a.6.6,0,1,0-1.2,0v.09A.6.6,0,0,0,12.53,51.563Zm-2.785,0a.6.6,0,0,0,.6-.6v-.09a.6.6,0,1,0-1.2,0v.09A.6.6,0,0,0,9.745,51.563Zm-2.785,0a.6.6,0,0,0,.6-.6v-.09a.6.6,0,1,0-1.2,0v.09A.6.6,0,0,0,6.96,51.563Zm5.57,11.33a.6.6,0,0,0-.6.6v.09a.6.6,0,1,0,1.2,0V63.5A.6.6,0,0,0,12.53,62.893Zm-2.785,0a.6.6,0,0,0-.6.6v.09a.6.6,0,1,0,1.2,0V63.5A.6.6,0,0,0,9.745,62.893Zm-2.785,0a.6.6,0,0,0-.6.6v.09a.6.6,0,1,0,1.2,0V63.5A.6.6,0,0,0,6.96,62.893ZM44.51,58.054v13.16a.6.6,0,0,1-.6.6H23.487a.6.6,0,0,1-.6-.6V68.342H2.376A1.878,1.878,0,0,1,.5,66.465v-5.85a1.88,1.88,0,0,1,1.876-1.879h.3V55.717h-.3A1.878,1.878,0,0,1,.5,53.841v-5.85a1.88,1.88,0,0,1,1.876-1.879h.3V43.093h-.3A1.878,1.878,0,0,1,.5,41.217v-5.85a1.88,1.88,0,0,1,1.876-1.879H28.256a1.881,1.881,0,0,1,1.879,1.879v5.85a1.88,1.88,0,0,1-1.879,1.876h-.3v1.771H37.3a.6.6,0,0,1,.426.176l4.21,4.213a.6.6,0,0,1,.176.425v7.773h1.8A.6.6,0,0,1,44.51,58.054Zm-1.2.6H32.515a.6.6,0,0,1-.531-.319l-1.726-3.243H24.089V61.28H43.307Zm-2.4-1.2V50.281H37.3a.6.6,0,0,1-.6-.6V46.068H26.328V53.89h4.291a.6.6,0,0,1,.531.319l1.726,3.243h8.03ZM37.9,49.078h2.156L37.9,46.92ZM2.376,41.89H28.256a.674.674,0,0,0,.675-.672v-5.85a.676.676,0,0,0-.675-.675H2.376a.674.674,0,0,0-.672.675v5.85A.673.673,0,0,0,2.376,41.89Zm1.5,4.223H25.125v-.646a.6.6,0,0,1,.6-.6h1.028V43.093H3.877Zm-1.5,8.4H22.885v-.022a.6.6,0,0,1,.6-.6h1.637V51.514l-.058,0H16.338a.6.6,0,1,1,0-1.2h8.728l.058,0v-3H2.376a.675.675,0,0,0-.672.675v5.85a.673.673,0,0,0,.672.672Zm1.5,4.223H22.885V55.717H3.877Zm19.008,8.4v-3H16.338a.6.6,0,0,1,0-1.2h6.547v-3H2.376a.675.675,0,0,0-.672.675v5.85a.673.673,0,0,0,.672.672H22.885Zm20.421,3.475V62.484H24.089v8.128Z" transform="translate(-0.5 -33.488)"/>
</svg>
