<svg xmlns="http://www.w3.org/2000/svg" xmlns:xlink="http://www.w3.org/1999/xlink" width="113" height="113" viewBox="0 0 113 113">
  <defs>
    <filter id="Path_982547" x="0" y="0" width="113" height="113" filterUnits="userSpaceOnUse">
      <feOffset dy="3" input="SourceAlpha"/>
      <feGaussianBlur stdDeviation="3" result="blur"/>
      <feFlood flood-opacity="0.161"/>
      <feComposite operator="in" in2="blur"/>
      <feComposite in="SourceGraphic"/>
    </filter>
  </defs>
  <g id="Group_1148625" data-name="Group 1148625" transform="translate(-586.328 -3715.333)">
    <g id="Group_1148526" data-name="Group 1148526" transform="translate(595.328 3721.333)">
      <g transform="matrix(1, 0, 0, 1, -9, -6)" filter="url(#Path_982547)">
        <g id="Path_982547-2" data-name="Path 982547" transform="translate(9 6)" fill="#fdeffe">
          <path d="M 47.5 93.5 C 41.28937149047852 93.5 35.26533508300781 92.28397369384766 29.59518623352051 89.88570404052734 C 24.11771965026855 87.56893157958984 19.19813346862793 84.25196075439453 14.97309303283691 80.02691650390625 C 10.74804019927979 75.80186462402344 7.431066513061523 70.88229370117188 5.114293098449707 65.40481567382812 C 2.716026782989502 59.73468017578125 1.5 53.71062850952148 1.5 47.5 C 1.5 41.28937149047852 2.716026782989502 35.26533508300781 5.114293098449707 29.59518623352051 C 7.431066513061523 24.11771965026855 10.74804019927979 19.19813346862793 14.97309303283691 14.97309303283691 C 19.19813346862793 10.74804019927979 24.11771965026855 7.431066513061523 29.59518623352051 5.114293098449707 C 35.26533508300781 2.716026782989502 41.28937149047852 1.5 47.5 1.5 C 53.71062850952148 1.5 59.73468017578125 2.716026782989502 65.40481567382812 5.114293098449707 C 70.88229370117188 7.431066513061523 75.80186462402344 10.74804019927979 80.02691650390625 14.97309303283691 C 84.25196075439453 19.19813346862793 87.56893157958984 24.11771965026855 89.88570404052734 29.59518623352051 C 92.28397369384766 35.26533508300781 93.5 41.28937149047852 93.5 47.5 C 93.5 53.71062850952148 92.28397369384766 59.73468017578125 89.88570404052734 65.40481567382812 C 87.56893157958984 70.88229370117188 84.25196075439453 75.80186462402344 80.02691650390625 80.02691650390625 C 75.80186462402344 84.25196075439453 70.88229370117188 87.56893157958984 65.40481567382812 89.88570404052734 C 59.73468017578125 92.28397369384766 53.71062850952148 93.5 47.5 93.5 Z" stroke="none"/>
          <path d="M 47.5 3 C 41.49121475219727 3 35.66376876831055 4.176155090332031 30.17950439453125 6.495796203613281 C 24.88084411621094 8.736953735351562 20.12152099609375 11.94598388671875 16.03375244140625 16.03375244140625 C 11.94598388671875 20.12152099609375 8.736953735351562 24.88084411621094 6.495796203613281 30.17950439453125 C 4.176155090332031 35.66376876831055 3 41.49121475219727 3 47.5 C 3 53.50878524780273 4.176155090332031 59.33623123168945 6.495796203613281 64.82049560546875 C 8.736953735351562 70.11915588378906 11.94598388671875 74.87847900390625 16.03375244140625 78.96624755859375 C 20.12152099609375 83.05401611328125 24.88084411621094 86.26304626464844 30.17950439453125 88.50419616699219 C 35.66376876831055 90.82384490966797 41.49121475219727 92 47.5 92 C 53.50878524780273 92 59.33623123168945 90.82384490966797 64.82049560546875 88.50419616699219 C 70.11915588378906 86.26304626464844 74.87847900390625 83.05401611328125 78.96624755859375 78.96624755859375 C 83.05401611328125 74.87847900390625 86.26304626464844 70.11915588378906 88.50419616699219 64.82049560546875 C 90.82384490966797 59.33623123168945 92 53.50878524780273 92 47.5 C 92 41.49121475219727 90.82384490966797 35.66376876831055 88.50419616699219 30.17950439453125 C 86.26304626464844 24.88084411621094 83.05401611328125 20.12152099609375 78.96624755859375 16.03375244140625 C 74.87847900390625 11.94598388671875 70.11915588378906 8.736953735351562 64.82049560546875 6.495796203613281 C 59.33623123168945 4.176155090332031 53.50878524780273 3 47.5 3 M 47.5 0 C 73.7335205078125 0 95 21.2664794921875 95 47.5 C 95 73.7335205078125 73.7335205078125 95 47.5 95 C 21.2664794921875 95 0 73.7335205078125 0 47.5 C 0 21.2664794921875 21.2664794921875 0 47.5 0 Z" stroke="none" fill="#ee70f7"/>
        </g>
      </g>
    </g>
    <g id="programming-course_3195690" transform="translate(613.668 3738.623)">
      <g id="Group_1148623" data-name="Group 1148623" transform="translate(1.985 1.985)">
        <g id="Group_1148613" data-name="Group 1148613" transform="translate(22.644 53.165)">
          <path id="Path_983119" data-name="Path 983119" d="M36.814,56v5.907H25V56H36.814Z" transform="translate(-25 -56)" fill="#aab2bd"/>
        </g>
        <g id="Group_1148614" data-name="Group 1148614" transform="translate(31.505 17.722)">
          <path id="Path_983120" data-name="Path 983120" d="M40.941,20.01a2,2,0,0,0-.266,2.225,1.989,1.989,0,0,1,.217.916,1.928,1.928,0,0,1-.158.778v.01H34V20h6.931Z" transform="translate(-34 -20)" fill="#ccd1d9"/>
        </g>
        <g id="Group_1148615" data-name="Group 1148615" transform="translate(5.907 23.629)">
          <path id="Path_983121" data-name="Path 983121" d="M52.944,37.135a2.014,2.014,0,0,0-1.162,1.241,2.052,2.052,0,0,1-1.94,1.408h-.492v6.892a.987.987,0,0,1-.985.985H12.923a.987.987,0,0,1-.985-.985V26H8V51.6a3.937,3.937,0,0,0,3.938,3.938H49.351A3.937,3.937,0,0,0,53.289,51.6V36.987C53.171,37.037,53.062,37.086,52.944,37.135Z" transform="translate(-8 -26)" fill="#ccd1d9"/>
        </g>
        <g id="Group_1148616" data-name="Group 1148616" transform="translate(9.845 21.66)">
          <path id="Path_983122" data-name="Path 983122" d="M40.335,33.58a2.07,2.07,0,0,0-.226.925,2.037,2.037,0,0,0,.6,1.437l.7.7a2.033,2.033,0,0,0,2.363.374,1.989,1.989,0,0,1,.916-.217,1.928,1.928,0,0,1,.778.158l.354.148a2.014,2.014,0,0,1,1.162,1.241,2.052,2.052,0,0,0,1.94,1.408h.492v6.892a.987.987,0,0,1-.985.985H12.985A.987.987,0,0,1,12,46.644V25.969H31.691A1.975,1.975,0,0,0,33.66,24h6.734c-.049.118-.1.226-.148.345a2.014,2.014,0,0,1-1.241,1.162,2.052,2.052,0,0,0-1.408,1.94v.985a2.052,2.052,0,0,0,1.408,1.94,2.014,2.014,0,0,1,1.241,1.162l.148.354a2,2,0,0,1-.059,1.693Z" transform="translate(-12 -24)" fill="#69d6f4"/>
        </g>
        <g id="Group_1148617" data-name="Group 1148617" transform="translate(26.641 46.901)">
          <circle id="Ellipse_11587" data-name="Ellipse 11587" cx="2" cy="2" r="2" transform="translate(-0.249 0.492)" fill="#ff826e"/>
        </g>
        <g id="Group_1148618" data-name="Group 1148618">
          <path id="Path_983123" data-name="Path 983123" d="M2,9.876V3.969A1.975,1.975,0,0,1,3.969,2H31.536a1.975,1.975,0,0,1,1.969,1.969V9.876Z" transform="translate(-2 -2)" fill="#5cd6b3"/>
        </g>
        <g id="Group_1148619" data-name="Group 1148619" transform="translate(0 7.876)">
          <path id="Path_983124" data-name="Path 983124" d="M2,23.784V10H33.505V23.784a1.975,1.975,0,0,1-1.969,1.969H3.969A1.975,1.975,0,0,1,2,23.784Z" transform="translate(-2 -10)" fill="#e6e9ed"/>
        </g>
        <g id="Group_1148620" data-name="Group 1148620" transform="translate(21.66 11.814)">
          <path id="Path_983125" data-name="Path 983125" d="M24,14h5.907v7.876H24Z" transform="translate(-24 -14)" fill="#ff826e"/>
        </g>
        <g id="Group_1148621" data-name="Group 1148621" transform="translate(35.443 13.784)">
          <path id="Path_983126" data-name="Path 983126" d="M61.629,27.322v.985a2.052,2.052,0,0,1-1.408,1.94,2.014,2.014,0,0,0-1.241,1.162l-.148.354a1.928,1.928,0,0,0-.158.778,1.989,1.989,0,0,0,.217.916,2.033,2.033,0,0,1-.374,2.363l-.7.7a2.037,2.037,0,0,1-1.437.6,2.07,2.07,0,0,1-.925-.226,2,2,0,0,0-1.693-.059h-.01c-.118.049-.226.1-.345.148a2.014,2.014,0,0,0-1.162,1.241,2.052,2.052,0,0,1-1.94,1.408h-.985a2.052,2.052,0,0,1-1.94-1.408,2.014,2.014,0,0,0-1.162-1.241l-.354-.148a1.928,1.928,0,0,0-.778-.158,1.989,1.989,0,0,0-.916.217,2.033,2.033,0,0,1-2.363-.374l-.7-.7a2.037,2.037,0,0,1-.6-1.437,2.07,2.07,0,0,1,.226-.925,2,2,0,0,0,.059-1.693l-.148-.354a2.014,2.014,0,0,0-1.241-1.162A2.052,2.052,0,0,1,38,28.307v-.985a2.052,2.052,0,0,1,1.408-1.94,2.014,2.014,0,0,0,1.241-1.162c.049-.118.1-.226.148-.345v-.01a1.928,1.928,0,0,0,.158-.778,1.989,1.989,0,0,0-.217-.916A2,2,0,0,1,41,19.948a.479.479,0,0,1,.108-.138l.7-.7a2.037,2.037,0,0,1,1.437-.6,2.07,2.07,0,0,1,.925.226,2,2,0,0,0,1.693.059l.354-.148a2.014,2.014,0,0,0,1.162-1.241A2.052,2.052,0,0,1,49.322,16h.985a2.052,2.052,0,0,1,1.94,1.408,2.014,2.014,0,0,0,1.162,1.241l.354.148a1.928,1.928,0,0,0,.778.158,1.989,1.989,0,0,0,.916-.217,2.033,2.033,0,0,1,2.363.374l.7.7a2.037,2.037,0,0,1,.6,1.437,2.07,2.07,0,0,1-.226.925,2,2,0,0,0-.059,1.693l.148.354a2.014,2.014,0,0,0,1.241,1.162,2.052,2.052,0,0,1,1.408,1.94Zm-5.907.492a5.907,5.907,0,1,0-5.907,5.907A5.912,5.912,0,0,0,55.722,27.814Z" transform="translate(-38 -16)" fill="#ffc729"/>
        </g>
        <g id="Group_1148622" data-name="Group 1148622" transform="translate(41.351 19.691)">
          <path id="Path_983127" data-name="Path 983127" d="M49.907,22A5.907,5.907,0,1,1,44,27.907,5.912,5.912,0,0,1,49.907,22Zm1.969,5.907a1.969,1.969,0,1,0-1.969,1.969A1.975,1.975,0,0,0,51.876,27.907Z" transform="translate(-44 -22)" fill="#fcd770"/>
        </g>
      </g>
      <g id="Group_1148624" data-name="Group 1148624" transform="translate(1 1)">
        <path id="Path_983128" data-name="Path 983128" d="M49.892,21a6.892,6.892,0,1,0,6.892,6.892A6.9,6.9,0,0,0,49.892,21Zm0,11.814a4.923,4.923,0,1,1,4.923-4.923A4.928,4.928,0,0,1,49.892,32.814Z" transform="translate(-1.649 -1.309)"/>
        <path id="Path_983129" data-name="Path 983129" d="M49.954,25a2.954,2.954,0,1,0,2.954,2.954A2.957,2.957,0,0,0,49.954,25Zm0,3.938a.985.985,0,1,1,.985-.985A.985.985,0,0,1,49.954,28.938Z" transform="translate(-1.711 -1.371)"/>
        <path id="Path_983130" data-name="Path 983130" d="M59.959,24.216a1.01,1.01,0,0,1-.637-.588c-.051-.13-.1-.258-.159-.385a1.014,1.014,0,0,1,.037-.86,3.022,3.022,0,0,0-.56-3.506l-.694-.694a3.013,3.013,0,0,0-3.5-.56,1.007,1.007,0,0,1-.861.036c-.126-.055-.254-.106-.385-.158a1.016,1.016,0,0,1-.587-.637,3.02,3.02,0,0,0-2.876-2.082h-.981a3.021,3.021,0,0,0-2.876,2.082,1.01,1.01,0,0,1-.588.637c-.13.051-.258.1-.385.159a1.021,1.021,0,0,1-.86-.037,3.025,3.025,0,0,0-3.506.56L40,18.722H34.474V3.954A2.957,2.957,0,0,0,31.521,1H3.954A2.957,2.957,0,0,0,1,3.954V23.644A2.957,2.957,0,0,0,3.954,26.6H6.907V51.212a4.928,4.928,0,0,0,4.923,4.923H23.644v3.938H17.737v1.969h25.6V60.072H37.428V56.134H49.242a4.928,4.928,0,0,0,4.923-4.923V37.467a1.04,1.04,0,0,1,.275.073,3.025,3.025,0,0,0,3.506-.56l.7-.694a3.021,3.021,0,0,0,.559-3.5,1.011,1.011,0,0,1-.036-.861c.055-.126.106-.254.158-.385a1.016,1.016,0,0,1,.637-.587,3.018,3.018,0,0,0,2.083-2.875v-.981a3.021,3.021,0,0,0-2.082-2.876ZM38.526,30.949a1.01,1.01,0,0,1,.637.588c.051.13.1.258.159.385a1.014,1.014,0,0,1-.037.86,3.022,3.022,0,0,0,.56,3.506l.694.7a3.02,3.02,0,0,0,3.5.559A1.018,1.018,0,0,1,44.9,37.5c.126.055.254.106.385.158a1.016,1.016,0,0,1,.587.637,3.019,3.019,0,0,0,2.382,2.042v5.948H12.814V26.6H31.521a2.95,2.95,0,0,0,2.772-1.969h3.422a3.015,3.015,0,0,0-1.272,2.463v.981a3.021,3.021,0,0,0,2.082,2.876Zm.458-10.258a3.014,3.014,0,0,0,.3,1.693,1.057,1.057,0,0,1,.073.276H34.474V20.691ZM3.954,2.969H31.521a.985.985,0,0,1,.985.985V8.876H2.969V3.954A.985.985,0,0,1,3.954,2.969ZM2.969,23.644v-12.8H32.505v12.8a.985.985,0,0,1-.985.985H3.954A.985.985,0,0,1,2.969,23.644Zm32.49,36.428H25.614V56.134h9.845Zm13.784-5.907H11.83a2.957,2.957,0,0,1-2.954-2.954V26.6h1.969V46.289a1.971,1.971,0,0,0,1.969,1.969H48.258a1.971,1.971,0,0,0,1.969-1.969V40.34A3.018,3.018,0,0,0,52.2,39.11v12.1A2.957,2.957,0,0,1,49.242,54.165Zm10.83-26.092a1.055,1.055,0,0,1-.729,1.005,2.976,2.976,0,0,0-1.857,1.744c-.041.106-.086.212-.13.315a2.976,2.976,0,0,0,.086,2.532,1.056,1.056,0,0,1-.195,1.225l-.694.693a1.054,1.054,0,0,1-1.226.2A2.975,2.975,0,0,0,52.8,35.7c-.1.045-.21.09-.315.131a2.974,2.974,0,0,0-1.744,1.859,1.058,1.058,0,0,1-1.006.727h-.981a1.055,1.055,0,0,1-1.005-.729A2.976,2.976,0,0,0,46,35.827c-.106-.041-.212-.086-.315-.13a2.93,2.93,0,0,0-1.168-.242,3.028,3.028,0,0,0-1.366.328,1.057,1.057,0,0,1-1.225-.195l-.693-.694a1.056,1.056,0,0,1-.2-1.226,2.975,2.975,0,0,0,.087-2.53c-.045-.1-.09-.21-.131-.315a2.974,2.974,0,0,0-1.859-1.744,1.058,1.058,0,0,1-.726-1.006v-.981a1.055,1.055,0,0,1,.729-1.005A2.976,2.976,0,0,0,41,24.343c.041-.106.086-.212.13-.315a2.976,2.976,0,0,0-.086-2.532,1.056,1.056,0,0,1,.195-1.225l.694-.694a1.059,1.059,0,0,1,1.226-.195,2.972,2.972,0,0,0,2.53.087c.1-.045.21-.09.315-.131a2.974,2.974,0,0,0,1.744-1.859,1.058,1.058,0,0,1,1.006-.727h.981a1.055,1.055,0,0,1,1.005.729,2.976,2.976,0,0,0,1.744,1.857c.106.041.212.086.315.13a2.976,2.976,0,0,0,2.532-.086,1.056,1.056,0,0,1,1.225.195l.693.694a1.056,1.056,0,0,1,.2,1.226,2.975,2.975,0,0,0-.087,2.53c.045.1.09.21.131.315a2.974,2.974,0,0,0,1.859,1.744,1.058,1.058,0,0,1,.727,1.006Z" transform="translate(-1 -1)"/>
        <path id="Path_983131" data-name="Path 983131" d="M5,5H6.969V6.969H5Z" transform="translate(-1.062 -1.062)"/>
        <path id="Path_983132" data-name="Path 983132" d="M13,5h1.969V6.969H13Z" transform="translate(-1.186 -1.062)"/>
        <path id="Path_983133" data-name="Path 983133" d="M9,5h1.969V6.969H9Z" transform="translate(-1.124 -1.062)"/>
        <path id="Path_983134" data-name="Path 983134" d="M33.907,51.954a2.954,2.954,0,1,0-2.954,2.954A2.957,2.957,0,0,0,33.907,51.954Zm-2.954.985a.985.985,0,1,1,.985-.985A.985.985,0,0,1,30.954,52.938Z" transform="translate(-1.417 -1.742)"/>
        <path id="Path_983135" data-name="Path 983135" d="M15,29H34.691v1.969H15Z" transform="translate(-1.216 -1.433)"/>
        <path id="Path_983136" data-name="Path 983136" d="M15,33H34.691v1.969H15Z" transform="translate(-1.216 -1.495)"/>
        <path id="Path_983137" data-name="Path 983137" d="M14.293,37.685l3.242,3.242-3.242,3.242,1.392,1.392,4.634-4.634-4.634-4.634Z" transform="translate(-1.205 -1.546)"/>
        <path id="Path_983138" data-name="Path 983138" d="M21,43h7.876v1.969H21Z" transform="translate(-1.309 -1.649)"/>
        <path id="Path_983139" data-name="Path 983139" d="M5,13H8.938v1.969H5Z" transform="translate(-1.062 -1.186)"/>
        <path id="Path_983140" data-name="Path 983140" d="M11,13h9.845v1.969H11Z" transform="translate(-1.155 -1.186)"/>
        <path id="Path_983141" data-name="Path 983141" d="M23,22.845h7.876V13H23Zm1.969-7.876h3.938v5.907H24.969Z" transform="translate(-1.34 -1.186)"/>
        <path id="Path_983142" data-name="Path 983142" d="M5,17H20.753v1.969H5Z" transform="translate(-1.062 -1.247)"/>
        <path id="Path_983143" data-name="Path 983143" d="M17,21h3.938v1.969H17Z" transform="translate(-1.247 -1.309)"/>
        <path id="Path_983144" data-name="Path 983144" d="M13,21h1.969v1.969H13Z" transform="translate(-1.186 -1.309)"/>
        <path id="Path_983145" data-name="Path 983145" d="M5,21h5.907v1.969H5Z" transform="translate(-1.062 -1.309)"/>
      </g>
    </g>
  </g>
</svg>
