<svg xmlns="http://www.w3.org/2000/svg" xmlns:xlink="http://www.w3.org/1999/xlink" width="113" height="113" viewBox="0 0 113 113">
  <defs>
    <filter id="Path_982547" x="0" y="0" width="113" height="113" filterUnits="userSpaceOnUse">
      <feOffset dy="3" input="SourceAlpha"/>
      <feGaussianBlur stdDeviation="3" result="blur"/>
      <feFlood flood-opacity="0.161"/>
      <feComposite operator="in" in2="blur"/>
      <feComposite in="SourceGraphic"/>
    </filter>
  </defs>
  <g id="Group_1148630" data-name="Group 1148630" transform="translate(-901.328 -3715.333)">
    <g id="Group_1148527" data-name="Group 1148527" transform="translate(910.328 3721.333)">
      <g transform="matrix(1, 0, 0, 1, -9, -6)" filter="url(#Path_982547)">
        <g id="Path_982547-2" data-name="Path 982547" transform="translate(9 6)" fill="#fdeffe">
          <path d="M 47.5 93.5 C 41.28937149047852 93.5 35.26533508300781 92.28397369384766 29.59518623352051 89.88570404052734 C 24.11771965026855 87.56893157958984 19.19813346862793 84.25196075439453 14.97309303283691 80.02691650390625 C 10.74804019927979 75.80186462402344 7.431066513061523 70.88229370117188 5.114293098449707 65.40481567382812 C 2.716026782989502 59.73468017578125 1.5 53.71062850952148 1.5 47.5 C 1.5 41.28937149047852 2.716026782989502 35.26533508300781 5.114293098449707 29.59518623352051 C 7.431066513061523 24.11771965026855 10.74804019927979 19.19813346862793 14.97309303283691 14.97309303283691 C 19.19813346862793 10.74804019927979 24.11771965026855 7.431066513061523 29.59518623352051 5.114293098449707 C 35.26533508300781 2.716026782989502 41.28937149047852 1.5 47.5 1.5 C 53.71062850952148 1.5 59.73468017578125 2.716026782989502 65.40481567382812 5.114293098449707 C 70.88229370117188 7.431066513061523 75.80186462402344 10.74804019927979 80.02691650390625 14.97309303283691 C 84.25196075439453 19.19813346862793 87.56893157958984 24.11771965026855 89.88570404052734 29.59518623352051 C 92.28397369384766 35.26533508300781 93.5 41.28937149047852 93.5 47.5 C 93.5 53.71062850952148 92.28397369384766 59.73468017578125 89.88570404052734 65.40481567382812 C 87.56893157958984 70.88229370117188 84.25196075439453 75.80186462402344 80.02691650390625 80.02691650390625 C 75.80186462402344 84.25196075439453 70.88229370117188 87.56893157958984 65.40481567382812 89.88570404052734 C 59.73468017578125 92.28397369384766 53.71062850952148 93.5 47.5 93.5 Z" stroke="none"/>
          <path d="M 47.5 3 C 41.49121475219727 3 35.66376876831055 4.176155090332031 30.17950439453125 6.495796203613281 C 24.88084411621094 8.736953735351562 20.12152099609375 11.94598388671875 16.03375244140625 16.03375244140625 C 11.94598388671875 20.12152099609375 8.736953735351562 24.88084411621094 6.495796203613281 30.17950439453125 C 4.176155090332031 35.66376876831055 3 41.49121475219727 3 47.5 C 3 53.50878524780273 4.176155090332031 59.33623123168945 6.495796203613281 64.82049560546875 C 8.736953735351562 70.11915588378906 11.94598388671875 74.87847900390625 16.03375244140625 78.96624755859375 C 20.12152099609375 83.05401611328125 24.88084411621094 86.26304626464844 30.17950439453125 88.50419616699219 C 35.66376876831055 90.82384490966797 41.49121475219727 92 47.5 92 C 53.50878524780273 92 59.33623123168945 90.82384490966797 64.82049560546875 88.50419616699219 C 70.11915588378906 86.26304626464844 74.87847900390625 83.05401611328125 78.96624755859375 78.96624755859375 C 83.05401611328125 74.87847900390625 86.26304626464844 70.11915588378906 88.50419616699219 64.82049560546875 C 90.82384490966797 59.33623123168945 92 53.50878524780273 92 47.5 C 92 41.49121475219727 90.82384490966797 35.66376876831055 88.50419616699219 30.17950439453125 C 86.26304626464844 24.88084411621094 83.05401611328125 20.12152099609375 78.96624755859375 16.03375244140625 C 74.87847900390625 11.94598388671875 70.11915588378906 8.736953735351562 64.82049560546875 6.495796203613281 C 59.33623123168945 4.176155090332031 53.50878524780273 3 47.5 3 M 47.5 0 C 73.7335205078125 0 95 21.2664794921875 95 47.5 C 95 73.7335205078125 73.7335205078125 95 47.5 95 C 21.2664794921875 95 0 73.7335205078125 0 47.5 C 0 21.2664794921875 21.2664794921875 0 47.5 0 Z" stroke="none" fill="#ee70f7"/>
        </g>
      </g>
    </g>
    <g id="growth_12773212" transform="translate(906.448 3730.359)">
      <g id="Group_1148629" data-name="Group 1148629" transform="translate(23.585 7.927)">
        <g id="Group_1148626" data-name="Group 1148626" transform="translate(0 37.889)">
          <path id="Path_983146" data-name="Path 983146" d="M58.606,320.486l10.545-6.109c1.98-1.147,3.992-1.961,6.169-1.255,2.425.788,6.385,2.476,10.425,3.2a2.93,2.93,0,0,1,2.028,3.509,2.839,2.839,0,0,1-3.512,2.028l1.414.226a6.556,6.556,0,0,0,4.52-.788l10.139-5.905c7.882-4.589,9.039,2.473,6.42,4.087l-18.4,11.33a6.753,6.753,0,0,1-5.463.769l-13.345-3.576L64.6,330.86a2,2,0,0,1-2.721-.731l-4-6.922a2,2,0,0,1,.728-2.721Z" transform="translate(-54.194 -312.859)" fill="#f6dccd" fill-rule="evenodd"/>
          <path id="Path_983147" data-name="Path 983147" d="M58.606,320.486l10.545-6.109c1.98-1.147,3.992-1.961,6.169-1.255,1.3.42,3.035,1.1,4.987,1.751l-20.43,11.8-2-3.464A2,2,0,0,1,58.606,320.486Z" transform="translate(-54.194 -312.859)" fill="#f1cbbc" fill-rule="evenodd"/>
          <path id="Path_983148" data-name="Path 983148" d="M36.306,343.807l8.365,14.779a1.5,1.5,0,0,1-.563,2.034l-2.848,1.611a1.5,1.5,0,0,1-2.034-.566l-8.362-14.779a1.493,1.493,0,0,1,.563-2.034l2.845-1.611A1.5,1.5,0,0,1,36.306,343.807Z" transform="translate(-30.671 -339.218)" fill="#d1d1d6" fill-rule="evenodd"/>
          <path id="Path_983149" data-name="Path 983149" d="M67.518,353.961,69,356.577l1.465,2.587a1.5,1.5,0,0,1-.559,2.031l1.017-.575a1.5,1.5,0,0,0,.563-2.034l-1.468-2.6-2.949-5.212-2.953-5.216-.995-1.754a1.5,1.5,0,0,0-1.739-.693l1.719,3.038,2.949,5.212,1.468,2.593Z" transform="translate(-57.481 -339.218)" fill="#b1b1b5" fill-rule="evenodd"/>
        </g>
        <g id="Group_1148627" data-name="Group 1148627" transform="translate(11.782 15.102)">
          <path id="Path_983150" data-name="Path 983150" d="M164.171,142.381a.173.173,0,0,0-.249-.013,36.483,36.483,0,0,1-15.909,8.456c-8.968,2.26-17.782,1.172-24.407-2.38a.173.173,0,0,1,.126-.319,35.212,35.212,0,0,0,17.214-.3,48.409,48.409,0,0,0,18.843-10.207.173.173,0,0,0,.012-.241l-2.489-2.845a.173.173,0,0,1,.116-.287l11.054-.948a.173.173,0,0,1,.186.2l-1.809,11.526a.173.173,0,0,1-.3.087Z" transform="translate(-123.517 -133.296)" fill="#8ac9fe" fill-rule="evenodd"/>
          <path id="Path_983151" data-name="Path 983151" d="M127.137,150.028a27.942,27.942,0,0,1-3.531-1.583.173.173,0,0,1,.126-.319,35.212,35.212,0,0,0,17.214-.3c6.041-1.524,14.156-6.034,18.862-10.227l.505.578a.173.173,0,0,1-.012.24c-4.654,4.351-13.1,9.1-19.356,10.678A36.15,36.15,0,0,1,127.137,150.028Zm30.981-14.573-.807-.923a.173.173,0,0,1,.116-.287l11.054-.948a.173.173,0,0,1,.186.2l-.168,1.069h-.018Z" transform="translate(-123.517 -133.296)" fill="#60b7ff" fill-rule="evenodd"/>
        </g>
        <g id="Group_1148628" data-name="Group 1148628" transform="translate(14.352 0)">
          <path id="Path_983152" data-name="Path 983152" d="M158.827,16.367a10.707,10.707,0,0,1,3.138,1.3l2.039-.9,2.4,2.4-.9,2.039a10.706,10.706,0,0,1,1.3,3.138l2.081.8v3.4l-2.081.8a10.715,10.715,0,0,1-1.3,3.137l.9,2.039-2.4,2.4-2.039-.906a10.706,10.706,0,0,1-3.138,1.3l-.8,2.079h-3.4l-.8-2.081a10.714,10.714,0,0,1-3.137-1.3l-2.039.906-2.4-2.4.906-2.038a10.741,10.741,0,0,1-1.3-3.138l-2.079-.8v-3.4l2.079-.8a10.707,10.707,0,0,1,1.3-3.138l-.906-2.039,2.4-2.4,2.038.9a10.74,10.74,0,0,1,3.138-1.3l.8-2.081h3.4Z" transform="translate(-143.771 -14.286)" fill="#ffe177" fill-rule="evenodd"/>
          <path id="Path_983153" data-name="Path 983153" d="M194.8,17.067l.685-.3,2.4,2.4-.9,2.039a10.706,10.706,0,0,1,1.3,3.138l2.081.8v3.4l-2.081.8a10.715,10.715,0,0,1-1.3,3.137l.9,2.039-2.4,2.4-.685-.3,2.1-2.1-.906-2.039a10.71,10.71,0,0,0,1.3-3.137l2.081-.8v-3.4l-2.081-.8a10.7,10.7,0,0,0-1.3-3.138l.906-2.039Zm-14.973,0,.3-.3,2.038.9c-.144.08-.286.163-.426.251Zm10.481-.7a10.706,10.706,0,0,1,3.138,1.3l-.562.251a14.007,14.007,0,0,0-3.565-1.551l-.8-2.081h.989Zm-8.138,19.651-2.039.906-.3-.3,1.916-.851Q181.951,35.9,182.169,36.018Zm11.276,0a10.706,10.706,0,0,1-3.138,1.3l-.8,2.079h-.989l.8-2.079a14.033,14.033,0,0,0,3.567-1.551Z" transform="translate(-175.251 -14.286)" fill="#ffd064" fill-rule="evenodd"/>
          <path id="Path_983154" data-name="Path 983154" d="M201.951,66.54a5.926,5.926,0,1,1-5.925,5.926A5.926,5.926,0,0,1,201.951,66.54Z" transform="translate(-189.395 -59.909)" fill="#eceff1" fill-rule="evenodd"/>
          <path id="Path_983155" data-name="Path 983155" d="M201.951,66.54c.135,0,.268,0,.4.014a5.925,5.925,0,0,0,0,11.824c-.134.009-.267.013-.4.013a5.926,5.926,0,0,1,0-11.851Z" transform="translate(-189.395 -59.909)" fill="#d1d1d6" fill-rule="evenodd"/>
        </g>
      </g>
      <path id="Path_983156" data-name="Path 983156" d="M37.607,63.188l.8,1.416v0a2.512,2.512,0,0,1-.947,3.409l-2.835,1.607,0,0a2.512,2.512,0,0,1-3.409-.948l-8.336-14.73a2.508,2.508,0,0,1,.943-3.412l2.838-1.607h0a2.515,2.515,0,0,1,3.41.945v0l.65,1.148,7.414-4.293c2.235-1.292,4.518-2.135,6.972-1.338,2.386.774,6.282,2.442,10.258,3.16a1.028,1.028,0,0,1,.132.033,3.929,3.929,0,0,1,2.686,4.729,4.432,4.432,0,0,1-.325.857,5.5,5.5,0,0,0,1.25-.539l10.108-5.887c3.657-2.131,6.1-1.9,7.475-.973a4.2,4.2,0,0,1-.035,6.787L58.317,64.852a7.711,7.711,0,0,1-6.241.887h0l-12.9-3.457ZM29.455,52.9l-1.149-2.03h0a.477.477,0,0,0-.646-.18L24.822,52.3h0a.473.473,0,0,0-.176.644h0l8.337,14.731h0a.476.476,0,0,0,.646.178l2.833-1.605h0a.476.476,0,0,0,.178-.646L35.349,63.32,35.34,63.3,29.465,52.922Zm7.153,8.516,1.918-1.108a1.015,1.015,0,0,1,.77-.1l13.3,3.566a5.744,5.744,0,0,0,4.651-.654h0L75.594,51.83a1.874,1.874,0,0,0,.766-1.474,1.939,1.939,0,0,0-1.5-2.183c-1.069-.224-2.573.133-4.621,1.326L60.133,55.386a7.538,7.538,0,0,1-5.178.912l-1.3-.213c-2.281-.468-4.4-1.157-6.745-1.788a1.015,1.015,0,0,1,.527-1.961c2.293.616,4.359,1.292,6.585,1.752a1.842,1.842,0,0,0,2.2-1.3h0a1.9,1.9,0,0,0-1.293-2.251c-4.052-.744-8.017-2.425-10.45-3.214h0c-1.886-.612-3.612.171-5.329,1.164l-7.431,4.3Zm-9.356-9a1.177,1.177,0,1,1-1,1.333A1.176,1.176,0,0,1,27.252,52.419ZM75.8,33.52a37.72,37.72,0,0,1-15.709,8.115h0C50.317,44.1,40.721,42.677,33.784,38.5a1.015,1.015,0,0,1,.795-1.848,34.038,34.038,0,0,0,17.952.017A47.734,47.734,0,0,0,70.325,27.25l-2.171-2.481a1.015,1.015,0,0,1,.677-1.68l11.615-1a1.015,1.015,0,0,1,1.09,1.169l-1.9,12.111a1.015,1.015,0,0,1-1.767.511ZM76.65,31.4l1.317,1.507,1.363-8.684L71,24.941l1.505,1.721a1.015,1.015,0,0,1-.066,1.406A49.44,49.44,0,0,1,53.027,38.635a38.8,38.8,0,0,1-10.494,1.247A35.562,35.562,0,0,0,59.6,39.667,35.419,35.419,0,0,0,75.19,31.333a1.015,1.015,0,0,1,1.46.072ZM53.739,9.252a11.7,11.7,0,0,1,2.44,1.011l1.564-.7a1.015,1.015,0,0,1,1.13.21l2.4,2.4a1.015,1.015,0,0,1,.21,1.129l-.693,1.565a11.675,11.675,0,0,1,1.012,2.445l1.6.614a1.015,1.015,0,0,1,.651.947v3.4a1.015,1.015,0,0,1-.651.948l-1.6.614a11.785,11.785,0,0,1-1.012,2.44l.694,1.566a1.015,1.015,0,0,1-.21,1.129l-2.4,2.4a1.015,1.015,0,0,1-1.129.21l-1.564-.693a11.665,11.665,0,0,1-2.442,1.011l-.614,1.6a1.015,1.015,0,0,1-.947.651h-3.4a1.015,1.015,0,0,1-.947-.651l-.614-1.6a11.766,11.766,0,0,1-2.443-1.012l-1.566.694a1.015,1.015,0,0,1-1.129-.21l-2.4-2.4a1.015,1.015,0,0,1-.21-1.13l.7-1.564a11.754,11.754,0,0,1-1.013-2.44l-1.6-.615a1.015,1.015,0,0,1-.65-.948v-3.4a1.015,1.015,0,0,1,.65-.947l1.6-.614a11.769,11.769,0,0,1,1.014-2.443l-.7-1.564a1.015,1.015,0,0,1,.21-1.13l2.4-2.4a1.015,1.015,0,0,1,1.13-.21l1.564.7a11.69,11.69,0,0,1,2.441-1.011l.617-1.6A1.015,1.015,0,0,1,48.779,7h3.4a1.015,1.015,0,0,1,.948.651Zm-1.709,1.214L51.48,9.033h-2l-.554,1.434a1.015,1.015,0,0,1-.712.622,9.67,9.67,0,0,0-2.84,1.177,1.015,1.015,0,0,1-.945.063l-1.4-.623-1.416,1.416.624,1.4a1.015,1.015,0,0,1-.063.945,9.754,9.754,0,0,0-1.181,2.846,1.015,1.015,0,0,1-.623.711l-1.43.55v2l1.43.55a1.015,1.015,0,0,1,.622.71,9.736,9.736,0,0,0,1.18,2.842,1.015,1.015,0,0,1,.064.946l-.624,1.4,1.417,1.417,1.4-.621a1.015,1.015,0,0,1,.941.063,9.744,9.744,0,0,0,2.845,1.178,1.015,1.015,0,0,1,.713.623l.55,1.43h2l.55-1.43a1.015,1.015,0,0,1,.713-.623,9.636,9.636,0,0,0,2.839-1.176,1.015,1.015,0,0,1,.945-.065l1.4.621,1.418-1.418-.621-1.4a1.015,1.015,0,0,1,.063-.942,9.761,9.761,0,0,0,1.178-2.842,1.015,1.015,0,0,1,.623-.713l1.43-.55v-2l-1.43-.55a1.015,1.015,0,0,1-.623-.713A9.654,9.654,0,0,0,58.79,15.47a1.015,1.015,0,0,1-.064-.944l.621-1.4-1.417-1.417-1.4.623a1.015,1.015,0,0,1-.945-.063,9.67,9.67,0,0,0-2.84-1.177,1.015,1.015,0,0,1-.713-.624Zm-1.554,3.169a6.944,6.944,0,1,1-6.942,6.942A6.943,6.943,0,0,1,50.477,13.635Zm0,2.03a4.914,4.914,0,1,0,4.915,4.912A4.91,4.91,0,0,0,50.477,15.665Z" transform="translate(0 0)" fill-rule="evenodd"/>
    </g>
  </g>
</svg>
