<svg xmlns="http://www.w3.org/2000/svg" xmlns:xlink="http://www.w3.org/1999/xlink" width="108" height="108" viewBox="0 0 108 108">
  <defs>
    <filter id="Path_982547" x="0" y="0" width="108" height="108" filterUnits="userSpaceOnUse">
      <feOffset dy="3" input="SourceAlpha"/>
      <feGaussianBlur stdDeviation="3" result="blur"/>
      <feFlood flood-opacity="0.161"/>
      <feComposite operator="in" in2="blur"/>
      <feComposite in="SourceGraphic"/>
    </filter>
  </defs>
  <g id="Group_1148534" data-name="Group 1148534" transform="translate(-590 -3427)">
    <g id="Group_1147066" data-name="Group 1147066" transform="translate(-26 -556)">
      <g transform="matrix(1, 0, 0, 1, 616, 3983)" filter="url(#Path_982547)">
        <g id="Path_982547-2" data-name="Path 982547" transform="translate(9 6)" fill="#fdeffe">
          <path d="M 45 88.5 C 39.12687683105469 88.5 33.43022537231445 87.35007476806641 28.06830024719238 85.08217620849609 C 22.88852500915527 82.89131164550781 18.23629951477051 79.75458526611328 14.2408504486084 75.75914764404297 C 10.24541282653809 71.76370239257812 7.108687400817871 67.11147308349609 4.917825222015381 61.93170166015625 C 2.649924993515015 56.56977462768555 1.5 50.87312316894531 1.5 45 C 1.5 39.12687683105469 2.649924993515015 33.43022537231445 4.917825222015381 28.06830024719238 C 7.108687400817871 22.88852500915527 10.24541282653809 18.23629951477051 14.2408504486084 14.2408504486084 C 18.23629951477051 10.24541282653809 22.88852500915527 7.108687400817871 28.06830024719238 4.917825222015381 C 33.43022537231445 2.649924993515015 39.12687683105469 1.5 45 1.5 C 50.87312316894531 1.5 56.56977462768555 2.649924993515015 61.93170166015625 4.917825222015381 C 67.11147308349609 7.108687400817871 71.76370239257812 10.24541282653809 75.75914764404297 14.2408504486084 C 79.75458526611328 18.23629951477051 82.89131164550781 22.88852500915527 85.08217620849609 28.06830024719238 C 87.35007476806641 33.43022537231445 88.5 39.12687683105469 88.5 45 C 88.5 50.87312316894531 87.35007476806641 56.56977462768555 85.08217620849609 61.93170166015625 C 82.89131164550781 67.11147308349609 79.75458526611328 71.76370239257812 75.75914764404297 75.75914764404297 C 71.76370239257812 79.75458526611328 67.11147308349609 82.89131164550781 61.93170166015625 85.08217620849609 C 56.56977462768555 87.35007476806641 50.87312316894531 88.5 45 88.5 Z" stroke="none"/>
          <path d="M 45 3 C 39.32871246337891 3 33.82865524291992 4.110054016113281 28.65262985229492 6.299339294433594 C 23.65165710449219 8.414573669433594 19.15968322753906 11.44334411621094 15.301513671875 15.301513671875 C 11.44334411621094 19.15968322753906 8.414573669433594 23.65165710449219 6.299339294433594 28.65262985229492 C 4.110054016113281 33.82865524291992 3 39.32871246337891 3 45 C 3 50.67128753662109 4.110054016113281 56.17134475708008 6.299339294433594 61.34737396240234 C 8.414573669433594 66.34834289550781 11.44334411621094 70.84031677246094 15.301513671875 74.698486328125 C 19.15968322753906 78.55665588378906 23.65165710449219 81.58542633056641 28.65262985229492 83.70066070556641 C 33.82865524291992 85.88994598388672 39.32871246337891 87 45 87 C 50.67128753662109 87 56.17134475708008 85.88994598388672 61.34737396240234 83.70066070556641 C 66.34834289550781 81.58542633056641 70.84031677246094 78.55665588378906 74.698486328125 74.698486328125 C 78.55665588378906 70.84031677246094 81.58542633056641 66.34834289550781 83.70066070556641 61.34737396240234 C 85.88994598388672 56.17134475708008 87 50.67128753662109 87 45 C 87 39.32871246337891 85.88994598388672 33.82865524291992 83.70066070556641 28.65262985229492 C 81.58542633056641 23.65165710449219 78.55665588378906 19.15968322753906 74.698486328125 15.301513671875 C 70.84031677246094 11.44334411621094 66.34834289550781 8.414573669433594 61.34737396240234 6.299339294433594 C 56.17134475708008 4.110054016113281 50.67128753662109 3 45 3 M 45 0 C 69.85281372070312 0 90 20.14718627929688 90 45 C 90 69.85281372070312 69.85281372070312 90 45 90 C 20.14718627929688 90 0 69.85281372070312 0 45 C 0 20.14718627929688 20.14718627929688 0 45 0 Z" stroke="none" fill="#ee70f7"/>
        </g>
      </g>
    </g>
    <g id="mobile-shopping" transform="translate(599.114 3447.644)">
      <path id="Path_982902" data-name="Path 982902" d="M30.387,11H51.36a3.116,3.116,0,0,1,3.107,3.107V57.528a3.116,3.116,0,0,1-3.107,3.107H30.387a3.116,3.116,0,0,1-3.107-3.107V14.107A3.116,3.116,0,0,1,30.387,11Z" transform="translate(-5.31 -5.31)" fill="#69d6f4" fill-rule="evenodd"/>
      <path id="Path_982903" data-name="Path 982903" d="M96.557,11l-1.013,3.117H82.953L81.94,11Z" transform="translate(-53.685 -5.31)" fill="#999" fill-rule="evenodd"/>
      <path id="Path_982904" data-name="Path 982904" d="M252.924,20.51a13.037,13.037,0,1,1-5.787,24.722l-9.6,1.2,3.468-7.589A13.042,13.042,0,0,1,252.924,20.51Z" transform="translate(-191.393 -13.726)" fill="#fcd770" fill-rule="evenodd"/>
      <path id="Path_982905" data-name="Path 982905" d="M124.563,418.668l-.433-3.118h-5.386l-.433,3.118Z" transform="translate(-85.873 -363.343)" fill="#999" fill-rule="evenodd"/>
      <path id="Path_982906" data-name="Path 982906" d="M339.1,104.42l-.784,2.68-1.28,4.375h-8.287l-1.28-4.375-.785-2.68Z" transform="translate(-270.284 -87.988)" fill="#fc6e51" fill-rule="evenodd"/>
      <circle id="Ellipse_11555" data-name="Ellipse 11555" cx="1.108" cy="1.108" r="1.108" transform="translate(59.248 26.461)" fill="#fc6e51"/>
      <circle id="Ellipse_11556" data-name="Ellipse 11556" cx="1.108" cy="1.108" r="1.108" transform="translate(63.279 27.572) rotate(-45)" fill="#fc6e51"/>
      <g id="Group_1148533" data-name="Group 1148533" transform="translate(27.89 14.989)">
        <path id="Path_982907" data-name="Path 982907" d="M79.342,91.87H90.159l.574,9.9a1.824,1.824,0,0,1-1.855,1.855H80.623a1.824,1.824,0,0,1-1.855-1.855Z" transform="translate(-78.765 -91.87)" fill="#fcd770" fill-rule="evenodd"/>
        <path id="Path_982908" data-name="Path 982908" d="M108.712,128.29h10.817l.574,9.9a1.824,1.824,0,0,1-1.855,1.855h-8.255a1.824,1.824,0,0,1-1.855-1.855Z" transform="translate(-104.758 -124.102)" fill="#fcd770" fill-rule="evenodd"/>
        <path id="Path_982909" data-name="Path 982909" d="M0,0H15.023V3.877H0Z" transform="translate(15.846 43.016) rotate(-15.009)" fill="#fcd770" fill-rule="evenodd"/>
      </g>
      <path id="Path_982910" data-name="Path 982910" d="M188.585,273.42l0,.012,1.053,3.931a.23.23,0,0,0,.444-.12l-3.3-12.3a1.346,1.346,0,1,1,2.6-.7l2.41,8.994a.23.23,0,0,0,.445-.12l-.973-3.632,0-.013a1.346,1.346,0,0,1,2.609-.666l.969,3.615a.231.231,0,0,0,.166.163.222.222,0,0,0,.116,0,.232.232,0,0,0,.163-.282l-.8-2.993,0-.008a.052.052,0,0,0,0-.006,1.346,1.346,0,0,1,2.61-.659l.8,2.97a.232.232,0,0,0,.282.163.229.229,0,0,0,.162-.282l-.445-1.658v-.009a1.346,1.346,0,0,1,2.61-.659l1.925,7.183a6.411,6.411,0,0,1,.259,2.511,3.935,3.935,0,0,1-.528,1.415,2.786,2.786,0,0,0-.439,2.1l.071.414-10.38,2.777-.144-.4a3.222,3.222,0,0,0-.56-.99,4.269,4.269,0,0,0-1.163-.9,4.3,4.3,0,0,1-.962-.7,2.928,2.928,0,0,1-.682-1.3l-1.9-7.087a1.346,1.346,0,0,1,2.515-.93A1.277,1.277,0,0,1,188.585,273.42Z" transform="translate(-145.74 -228.551)" fill="#f0d0b4" fill-rule="evenodd"/>
      <path id="Path_982911" data-name="Path 982911" d="M39.062,47.931a.69.69,0,0,1-.69.69H31.218a.69.69,0,1,1,0-1.38h7.154A.69.69,0,0,1,39.062,47.931Zm-8.534-3.757a.69.69,0,0,1,.69-.69h6.673a.69.69,0,0,1,0,1.38H31.218A.689.689,0,0,1,30.528,44.174Zm9.731-3.757a.69.69,0,0,1-.69.69H31.218a.69.69,0,1,1,0-1.38H39.57A.69.69,0,0,1,40.259,40.418Zm-9.731-3.757a.69.69,0,0,1,.69-.69h7.366a.69.69,0,1,1,0,1.38H31.218a.689.689,0,0,1-.69-.69Zm-1.336,11.27a.69.69,0,0,1-.69.69H25.384a.69.69,0,1,1,0-1.38H28.5A.689.689,0,0,1,29.192,47.931Zm0-3.757a.69.69,0,0,1-.69.69H25.384a.69.69,0,1,1,0-1.38H28.5A.69.69,0,0,1,29.192,44.174Zm0-3.757a.69.69,0,0,1-.69.69H25.384a.69.69,0,1,1,0-1.38H28.5A.689.689,0,0,1,29.192,40.418Zm0-3.757a.69.69,0,0,1-.69.69H25.384a.69.69,0,1,1,0-1.38H28.5A.689.689,0,0,1,29.192,36.661ZM40.41,28.377a.692.692,0,1,1-.7-.69h.009a.69.69,0,0,1,.69.69Zm-4.926,0a.692.692,0,1,1-.7-.69h.009A.69.69,0,0,1,35.484,28.377Zm2.463,0a.692.692,0,1,1-.7-.69h.009a.69.69,0,0,1,.69.69Zm-3.772-5.334v-1.7a.69.69,0,1,1,1.38,0v1.7a1.7,1.7,0,0,0,3.394,0v-1.7a.69.69,0,0,1,1.38,0v1.7a3.077,3.077,0,0,1-6.154,0Zm8.086,6.816a.994.994,0,0,0,.284-.744l-.536-9.249H32.495l-.536,9.249a1,1,0,0,0,.284.744,1.219,1.219,0,0,0,.882.382h8.255A1.219,1.219,0,0,0,42.261,29.859ZM31.155,19.136a.689.689,0,0,1,.689-.65h6.951l-.163-2.808H36.95v.285a.69.69,0,0,1-1.38,0v-.285H32.177v.285a.69.69,0,0,1-1.38,0v-.285h-1.68l-.536,9.249a1,1,0,0,0,.284.744,1.219,1.219,0,0,0,.882.382h1.006Zm1.023-4.877a1.7,1.7,0,0,1,3.394,0V14.3H32.179V14.26Zm11.171,4.877a.689.689,0,0,0-.689-.65H40.177l-.2-3.537a.69.69,0,0,0-.689-.65H36.951v-.039a3.077,3.077,0,1,0-6.154,0V14.3H28.467a.69.69,0,0,0-.689.65l-.574,9.9a2.362,2.362,0,0,0,.658,1.771,2.605,2.605,0,0,0,1.886.814h.927l-.093,1.6a2.359,2.359,0,0,0,.659,1.771,2.605,2.605,0,0,0,1.886.814h8.255a2.605,2.605,0,0,0,1.886-.814,2.362,2.362,0,0,0,.658-1.771ZM66.231,22.8H58.979l-1.66-5.676H67.893Zm-1.378,5.192a.419.419,0,1,1,.419-.419A.419.419,0,0,1,64.854,27.988Zm-4.5,0a.419.419,0,1,1,.419-.419A.419.419,0,0,1,60.355,27.988Zm8.457-12.246h-11.9l-.351-1.2a.689.689,0,0,0-.662-.5H53.582a.69.69,0,0,0,0,1.38h1.8l.351,1.2,1.857,6.347a1.864,1.864,0,0,0,.785,3.554h.515a1.8,1.8,0,1,0,2.925,0h1.572a1.8,1.8,0,1,0,2.925,0h.431a.69.69,0,0,0,0-1.38h-8.37a.485.485,0,1,1,0-.97l.052,0,.032,0h8.287a.691.691,0,0,0,.662-.5l2.064-7.055a.687.687,0,0,0-.66-.882ZM61.531,32.168a12.341,12.341,0,1,0-11.285-7.331.691.691,0,0,1,0,.567L47.29,31.867l8.369-1.048a.717.717,0,0,1,.085,0,.7.7,0,0,1,.307.071A12.226,12.226,0,0,0,61.531,32.168ZM48.467,38.823V33.112l-2.234.279a.689.689,0,0,1-.713-.97l3.34-7.311a13.75,13.75,0,0,1-.393-9.506V8.8A2.42,2.42,0,0,0,46.05,6.38H43.373l-.858,2.641a.69.69,0,0,1-.657.476H29.268a.69.69,0,0,1-.655-.475L27.75,6.38H25.077A2.42,2.42,0,0,0,22.66,8.8V52.218a2.42,2.42,0,0,0,2.417,2.417h6.76l.351-2.523a.69.69,0,0,1,.683-.6h5.386a.69.69,0,0,1,.683.594l.351,2.523h2.876a3.808,3.808,0,0,1-.893-1.685l-1.9-7.088a2.267,2.267,0,0,1,2.506-2.831l-1.717-6.406A2.267,2.267,0,0,1,44.54,35.45l.9,3.367a2.234,2.234,0,0,1,.808-.407,2.268,2.268,0,0,1,2.115.516C48.4,38.893,48.431,38.857,48.467,38.823Zm2.445,1.38.8,2.97a.69.69,0,0,0,1.333-.358l-.44-1.644s0-.007,0-.01a.886.886,0,0,1,1.718-.433L56.24,47.91c.571,2.134.166,2.871-.227,3.585a3.267,3.267,0,0,0-.49,2.4l-9.564,2.563a3.84,3.84,0,0,0-1.919-2.13,2.487,2.487,0,0,1-1.435-1.731l-1.9-7.087a.886.886,0,0,1,1.656-.612.919.919,0,0,1,.046.117l0,.015,1.046,3.9a.69.69,0,1,0,1.333-.358l-3.3-12.3a.886.886,0,1,1,1.712-.459l2.41,8.994a.69.69,0,1,0,1.333-.358l-.972-3.627s0-.006,0-.008a.886.886,0,0,1,1.718-.438l.969,3.615A.69.69,0,1,0,50,43.634l-.8-2.984s0-.007,0-.01a.893.893,0,0,1,.634-1.06.882.882,0,0,1,1.084.623Zm7.764,17.335-.766-2.856-13.622,3.65.766,2.856Zm-25.446-2.9.241-1.737h4.184l.241,1.737ZM41.922,6.38l-.565,1.739H29.769L29.2,6.38Zm19.608-.287a13.73,13.73,0,0,0-11.684,6.53V8.8A3.8,3.8,0,0,0,46.05,5H25.077a3.8,3.8,0,0,0-3.8,3.8V52.218a3.8,3.8,0,0,0,3.8,3.8H44.04v-.029a2.052,2.052,0,0,1,.581.827l-1.357.363a.69.69,0,0,0-.488.845L43.9,62.21a.687.687,0,0,0,.666.512.722.722,0,0,0,.178-.023L59.7,58.691a.69.69,0,0,0,.488-.845l-1.122-4.189a.69.69,0,0,0-.845-.488l-1.357.363a1.978,1.978,0,0,1,.36-1.373c.475-.864,1.066-1.937.351-4.607l-1.925-7.183a2.269,2.269,0,0,0-2.776-1.6,2.223,2.223,0,0,0-.889.475,2.273,2.273,0,0,0-2.136-1.066V32.939l5.779-.723a13.59,13.59,0,0,0,5.9,1.333,13.728,13.728,0,0,0,0-27.456Z" transform="translate(0 0)" fill="#222124" fill-rule="evenodd"/>
    </g>
  </g>
</svg>
