<svg xmlns="http://www.w3.org/2000/svg" xmlns:xlink="http://www.w3.org/1999/xlink" width="108" height="108" viewBox="0 0 108 108">
  <defs>
    <filter id="Path_982538" x="0" y="0" width="108" height="108" filterUnits="userSpaceOnUse">
      <feOffset dy="3" input="SourceAlpha"/>
      <feGaussianBlur stdDeviation="3" result="blur"/>
      <feFlood flood-opacity="0.161"/>
      <feComposite operator="in" in2="blur"/>
      <feComposite in="SourceGraphic"/>
    </filter>
  </defs>
  <g id="Group_1148559" data-name="Group 1148559" transform="translate(-201 -4165.12)">
    <g id="Group_1146955" data-name="Group 1146955" transform="translate(0 1196.12)">
      <g transform="matrix(1, 0, 0, 1, 201, 2969)" filter="url(#Path_982538)">
        <g id="Path_982538-2" data-name="Path 982538" transform="translate(9 6)" fill="#f3f3f3">
          <path d="M 45 88.5 C 39.12687683105469 88.5 33.43022537231445 87.35007476806641 28.06830024719238 85.08217620849609 C 22.88852500915527 82.89131164550781 18.23629951477051 79.75458526611328 14.2408504486084 75.75914764404297 C 10.24541282653809 71.76370239257812 7.108687400817871 67.11147308349609 4.917825222015381 61.93170166015625 C 2.649924993515015 56.56977462768555 1.5 50.87312316894531 1.5 45 C 1.5 39.12687683105469 2.649924993515015 33.43022537231445 4.917825222015381 28.06830024719238 C 7.108687400817871 22.88852500915527 10.24541282653809 18.23629951477051 14.2408504486084 14.2408504486084 C 18.23629951477051 10.24541282653809 22.88852500915527 7.108687400817871 28.06830024719238 4.917825222015381 C 33.43022537231445 2.649924993515015 39.12687683105469 1.5 45 1.5 C 50.87312316894531 1.5 56.56977462768555 2.649924993515015 61.93170166015625 4.917825222015381 C 67.11147308349609 7.108687400817871 71.76370239257812 10.24541282653809 75.75914764404297 14.2408504486084 C 79.75458526611328 18.23629951477051 82.89131164550781 22.88852500915527 85.08217620849609 28.06830024719238 C 87.35007476806641 33.43022537231445 88.5 39.12687683105469 88.5 45 C 88.5 50.87312316894531 87.35007476806641 56.56977462768555 85.08217620849609 61.93170166015625 C 82.89131164550781 67.11147308349609 79.75458526611328 71.76370239257812 75.75914764404297 75.75914764404297 C 71.76370239257812 79.75458526611328 67.11147308349609 82.89131164550781 61.93170166015625 85.08217620849609 C 56.56977462768555 87.35007476806641 50.87312316894531 88.5 45 88.5 Z" stroke="none"/>
          <path d="M 45 3 C 39.32871246337891 3 33.82865524291992 4.110054016113281 28.65262985229492 6.299339294433594 C 23.65165710449219 8.414573669433594 19.15968322753906 11.44334411621094 15.301513671875 15.301513671875 C 11.44334411621094 19.15968322753906 8.414573669433594 23.65165710449219 6.299339294433594 28.65262985229492 C 4.110054016113281 33.82865524291992 3 39.32871246337891 3 45 C 3 50.67128753662109 4.110054016113281 56.17134475708008 6.299339294433594 61.34737396240234 C 8.414573669433594 66.34834289550781 11.44334411621094 70.84031677246094 15.301513671875 74.698486328125 C 19.15968322753906 78.55665588378906 23.65165710449219 81.58542633056641 28.65262985229492 83.70066070556641 C 33.82865524291992 85.88994598388672 39.32871246337891 87 45 87 C 50.67128753662109 87 56.17134475708008 85.88994598388672 61.34737396240234 83.70066070556641 C 66.34834289550781 81.58542633056641 70.84031677246094 78.55665588378906 74.698486328125 74.698486328125 C 78.55665588378906 70.84031677246094 81.58542633056641 66.34834289550781 83.70066070556641 61.34737396240234 C 85.88994598388672 56.17134475708008 87 50.67128753662109 87 45 C 87 39.32871246337891 85.88994598388672 33.82865524291992 83.70066070556641 28.65262985229492 C 81.58542633056641 23.65165710449219 78.55665588378906 19.15968322753906 74.698486328125 15.301513671875 C 70.84031677246094 11.44334411621094 66.34834289550781 8.414573669433594 61.34737396240234 6.299339294433594 C 56.17134475708008 4.110054016113281 50.67128753662109 3 45 3 M 45 0 C 69.85281372070312 0 90 20.14718627929688 90 45 C 90 69.85281372070312 69.85281372070312 90 45 90 C 20.14718627929688 90 0 69.85281372070312 0 45 C 0 20.14718627929688 20.14718627929688 0 45 0 Z" stroke="none" fill="#fe9d52"/>
        </g>
      </g>
    </g>
    <g id="idea" transform="translate(218.801 4186.01)">
      <g id="Group_1148557" data-name="Group 1148557" transform="translate(9.895 0.873)">
        <path id="Path_982961" data-name="Path 982961" d="M224.541,46.325l-3.075,2.734V87.847l3.075,2.733H231v-4a.821.821,0,0,1,.455-.737,20.834,20.834,0,0,0,11.607-18.684C243.068,55.653,232.314,46.325,224.541,46.325Z" transform="translate(-197.24 -41.749)" fill="#ffe177"/>
        <path id="Path_982962" data-name="Path 982962" d="M245.484,46.325l-.283.252a20.839,20.839,0,0,1,17.587,20.582c0,8.193-4.73,13.517-11.607,16.92a.822.822,0,0,0-.455.737V90.58h3.529v-4a.821.821,0,0,1,.455-.737,20.837,20.837,0,0,0-9.226-39.518Z" transform="translate(-218.183 -41.749)" fill="#f9d45d"/>
        <path id="Path_982963" data-name="Path 982963" d="M206.188,412.826a1.832,1.832,0,0,0-1.832-1.832H190.775v10.99h9.773a1.769,1.769,0,0,0,1.769-1.769v-1.894h2.04a4.1,4.1,0,0,1,1.832-5.495Z" transform="translate(-170.159 -363.519)" fill="#808b95"/>
        <path id="Path_982964" data-name="Path 982964" d="M274.021,412.826a1.832,1.832,0,0,0-1.832-1.832H268.66a4.1,4.1,0,0,0,1.832,5.495,1.832,1.832,0,0,1-1.832,1.832h-2.04v1.894a1.769,1.769,0,0,1-1.769,1.769h3.529a1.769,1.769,0,0,0,1.769-1.769V418.32h2.04a4.1,4.1,0,0,1,1.832-5.495Z" transform="translate(-235.521 -363.519)" fill="#5e6b75"/>
        <g id="Group_1148554" data-name="Group 1148554" transform="translate(24.226 12.112)">
          <path id="Path_982965" data-name="Path 982965" d="M238.763,124.7a12.952,12.952,0,0,0,0-3.09l-3.163-1.125a9.824,9.824,0,0,0-.9-2.169l1.441-3.032a12.843,12.843,0,0,0-2.185-2.185l-3.032,1.441a9.824,9.824,0,0,0-2.169-.9l-1.125-3.163a12.951,12.951,0,0,0-3.09,0l-3.077,2.367v20.5l3.077,2.487a12.952,12.952,0,0,0,3.09,0l1.125-3.163a9.824,9.824,0,0,0,2.169-.9l3.032,1.441a12.851,12.851,0,0,0,2.185-2.185L234.7,127.99a9.818,9.818,0,0,0,.9-2.169Z" transform="translate(-221.465 -110.383)" fill="#9dcffd"/>
          <path id="Path_982966" data-name="Path 982966" d="M224.542,167.835l-3.077,6,3.077,6c.5.13,5.6-1.081,5.6-6C230.139,169.125,225.043,167.7,224.542,167.835Z" transform="translate(-221.465 -161.07)" fill="#f0fcff"/>
          <path id="Path_982967" data-name="Path 982967" d="M247.623,166.37v.116a6.205,6.205,0,0,1,0,11.773v.116a6.2,6.2,0,1,0,0-12.005Z" transform="translate(-244.546 -159.604)" fill="#d7ecfe"/>
        </g>
        <g id="Group_1148555" data-name="Group 1148555" transform="translate(0 0.202)">
          <path id="Path_982968" data-name="Path 982968" d="M34.174,67.18a7.3,7.3,0,0,1-5.037-4.524A8.647,8.647,0,0,1,20.568,48.8a5.15,5.15,0,0,1-1.755-9.893,7.285,7.285,0,0,1,1.688-13,10.5,10.5,0,0,1-.058-1.1A10.373,10.373,0,0,1,30.816,14.438l.185,0a7.537,7.537,0,0,1,1.816-3.377A6.865,6.865,0,0,1,36.07,9.143c.256-.072,4.554,1.024,4.554,4.969V60.54c0,7.127-5.877,6.786-6.45,6.641Z" transform="translate(-15.526 -9.14)" fill="#fd8087"/>
        </g>
        <g id="Group_1148556" data-name="Group 1148556" transform="translate(10.034)">
          <path id="Path_982969" data-name="Path 982969" d="M100.872,464.073l-.048.01.056.012Z" transform="translate(-100.824 -410.354)" fill="#fe646f"/>
          <path id="Path_982970" data-name="Path 982970" d="M177,7.452a6.847,6.847,0,0,0-1.05.176q-.125.035-.252.075a5.179,5.179,0,0,1,3.481,4.894V59.024a6.865,6.865,0,0,1-5.125,6.641,7.3,7.3,0,0,0,1.791.222,6.863,6.863,0,0,0,6.863-6.863V12.6A5.168,5.168,0,0,0,177,7.452Z" transform="translate(-165.438 -7.422)" fill="#fe646f"/>
        </g>
      </g>
      <g id="Group_1148558" data-name="Group 1148558" transform="translate(9.144 0)">
        <path id="Path_982971" data-name="Path 982971" d="M145.775,156.836a.883.883,0,0,0,.863-.7,3.125,3.125,0,0,1,3.686-2.43.882.882,0,0,0,.355-1.728,4.892,4.892,0,0,0-5.769,3.8A.883.883,0,0,0,145.775,156.836Z" transform="translate(-128.923 -134.007)"/>
        <path id="Path_982972" data-name="Path 982972" d="M136.848,303.365a3.127,3.127,0,0,0,1.03,3.387,6.124,6.124,0,0,0-.445,5.783.882.882,0,1,0,1.613-.714,4.365,4.365,0,0,1,2.222-5.751.882.882,0,0,0-.714-1.613,6.105,6.105,0,0,0-1.519.96,1.359,1.359,0,0,1-.505-1.516.882.882,0,0,0-1.682-.535Z" transform="translate(-121.696 -267.136)"/>
        <path id="Path_982973" data-name="Path 982973" d="M51.7,10.124a.882.882,0,0,0-1.179,1.313,19.956,19.956,0,0,1-4.494,32.739,1.693,1.693,0,0,0-.947,1.528v1.761H38.079V39.388a13.826,13.826,0,0,0,2.314-.083.882.882,0,0,0,.726-.58l.976-2.744a10.725,10.725,0,0,0,1.51-.626l2.63,1.25a.882.882,0,0,0,.923-.1,13.741,13.741,0,0,0,2.335-2.335.882.882,0,0,0,.1-.923l-1.25-2.63a10.717,10.717,0,0,0,.626-1.51l2.744-.976a.882.882,0,0,0,.58-.726,13.839,13.839,0,0,0,0-3.3.882.882,0,0,0-.58-.726L48.97,22.4a10.726,10.726,0,0,0-.626-1.51l1.25-2.63a.882.882,0,0,0-.1-.923A13.744,13.744,0,0,0,47.157,15a.882.882,0,0,0-.923-.1l-2.63,1.25a10.723,10.723,0,0,0-1.51-.626l-.976-2.744a.882.882,0,0,0-.726-.58,13.89,13.89,0,0,0-2.314-.083V6.351a19.9,19.9,0,0,1,9.4,2.833.882.882,0,1,0,.911-1.511A21.674,21.674,0,0,0,37.9,4.578a6.072,6.072,0,0,0-1.829-3.04C32.553-1.621,26.418.273,24.7,5.5A11.268,11.268,0,0,0,13.941,17.255,8.143,8.143,0,0,0,9.3,22.594a.882.882,0,1,0,1.7.466A6.381,6.381,0,0,1,14.175,19.1,11.169,11.169,0,0,0,14.8,21.09a.882.882,0,0,0,1.628-.682A9.518,9.518,0,0,1,25.353,7.256a13.29,13.29,0,0,1,3.835.8.883.883,0,0,0,.341-1.7,11.153,11.153,0,0,0-2.977-.788A6.014,6.014,0,0,1,31.583,1.78a4.288,4.288,0,0,1,4.731,4.268c0,52.756.205,47.158-.721,49.273a6.2,6.2,0,0,1-10.853-.154,9.484,9.484,0,0,0,2.466-1.262.882.882,0,1,0-1.023-1.438A7.764,7.764,0,1,1,17.348,39.7a.882.882,0,1,0-.988-1.462,9.568,9.568,0,0,0-1.8,1.578,4.183,4.183,0,0,1-1.769-.684,4.271,4.271,0,0,1,2.385-7.806.882.882,0,1,0,0-1.765,6.007,6.007,0,0,0-1.863.294A6.394,6.394,0,0,1,11,26.44a.882.882,0,1,0-1.7.464,8.15,8.15,0,0,0,2.31,3.821A6.038,6.038,0,0,0,13.436,41.37a9.544,9.544,0,0,0,9.532,14.21,8.209,8.209,0,0,0,7.264,4.639H42.753A2.654,2.654,0,0,0,45.4,57.568V56.556h1.158a2.716,2.716,0,0,0,2-4.546,2.712,2.712,0,0,0-1.714-4.53V45.74A21.721,21.721,0,0,0,51.7,10.124ZM38.079,20.477a5.321,5.321,0,1,1,0,10.553ZM39.643,13.9l.937,2.635a.882.882,0,0,0,.593.554c1.923.539,2.071,1.186,2.785.846l2.526-1.2A11.967,11.967,0,0,1,47.76,18.01l-1.2,2.526a.882.882,0,0,0,.028.811c.974,1.73.636,2.306,1.372,2.567l2.635.937a12.083,12.083,0,0,1,0,1.8l-2.635.937c-.739.263-.4.833-1.372,2.567a.882.882,0,0,0-.028.812l1.2,2.526a11.989,11.989,0,0,1-1.275,1.275l-2.526-1.2c-.71-.338-.869.309-2.786.846a.882.882,0,0,0-.593.554l-.937,2.635a12.142,12.142,0,0,1-1.565.015V32.8a7.085,7.085,0,1,0,0-14.1V13.885a12.142,12.142,0,0,1,1.565.015Zm4,43.668a.888.888,0,0,1-.887.887h-7.5a7.808,7.808,0,0,0,1.664-1.9H43.64Zm3.872-7.389a.95.95,0,0,1-.949.949H44.32a.882.882,0,0,0,0,1.765h2.242a.949.949,0,1,1,0,1.9H37.725a7.7,7.7,0,0,0,.343-1.9h2.407a.882.882,0,0,0,0-1.765h-2.4v-1.9h8.483a.951.951,0,0,1,.949.949Z" transform="translate(-9.144 0)"/>
        <path id="Path_982974" data-name="Path 982974" d="M455.316,219.168h-4.445a.882.882,0,1,0,0,1.765h4.445a.882.882,0,1,0,0-1.765Z" transform="translate(-398.13 -193.386)"/>
        <path id="Path_982975" data-name="Path 982975" d="M435.924,92.941l4.584-4.574a.882.882,0,1,0-1.246-1.249l-4.584,4.574a.882.882,0,0,0,1.246,1.249Z" transform="translate(-384.391 -76.642)"/>
        <path id="Path_982976" data-name="Path 982976" d="M440.337,315.468l-4.584-2.752a.882.882,0,0,0-.908,1.513l4.584,2.752a.882.882,0,0,0,.908-1.513Z" transform="translate(-384.389 -275.818)"/>
      </g>
    </g>
  </g>
</svg>
