<svg xmlns="http://www.w3.org/2000/svg" xmlns:xlink="http://www.w3.org/1999/xlink" width="108" height="108" viewBox="0 0 108 108">
  <defs>
    <filter id="Path_982547" x="0" y="0" width="108" height="108" filterUnits="userSpaceOnUse">
      <feOffset dy="3" input="SourceAlpha"/>
      <feGaussianBlur stdDeviation="3" result="blur"/>
      <feFlood flood-opacity="0.161"/>
      <feComposite operator="in" in2="blur"/>
      <feComposite in="SourceGraphic"/>
    </filter>
  </defs>
  <g id="Group_1148527" data-name="Group 1148527" transform="translate(-201 -2781)">
    <g id="Group_1146954" data-name="Group 1146954" transform="translate(-415 -1202)">
      <g transform="matrix(1, 0, 0, 1, 616, 3983)" filter="url(#Path_982547)">
        <g id="Path_982547-2" data-name="Path 982547" transform="translate(9 6)" fill="#fdeffe">
          <path d="M 45 88.5 C 39.12687683105469 88.5 33.43022537231445 87.35007476806641 28.06830024719238 85.08217620849609 C 22.88852500915527 82.89131164550781 18.23629951477051 79.75458526611328 14.2408504486084 75.75914764404297 C 10.24541282653809 71.76370239257812 7.108687400817871 67.11147308349609 4.917825222015381 61.93170166015625 C 2.649924993515015 56.56977462768555 1.5 50.87312316894531 1.5 45 C 1.5 39.12687683105469 2.649924993515015 33.43022537231445 4.917825222015381 28.06830024719238 C 7.108687400817871 22.88852500915527 10.24541282653809 18.23629951477051 14.2408504486084 14.2408504486084 C 18.23629951477051 10.24541282653809 22.88852500915527 7.108687400817871 28.06830024719238 4.917825222015381 C 33.43022537231445 2.649924993515015 39.12687683105469 1.5 45 1.5 C 50.87312316894531 1.5 56.56977462768555 2.649924993515015 61.93170166015625 4.917825222015381 C 67.11147308349609 7.108687400817871 71.76370239257812 10.24541282653809 75.75914764404297 14.2408504486084 C 79.75458526611328 18.23629951477051 82.89131164550781 22.88852500915527 85.08217620849609 28.06830024719238 C 87.35007476806641 33.43022537231445 88.5 39.12687683105469 88.5 45 C 88.5 50.87312316894531 87.35007476806641 56.56977462768555 85.08217620849609 61.93170166015625 C 82.89131164550781 67.11147308349609 79.75458526611328 71.76370239257812 75.75914764404297 75.75914764404297 C 71.76370239257812 79.75458526611328 67.11147308349609 82.89131164550781 61.93170166015625 85.08217620849609 C 56.56977462768555 87.35007476806641 50.87312316894531 88.5 45 88.5 Z" stroke="none"/>
          <path d="M 45 3 C 39.32871246337891 3 33.82865524291992 4.110054016113281 28.65262985229492 6.299339294433594 C 23.65165710449219 8.414573669433594 19.15968322753906 11.44334411621094 15.301513671875 15.301513671875 C 11.44334411621094 19.15968322753906 8.414573669433594 23.65165710449219 6.299339294433594 28.65262985229492 C 4.110054016113281 33.82865524291992 3 39.32871246337891 3 45 C 3 50.67128753662109 4.110054016113281 56.17134475708008 6.299339294433594 61.34737396240234 C 8.414573669433594 66.34834289550781 11.44334411621094 70.84031677246094 15.301513671875 74.698486328125 C 19.15968322753906 78.55665588378906 23.65165710449219 81.58542633056641 28.65262985229492 83.70066070556641 C 33.82865524291992 85.88994598388672 39.32871246337891 87 45 87 C 50.67128753662109 87 56.17134475708008 85.88994598388672 61.34737396240234 83.70066070556641 C 66.34834289550781 81.58542633056641 70.84031677246094 78.55665588378906 74.698486328125 74.698486328125 C 78.55665588378906 70.84031677246094 81.58542633056641 66.34834289550781 83.70066070556641 61.34737396240234 C 85.88994598388672 56.17134475708008 87 50.67128753662109 87 45 C 87 39.32871246337891 85.88994598388672 33.82865524291992 83.70066070556641 28.65262985229492 C 81.58542633056641 23.65165710449219 78.55665588378906 19.15968322753906 74.698486328125 15.301513671875 C 70.84031677246094 11.44334411621094 66.34834289550781 8.414573669433594 61.34737396240234 6.299339294433594 C 56.17134475708008 4.110054016113281 50.67128753662109 3 45 3 M 45 0 C 69.85281372070312 0 90 20.14718627929688 90 45 C 90 69.85281372070312 69.85281372070312 90 45 90 C 20.14718627929688 90 0 69.85281372070312 0 45 C 0 20.14718627929688 20.14718627929688 0 45 0 Z" stroke="none" fill="#ee70f7"/>
        </g>
      </g>
    </g>
    <g id="artificial-intelligence" transform="translate(222.474 2796.567)">
      <path id="Path_982833" data-name="Path 982833" d="M152,440h25.182v6.3H152Zm0,0" transform="translate(-132.065 -382.292)" fill="#656d78"/>
      <path id="Path_982834" data-name="Path 982834" d="M70.954,392v2.1a4.2,4.2,0,0,1-4.2,4.2H12.2A4.2,4.2,0,0,1,8,394.1V392Zm0,0" transform="translate(-6.951 -340.588)" fill="#969faa"/>
      <path id="Path_982835" data-name="Path 982835" d="M66.757,136H12.2A4.2,4.2,0,0,0,8,140.2v29.378H70.954V140.2A4.2,4.2,0,0,0,66.757,136Zm0,0" transform="translate(-6.951 -118.163)" fill="#69d6f4"/>
      <path id="Path_982836" data-name="Path 982836" d="M263.345,267.624H258.1l-2.1-5.246,1.951-3.893,2.245,1.794,2.833-6.6,3.851,1.4a4.2,4.2,0,0,1,2.759,3.945v8.6Zm0,0" transform="translate(-222.425 -220.409)" fill="#e6e9ed"/>
      <path id="Path_982837" data-name="Path 982837" d="M142.3,267.624H136v-8.6a4.2,4.2,0,0,1,2.759-3.945l3.851-1.4,2.833,6.6,2.245-1.794,1.951,3.893-2.1,5.246Zm0,0" transform="translate(-118.163 -220.409)" fill="#e6e9ed"/>
      <path id="Path_982838" data-name="Path 982838" d="M228.2,320l2.1,5.246H224L226.1,320Zm0,0" transform="translate(-194.622 -278.031)" fill="#ff826e"/>
      <path id="Path_982839" data-name="Path 982839" d="M228.122,272l3,2.4-1.951,3.893h-2.1l-1.951-3.893Zm0,0" transform="translate(-195.596 -236.326)" fill="#ff826e"/>
      <path id="Path_982840" data-name="Path 982840" d="M251,246.6l-3-2.4,3.148-4.2,4.932,1.794-2.833,6.6Zm0,0" transform="translate(-215.474 -208.523)" fill="#aab2bd"/>
      <path id="Path_982841" data-name="Path 982841" d="M191.477,246.6l-2.246,1.794-2.833-6.6L191.33,240l3.148,4.2Zm0,0" transform="translate(-161.952 -208.523)" fill="#aab2bd"/>
      <path id="Path_982842" data-name="Path 982842" d="M230.3,216.21v2.938l-3.148,4.2-3.148-4.2V216h6.3Zm0,0" transform="translate(-194.622 -187.671)" fill="#f0d0b4"/>
      <path id="Path_982843" data-name="Path 982843" d="M171.28,18.492v6.3l-2.77.7c-.136.378-.294.745-.462,1.112l1.459,2.455-4.449,4.449L162.6,32.048c-.367.168-.735.325-1.112.462l-.7,2.77h-6.3l-.7-2.77c-.378-.136-.745-.294-1.112-.462l-2.455,1.459-4.449-4.449,1.459-2.455c-.168-.367-.325-.735-.462-1.112l-2.77-.7v-6.3l2.77-.7c.136-.378.294-.745.462-1.112l-1.459-2.455,4.449-4.449,2.455,1.459c.367-.168.735-.325,1.112-.462l.7-2.77h6.3l.7,2.77c.378.136.745.294,1.112.462l2.455-1.459,4.449,4.449-1.459,2.455c.168.367.325.735.462,1.112Zm-6.3,3.148a7.345,7.345,0,1,0-7.345,7.345A7.339,7.339,0,0,0,164.984,21.64Zm0,0" transform="translate(-125.114 -6.951)" fill="#fcd770"/>
      <path id="Path_982844" data-name="Path 982844" d="M199.345,56A7.345,7.345,0,1,1,192,63.345,7.339,7.339,0,0,1,199.345,56Zm3.148,7.345a3.148,3.148,0,1,0-3.148,3.148A3.143,3.143,0,0,0,202.492,63.345Zm0,0" transform="translate(-166.819 -48.655)" fill="#ffeaa7"/>
      <path id="Path_982845" data-name="Path 982845" d="M59.806,16.788H47.215V10.726L44.18,9.952c-.021-.051-.042-.1-.064-.153l1.6-2.693-5.6-5.6L37.417,3.1l-.153-.064L36.488,0H28.563l-.776,3.035-.153.064L24.941,1.5l-5.6,5.6,1.6,2.693-.064.153-3.034.776v6.061H5.246A5.252,5.252,0,0,0,0,22.034V53.511a5.252,5.252,0,0,0,5.246,5.246h13.64v4.2h-4.2v2.1H50.363v-2.1h-4.2v-4.2h13.64a5.252,5.252,0,0,0,5.246-5.246V22.034a5.252,5.252,0,0,0-5.246-5.246ZM19.935,12.357l2.527-.644.186-.529a9.874,9.874,0,0,1,.414-1l.241-.506L21.973,7.436l3.3-3.3,2.242,1.33.5-.241a10.636,10.636,0,0,1,1-.415l.528-.186L30.192,2.1h4.666L35.5,4.623l.528.187a10.523,10.523,0,0,1,1,.415l.5.241,2.242-1.33,3.3,3.3L41.747,9.678l.241.506a10.369,10.369,0,0,1,.414,1l.186.529,2.528.645v4.665l-2.527.644-.186.529a9.874,9.874,0,0,1-.414,1l-.241.506,1.332,2.243-3.3,3.3-2.242-1.33-.5.241a10.635,10.635,0,0,1-1,.415l-.528.186L34.86,27.28H30.194l-.644-2.524-.528-.187a10.523,10.523,0,0,1-1-.415l-.5-.241-2.242,1.33-3.3-3.3L23.305,19.7l-.241-.506a10.369,10.369,0,0,1-.414-1l-.186-.529-2.528-.645ZM39.871,41.969v4.2H36.384l-1.659-4.15L35.882,39.7l2.311,1.849,2.982-6.957,2.919,1.062a3.159,3.159,0,0,1,2.072,2.959v7.553h-4.2v-4.2Zm-16.788,0v4.2h-4.2V38.614a3.157,3.157,0,0,1,2.072-2.958l2.919-1.062,2.982,6.957L29.17,39.7l1.157,2.315-1.659,4.149H25.181v-4.2ZM34.625,31.128l-2.1,2.8-2.1-2.8V29.378h4.2Zm-1.7,9.792h-.8l-1.279-2.558,1.679-1.344,1.68,1.344Zm-3.921-8.191,2.07,2.762L27.7,38.19l-1.848-4.314Zm3.181,10.29h.677l1.259,3.148H30.928Zm5.165-4.829-3.376-2.7,2.07-2.762L39.2,33.876ZM5.246,18.886H18.754l2.117.54c.021.051.042.1.064.153l-1.6,2.693,5.6,5.6,2.693-1.6.153.064.56,2.192h-.019v2.208l-8.089,2.941a5.261,5.261,0,0,0-3.453,4.93v9.651H48.265V38.614a5.261,5.261,0,0,0-3.453-4.93l-8.089-2.941V28.535H36.7l.56-2.192.153-.064,2.693,1.6,5.6-5.6-1.6-2.693.064-.153,2.117-.54H59.806a3.152,3.152,0,0,1,3.148,3.148V50.363H2.1V22.034a3.152,3.152,0,0,1,3.148-3.148ZM44.068,62.954H20.985v-4.2H44.068Zm15.738-6.3H5.246A3.152,3.152,0,0,1,2.1,53.511V52.462H62.954v1.049A3.152,3.152,0,0,1,59.806,56.658Zm0,0" transform="translate(0)"/>
      <path id="Path_982846" data-name="Path 982846" d="M192.394,64.788A8.394,8.394,0,1,0,184,56.394,8.4,8.4,0,0,0,192.394,64.788Zm0-14.689a6.3,6.3,0,1,1-6.3,6.3A6.3,6.3,0,0,1,192.394,50.1Zm0,0" transform="translate(-159.868 -41.705)"/>
      <path id="Path_982847" data-name="Path 982847" d="M220.2,88.394a4.2,4.2,0,1,0-4.2-4.2A4.2,4.2,0,0,0,220.2,88.394Zm0-6.3a2.1,2.1,0,1,1-2.1,2.1A2.1,2.1,0,0,1,220.2,82.1Zm0,0" transform="translate(-187.671 -69.508)"/>
      <path id="Path_982848" data-name="Path 982848" d="M32,352H42.492v2.1H32Zm0,0" transform="translate(-27.803 -305.834)"/>
      <path id="Path_982849" data-name="Path 982849" d="M32,320H42.492v2.1H32Zm0,0" transform="translate(-27.803 -278.031)"/>
      <path id="Path_982850" data-name="Path 982850" d="M32,288H42.492v2.1H32Zm0,0" transform="translate(-27.803 -250.228)"/>
      <path id="Path_982851" data-name="Path 982851" d="M384,160h10.492v2.1H384Zm0,0" transform="translate(-333.637 -139.015)"/>
      <path id="Path_982852" data-name="Path 982852" d="M384,192h10.492v2.1H384Zm0,0" transform="translate(-333.637 -166.818)"/>
      <path id="Path_982853" data-name="Path 982853" d="M384,224h10.492v2.1H384Zm0,0" transform="translate(-333.637 -194.621)"/>
      <path id="Path_982854" data-name="Path 982854" d="M384,256h10.492v2.1H384Zm0,0" transform="translate(-333.637 -222.425)"/>
      <path id="Path_982855" data-name="Path 982855" d="M32,256H42.492v2.1H32Zm0,0" transform="translate(-27.803 -222.425)"/>
    </g>
  </g>
</svg>
