<svg xmlns="http://www.w3.org/2000/svg" xmlns:xlink="http://www.w3.org/1999/xlink" width="108" height="108" viewBox="0 0 108 108">
  <defs>
    <filter id="Path_982538" x="0" y="0" width="108" height="108" filterUnits="userSpaceOnUse">
      <feOffset dy="3" input="SourceAlpha"/>
      <feGaussianBlur stdDeviation="3" result="blur"/>
      <feFlood flood-opacity="0.161"/>
      <feComposite operator="in" in2="blur"/>
      <feComposite in="SourceGraphic"/>
    </filter>
  </defs>
  <g id="Group_1148769" data-name="Group 1148769" transform="translate(-7.098 -1166.131)">
    <g id="Group_1148563" data-name="Group 1148563" transform="translate(-194 -31)">
      <g id="Group_1147078" data-name="Group 1147078" transform="translate(0.098 -1771.869)">
        <g transform="matrix(1, 0, 0, 1, 201, 2969)" filter="url(#Path_982538)">
          <g id="Path_982538-2" data-name="Path 982538" transform="translate(9 6)" fill="#f3f3f3">
            <path d="M 45 88.5 C 39.12687683105469 88.5 33.43022537231445 87.35007476806641 28.06830024719238 85.08217620849609 C 22.88852500915527 82.89131164550781 18.23629951477051 79.75458526611328 14.2408504486084 75.75914764404297 C 10.24541282653809 71.76370239257812 7.108687400817871 67.11147308349609 4.917825222015381 61.93170166015625 C 2.649924993515015 56.56977462768555 1.5 50.87312316894531 1.5 45 C 1.5 39.12687683105469 2.649924993515015 33.43022537231445 4.917825222015381 28.06830024719238 C 7.108687400817871 22.88852500915527 10.24541282653809 18.23629951477051 14.2408504486084 14.2408504486084 C 18.23629951477051 10.24541282653809 22.88852500915527 7.108687400817871 28.06830024719238 4.917825222015381 C 33.43022537231445 2.649924993515015 39.12687683105469 1.5 45 1.5 C 50.87312316894531 1.5 56.56977462768555 2.649924993515015 61.93170166015625 4.917825222015381 C 67.11147308349609 7.108687400817871 71.76370239257812 10.24541282653809 75.75914764404297 14.2408504486084 C 79.75458526611328 18.23629951477051 82.89131164550781 22.88852500915527 85.08217620849609 28.06830024719238 C 87.35007476806641 33.43022537231445 88.5 39.12687683105469 88.5 45 C 88.5 50.87312316894531 87.35007476806641 56.56977462768555 85.08217620849609 61.93170166015625 C 82.89131164550781 67.11147308349609 79.75458526611328 71.76370239257812 75.75914764404297 75.75914764404297 C 71.76370239257812 79.75458526611328 67.11147308349609 82.89131164550781 61.93170166015625 85.08217620849609 C 56.56977462768555 87.35007476806641 50.87312316894531 88.5 45 88.5 Z" stroke="none"/>
            <path d="M 45 3 C 39.32871246337891 3 33.82865524291992 4.110054016113281 28.65262985229492 6.299339294433594 C 23.65165710449219 8.414573669433594 19.15968322753906 11.44334411621094 15.301513671875 15.301513671875 C 11.44334411621094 19.15968322753906 8.414573669433594 23.65165710449219 6.299339294433594 28.65262985229492 C 4.110054016113281 33.82865524291992 3 39.32871246337891 3 45 C 3 50.67128753662109 4.110054016113281 56.17134475708008 6.299339294433594 61.34737396240234 C 8.414573669433594 66.34834289550781 11.44334411621094 70.84031677246094 15.301513671875 74.698486328125 C 19.15968322753906 78.55665588378906 23.65165710449219 81.58542633056641 28.65262985229492 83.70066070556641 C 33.82865524291992 85.88994598388672 39.32871246337891 87 45 87 C 50.67128753662109 87 56.17134475708008 85.88994598388672 61.34737396240234 83.70066070556641 C 66.34834289550781 81.58542633056641 70.84031677246094 78.55665588378906 74.698486328125 74.698486328125 C 78.55665588378906 70.84031677246094 81.58542633056641 66.34834289550781 83.70066070556641 61.34737396240234 C 85.88994598388672 56.17134475708008 87 50.67128753662109 87 45 C 87 39.32871246337891 85.88994598388672 33.82865524291992 83.70066070556641 28.65262985229492 C 81.58542633056641 23.65165710449219 78.55665588378906 19.15968322753906 74.698486328125 15.301513671875 C 70.84031677246094 11.44334411621094 66.34834289550781 8.414573669433594 61.34737396240234 6.299339294433594 C 56.17134475708008 4.110054016113281 50.67128753662109 3 45 3 M 45 0 C 69.85281372070312 0 90 20.14718627929688 90 45 C 90 69.85281372070312 69.85281372070312 90 45 90 C 20.14718627929688 90 0 69.85281372070312 0 45 C 0 20.14718627929688 20.14718627929688 0 45 0 Z" stroke="none" fill="#fe9d52"/>
          </g>
        </g>
      </g>
      <g id="_x31_3_Online_Analytics" transform="translate(219.226 1204.266)">
        <g id="Group_1148561" data-name="Group 1148561" transform="translate(6.856 18.541)">
          <path id="Path_982981" data-name="Path 982981" d="M234.239,424.349H219.226a5.753,5.753,0,0,0,2.964-5.031V416.58h9.085v2.738A5.753,5.753,0,0,0,234.239,424.349Z" transform="translate(-195.334 -371.342)" fill="#474747"/>
          <path id="Path_982982" data-name="Path 982982" d="M121.974,98.475v31.172a2.844,2.844,0,0,1-2.844,2.844h-42.8a2.844,2.844,0,0,1-2.844-2.844V98.475a2.844,2.844,0,0,1,2.844-2.844h42.8A2.844,2.844,0,0,1,121.974,98.475Z" transform="translate(-66.333 -87.252)" fill="#475da9"/>
          <path id="Path_982983" data-name="Path 982983" d="M121.964,98.474v31.171a2.844,2.844,0,0,1-2.842,2.842h-42.8a2.845,2.845,0,0,1-2.847-2.842v-.325H84.784a34.007,34.007,0,0,0,34.008-33.693h.33A2.845,2.845,0,0,1,121.964,98.474Z" transform="translate(-66.324 -87.248)" opacity="0.12"/>
          <path id="Path_982984" data-name="Path 982984" d="M108.161,130.305h40.523v26.6H108.161Z" transform="translate(-97.025 -117.944)" fill="#e8f1f8"/>
          <path id="Path_982985" data-name="Path 982985" d="M404.629,226.308v11.535a.607.607,0,0,1-.607.607h-2.694a.607.607,0,0,1-.607-.607V226.308a.607.607,0,0,1,.607-.607h2.694A.607.607,0,0,1,404.629,226.308Z" transform="translate(-355.987 -202.384)" fill="#0e9c4a"/>
          <path id="Path_982986" data-name="Path 982986" d="M404.626,226.308v11.535a.607.607,0,0,1-.607.607h-2.7a.607.607,0,0,1-.607-.607v-.061a3.3,3.3,0,0,0,2.768-3.255V225.7h.534A.607.607,0,0,1,404.626,226.308Z" transform="translate(-355.982 -202.384)" opacity="0.1"/>
          <path id="Path_982987" data-name="Path 982987" d="M351.009,203.325V217.5a.607.607,0,0,1-.607.607h-2.694a.607.607,0,0,1-.607-.607V203.325a.607.607,0,0,1,.607-.607H350.4A.607.607,0,0,1,351.009,203.325Z" transform="translate(-308.525 -182.041)" fill="#fdcf17"/>
          <path id="Path_982988" data-name="Path 982988" d="M351.006,203.325V217.5a.607.607,0,0,1-.607.607h-2.7a.607.607,0,0,1-.607-.607v-.061a3.3,3.3,0,0,0,2.768-3.255V202.718h.534A.607.607,0,0,1,351.006,203.325Z" transform="translate(-308.52 -182.041)" opacity="0.1"/>
          <path id="Path_982989" data-name="Path 982989" d="M297.389,246.215v9.249a.607.607,0,0,1-.607.607h-2.694a.607.607,0,0,1-.607-.607v-9.249a.607.607,0,0,1,.607-.607h2.694A.607.607,0,0,1,297.389,246.215Z" transform="translate(-261.063 -220.005)" fill="#f14f4a"/>
          <path id="Path_982990" data-name="Path 982990" d="M297.385,246.215v9.249a.607.607,0,0,1-.607.607h-2.7a.607.607,0,0,1-.607-.607V255.4a3.3,3.3,0,0,0,2.768-3.255v-6.539h.534A.607.607,0,0,1,297.385,246.215Z" transform="translate(-261.057 -220.005)" opacity="0.1"/>
          <path id="Path_982991" data-name="Path 982991" d="M243.769,213.571v13a.607.607,0,0,1-.607.607h-2.694a.607.607,0,0,1-.607-.607v-13a.607.607,0,0,1,.607-.607h2.694A.607.607,0,0,1,243.769,213.571Z" transform="translate(-213.601 -191.11)" fill="#f78721"/>
          <path id="Path_982992" data-name="Path 982992" d="M243.765,213.571v13a.607.607,0,0,1-.607.607h-2.7a.607.607,0,0,1-.607-.607v-.061a3.3,3.3,0,0,0,2.768-3.255V212.964h.534A.607.607,0,0,1,243.765,213.571Z" transform="translate(-213.595 -191.11)" opacity="0.1"/>
          <path id="Path_982993" data-name="Path 982993" d="M43.918,30.724V42.568a2.953,2.953,0,0,1-2.953,2.953h-2.09L37.3,49.582a1.027,1.027,0,0,1-1.916,0l-1.569-4.059H19.241a2.953,2.953,0,0,1-2.953-2.953V30.724a2.953,2.953,0,0,1,2.953-2.953H40.964a2.953,2.953,0,0,1,2.953,2.953Z" transform="translate(-15.703 -27.185)" fill="#0e9c4a"/>
          <path id="Path_982994" data-name="Path 982994" d="M40.964,27.771h-.6A13.846,13.846,0,0,1,26.514,41.617H16.288v.951a2.953,2.953,0,0,0,2.953,2.953H33.817l1.569,4.059a1.027,1.027,0,0,0,1.916,0l1.574-4.06h2.09a2.953,2.953,0,0,0,2.953-2.953V30.724A2.953,2.953,0,0,0,40.964,27.771Z" transform="translate(-15.703 -27.185)" opacity="0.1"/>
          <path id="Path_982995" data-name="Path 982995" d="M179.534,53.173l-2.745-1.381a.584.584,0,0,1,.042-1.063L179,49.844a.584.584,0,0,1,.787.4l.58,2.265A.584.584,0,0,1,179.534,53.173Z" transform="translate(-157.487 -46.685)" fill="#e8f1f8"/>
          <path id="Path_982996" data-name="Path 982996" d="M147.18,326.515h-7.411a.586.586,0,1,0,0,1.171h7.411a.586.586,0,0,0,0-1.171Z" transform="translate(-124.484 -291.621)"/>
          <path id="Path_982997" data-name="Path 982997" d="M147.18,288.763h-7.411a.586.586,0,1,0,0,1.171h7.411a.586.586,0,0,0,0-1.171Z" transform="translate(-124.484 -258.204)"/>
          <path id="Path_982998" data-name="Path 982998" d="M183.228,251.011h-2.734a.586.586,0,0,0,0,1.171h2.734a.586.586,0,0,0,0-1.171Z" transform="translate(-160.532 -224.788)"/>
          <path id="Path_982999" data-name="Path 982999" d="M343.195,214.176h2.694a1.194,1.194,0,0,0,1.193-1.192V198.809a1.194,1.194,0,0,0-1.193-1.192h-2.694A1.193,1.193,0,0,0,342,198.809v14.174A1.193,1.193,0,0,0,343.195,214.176Zm0-15.388h2.694a.021.021,0,0,1,.021.021l-.021,14.2-2.715-.021Z" transform="translate(-304.011 -177.526)"/>
          <path id="Path_983000" data-name="Path 983000" d="M235.956,223.245h2.694a1.194,1.194,0,0,0,1.193-1.192v-13a1.194,1.194,0,0,0-1.193-1.193h-2.694a1.194,1.194,0,0,0-1.192,1.193v13A1.193,1.193,0,0,0,235.956,223.245Zm0-14.211h2.694a.021.021,0,0,1,.021.021l-.021,13.018-2.715-.021Z" transform="translate(-209.088 -186.595)"/>
          <path id="Path_983001" data-name="Path 983001" d="M396.816,234.521h2.693a1.194,1.194,0,0,0,1.193-1.192V221.794a1.194,1.194,0,0,0-1.193-1.192h-2.693a1.194,1.194,0,0,0-1.193,1.192v11.535A1.194,1.194,0,0,0,396.816,234.521Zm0-12.748h2.693a.021.021,0,0,1,.021.021l-.021,11.556-2.715-.021Z" transform="translate(-351.473 -197.871)"/>
          <path id="Path_983002" data-name="Path 983002" d="M289.575,252.14h2.694a1.194,1.194,0,0,0,1.193-1.192V241.7a1.194,1.194,0,0,0-1.193-1.192h-2.694a1.193,1.193,0,0,0-1.192,1.192v9.249A1.194,1.194,0,0,0,289.575,252.14Zm0-10.462h2.694a.021.021,0,0,1,.021.021l-.021,9.27-2.715-.021Z" transform="translate(-256.549 -215.49)"/>
          <path id="Path_983003" data-name="Path 983003" d="M57.813,53.943l3.865,2.2a.586.586,0,0,0,.712-.1l3.567-3.724,3.476,1.817a.585.585,0,0,0,.782-.233L73.1,48.739l.876.441h0a1.17,1.17,0,0,0,1.659-1.336l-.58-2.265a1.17,1.17,0,0,0-1.576-.794l-2.165.885a1.17,1.17,0,0,0-.083,2.128l.821.413-2.585,4.615L66.111,51.07a.584.584,0,0,0-.694.114L61.86,54.9l-3.468-1.971a.586.586,0,0,0-.579,1.019Zm13.949-7.188,2.163-.886.586,2.266,0,0Z" transform="translate(-52.196 -42.169)"/>
          <path id="Path_983004" data-name="Path 983004" d="M14.729,41.593h3.029V65.066A3.436,3.436,0,0,0,21.19,68.5H37.46v2.148a5.164,5.164,0,0,1-2.548,4.446H31.348a.586.586,0,0,0,0,1.171h22.48a.586.586,0,0,0,0-1.171H50.264a5.164,5.164,0,0,1-2.548-4.446V68.5H63.987a3.436,3.436,0,0,0,3.432-3.432V33.895a3.436,3.436,0,0,0-3.432-3.432h-24V26.21a3.543,3.543,0,0,0-3.539-3.539H14.729A3.543,3.543,0,0,0,11.19,26.21V38.054a3.543,3.543,0,0,0,3.539,3.539Zm33.637,33.5H36.81a6.343,6.343,0,0,0,1.821-4.446V68.5h7.914v2.148A6.343,6.343,0,0,0,48.366,75.092ZM39.991,31.634h24a2.263,2.263,0,0,1,2.261,2.261V65.066a2.263,2.263,0,0,1-2.261,2.261c-21.852,0-27.16,0-42.8,0a2.263,2.263,0,0,1-2.261-2.261V41.593h2.811V61.628a.586.586,0,0,0,.586.586H62.851a.586.586,0,0,0,.586-.586v-26.6a.586.586,0,0,0-.586-.586H39.991Zm0,6.42V35.617H62.266V61.042H22.912V41.593H28.9l1.424,3.685a1.613,1.613,0,0,0,3.008,0l1.428-3.686h1.689A3.543,3.543,0,0,0,39.991,38.054ZM12.361,26.21a2.37,2.37,0,0,1,2.367-2.368H36.452a2.37,2.37,0,0,1,2.367,2.368V38.054a2.37,2.37,0,0,1-2.367,2.368h-2.09a.586.586,0,0,0-.546.374l-1.573,4.06a.441.441,0,0,1-.823,0L29.851,40.8a.585.585,0,0,0-.546-.375H14.729a2.37,2.37,0,0,1-2.367-2.368V26.21Z" transform="translate(-11.19 -22.671)"/>
        </g>
        <g id="Group_1148562" data-name="Group 1148562" transform="translate(6.294 18.005)">
          <path id="Path_983005" data-name="Path 983005" d="M233.8,427.716H218.491a5.868,5.868,0,0,0,3.023-5.132v-2.792h9.267v2.792A5.868,5.868,0,0,0,233.8,427.716Z" transform="translate(-194.122 -373.649)" fill="#474747"/>
          <path id="Path_983006" data-name="Path 983006" d="M119.295,95.325V127.12a2.9,2.9,0,0,1-2.9,2.9H72.739a2.9,2.9,0,0,1-2.9-2.9V95.325a2.9,2.9,0,0,1,2.9-2.9h43.654a2.9,2.9,0,0,1,2.9,2.9Z" transform="translate(-62.54 -83.877)" fill="#475da9"/>
          <path id="Path_983007" data-name="Path 983007" d="M119.284,95.324v31.794a2.9,2.9,0,0,1-2.9,2.9H72.731a2.9,2.9,0,0,1-2.9-2.9v-.331H81.36A34.687,34.687,0,0,0,116.048,92.42h.337a2.9,2.9,0,0,1,2.9,2.9Z" transform="translate(-62.531 -83.874)" opacity="0.12"/>
          <path id="Path_983008" data-name="Path 983008" d="M105.2,127.791h41.333v27.128H105.2Z" transform="translate(-93.845 -115.183)" fill="#e8f1f8"/>
          <path id="Path_983009" data-name="Path 983009" d="M407.6,225.714v11.766a.619.619,0,0,1-.619.619h-2.748a.619.619,0,0,1-.619-.619V225.714a.619.619,0,0,1,.619-.619h2.748A.619.619,0,0,1,407.6,225.714Z" transform="translate(-357.986 -201.312)" fill="#0e9c4a"/>
          <path id="Path_983010" data-name="Path 983010" d="M407.6,225.714v11.766a.619.619,0,0,1-.619.619H404.23a.619.619,0,0,1-.619-.619v-.062a3.366,3.366,0,0,0,2.824-3.321v-9h.544A.619.619,0,0,1,407.6,225.714Z" transform="translate(-357.982 -201.312)" opacity="0.1"/>
          <path id="Path_983011" data-name="Path 983011" d="M352.908,202.271v14.458a.619.619,0,0,1-.619.619h-2.748a.619.619,0,0,1-.619-.619V202.271a.619.619,0,0,1,.619-.619h2.748A.619.619,0,0,1,352.908,202.271Z" transform="translate(-309.574 -180.561)" fill="#fdcf17"/>
          <path id="Path_983012" data-name="Path 983012" d="M352.9,202.271v14.458a.619.619,0,0,1-.619.619h-2.749a.619.619,0,0,1-.619-.619v-.062a3.365,3.365,0,0,0,2.824-3.321V201.652h.544A.619.619,0,0,1,352.9,202.271Z" transform="translate(-309.57 -180.561)" opacity="0.1"/>
          <path id="Path_983013" data-name="Path 983013" d="M298.216,246.019v9.434a.619.619,0,0,1-.619.619H294.85a.619.619,0,0,1-.619-.619v-9.434a.619.619,0,0,1,.619-.619H297.6A.619.619,0,0,1,298.216,246.019Z" transform="translate(-261.163 -219.285)" fill="#f14f4a"/>
          <path id="Path_983014" data-name="Path 983014" d="M298.213,246.019v9.434a.619.619,0,0,1-.619.619h-2.749a.619.619,0,0,1-.619-.619v-.062a3.366,3.366,0,0,0,2.824-3.321V245.4h.544A.619.619,0,0,1,298.213,246.019Z" transform="translate(-261.159 -219.285)" opacity="0.1"/>
          <path id="Path_983015" data-name="Path 983015" d="M243.523,212.722V225.98a.619.619,0,0,1-.619.619h-2.748a.619.619,0,0,1-.619-.619V212.722a.619.619,0,0,1,.619-.619H242.9A.619.619,0,0,1,243.523,212.722Z" transform="translate(-212.751 -189.812)" fill="#f78721"/>
          <path id="Path_983016" data-name="Path 983016" d="M243.52,212.723V225.98a.619.619,0,0,1-.619.619h-2.749a.619.619,0,0,1-.619-.619v-.062a3.365,3.365,0,0,0,2.824-3.321V212.1h.545A.619.619,0,0,1,243.52,212.723Z" transform="translate(-212.747 -189.813)" opacity="0.1"/>
          <path id="Path_983017" data-name="Path 983017" d="M39.675,26.219V38.3a3.013,3.013,0,0,1-3.013,3.013H34.531l-1.605,4.141a1.048,1.048,0,0,1-1.954,0l-1.6-4.14H14.506A3.013,3.013,0,0,1,11.493,38.3V26.219a3.013,3.013,0,0,1,3.013-3.013H36.663a3.013,3.013,0,0,1,3.013,3.013Z" transform="translate(-10.896 -22.609)" fill="#0e9c4a"/>
          <path id="Path_983018" data-name="Path 983018" d="M36.664,23.206h-.616A14.123,14.123,0,0,1,21.925,37.329H11.494v.97a3.013,3.013,0,0,0,3.013,3.013H29.373l1.6,4.14a1.048,1.048,0,0,0,1.954,0l1.605-4.141h2.131A3.013,3.013,0,0,0,39.676,38.3V26.219a3.013,3.013,0,0,0-3.013-3.013Z" transform="translate(-10.897 -22.609)" opacity="0.1"/>
          <path id="Path_983019" data-name="Path 983019" d="M178,49.117l-2.8-1.408a.6.6,0,0,1,.042-1.084l2.208-.9a.6.6,0,0,1,.8.4l.592,2.311A.6.6,0,0,1,178,49.117Z" transform="translate(-155.516 -42.499)" fill="#e8f1f8"/>
          <path id="Path_983020" data-name="Path 983020" d="M145,327.925h-7.559a.6.6,0,0,0,0,1.195H145a.6.6,0,0,0,0-1.195Z" transform="translate(-121.853 -292.333)"/>
          <path id="Path_983021" data-name="Path 983021" d="M145,289.418h-7.559a.6.6,0,0,0,0,1.195H145a.6.6,0,0,0,0-1.195Z" transform="translate(-121.853 -258.248)"/>
          <path id="Path_983022" data-name="Path 983022" d="M181.772,250.911h-2.789a.6.6,0,1,0,0,1.195h2.789a.6.6,0,1,0,0-1.195Z" transform="translate(-158.622 -224.163)"/>
          <path id="Path_983023" data-name="Path 983023" d="M344.939,213.34h2.748a1.218,1.218,0,0,0,1.216-1.216V197.666a1.217,1.217,0,0,0-1.216-1.216h-2.748a1.217,1.217,0,0,0-1.216,1.216v14.458A1.217,1.217,0,0,0,344.939,213.34Zm0-15.7h2.748a.022.022,0,0,1,.022.021l-.022,14.479-2.769-.021Z" transform="translate(-304.972 -175.957)"/>
          <path id="Path_983024" data-name="Path 983024" d="M235.554,222.59H238.3a1.217,1.217,0,0,0,1.216-1.216V208.116A1.218,1.218,0,0,0,238.3,206.9h-2.748a1.218,1.218,0,0,0-1.216,1.216v13.258A1.217,1.217,0,0,0,235.554,222.59Zm0-14.5H238.3a.022.022,0,0,1,.022.022L238.3,221.4l-2.769-.021Z" transform="translate(-208.149 -185.207)"/>
          <path id="Path_983025" data-name="Path 983025" d="M399.631,234.093h2.747a1.218,1.218,0,0,0,1.216-1.216V221.111a1.217,1.217,0,0,0-1.216-1.216h-2.747a1.218,1.218,0,0,0-1.216,1.216v11.765A1.218,1.218,0,0,0,399.631,234.093Zm0-13h2.747a.021.021,0,0,1,.022.021l-.022,11.787-2.769-.021Z" transform="translate(-353.382 -196.709)"/>
          <path id="Path_983026" data-name="Path 983026" d="M290.247,252.064h2.748a1.218,1.218,0,0,0,1.216-1.216v-9.434a1.217,1.217,0,0,0-1.216-1.216h-2.748a1.217,1.217,0,0,0-1.216,1.216v9.434A1.217,1.217,0,0,0,290.247,252.064Zm0-10.671h2.748a.022.022,0,0,1,.022.021l-.022,9.455-2.769-.021Z" transform="translate(-256.561 -214.681)"/>
          <path id="Path_983027" data-name="Path 983027" d="M53.849,49.9l3.943,2.24a.6.6,0,0,0,.726-.106l3.639-3.8L65.7,50.093a.6.6,0,0,0,.8-.237l2.947-5.26.893.449h0a1.194,1.194,0,0,0,1.692-1.362l-.592-2.31a1.194,1.194,0,0,0-1.607-.81l-2.208.9a1.193,1.193,0,0,0-.085,2.171l.838.421-2.637,4.707-3.429-1.792a.6.6,0,0,0-.708.116l-3.628,3.786L54.44,48.864a.6.6,0,0,0-.59,1.039Zm14.228-7.331,2.206-.9.6,2.311,0,0Z" transform="translate(-48.12 -37.894)"/>
          <path id="Path_983028" data-name="Path 983028" d="M9.9,37.305h3.09V61.248a3.505,3.505,0,0,0,3.5,3.5H33.089V66.94a5.268,5.268,0,0,1-2.6,4.535H26.855a.6.6,0,1,0,0,1.195H49.785a.6.6,0,1,0,0-1.195H46.15a5.268,5.268,0,0,1-2.6-4.535V64.749h16.6a3.505,3.505,0,0,0,3.5-3.5V29.453a3.505,3.505,0,0,0-3.5-3.5H35.67V21.615A3.614,3.614,0,0,0,32.061,18H9.9a3.614,3.614,0,0,0-3.61,3.61V33.7A3.613,3.613,0,0,0,9.9,37.305ZM44.213,71.474H32.427a6.469,6.469,0,0,0,1.857-4.535V64.749h8.072V66.94a6.469,6.469,0,0,0,1.857,4.535ZM35.671,27.147H60.147a2.309,2.309,0,0,1,2.306,2.306V61.248a2.309,2.309,0,0,1-2.306,2.306c-22.289,0-27.7,0-43.653,0a2.309,2.309,0,0,1-2.306-2.306V37.305h2.868V57.741a.6.6,0,0,0,.6.6H58.989a.6.6,0,0,0,.6-.6V30.612a.6.6,0,0,0-.6-.6H35.671Zm0,6.548V31.21H58.391V57.144H18.25V37.305h6.111l1.452,3.759a1.645,1.645,0,0,0,3.068,0l1.457-3.76h1.723a3.613,3.613,0,0,0,3.61-3.61ZM7.489,21.615A2.418,2.418,0,0,1,9.9,19.2H32.061a2.418,2.418,0,0,1,2.415,2.415V33.7a2.418,2.418,0,0,1-2.415,2.415H29.929a.6.6,0,0,0-.557.382l-1.6,4.141a.45.45,0,0,1-.84,0l-1.6-4.14a.6.6,0,0,0-.557-.382H9.9A2.418,2.418,0,0,1,7.489,33.7V21.615Z" transform="translate(-6.294 -18.005)"/>
        </g>
      </g>
    </g>
  </g>
</svg>
