<svg xmlns="http://www.w3.org/2000/svg" xmlns:xlink="http://www.w3.org/1999/xlink" width="108" height="108" viewBox="0 0 108 108">
  <defs>
    <filter id="Path_982547" x="0" y="0" width="108" height="108" filterUnits="userSpaceOnUse">
      <feOffset dy="3" input="SourceAlpha"/>
      <feGaussianBlur stdDeviation="3" result="blur"/>
      <feFlood flood-opacity="0.161"/>
      <feComposite operator="in" in2="blur"/>
      <feComposite in="SourceGraphic"/>
    </filter>
  </defs>
  <g id="Group_1148532" data-name="Group 1148532" transform="translate(-275 -3427)">
    <g id="Group_1147065" data-name="Group 1147065" transform="translate(-341 -556)">
      <g transform="matrix(1, 0, 0, 1, 616, 3983)" filter="url(#Path_982547)">
        <g id="Path_982547-2" data-name="Path 982547" transform="translate(9 6)" fill="#fdeffe">
          <path d="M 45 88.5 C 39.12687683105469 88.5 33.43022537231445 87.35007476806641 28.06830024719238 85.08217620849609 C 22.88852500915527 82.89131164550781 18.23629951477051 79.75458526611328 14.2408504486084 75.75914764404297 C 10.24541282653809 71.76370239257812 7.108687400817871 67.11147308349609 4.917825222015381 61.93170166015625 C 2.649924993515015 56.56977462768555 1.5 50.87312316894531 1.5 45 C 1.5 39.12687683105469 2.649924993515015 33.43022537231445 4.917825222015381 28.06830024719238 C 7.108687400817871 22.88852500915527 10.24541282653809 18.23629951477051 14.2408504486084 14.2408504486084 C 18.23629951477051 10.24541282653809 22.88852500915527 7.108687400817871 28.06830024719238 4.917825222015381 C 33.43022537231445 2.649924993515015 39.12687683105469 1.5 45 1.5 C 50.87312316894531 1.5 56.56977462768555 2.649924993515015 61.93170166015625 4.917825222015381 C 67.11147308349609 7.108687400817871 71.76370239257812 10.24541282653809 75.75914764404297 14.2408504486084 C 79.75458526611328 18.23629951477051 82.89131164550781 22.88852500915527 85.08217620849609 28.06830024719238 C 87.35007476806641 33.43022537231445 88.5 39.12687683105469 88.5 45 C 88.5 50.87312316894531 87.35007476806641 56.56977462768555 85.08217620849609 61.93170166015625 C 82.89131164550781 67.11147308349609 79.75458526611328 71.76370239257812 75.75914764404297 75.75914764404297 C 71.76370239257812 79.75458526611328 67.11147308349609 82.89131164550781 61.93170166015625 85.08217620849609 C 56.56977462768555 87.35007476806641 50.87312316894531 88.5 45 88.5 Z" stroke="none"/>
          <path d="M 45 3 C 39.32871246337891 3 33.82865524291992 4.110054016113281 28.65262985229492 6.299339294433594 C 23.65165710449219 8.414573669433594 19.15968322753906 11.44334411621094 15.301513671875 15.301513671875 C 11.44334411621094 19.15968322753906 8.414573669433594 23.65165710449219 6.299339294433594 28.65262985229492 C 4.110054016113281 33.82865524291992 3 39.32871246337891 3 45 C 3 50.67128753662109 4.110054016113281 56.17134475708008 6.299339294433594 61.34737396240234 C 8.414573669433594 66.34834289550781 11.44334411621094 70.84031677246094 15.301513671875 74.698486328125 C 19.15968322753906 78.55665588378906 23.65165710449219 81.58542633056641 28.65262985229492 83.70066070556641 C 33.82865524291992 85.88994598388672 39.32871246337891 87 45 87 C 50.67128753662109 87 56.17134475708008 85.88994598388672 61.34737396240234 83.70066070556641 C 66.34834289550781 81.58542633056641 70.84031677246094 78.55665588378906 74.698486328125 74.698486328125 C 78.55665588378906 70.84031677246094 81.58542633056641 66.34834289550781 83.70066070556641 61.34737396240234 C 85.88994598388672 56.17134475708008 87 50.67128753662109 87 45 C 87 39.32871246337891 85.88994598388672 33.82865524291992 83.70066070556641 28.65262985229492 C 81.58542633056641 23.65165710449219 78.55665588378906 19.15968322753906 74.698486328125 15.301513671875 C 70.84031677246094 11.44334411621094 66.34834289550781 8.414573669433594 61.34737396240234 6.299339294433594 C 56.17134475708008 4.110054016113281 50.67128753662109 3 45 3 M 45 0 C 69.85281372070312 0 90 20.14718627929688 90 45 C 90 69.85281372070312 69.85281372070312 90 45 90 C 20.14718627929688 90 0 69.85281372070312 0 45 C 0 20.14718627929688 20.14718627929688 0 45 0 Z" stroke="none" fill="#ee70f7"/>
        </g>
      </g>
    </g>
    <g id="budget" transform="translate(302.66 3452.154)">
      <path id="Path_982856" data-name="Path 982856" d="M136.54,16.8V47.3c0,.061,0,.122,0,.183a3.938,3.938,0,0,1-3.934,3.755H110.461a3.938,3.938,0,0,1-3.938-3.937V11.982a3.932,3.932,0,0,1,3.938-3.938h17.587a3.926,3.926,0,0,1,1.71.392c1.064.512,1.364,1.159,3.276,3.114,2.2,2.388,2.725,2.633,3.173,3.667A3.9,3.9,0,0,1,136.54,16.8Z" transform="translate(-95.274 -7.232)" fill="#ffc477"/>
      <path id="Path_982857" data-name="Path 982857" d="M163.657,16.795V47.3c0,.061,0,.122,0,.183a3.951,3.951,0,0,1-.889.1H140.623a3.938,3.938,0,0,1-3.938-3.937V8.327c0-.062,0-.123,0-.184a3.956,3.956,0,0,1,.889-.1h17.587a3.944,3.944,0,0,1,2.878,1.251l2.108,2.256,2.414,2.525a3.963,3.963,0,0,1,1.092,2.72Z" transform="translate(-122.391 -7.231)" fill="#ffdaaa"/>
      <path id="Path_982858" data-name="Path 982858" d="M276.008,180.462V202.6a5.566,5.566,0,0,1-5.566,5.566H255.98a5.566,5.566,0,0,1-5.566-5.566V180.462a5.563,5.563,0,0,1,5.566-5.566h14.463A5.565,5.565,0,0,1,276.008,180.462Z" transform="translate(-224.638 -157.238)" fill="#4cba68"/>
      <path id="Path_982859" data-name="Path 982859" d="M296.5,180.462V202.6a2.856,2.856,0,0,1-3.264,3.738H278.772a5.566,5.566,0,0,1-5.566-5.566V178.634a5.536,5.536,0,0,1,1.078-3.292,5.543,5.543,0,0,1,2.186-.447h14.463A5.565,5.565,0,0,1,296.5,180.462Z" transform="translate(-245.129 -157.238)" fill="#7ccc92"/>
      <path id="Path_982860" data-name="Path 982860" d="M360.3,366.8v2.6a.832.832,0,0,1-.831.832h-2.6a.832.832,0,0,1-.832-.832v-2.6a.832.832,0,0,1,.832-.832h2.6A.832.832,0,0,1,360.3,366.8Z" transform="translate(-319.599 -329.02)" fill="#2c733f"/>
      <path id="Path_982861" data-name="Path 982861" d="M306.241,208.873v2.786a1.8,1.8,0,0,1-1.795,1.795H290.092a1.8,1.8,0,0,1-1.795-1.795v-2.786a1.8,1.8,0,0,1,1.795-1.795h14.355A1.8,1.8,0,0,1,306.241,208.873Z" transform="translate(-258.696 -186.171)" fill="#1e81ce"/>
      <path id="Path_982862" data-name="Path 982862" d="M333.357,208.873v2.786a1.8,1.8,0,0,1-1.795,1.795h-11.31a1.8,1.8,0,0,1-1.795-1.795v-2.786a1.8,1.8,0,0,1,1.795-1.795h11.31A1.8,1.8,0,0,1,333.357,208.873Z" transform="translate(-285.812 -186.171)" fill="#3d9ae2"/>
      <g id="Group_1148528" data-name="Group 1148528" transform="translate(29.601 30.148)">
        <path id="Path_982863" data-name="Path 982863" d="M292.563,366.8v2.6a.832.832,0,0,1-.832.832h-2.6a.833.833,0,0,1-.832-.832v-2.6a.833.833,0,0,1,.832-.832h2.6A.832.832,0,0,1,292.563,366.8Z" transform="translate(-288.297 -359.168)" fill="#2c733f"/>
        <path id="Path_982864" data-name="Path 982864" d="M360.3,299.44v2.6a.832.832,0,0,1-.831.832h-2.6a.832.832,0,0,1-.832-.832v-2.6a.832.832,0,0,1,.832-.832h2.6A.832.832,0,0,1,360.3,299.44Z" transform="translate(-349.2 -298.608)" fill="#2c733f"/>
      </g>
      <path id="Path_982865" data-name="Path 982865" d="M428.861,299.44v2.6a.832.832,0,0,1-.832.832h-2.6a.832.832,0,0,1-.832-.832v-2.6a.832.832,0,0,1,.832-.832h2.6A.832.832,0,0,1,428.861,299.44Z" transform="translate(-381.234 -268.46)" fill="#ee8700"/>
      <g id="Group_1148529" data-name="Group 1148529" transform="translate(29.601 30.148)">
        <path id="Path_982866" data-name="Path 982866" d="M292.563,299.44v2.6a.832.832,0,0,1-.832.832h-2.6a.833.833,0,0,1-.832-.832v-2.6a.833.833,0,0,1,.832-.832h2.6A.832.832,0,0,1,292.563,299.44Z" transform="translate(-288.297 -298.608)" fill="#2c733f"/>
        <path id="Path_982867" data-name="Path 982867" d="M360.3,430.862v2.6a.832.832,0,0,1-.831.832h-2.6a.832.832,0,0,1-.832-.832v-2.6a.832.832,0,0,1,.832-.831h2.6A.832.832,0,0,1,360.3,430.862Z" transform="translate(-349.2 -416.762)" fill="#2c733f"/>
        <path id="Path_982868" data-name="Path 982868" d="M292.563,430.862v2.6a.832.832,0,0,1-.832.832h-2.6a.833.833,0,0,1-.832-.832v-2.6a.833.833,0,0,1,.832-.831h2.6A.832.832,0,0,1,292.563,430.862Z" transform="translate(-288.297 -416.762)" fill="#2c733f"/>
      </g>
      <path id="Path_982869" data-name="Path 982869" d="M428.861,367.2v8.077a1.419,1.419,0,0,1-1.419,1.42h-1.427a1.419,1.419,0,0,1-1.419-1.42V367.2a1.237,1.237,0,0,1,1.236-1.236h1.793A1.236,1.236,0,0,1,428.861,367.2Z" transform="translate(-381.234 -329.019)" fill="#ee8700"/>
      <g id="Group_1148530" data-name="Group 1148530" transform="translate(29.601 30.148)">
        <path id="Path_982870" data-name="Path 982870" d="M360.3,366.8v.773a.832.832,0,0,1-.831.832h-2.6a.832.832,0,0,1-.832-.832V366.8a.832.832,0,0,1,.832-.832h2.6A.832.832,0,0,1,360.3,366.8Z" transform="translate(-349.2 -359.168)" fill="#317f46"/>
        <path id="Path_982871" data-name="Path 982871" d="M292.563,366.8v.773a.832.832,0,0,1-.832.832h-2.6a.833.833,0,0,1-.832-.832V366.8a.833.833,0,0,1,.832-.832h2.6A.832.832,0,0,1,292.563,366.8Z" transform="translate(-288.297 -359.168)" fill="#317f46"/>
        <path id="Path_982872" data-name="Path 982872" d="M360.3,299.44v.773a.832.832,0,0,1-.831.832h-2.6a.832.832,0,0,1-.832-.832v-.773a.832.832,0,0,1,.832-.832h2.6A.832.832,0,0,1,360.3,299.44Z" transform="translate(-349.2 -298.608)" fill="#317f46"/>
      </g>
      <path id="Path_982873" data-name="Path 982873" d="M428.861,299.44v.773a.832.832,0,0,1-.832.832h-2.6a.832.832,0,0,1-.832-.832v-.773a.832.832,0,0,1,.832-.832h2.6A.832.832,0,0,1,428.861,299.44Z" transform="translate(-381.234 -268.46)" fill="#ff9811"/>
      <g id="Group_1148531" data-name="Group 1148531" transform="translate(29.601 30.148)">
        <path id="Path_982874" data-name="Path 982874" d="M292.563,299.44v.773a.832.832,0,0,1-.832.832h-2.6a.833.833,0,0,1-.832-.832v-.773a.833.833,0,0,1,.832-.832h2.6A.832.832,0,0,1,292.563,299.44Z" transform="translate(-288.297 -298.608)" fill="#317f46"/>
        <path id="Path_982875" data-name="Path 982875" d="M360.3,430.862v.774a.832.832,0,0,1-.831.832h-2.6a.832.832,0,0,1-.832-.832v-.774a.832.832,0,0,1,.832-.831h2.6A.832.832,0,0,1,360.3,430.862Z" transform="translate(-349.2 -416.762)" fill="#317f46"/>
        <path id="Path_982876" data-name="Path 982876" d="M292.563,430.862v.774a.832.832,0,0,1-.832.832h-2.6a.833.833,0,0,1-.832-.832v-.774a.833.833,0,0,1,.832-.831h2.6A.832.832,0,0,1,292.563,430.862Z" transform="translate(-288.297 -416.762)" fill="#317f46"/>
      </g>
      <path id="Path_982877" data-name="Path 982877" d="M428.861,367.2v6.25a1.419,1.419,0,0,1-1.419,1.42h-1.427a1.419,1.419,0,0,1-1.419-1.42V367.2a1.237,1.237,0,0,1,1.236-1.236h1.793A1.236,1.236,0,0,1,428.861,367.2Z" transform="translate(-381.234 -329.019)" fill="#ff9811"/>
      <path id="Path_982878" data-name="Path 982878" d="M343.11,18.705h-4.935a1.514,1.514,0,0,1-1.514-1.514V11.924a3.934,3.934,0,0,1,1.167.858l2.109,2.256,2.414,2.526A3.9,3.9,0,0,1,343.11,18.705Z" transform="translate(-302.177 -10.72)" fill="#ffb655"/>
      <path id="Path_982879" data-name="Path 982879" d="M85.128,463.58a1.934,1.934,0,0,1-1.929,1.929H71.385a1.929,1.929,0,0,1,0-3.857H83.2A1.934,1.934,0,0,1,85.128,463.58Z" transform="translate(-61.95 -415.041)" fill="#aa6100"/>
      <path id="Path_982880" data-name="Path 982880" d="M85.128,425.375A1.934,1.934,0,0,1,83.2,427.3H71.385a1.929,1.929,0,0,1,0-3.857H83.2A1.934,1.934,0,0,1,85.128,425.375Z" transform="translate(-61.95 -380.694)" fill="#cc7400"/>
      <path id="Path_982881" data-name="Path 982881" d="M85.128,387.171A1.934,1.934,0,0,1,83.2,389.1H71.385a1.929,1.929,0,0,1,0-3.857H83.2A1.934,1.934,0,0,1,85.128,387.171Z" transform="translate(-61.95 -346.347)" fill="#ee8700"/>
      <path id="Path_982882" data-name="Path 982882" d="M85.128,348.965a1.934,1.934,0,0,1-1.929,1.929H71.385a1.934,1.934,0,0,1-1.929-1.929,1.934,1.934,0,0,1,1.929-1.929H83.2A1.934,1.934,0,0,1,85.128,348.965Z" transform="translate(-61.95 -311.998)" fill="#ff9811"/>
      <path id="Path_982883" data-name="Path 982883" d="M83.2,312.691H71.385a1.934,1.934,0,0,1-1.929-1.929h0a1.934,1.934,0,0,1,1.929-1.929H83.2a1.934,1.934,0,0,1,1.929,1.929h0A1.934,1.934,0,0,1,83.2,312.691Z" transform="translate(-61.95 -277.653)" fill="#ffa733"/>
      <path id="Path_982884" data-name="Path 982884" d="M23.652,383.634a6.275,6.275,0,0,0-6.54-6.009H14.653a6.284,6.284,0,0,0,.537,12.556h1.921v0c.175.007.352.009.531,0a6.384,6.384,0,0,0,1.167-.159,6.284,6.284,0,0,0,4.843-5.89v-.007C23.659,383.961,23.659,383.8,23.652,383.634Z" transform="translate(-7.258 -339.493)" fill="#cc7400"/>
      <path id="Path_982885" data-name="Path 982885" d="M71.246,385.593v.007a6.284,6.284,0,0,1-4.843,5.89,6.286,6.286,0,0,1-4.837-5.849c0-.014,0-.027,0-.042v-.007a6.286,6.286,0,0,1,4.842-6.338,6.285,6.285,0,0,1,4.839,5.85C71.252,385.269,71.252,385.432,71.246,385.593Z" transform="translate(-54.851 -340.964)" fill="#ee8700"/>
      <path id="Path_982886" data-name="Path 982886" d="M45.8,16.9H42.078V9.564a4.762,4.762,0,0,0-1.317-3.282L38.354,3.763c-2.043-2.105-2.3-2.7-3.518-3.291A4.761,4.761,0,0,0,32.774,0H15.187a4.756,4.756,0,0,0-4.751,4.751V30.369h-1A2.739,2.739,0,0,0,7.49,35.038a2.731,2.731,0,0,0-.8,1.929,2.812,2.812,0,0,0,.054.542,6.909,6.909,0,0,0,.988,13.775l13.514-.005a2.739,2.739,0,0,0,1.945-4.669,2.726,2.726,0,0,0,.792-1.793h1.028v.549a6.334,6.334,0,0,0,6.327,6.327H45.8a6.334,6.334,0,0,0,6.327-6.327V23.224A6.334,6.334,0,0,0,45.8,16.9ZM35.3,2.872l4.043,4.274s0,0,0,0h0l0,.005h0a.017.017,0,0,0,.006.006l0,0s0,0,0,0,0,0,0,0,0,0,0,0H35.3v-4.3ZM9.435,31.993H21.25a1.117,1.117,0,0,1,0,2.233H9.435a1.117,1.117,0,0,1,0-2.233Zm0,3.857H21.25a1.117,1.117,0,1,1,0,2.233H13.089a6.614,6.614,0,0,0-1.028-.372,6.845,6.845,0,0,0-1.624-.239c-.159,0-.319,0-.478,0H8.443a1.1,1.1,0,0,1-.125-.511A1.119,1.119,0,0,1,9.435,35.85Zm12.932,4.974A1.118,1.118,0,0,1,21.25,41.94H16.706a6.831,6.831,0,0,0-1.378-2.233H21.25A1.119,1.119,0,0,1,22.367,40.824ZM5.484,39.366a7.007,7.007,0,0,0-1.279,1.64H3.259A5.363,5.363,0,0,1,5.484,39.366ZM2.4,42.529H3.578a7.01,7.01,0,0,0-.221,1.217H2.107A5.336,5.336,0,0,1,2.4,42.529Zm.131,4.025a5.327,5.327,0,0,1-.382-1.285h1.24a6.128,6.128,0,0,0,.29,1.285Zm1.013,1.523c.5,0,.788,0,.856,0A6.857,6.857,0,0,0,5.487,49.4,5.365,5.365,0,0,1,3.539,48.076Zm6.929,1.686a5.387,5.387,0,1,1,3.413-9.35A5.382,5.382,0,0,1,10.468,49.762Zm10.782-.108H14.7a6.956,6.956,0,0,0,1.745-2.233H21.25a1.117,1.117,0,0,1,0,2.233Zm1.107-4.838a1.117,1.117,0,0,1-1.107.981H17a6.977,6.977,0,0,0,.1-2.233H21.25A1.118,1.118,0,0,1,22.357,44.817Zm2.657-1.624H23.549a2.694,2.694,0,0,0-.354-.441,2.735,2.735,0,0,0,0-3.857,2.735,2.735,0,0,0,0-3.857,2.743,2.743,0,0,0-1.945-4.669H12.061V4.751a3.13,3.13,0,0,1,3.126-3.126H33.672V7.985a.812.812,0,0,0,.812.812h5.873c.17.658.065.441.1,8.1H31.342a6.334,6.334,0,0,0-6.327,6.327V43.193Zm25.594,2.173a4.809,4.809,0,0,1-4.8,4.8H31.342a4.81,4.81,0,0,1-4.8-4.8V23.224a4.81,4.81,0,0,1,4.8-4.8H45.8a4.809,4.809,0,0,1,4.8,4.8V45.366Z" transform="translate(0)"/>
      <path id="Path_982887" data-name="Path 982887" d="M286.075,205.914h-2.762a1.036,1.036,0,0,1-1.033-1.033v-2.786a1.036,1.036,0,0,1,1.033-1.033h14.355a1.034,1.034,0,0,1,1.033,1.033v2.786a1.034,1.034,0,0,1-1.033,1.033h-8.31a.761.761,0,0,0,0,1.523h8.31a2.559,2.559,0,0,0,2.556-2.556v-2.786a2.559,2.559,0,0,0-2.556-2.556H283.313a2.556,2.556,0,0,0-2.556,2.556v2.786a2.556,2.556,0,0,0,2.556,2.556h2.762a.761.761,0,1,0,0-1.523Z" transform="translate(-251.917 -179.392)"/>
      <path id="Path_982888" data-name="Path 982888" d="M282.351,364.217h2.6a1.6,1.6,0,0,0,1.594-1.594v-2.6a1.6,1.6,0,0,0-1.594-1.594h-2.6a1.6,1.6,0,0,0-1.594,1.594v2.6A1.6,1.6,0,0,0,282.351,364.217Zm-.071-4.194a.071.071,0,0,1,.071-.071h2.6a.071.071,0,0,1,.071.071v2.6a.071.071,0,0,1-.071.071h-2.6a.071.071,0,0,1-.071-.071Z" transform="translate(-251.917 -322.241)"/>
      <path id="Path_982889" data-name="Path 982889" d="M421.25,291.068h-2.6a1.6,1.6,0,0,0-1.594,1.594v2.6a1.6,1.6,0,0,0,1.594,1.594h2.6a1.6,1.6,0,0,0,1.594-1.594v-2.6A1.6,1.6,0,0,0,421.25,291.068Zm.071,4.194a.071.071,0,0,1-.071.071h-2.6a.071.071,0,0,1-.071-.071c.031-2.573-.066-2.672.071-2.672h2.6a.071.071,0,0,1,.071.071Z" transform="translate(-374.455 -261.681)"/>
      <path id="Path_982890" data-name="Path 982890" d="M282.351,296.856h2.6a1.6,1.6,0,0,0,1.594-1.594v-2.6a1.6,1.6,0,0,0-1.594-1.594h-2.6a1.6,1.6,0,0,0-1.594,1.594v2.6A1.6,1.6,0,0,0,282.351,296.856Zm-.071-4.194a.071.071,0,0,1,.071-.071h2.6a.071.071,0,0,1,.071.071v2.6a.071.071,0,0,1-.071.071h-2.6a.071.071,0,0,1-.071-.071Z" transform="translate(-251.917 -261.681)"/>
      <path id="Path_982891" data-name="Path 982891" d="M286.121,423.028a1.593,1.593,0,0,0-1.193-.537h-2.6a1.589,1.589,0,0,0-1.192.537,2.178,2.178,0,0,0-.4,1.624v2.033a1.6,1.6,0,0,0,1.594,1.594h2.6a1.6,1.6,0,0,0,1.594-1.594v-2.033A2.2,2.2,0,0,0,286.121,423.028Zm-1.193,3.728c-2.57-.031-2.673.066-2.673-.071,0-2.754-.031-2.672.071-2.672h2.6c.125,0,.048.174.071.639A10.823,10.823,0,0,1,284.928,426.756Z" transform="translate(-251.893 -379.835)"/>
      <path id="Path_982892" data-name="Path 982892" d="M420.845,358.428h-1.793a2,2,0,0,0-2,2V368.5a2.184,2.184,0,0,0,2.18,2.181h1.427a2.183,2.183,0,0,0,2.18-2.181v-8.077A2,2,0,0,0,420.845,358.428Zm.475,10.074a.659.659,0,0,1-.658.659h-1.427a.659.659,0,0,1-.658-.659v-8.077a.476.476,0,0,1,.475-.475h1.793a.476.476,0,0,1,.475.475V368.5Z" transform="translate(-374.454 -322.24)"/>
      <path id="Path_982893" data-name="Path 982893" d="M165.932,172.512h0c-.928-.341-1.6-.587-1.6-1.447,0-.784.521-1.181,1.547-1.181,1.09,0,1.383.48,1.767.48a.731.731,0,0,0,.649-.75c0-.634-1.035-.949-1.959-1.032v-.572a.721.721,0,0,0-1.443,0v.663a2.359,2.359,0,0,0-1.959,2.468c0,1.772,1.3,2.262,2.353,2.656,1.026.386,1.837.69,1.837,1.862,0,.968-.537,1.459-1.6,1.459-1.552,0-1.566-1.048-2.158-1.048a.761.761,0,0,0-.662.75c0,.6.893,1.388,2.187,1.593v.553a.721.721,0,1,0,1.443,0V178.4a2.606,2.606,0,0,0,2.187-2.815C168.523,173.464,167.086,172.936,165.932,172.512Z" transform="translate(-145.786 -150.398)"/>
      <path id="Path_982894" data-name="Path 982894" d="M352.672,422.491h-2.6a1.593,1.593,0,0,0-1.193.537,2.186,2.186,0,0,0-.4,1.624v2.033a1.6,1.6,0,0,0,1.594,1.594h2.6a1.6,1.6,0,0,0,1.593-1.594v-2.6a1.6,1.6,0,0,0-1.593-1.593Zm0,4.265c-2.57-.031-2.673.066-2.673-.071v-2.6a.071.071,0,0,1,.071-.07h2.6a.07.07,0,0,1,.07.07C352.711,426.66,352.807,426.756,352.672,426.756Z" transform="translate(-312.798 -379.835)"/>
      <path id="Path_982895" data-name="Path 982895" d="M352.694,291.068h-2.6a1.6,1.6,0,0,0-1.594,1.594v2.6a1.6,1.6,0,0,0,1.594,1.594h2.6a1.57,1.57,0,0,0,.58-.11,1.6,1.6,0,0,0,1.013-1.484v-2.6A1.6,1.6,0,0,0,352.694,291.068Zm.07,4.194a.071.071,0,0,1-.07.071h-2.6a.071.071,0,0,1-.071-.071v-2.6c0-.137.094-.041,2.673-.071a.07.07,0,0,1,.07.071v2.6Z" transform="translate(-312.82 -261.681)"/>
      <path id="Path_982896" data-name="Path 982896" d="M353.274,358.538a1.57,1.57,0,0,0-.58-.11h-2.6a1.6,1.6,0,0,0-1.594,1.594v2.6a1.6,1.6,0,0,0,1.594,1.594h2.6a1.6,1.6,0,0,0,1.593-1.594v-2.6A1.6,1.6,0,0,0,353.274,358.538Zm-.51,4.085a.07.07,0,0,1-.07.071h-2.6a.071.071,0,0,1-.071-.071v-2.6a.071.071,0,0,1,.071-.071h2.6a.07.07,0,0,1,.07.071Z" transform="translate(-312.82 -322.24)"/>
      <path id="Path_982897" data-name="Path 982897" d="M320.808,104.565h1.912a.761.761,0,0,0,0-1.523h-1.912a.761.761,0,0,0,0,1.523Z" transform="translate(-287.241 -92.639)"/>
      <path id="Path_982898" data-name="Path 982898" d="M156.931,104.565h13.5a.761.761,0,0,0,0-1.523h-13.5a.761.761,0,1,0,0,1.523Z" transform="translate(-139.909 -92.639)"/>
      <path id="Path_982899" data-name="Path 982899" d="M159.351,141.995a.761.761,0,1,0,0-1.523h-2.42a.761.761,0,1,0,0,1.523Z" transform="translate(-139.909 -126.29)"/>
      <path id="Path_982900" data-name="Path 982900" d="M224.814,141.233a.762.762,0,0,0-.761-.761H211.06a.761.761,0,0,0,0,1.523h12.993A.762.762,0,0,0,224.814,141.233Z" transform="translate(-188.573 -126.29)"/>
      <path id="Path_982901" data-name="Path 982901" d="M79.022,400.948c0-.191.07-.246.136-.283a1.308,1.308,0,0,1,1.1.075.87.87,0,0,0,.412.125c.751,0,1.345-1.4-.449-1.7v-.048a.771.771,0,1,0-1.543,0v.146a1.731,1.731,0,0,0-1.177,1.734c0,1.3.943,1.653,1.632,1.912.657.247.884.355.884.8,0,.279-.075.538-.621.538-.8,0-.7-.629-1.3-.629a.8.8,0,0,0-.736.789c0,.527.548,1.028,1.313,1.231v.058a.771.771,0,1,0,1.543,0v-.078a1.907,1.907,0,0,0,1.313-1.954C81.539,401.348,79.022,401.7,79.022,400.948Z" transform="translate(-69.064 -358.124)"/>
    </g>
  </g>
</svg>
