<svg xmlns="http://www.w3.org/2000/svg" xmlns:xlink="http://www.w3.org/1999/xlink" width="110" height="110" viewBox="0 0 110 110">
  <defs>
    <filter id="Path_982547" x="0" y="0" width="110" height="110" filterUnits="userSpaceOnUse">
      <feOffset dy="3" input="SourceAlpha"/>
      <feGaussianBlur stdDeviation="3" result="blur"/>
      <feFlood flood-opacity="0.161"/>
      <feComposite operator="in" in2="blur"/>
      <feComposite in="SourceGraphic"/>
    </filter>
  </defs>
  <g id="Group_1156446" data-name="Group 1156446" transform="translate(-1116 -3218)">
    <g id="Group_1154704" data-name="Group 1154704">
      <g id="Group_1150790" data-name="Group 1150790" transform="translate(3 2320)">
        <g id="Group_1154214" data-name="Group 1154214" transform="translate(79 -5809)">
          <g id="Group_1152583" data-name="Group 1152583" transform="translate(1043 6713)">
            <g id="Group_1146973" data-name="Group 1146973" transform="translate(0 0)">
              <g id="Group_1146954" data-name="Group 1146954">
                <g transform="matrix(1, 0, 0, 1, -9, -6)" filter="url(#Path_982547)">
                  <g id="Path_982547-2" data-name="Path 982547" transform="translate(9 6)" fill="#fdeffe">
                    <path d="M 46 90.49987030029297 C 39.99187850952148 90.49987030029297 34.16426849365234 89.32350921630859 28.67905426025391 87.00345611572266 C 23.38019943237305 84.76224517822266 18.62104034423828 81.55341339111328 14.53374671936035 77.46613311767578 C 10.44646644592285 73.37885284423828 7.237639904022217 68.61969757080078 4.996413230895996 63.32085418701172 C 2.676359891891479 57.83565521240234 1.5 52.008056640625 1.5 45.99993515014648 C 1.5 39.99181365966797 2.676359891891479 34.16421508789062 4.996413230895996 28.67901420593262 C 7.237639904022217 23.38017463684082 10.44646644592285 18.62101554870605 14.53374671936035 14.53373527526855 C 18.62104034423828 10.44645500183105 23.38019943237305 7.23762845993042 28.67905426025391 4.996415138244629 C 34.16426849365234 2.676361799240112 39.99187850952148 1.500001788139343 46 1.500001788139343 C 52.00812149047852 1.500001788139343 57.83573150634766 2.676361799240112 63.32094573974609 4.996415138244629 C 68.61979675292969 7.23762845993042 73.37895965576172 10.44645500183105 77.46625518798828 14.53373527526855 C 81.55353546142578 18.62101554870605 84.76235961914062 23.38017463684082 87.00358581542969 28.67901420593262 C 89.32363891601562 34.16421508789062 90.5 39.99181365966797 90.5 45.99993515014648 C 90.5 52.008056640625 89.32363891601562 57.83565521240234 87.00358581542969 63.32085418701172 C 84.76235961914062 68.61969757080078 81.55353546142578 73.37885284423828 77.46625518798828 77.46613311767578 C 73.37895965576172 81.55341339111328 68.61979675292969 84.76224517822266 63.32094573974609 87.00345611572266 C 57.83573150634766 89.32350921630859 52.00812149047852 90.49987030029297 46 90.49987030029297 Z" stroke="none"/>
                    <path d="M 46 2.999992370605469 C 40.1937141418457 2.999992370605469 34.56269836425781 4.136489868164062 29.26337051391602 6.377906799316406 C 24.14332580566406 8.543502807617188 19.54441070556641 11.64437866210938 15.59439849853516 15.59437561035156 C 11.64440155029297 19.54439544677734 8.54351806640625 24.14329528808594 6.377914428710938 29.26333618164062 C 4.136497497558594 34.56264877319336 3 40.19366455078125 3 45.99993515014648 C 3 51.80620574951172 4.136497497558594 57.43720626831055 6.377914428710938 62.73651885986328 C 8.54351806640625 67.8565673828125 11.64440155029297 72.45545959472656 15.59439849853516 76.40547943115234 C 19.54441070556641 80.35547637939453 24.14332580566406 83.45635223388672 29.26337051391602 85.6219482421875 C 34.56269836425781 87.86336517333984 40.1937141418457 88.99986267089844 46 88.99986267089844 C 51.8062858581543 88.99986267089844 57.43730163574219 87.86336517333984 62.73661422729492 85.6219482421875 C 67.85667419433594 83.45635223388672 72.45557403564453 80.35547637939453 76.40558624267578 76.40547943115234 C 80.35559844970703 72.45545959472656 83.45647430419922 67.8565673828125 85.6220703125 62.73651885986328 C 87.86350250244141 57.43720626831055 89 51.80620574951172 89 45.99993515014648 C 89 40.19366455078125 87.86350250244141 34.56264877319336 85.6220703125 29.26333618164062 C 83.45647430419922 24.14329528808594 80.35559844970703 19.54439544677734 76.40558624267578 15.59437561035156 C 72.45557403564453 11.64437866210938 67.85667419433594 8.543502807617188 62.73661422729492 6.377906799316406 C 57.43730163574219 4.136489868164062 51.8062858581543 2.999992370605469 46 2.999992370605469 M 46 -7.62939453125e-06 C 71.40509033203125 -7.62939453125e-06 92 20.59486389160156 92 45.99993515014648 C 92 71.40499114990234 71.40509033203125 91.99986267089844 46 91.99986267089844 C 20.59490203857422 91.99986267089844 0 71.40499114990234 0 45.99993515014648 C 0 20.59486389160156 20.59490203857422 -7.62939453125e-06 46 -7.62939453125e-06 Z" stroke="none" fill="#ee70f7"/>
                  </g>
                </g>
              </g>
            </g>
          </g>
        </g>
      </g>
      <g id="Layer_x0020_1" transform="translate(1142 3226)">
        <path id="Path_991215" data-name="Path 991215" d="M45.294,64.468a1,1,0,0,1-1.005-1.005v-.128H43.47a1,1,0,1,1,0-2.008h2.64V59.69H43.47a1,1,0,0,1-1.005-1V55.043a1.008,1.008,0,0,1,1.005-1.005h.819V53.91a1,1,0,1,1,2.008,0v.128h.819a1.005,1.005,0,1,1,0,2.011h-2.64v1.634h2.64a1.006,1.006,0,0,1,1.005,1.005v3.645a1,1,0,0,1-1.005,1H46.3v.128A1,1,0,0,1,45.294,64.468ZM58.148,59.69H54.5a9.259,9.259,0,0,1-18.409,0H28.378v5.443a1,1,0,0,1-.373.779l-8.548,6.927a1.007,1.007,0,0,1-1.638-.783V59.69H1.005a1,1,0,0,1-1.005-1V15.005A1,1,0,0,1,1.005,14H58.148a1,1,0,0,1,1.005,1.005V58.688A1,1,0,0,1,58.148,59.69ZM54.5,57.682h2.649V24.261H2.008V57.682H16.532L4.87,45.037A1,1,0,0,1,4.6,44.35V39.562a1.006,1.006,0,0,1,1.005-1.005h7.441l-2.63-2.43a1,1,0,0,1-.19-1.241l2.387-4.133a1.006,1.006,0,0,1,1.169-.459l4.667,1.451q.1-.059.206-.118l1.074-4.765a1,1,0,0,1,.979-.786h4.775a1,1,0,0,1,.979.786l1.077,4.765.206.118,4.664-1.451a1.006,1.006,0,0,1,1.169.459l2.387,4.133a1.006,1.006,0,0,1-.187,1.241l-2.633,2.43h7.441A1,1,0,0,1,41.6,39.562c0,.583.02,4.729-.01,4.942a1.009,1.009,0,0,1-.255.531L29.665,57.682h6.422a9.259,9.259,0,0,1,18.409,0ZM24,59.69H19.83V69.951l6.537-5.3V59.69Zm-22-37.44H57.146V16.011H2.008Zm6.642-2.116H5.371a1,1,0,0,1,0-2.008H8.649a1,1,0,0,1,0,2.008Zm7.5,0H12.874a1,1,0,1,1,0-2.008h3.275a1,1,0,1,1,0,2.008Zm-.226,18.422h1.529a5.735,5.735,0,0,1,11.292,0h1.533a.945.945,0,0,1,.21-.275L33.828,35.2l-1.585-2.744L27.9,33.8a1,1,0,0,1-.861-.124,6.612,6.612,0,0,0-.822-.475,1.018,1.018,0,0,1-.537-.681l-1-4.434h-3.17l-1,4.434a1.018,1.018,0,0,1-.537.681,6.858,6.858,0,0,0-.822.475,1,1,0,0,1-.858.124l-4.343-1.349L12.37,35.2l3.341,3.085A1.017,1.017,0,0,1,15.923,38.556Zm23.662,4.795V40.564H6.612v2.787ZM26.934,57.682,38.3,45.358H7.9L19.267,57.682ZM19.513,38.556h7.176a3.726,3.726,0,0,0-7.176,0ZM50.688,30.08H37.037a1,1,0,1,1,0-2.008h13.65a1,1,0,1,1,0,2.008Zm0,4.166h-7.31a1.005,1.005,0,0,1,0-2.011h7.31a1.005,1.005,0,0,1,0,2.011ZM29.757,50.153H16.441a1,1,0,1,1,0-2.008H29.757a1,1,0,1,1,0,2.008ZM27.6,53.625h-8.99a1,1,0,1,1,0-2.008H27.6a1,1,0,0,1,0,2.008Zm17.7-2.188a7.251,7.251,0,1,0,7.248,7.251A7.258,7.258,0,0,0,45.294,51.437Z" fill="#333" fill-rule="evenodd"/>
        <path id="Path_991216" data-name="Path 991216" d="M2431.034,9601.323,2442.4,9589H2412l11.368,12.323Zm2.823-9.536a1,1,0,1,1,0,2.007h-13.316a1,1,0,1,1,0-2.007Zm-11.151,3.471h8.99a1,1,0,0,1,0,2.008h-8.99a1,1,0,1,1,0-2.008Z" transform="translate(-2404.101 -9543.642)" fill="#ccc" fill-rule="evenodd"/>
        <path id="Path_991217" data-name="Path 991217" d="M652.323,3167.773l-11.666,12.648h6.422a9.259,9.259,0,0,1,18.409,0h2.65V3147H613v33.422h14.525l-11.662-12.645a1,1,0,0,1-.269-.688V3162.3a1.006,1.006,0,0,1,1.005-1.005h7.441l-2.63-2.43a1,1,0,0,1-.19-1.241l2.388-4.133a1.006,1.006,0,0,1,1.169-.458l4.667,1.451q.1-.059.206-.118l1.074-4.765a1,1,0,0,1,.979-.786h4.775a1,1,0,0,1,.979.786l1.078,4.765.206.118,4.664-1.451a1.006,1.006,0,0,1,1.169.458l2.388,4.133a1.006,1.006,0,0,1-.187,1.241l-2.633,2.43h7.441a1,1,0,0,1,1.005,1.005c0,.583.02,4.729-.01,4.942A1.009,1.009,0,0,1,652.323,3167.773Zm9.357-10.788h-7.31a1.005,1.005,0,0,1,0-2.011h7.31a1.005,1.005,0,0,1,0,2.011Zm0-4.166H648.03a1,1,0,1,1,0-2.008h13.65a1,1,0,1,1,0,2.008Z" transform="translate(-610.992 -3122.739)" fill="#ffe4af" fill-rule="evenodd"/>
        <path id="Path_991218" data-name="Path 991218" d="M2019,8127.787h32.973V8125H2019Z" transform="translate(-2012.388 -8084.436)" fill="#ccc" fill-rule="evenodd"/>
        <path id="Path_991219" data-name="Path 991219" d="M3787.729,4320.741a5.741,5.741,0,0,1,5.646,4.729h1.533a.939.939,0,0,1,.209-.275l3.341-3.085-1.585-2.745-4.339,1.35a1,1,0,0,1-.862-.125,6.576,6.576,0,0,0-.822-.475,1.019,1.019,0,0,1-.537-.681l-1-4.435h-3.17l-1,4.435a1.019,1.019,0,0,1-.537.681,6.831,6.831,0,0,0-.822.475,1,1,0,0,1-.858.125l-4.343-1.35L3777,4322.11l3.341,3.085a1.01,1.01,0,0,1,.213.275h1.529A5.744,5.744,0,0,1,3787.729,4320.741Z" transform="translate(-3764.63 -4286.914)" fill="#c06000" fill-rule="evenodd"/>
        <path id="Path_991220" data-name="Path 991220" d="M5965.175,6683.722a3.726,3.726,0,0,0-7.176,0Z" transform="translate(-5938.487 -6645.166)" fill="#ffe4af" fill-rule="evenodd"/>
        <path id="Path_991221" data-name="Path 991221" d="M11630.5,11452.25a7.25,7.25,0,1,0-7.248,7.25A7.258,7.258,0,0,0,11630.5,11452.25Zm-5.427-1.006a1.006,1.006,0,0,1,1,1.006v3.646a1,1,0,0,1-1,1h-.819v.127a1,1,0,1,1-2.008,0v-.127h-.818a1,1,0,1,1,0-2.008h2.64v-1.639h-2.64a1,1,0,0,1-1-1v-3.645a1.007,1.007,0,0,1,1-1.006h.818v-.127a1,1,0,1,1,2.008,0v.127h.819a1.006,1.006,0,0,1,0,2.012h-2.64v1.633Z" transform="translate(-11577.957 -11393.563)" fill="#6b809b" fill-rule="evenodd"/>
        <path id="Path_991222" data-name="Path 991222" d="M6061.537,13969.962V13965H6055v10.26Z" transform="translate(-6035.17 -13905.31)" fill="#ccc" fill-rule="evenodd"/>
        <path id="Path_991223" data-name="Path 991223" d="M613,634.239h55.138V628H613Zm6.642-2.116h-3.278a1,1,0,0,1,0-2.008h3.278a1,1,0,0,1,0,2.008Zm7.5,0h-3.275a1,1,0,1,1,0-2.008h3.275a1,1,0,1,1,0,2.008Z" transform="translate(-610.992 -611.989)" fill="#ff3131" fill-rule="evenodd"/>
      </g>
    </g>
  </g>
</svg>
