<svg xmlns="http://www.w3.org/2000/svg" xmlns:xlink="http://www.w3.org/1999/xlink" width="101.5" height="101.5" viewBox="0 0 101.5 101.5">
  <defs>
    <filter id="Path_982547" x="0" y="0" width="101.5" height="101.5" filterUnits="userSpaceOnUse">
      <feOffset dy="3" input="SourceAlpha"/>
      <feGaussianBlur stdDeviation="3" result="blur"/>
      <feFlood flood-opacity="0.161"/>
      <feComposite operator="in" in2="blur"/>
      <feComposite in="SourceGraphic"/>
    </filter>
  </defs>
  <g id="Group_1156480" data-name="Group 1156480" transform="translate(-814 -2718)">
    <g id="Group_1156012" data-name="Group 1156012">
      <g id="Group_1154243" data-name="Group 1154243" transform="translate(-218.623 -8483.932)">
        <g id="Group_1149578" data-name="Group 1149578" transform="translate(708.623 7497.754)">
          <g id="Group_1147086" data-name="Group 1147086" transform="translate(333 3710.178)">
            <g transform="matrix(1, 0, 0, 1, -9, -6)" filter="url(#Path_982547)">
              <g id="Path_982547-2" data-name="Path 982547" transform="translate(9 6)" fill="#fdeffe">
                <path d="M 41.75 82 C 36.31562423706055 82 31.04459953308105 80.93599700927734 26.08334159851074 78.83757781982422 C 21.29058837890625 76.81040191650391 16.98592948913574 73.90802001953125 13.28895282745361 70.21104431152344 C 9.591976165771484 66.51406860351562 6.689599990844727 62.20942306518555 4.662435531616211 57.41666030883789 C 2.563999891281128 52.45539855957031 1.5 47.18437576293945 1.5 41.75 C 1.5 36.31562423706055 2.563999891281128 31.04459953308105 4.662435531616211 26.08334159851074 C 6.689599990844727 21.29058837890625 9.591976165771484 16.98592948913574 13.28895282745361 13.28895282745361 C 16.98592948913574 9.591976165771484 21.29058837890625 6.689599990844727 26.08334159851074 4.662435531616211 C 31.04459953308105 2.563999891281128 36.31562423706055 1.5 41.75 1.5 C 47.18437576293945 1.5 52.45539855957031 2.563999891281128 57.41666030883789 4.662435531616211 C 62.20942306518555 6.689599990844727 66.51406860351562 9.591976165771484 70.21104431152344 13.28895282745361 C 73.90802001953125 16.98592948913574 76.81040191650391 21.29058837890625 78.83757781982422 26.08334159851074 C 80.93599700927734 31.04459953308105 82 36.31562423706055 82 41.75 C 82 47.18437576293945 80.93599700927734 52.45539855957031 78.83757781982422 57.41666030883789 C 76.81040191650391 62.20942306518555 73.90802001953125 66.51408386230469 70.21104431152344 70.21104431152344 C 66.51408386230469 73.90802001953125 62.20942306518555 76.81040191650391 57.41666030883789 78.83757781982422 C 52.45539855957031 80.93599700927734 47.18437576293945 82 41.75 82 Z" stroke="none"/>
                <path d="M 41.75 3 C 36.5174674987793 3 31.44303894042969 4.024131774902344 26.66767883300781 6.043930053710938 C 22.05370712280273 7.9954833984375 17.90931701660156 10.7899169921875 14.34961700439453 14.34961700439453 C 10.7899169921875 17.90931701660156 7.9954833984375 22.05370712280273 6.043930053710938 26.66767883300781 C 4.024131774902344 31.44303894042969 3 36.5174674987793 3 41.75 C 3 46.9825325012207 4.024131774902344 52.05697250366211 6.043930053710938 56.83233261108398 C 7.9954833984375 61.44629287719727 10.7899169921875 65.59069061279297 14.34961700439453 69.150390625 C 17.90931701660156 72.71009063720703 22.05370712280273 75.5045166015625 26.66767883300781 77.45606994628906 C 31.44303894042969 79.47586822509766 36.5174674987793 80.5 41.75 80.5 C 46.9825325012207 80.5 52.05697250366211 79.47586822509766 56.83233261108398 77.45606994628906 C 61.44629287719727 75.5045166015625 65.59069061279297 72.71009063720703 69.150390625 69.150390625 C 72.71009063720703 65.59069061279297 75.5045166015625 61.44629287719727 77.45606994628906 56.83233261108398 C 79.47586822509766 52.05697250366211 80.5 46.9825325012207 80.5 41.75 C 80.5 36.5174674987793 79.47586822509766 31.44303894042969 77.45606994628906 26.66767883300781 C 75.5045166015625 22.05370712280273 72.71009063720703 17.90931701660156 69.150390625 14.34961700439453 C 65.59069061279297 10.7899169921875 61.44629287719727 7.9954833984375 56.83233261108398 6.043930053710938 C 52.05697250366211 4.024131774902344 46.9825325012207 3 41.75 3 M 41.75 0 C 64.80789184570312 0 83.5 18.69212341308594 83.5 41.75 C 83.5 64.80789184570312 64.80789184570312 83.5 41.75 83.5 C 18.69212341308594 83.5 0 64.80789184570312 0 41.75 C 0 18.69212341308594 18.69212341308594 0 41.75 0 Z" stroke="none" fill="#ee70f7"/>
              </g>
            </g>
          </g>
        </g>
      </g>
      <g id="modelos-predictivos" transform="translate(836 2737)">
        <ellipse id="Ellipse_11711" data-name="Ellipse 11711" cx="1.5" cy="2" rx="1.5" ry="2" transform="translate(51.155 36.155)" fill="#f6db40"/>
        <ellipse id="Ellipse_11712" data-name="Ellipse 11712" cx="1.5" cy="2" rx="1.5" ry="2" transform="translate(51.155 28.155)" fill="#f6db40"/>
        <ellipse id="Ellipse_11713" data-name="Ellipse 11713" cx="1.5" cy="2" rx="1.5" ry="2" transform="translate(3.155 36.155)" fill="#f6db40"/>
        <ellipse id="Ellipse_11714" data-name="Ellipse 11714" cx="1.5" cy="2" rx="1.5" ry="2" transform="translate(3.155 28.155)" fill="#f6db40"/>
        <path id="Path_993768" data-name="Path 993768" d="M39.973,49v7.087L32,59.631V52.544Z" transform="translate(-3.422 -5.362)" fill="#8360f4"/>
        <path id="Path_993769" data-name="Path 993769" d="M30.973,52.544v7.087L23,56.087V49Z" transform="translate(-2.396 -5.362)" fill="#8360f4"/>
        <path id="Path_993770" data-name="Path 993770" d="M30.973,45l7.973,3.544-7.973,3.544L23,48.544Z" transform="translate(-2.396 -4.905)" fill="#db535b"/>
        <path id="Path_993771" data-name="Path 993771" d="M21.694,36.289a3.646,3.646,0,0,1-3.677-3.2c-.009-.115-.018-.23-.018-.346A3.539,3.539,0,0,1,21.544,29.2c.044,0,.089.009.133.009-.257-.966-.257-2.038,1.161-3.429a3.24,3.24,0,0,1,2.339-1.01,3.5,3.5,0,0,1,1.9.611,3.52,3.52,0,0,1,6.662,0,3.5,3.5,0,0,1,1.9-.611,3.24,3.24,0,0,1,2.339,1.01c1.417,1.391,1.417,2.463,1.161,3.429.044,0,.089-.009.133-.009a3.539,3.539,0,0,1,3.544,3.544c0,.115-.009.23-.018.346a3.646,3.646,0,0,1-3.677,3.2h-.735V41.6a3.543,3.543,0,0,1-3.544-3.544V36.289Z" transform="translate(-1.825 -2.396)" fill="#f6db40"/>
        <path id="Path_993772" data-name="Path 993772" d="M60.316,8.316H55V3Z" transform="translate(-6.046 -0.114)" fill="#8360f4"/>
        <path id="Path_993773" data-name="Path 993773" d="M39.316,8.316H34V3Z" transform="translate(-3.65 -0.114)" fill="#8360f4"/>
        <path id="Path_993774" data-name="Path 993774" d="M18.316,8.316H13V3Z" transform="translate(-1.255 -0.114)" fill="#8360f4"/>
        <path id="Path_993775" data-name="Path 993775" d="M59.175,8.316v8.859H45V3h8.859V8.316Z" transform="translate(-4.905 -0.114)" fill="#6599ed"/>
        <path id="Path_993776" data-name="Path 993776" d="M38.175,8.316v8.859H24V3h8.859V8.316Z" transform="translate(-2.51 -0.114)" fill="#6599ed"/>
        <path id="Path_993777" data-name="Path 993777" d="M17.175,8.316v8.859H3V3h8.859V8.316Z" transform="translate(-0.114 -0.114)" fill="#6599ed"/>
        <g id="Group_1156011" data-name="Group 1156011" transform="translate(2 2)">
          <path id="Path_993778" data-name="Path 993778" d="M13.517,33.007a.884.884,0,0,0-.626.26l-4.17,4.17H7.153a2.658,2.658,0,1,0,0,1.772H9.087a.884.884,0,0,0,.626-.26l4.17-4.17H27.692v4.74l-7.447,3.31a.887.887,0,0,0-.526.81v7.087a.887.887,0,0,0,.526.81l7.973,3.544a.887.887,0,0,0,.719,0l7.973-3.544a.887.887,0,0,0,.526-.81V43.638a.887.887,0,0,0-.526-.81l-7.447-3.31v-4.74h2.658v.886a4.435,4.435,0,0,0,4.43,4.43.886.886,0,0,0,.886-.886v-4.43h5.835l4.17,4.17a.885.885,0,0,0,.626.26H50a2.658,2.658,0,1,0,0-1.772H48.435l-4.17-4.17a.884.884,0,0,0-.626-.26H40.943a4.276,4.276,0,0,0,.814-1.772H50a2.658,2.658,0,1,0,0-1.772H41.751a4.407,4.407,0,0,0-.633-1.542l6.69-6.69a.884.884,0,0,0,.26-.626V17.947h6.2a.886.886,0,0,0,.886-.886V8.2a.884.884,0,0,0-.26-.626L49.58,2.26A.884.884,0,0,0,48.954,2H40.095a.886.886,0,0,0-.886.886V17.061a.886.886,0,0,0,.886.886h6.2v2.291l-6.427,6.427a4.429,4.429,0,0,0-1.546-.655,4.344,4.344,0,0,0-1.553-3.258,4.084,4.084,0,0,0-2.986-1.26,4.42,4.42,0,0,0-1.477.291,4.425,4.425,0,0,0-2.844-1.965V17.947h6.2a.886.886,0,0,0,.886-.886V8.2a.884.884,0,0,0-.26-.626L30.976,2.26A.884.884,0,0,0,30.35,2H21.49a.886.886,0,0,0-.886.886V17.061a.886.886,0,0,0,.886.886h6.2v1.871a4.428,4.428,0,0,0-2.844,1.965,4.42,4.42,0,0,0-1.477-.291,4.138,4.138,0,0,0-2.985,1.26,4.342,4.342,0,0,0-1.554,3.258,4.422,4.422,0,0,0-1.546.655l-6.427-6.426V17.947h6.2a.886.886,0,0,0,.886-.886V8.2a.884.884,0,0,0-.26-.626L12.371,2.26A.884.884,0,0,0,11.745,2H2.886A.886.886,0,0,0,2,2.886V17.061a.886.886,0,0,0,.886.886h6.2V20.6a.884.884,0,0,0,.26.626l6.69,6.69a4.407,4.407,0,0,0-.633,1.542H7.153a2.658,2.658,0,1,0,0,1.772H15.4a4.281,4.281,0,0,0,.814,1.772Zm-8.859,6.2a.886.886,0,1,1,.886-.886A.887.887,0,0,1,4.658,39.209ZM21.49,45l6.2,2.756v5.149l-6.2-2.756Zm7.973,7.9V47.758L35.665,45v5.149Zm4.906-9.268-5.792,2.574-5.792-2.574,4.906-2.18v2.18h1.772v-2.18Zm18.128-6.2a.886.886,0,1,1-.886.886A.887.887,0,0,1,52.5,37.437ZM49.84,5.025l2.291,2.291H49.84ZM40.981,3.772h7.087V8.2a.886.886,0,0,0,.886.886h4.43v7.087h-12.4ZM31.235,5.025l2.291,2.291H31.235ZM22.376,3.772h7.087V8.2a.886.886,0,0,0,.886.886h4.43v7.087h-12.4ZM12.631,5.025l2.291,2.291H12.631ZM3.772,3.772h7.087V8.2a.886.886,0,0,0,.886.886h4.43v7.087H3.772ZM52.5,29.464a.886.886,0,1,1-.886.886A.887.887,0,0,1,52.5,29.464ZM19.664,27.69c.03,0,.119.013.149.014a.886.886,0,0,0,.892-1.11c-.176-.669-.249-1.419.927-2.582a2.365,2.365,0,0,1,1.7-.749,2.645,2.645,0,0,1,1.421.454.887.887,0,0,0,1.333-.441,2.637,2.637,0,0,1,4.991,0,.887.887,0,0,0,1.333.441,2.65,2.65,0,0,1,1.421-.454,2.457,2.457,0,0,1,1.7.749c1.176,1.162,1.1,1.913.927,2.582a.883.883,0,0,0,.167.78.893.893,0,0,0,.726.33.244.244,0,0,0,.093-.012,2.659,2.659,0,0,1,2.645,2.921,2.763,2.763,0,0,1-2.8,2.395h-.734a.886.886,0,0,0-.886.886v4.278a2.663,2.663,0,0,1-1.772-2.506V33.893a.886.886,0,0,0-.886-.886V31.6L34.52,30.09a.884.884,0,0,0,.26-.626V26.806H33.007V29.1L31.5,30.609a.887.887,0,0,0-.26.626v1.772H29.464V25.034H27.692v7.973H25.92V31.235a.884.884,0,0,0-.26-.626L24.148,29.1V26.806H22.376v2.658a.884.884,0,0,0,.26.626L24.148,31.6v1.405H19.871a2.763,2.763,0,0,1-2.8-2.394,2.662,2.662,0,0,1,2.59-2.924ZM4.658,31.235a.886.886,0,1,1,.886-.886A.887.887,0,0,1,4.658,31.235Z" transform="translate(-2 -2)" fill="#1a1a1a"/>
          <path id="Path_993779" data-name="Path 993779" d="M45,52h1.772v1.772H45Z" transform="translate(-6.905 -7.704)" fill="#1a1a1a"/>
          <path id="Path_993780" data-name="Path 993780" d="M49,52h1.772v1.772H49Z" transform="translate(-7.362 -7.704)" fill="#1a1a1a"/>
          <path id="Path_993781" data-name="Path 993781" d="M49,56h1.772v1.772H49Z" transform="translate(-7.362 -8.16)" fill="#1a1a1a"/>
          <path id="Path_993782" data-name="Path 993782" d="M49,48h1.772v1.772H49Z" transform="translate(-7.362 -7.248)" fill="#1a1a1a"/>
          <path id="Path_993783" data-name="Path 993783" d="M17,52h1.772v1.772H17Z" transform="translate(-3.711 -7.704)" fill="#1a1a1a"/>
          <path id="Path_993784" data-name="Path 993784" d="M13,52h1.772v1.772H13Z" transform="translate(-3.255 -7.704)" fill="#1a1a1a"/>
          <path id="Path_993785" data-name="Path 993785" d="M13,56h1.772v1.772H13Z" transform="translate(-3.255 -8.16)" fill="#1a1a1a"/>
          <path id="Path_993786" data-name="Path 993786" d="M13,48h1.772v1.772H13Z" transform="translate(-3.255 -7.248)" fill="#1a1a1a"/>
        </g>
      </g>
    </g>
  </g>
</svg>
