<svg xmlns="http://www.w3.org/2000/svg" xmlns:xlink="http://www.w3.org/1999/xlink" width="108" height="108" viewBox="0 0 108 108">
  <defs>
    <filter id="Path_982547" x="0" y="0" width="108" height="108" filterUnits="userSpaceOnUse">
      <feOffset dy="3" input="SourceAlpha"/>
      <feGaussianBlur stdDeviation="3" result="blur"/>
      <feFlood flood-opacity="0.161"/>
      <feComposite operator="in" in2="blur"/>
      <feComposite in="SourceGraphic"/>
    </filter>
  </defs>
  <g id="Group_1148550" data-name="Group 1148550" transform="translate(-905 -3427)">
    <g id="Group_1147067" data-name="Group 1147067" transform="translate(289 -556)">
      <g transform="matrix(1, 0, 0, 1, 616, 3983)" filter="url(#Path_982547)">
        <g id="Path_982547-2" data-name="Path 982547" transform="translate(9 6)" fill="#fdeffe">
          <path d="M 45 88.5 C 39.12687683105469 88.5 33.43022537231445 87.35007476806641 28.06830024719238 85.08217620849609 C 22.88852500915527 82.89131164550781 18.23629951477051 79.75458526611328 14.2408504486084 75.75914764404297 C 10.24541282653809 71.76370239257812 7.108687400817871 67.11147308349609 4.917825222015381 61.93170166015625 C 2.649924993515015 56.56977462768555 1.5 50.87312316894531 1.5 45 C 1.5 39.12687683105469 2.649924993515015 33.43022537231445 4.917825222015381 28.06830024719238 C 7.108687400817871 22.88852500915527 10.24541282653809 18.23629951477051 14.2408504486084 14.2408504486084 C 18.23629951477051 10.24541282653809 22.88852500915527 7.108687400817871 28.06830024719238 4.917825222015381 C 33.43022537231445 2.649924993515015 39.12687683105469 1.5 45 1.5 C 50.87312316894531 1.5 56.56977462768555 2.649924993515015 61.93170166015625 4.917825222015381 C 67.11147308349609 7.108687400817871 71.76370239257812 10.24541282653809 75.75914764404297 14.2408504486084 C 79.75458526611328 18.23629951477051 82.89131164550781 22.88852500915527 85.08217620849609 28.06830024719238 C 87.35007476806641 33.43022537231445 88.5 39.12687683105469 88.5 45 C 88.5 50.87312316894531 87.35007476806641 56.56977462768555 85.08217620849609 61.93170166015625 C 82.89131164550781 67.11147308349609 79.75458526611328 71.76370239257812 75.75914764404297 75.75914764404297 C 71.76370239257812 79.75458526611328 67.11147308349609 82.89131164550781 61.93170166015625 85.08217620849609 C 56.56977462768555 87.35007476806641 50.87312316894531 88.5 45 88.5 Z" stroke="none"/>
          <path d="M 45 3 C 39.32871246337891 3 33.82865524291992 4.110054016113281 28.65262985229492 6.299339294433594 C 23.65165710449219 8.414573669433594 19.15968322753906 11.44334411621094 15.301513671875 15.301513671875 C 11.44334411621094 19.15968322753906 8.414573669433594 23.65165710449219 6.299339294433594 28.65262985229492 C 4.110054016113281 33.82865524291992 3 39.32871246337891 3 45 C 3 50.67128753662109 4.110054016113281 56.17134475708008 6.299339294433594 61.34737396240234 C 8.414573669433594 66.34834289550781 11.44334411621094 70.84031677246094 15.301513671875 74.698486328125 C 19.15968322753906 78.55665588378906 23.65165710449219 81.58542633056641 28.65262985229492 83.70066070556641 C 33.82865524291992 85.88994598388672 39.32871246337891 87 45 87 C 50.67128753662109 87 56.17134475708008 85.88994598388672 61.34737396240234 83.70066070556641 C 66.34834289550781 81.58542633056641 70.84031677246094 78.55665588378906 74.698486328125 74.698486328125 C 78.55665588378906 70.84031677246094 81.58542633056641 66.34834289550781 83.70066070556641 61.34737396240234 C 85.88994598388672 56.17134475708008 87 50.67128753662109 87 45 C 87 39.32871246337891 85.88994598388672 33.82865524291992 83.70066070556641 28.65262985229492 C 81.58542633056641 23.65165710449219 78.55665588378906 19.15968322753906 74.698486328125 15.301513671875 C 70.84031677246094 11.44334411621094 66.34834289550781 8.414573669433594 61.34737396240234 6.299339294433594 C 56.17134475708008 4.110054016113281 50.67128753662109 3 45 3 M 45 0 C 69.85281372070312 0 90 20.14718627929688 90 45 C 90 69.85281372070312 69.85281372070312 90 45 90 C 20.14718627929688 90 0 69.85281372070312 0 45 C 0 20.14718627929688 20.14718627929688 0 45 0 Z" stroke="none" fill="#ee70f7"/>
        </g>
      </g>
    </g>
    <g id="healthcare" transform="translate(927.892 3447.777)">
      <g id="Group_1148548" data-name="Group 1148548" transform="translate(1.987 4.987)">
        <g id="Group_1148535" data-name="Group 1148535" transform="translate(27.627 7.893)">
          <path id="Path_982912" data-name="Path 982912" d="M31.963,13.178a2.75,2.75,0,0,1,1-.178h4.933v2.96a.99.99,0,0,0,.987.987H44.8a.99.99,0,0,0,.987-.987V13h6.907a2.956,2.956,0,0,1,2.96,2.96v4.933H30V15.96A2.952,2.952,0,0,1,31.963,13.178Z" transform="translate(-30 -13)" fill="#969faa"/>
        </g>
        <g id="Group_1148536" data-name="Group 1148536" transform="translate(27.627 43.413)">
          <path id="Path_982913" data-name="Path 982913" d="M55.653,50.973v2.96a2.956,2.956,0,0,1-2.96,2.96H32.96A2.956,2.956,0,0,1,30,53.933V49H51.707a1.988,1.988,0,0,0,1.973,1.973Z" transform="translate(-30 -49)" fill="#969faa"/>
        </g>
        <g id="Group_1148537" data-name="Group 1148537" transform="translate(5.92 28.613)">
          <path id="Path_982914" data-name="Path 982914" d="M17.867,36.96V47.813L8,50.773V34Z" transform="translate(-8 -34)" fill="#b4dd7f"/>
        </g>
        <g id="Group_1148538" data-name="Group 1148538" transform="translate(27.617 15.787)">
          <path id="Path_982915" data-name="Path 982915" d="M35.1,37.941l-3.325-3.325a5.764,5.764,0,0,0-1.786-1.223l.01-.01V21.276A2.509,2.509,0,0,0,30.158,21h25.5V38.76H53.68a1.979,1.979,0,0,0-1.973,1.973,1.988,1.988,0,0,0,1.973,1.973,1.979,1.979,0,0,0-1.973,1.973,1.988,1.988,0,0,0,1.973,1.973,1.979,1.979,0,0,0-1.973,1.973H30V40.733l1.154,1.154A2.791,2.791,0,1,0,35.1,37.941Z" transform="translate(-29.99 -21)" fill="#69d6f4"/>
        </g>
        <g id="Group_1148539" data-name="Group 1148539">
          <path id="Path_982916" data-name="Path 982916" d="M29.627,20.787v.276a16.023,16.023,0,0,1-4.933,5.5l-4.3,2.97a6.3,6.3,0,0,1-7.183,0l-4.3-2.97A16.065,16.065,0,0,1,2,13.377a8.372,8.372,0,0,1,14.3-5.92l.5.5.5-.5a8.527,8.527,0,0,1,2.723-1.825A8.378,8.378,0,0,1,31.59,13.071a2.952,2.952,0,0,0-1.963,2.782v4.933Z" transform="translate(-2 -5)" fill="#ff826e"/>
        </g>
        <g id="Group_1148540" data-name="Group 1148540" transform="translate(3.938 9.959)">
          <ellipse id="Ellipse_11557" data-name="Ellipse 11557" cx="2" cy="1.5" rx="2" ry="1.5" transform="translate(0.183 0.277)" fill="#fcd770"/>
        </g>
        <g id="Group_1148541" data-name="Group 1148541" transform="translate(35.52 7.893)">
          <path id="Path_982917" data-name="Path 982917" d="M45.893,13v2.96a.99.99,0,0,1-.987.987h-5.92A.99.99,0,0,1,38,15.96V13Z" transform="translate(-38 -13)" fill="#e6e9ed"/>
        </g>
        <g id="Group_1148542" data-name="Group 1148542" transform="translate(49.333 41.44)">
          <path id="Path_982918" data-name="Path 982918" d="M57.338,47.582a1.929,1.929,0,0,1,.582,1.391,1.979,1.979,0,0,1-1.973,1.973H53.973A1.988,1.988,0,0,1,52,48.973,1.979,1.979,0,0,1,53.973,47h1.973A1.929,1.929,0,0,1,57.338,47.582Z" transform="translate(-52 -47)" fill="#f0d0b4"/>
        </g>
        <g id="Group_1148543" data-name="Group 1148543" transform="translate(49.333 37.493)">
          <path id="Path_982919" data-name="Path 982919" d="M57.92,44.973a1.979,1.979,0,0,1-1.973,1.973H53.973A1.988,1.988,0,0,1,52,44.973,1.979,1.979,0,0,1,53.973,43h1.973a1.988,1.988,0,0,1,1.973,1.973Z" transform="translate(-52 -43)" fill="#f0d0b4"/>
        </g>
        <g id="Group_1148544" data-name="Group 1148544" transform="translate(49.333 33.547)">
          <path id="Path_982920" data-name="Path 982920" d="M55.947,39a1.988,1.988,0,0,1,1.973,1.973,1.979,1.979,0,0,1-1.973,1.973H53.973A1.988,1.988,0,0,1,52,40.973,1.979,1.979,0,0,1,53.973,39Z" transform="translate(-52 -39)" fill="#f0d0b4"/>
        </g>
        <g id="Group_1148545" data-name="Group 1148545" transform="translate(53.28 29.6)">
          <path id="Path_982921" data-name="Path 982921" d="M59.947,35a1.979,1.979,0,0,1,1.973,1.973,1.988,1.988,0,0,1-1.973,1.973H56V35Z" transform="translate(-56 -35)" fill="#f0d0b4"/>
        </g>
        <g id="Group_1148546" data-name="Group 1148546" transform="translate(15.787 27.627)">
          <path id="Path_982922" data-name="Path 982922" d="M29.84,40.893V50.74a28.873,28.873,0,0,1-10.37-2.309L18,47.8V36.947l6.611-3.305A6.061,6.061,0,0,1,27.324,33a5.915,5.915,0,0,1,2.506.553,5.764,5.764,0,0,1,1.786,1.223L34.941,38.1a2.791,2.791,0,1,1-3.947,3.947Z" transform="translate(-18 -33)" fill="#f0d0b4"/>
        </g>
        <g id="Group_1148547" data-name="Group 1148547" transform="translate(33.547 21.707)">
          <path id="Path_982923" data-name="Path 982923" d="M49.813,31.933V35.88a.99.99,0,0,1-.987.987h-2.96v2.96a.99.99,0,0,1-.987.987H40.933a.99.99,0,0,1-.987-.987v-2.96h-2.96A.99.99,0,0,1,36,35.88V31.933a.99.99,0,0,1,.987-.987h2.96v-2.96A.99.99,0,0,1,40.933,27H44.88a.99.99,0,0,1,.987.987v2.96h2.96A.99.99,0,0,1,49.813,31.933Z" transform="translate(-36 -27)" fill="#ff826e"/>
        </g>
      </g>
      <g id="Group_1148549" data-name="Group 1148549" transform="translate(1 4)">
        <path id="Path_982924" data-name="Path 982924" d="M39,52h7.893v1.973H39Z" transform="translate(-1.507 -4.64)"/>
        <path id="Path_982925" data-name="Path 982925" d="M59.213,33.6h-2.96V15.84a3.951,3.951,0,0,0-3.947-3.947H32.573c-.042,0-.082.011-.124.013a9.35,9.35,0,0,0-15.662-5.35A9.359,9.359,0,0,0,1,13.358,17.024,17.024,0,0,0,8.333,27.353l4.3,2.975a7.306,7.306,0,0,0,8.316,0l4.3-2.975a17.051,17.051,0,0,0,3.386-3.135V31.8a6.961,6.961,0,0,0-1.527-.177,7.1,7.1,0,0,0-3.155.745L17.682,35.5,6.92,32.274V51.7l10.794-3.238,1.137.487a29.685,29.685,0,0,0,9.776,2.339v2.045a3.951,3.951,0,0,0,3.947,3.947H52.306a3.951,3.951,0,0,0,3.947-3.947V51.178a2.933,2.933,0,0,0,1.2-4.752,2.915,2.915,0,0,0,0-3.947,2.869,2.869,0,0,0,.588-2.96h1.168a2.96,2.96,0,0,0,0-5.92ZM38.493,13.867h5.92V15.84h-5.92Zm-1.973,0V15.84a1.975,1.975,0,0,0,1.973,1.973h5.92a1.975,1.975,0,0,0,1.973-1.973V13.867h5.92A1.975,1.975,0,0,1,54.28,15.84v3.947H30.6V15.84a1.975,1.975,0,0,1,1.973-1.973ZM24.118,25.73l-4.3,2.975a5.413,5.413,0,0,1-6.068,0l-4.3-2.975A15.049,15.049,0,0,1,2.973,13.358,7.386,7.386,0,0,1,15.581,8.136l1.206,1.206,1.206-1.206a7.382,7.382,0,0,1,12.549,4.337,3.936,3.936,0,0,0-1.915,3.366v1.973H23.452l-2.58-9.028L15.812,21.94,14,17.12a1.983,1.983,0,0,0-1.848-1.28H10.685a2.96,2.96,0,1,0,0,1.973h1.471L15.789,27.5,20.6,15l.958,3.353a1.98,1.98,0,0,0,1.9,1.433h5.176v.976a15.086,15.086,0,0,1-4.509,4.968Zm-15.224-8.9a.987.987,0,1,1-.987-.987A.988.988,0,0,1,8.893,16.827ZM30.6,21.76H54.28V37.547h-.987A2.947,2.947,0,0,0,51.1,42.48a2.915,2.915,0,0,0,0,3.947,2.933,2.933,0,0,0-.588.987H30.6V42.795a3.763,3.763,0,0,0,5.094-5.436,1.946,1.946,0,0,0,.826.187h1.973V39.52a1.975,1.975,0,0,0,1.973,1.973h3.947a1.975,1.975,0,0,0,1.973-1.973V37.547H48.36a1.975,1.975,0,0,0,1.973-1.973V31.627a1.975,1.975,0,0,0-1.973-1.973H46.386V27.68a1.975,1.975,0,0,0-1.973-1.973H40.467a1.975,1.975,0,0,0-1.973,1.973v1.973H36.52a1.975,1.975,0,0,0-1.973,1.973v3.947a1.957,1.957,0,0,0,.14.718l-2.6-2.6A7.03,7.03,0,0,0,30.6,32.568ZM56.253,44.453a.987.987,0,0,1-.987.987H53.293a.987.987,0,1,1,0-1.973h1.973A.987.987,0,0,1,56.253,44.453ZM48.36,31.627v3.947H44.413V39.52H40.467V35.573H36.52V31.627h3.947V27.68h3.947v3.947Zm-39.467,3.3,7.893,2.368v9.385L8.893,49.047ZM19.627,47.135l-.867-.372V37.17l6.066-3.033a5.208,5.208,0,0,1,5.867.952l3.325,3.325a1.8,1.8,0,0,1-2.551,2.552l-2.552-2.552a2.942,2.942,0,0,0-2.093-.867H24.68V39.52h2.143a.99.99,0,0,1,.7.289l1.106,1.106v8.4a27.764,27.764,0,0,1-9-2.178Zm32.679,8.172H32.573A1.975,1.975,0,0,1,30.6,53.333V49.386H50.515a2.956,2.956,0,0,0,2.778,1.973h.987v1.973A1.975,1.975,0,0,1,52.306,55.306Zm2.96-5.92H53.293a.987.987,0,1,1,0-1.973h1.973a.987.987,0,1,1,0,1.973Zm.987-8.88a.987.987,0,0,1-.987.987H53.293a.987.987,0,1,1,0-1.973h1.973A.987.987,0,0,1,56.253,40.507Zm2.96-2.96h-2.96V35.573h2.96a.987.987,0,1,1,0,1.973Z" transform="translate(-1 -4)"/>
      </g>
    </g>
  </g>
</svg>
