<svg xmlns="http://www.w3.org/2000/svg" xmlns:xlink="http://www.w3.org/1999/xlink" width="113" height="113" viewBox="0 0 113 113">
  <defs>
    <filter id="Path_982547" x="0" y="0" width="113" height="113" filterUnits="userSpaceOnUse">
      <feOffset dy="3" input="SourceAlpha"/>
      <feGaussianBlur stdDeviation="3" result="blur"/>
      <feFlood flood-opacity="0.161"/>
      <feComposite operator="in" in2="blur"/>
      <feComposite in="SourceGraphic"/>
    </filter>
  </defs>
  <g id="Group_1148591" data-name="Group 1148591" transform="translate(-1164 -3704.178)">
    <g id="Group_1147088" data-name="Group 1147088" transform="translate(1173 3710.178)">
      <g transform="matrix(1, 0, 0, 1, -9, -6)" filter="url(#Path_982547)">
        <g id="Path_982547-2" data-name="Path 982547" transform="translate(9 6)" fill="#fdeffe">
          <path d="M 47.5 93.5 C 41.28937149047852 93.5 35.26533508300781 92.28397369384766 29.59518623352051 89.88570404052734 C 24.11771965026855 87.56893157958984 19.19813346862793 84.25196075439453 14.97309303283691 80.02691650390625 C 10.74804019927979 75.80186462402344 7.431066513061523 70.88229370117188 5.114293098449707 65.40481567382812 C 2.716026782989502 59.73468017578125 1.5 53.71062850952148 1.5 47.5 C 1.5 41.28937149047852 2.716026782989502 35.26533508300781 5.114293098449707 29.59518623352051 C 7.431066513061523 24.11771965026855 10.74804019927979 19.19813346862793 14.97309303283691 14.97309303283691 C 19.19813346862793 10.74804019927979 24.11771965026855 7.431066513061523 29.59518623352051 5.114293098449707 C 35.26533508300781 2.716026782989502 41.28937149047852 1.5 47.5 1.5 C 53.71062850952148 1.5 59.73468017578125 2.716026782989502 65.40481567382812 5.114293098449707 C 70.88229370117188 7.431066513061523 75.80186462402344 10.74804019927979 80.02691650390625 14.97309303283691 C 84.25196075439453 19.19813346862793 87.56893157958984 24.11771965026855 89.88570404052734 29.59518623352051 C 92.28397369384766 35.26533508300781 93.5 41.28937149047852 93.5 47.5 C 93.5 53.71062850952148 92.28397369384766 59.73468017578125 89.88570404052734 65.40481567382812 C 87.56893157958984 70.88229370117188 84.25196075439453 75.80186462402344 80.02691650390625 80.02691650390625 C 75.80186462402344 84.25196075439453 70.88229370117188 87.56893157958984 65.40481567382812 89.88570404052734 C 59.73468017578125 92.28397369384766 53.71062850952148 93.5 47.5 93.5 Z" stroke="none"/>
          <path d="M 47.5 3 C 41.49121475219727 3 35.66376876831055 4.176155090332031 30.17950439453125 6.495796203613281 C 24.88084411621094 8.736953735351562 20.12152099609375 11.94598388671875 16.03375244140625 16.03375244140625 C 11.94598388671875 20.12152099609375 8.736953735351562 24.88084411621094 6.495796203613281 30.17950439453125 C 4.176155090332031 35.66376876831055 3 41.49121475219727 3 47.5 C 3 53.50878524780273 4.176155090332031 59.33623123168945 6.495796203613281 64.82049560546875 C 8.736953735351562 70.11915588378906 11.94598388671875 74.87847900390625 16.03375244140625 78.96624755859375 C 20.12152099609375 83.05401611328125 24.88084411621094 86.26304626464844 30.17950439453125 88.50419616699219 C 35.66376876831055 90.82384490966797 41.49121475219727 92 47.5 92 C 53.50878524780273 92 59.33623123168945 90.82384490966797 64.82049560546875 88.50419616699219 C 70.11915588378906 86.26304626464844 74.87847900390625 83.05401611328125 78.96624755859375 78.96624755859375 C 83.05401611328125 74.87847900390625 86.26304626464844 70.11915588378906 88.50419616699219 64.82049560546875 C 90.82384490966797 59.33623123168945 92 53.50878524780273 92 47.5 C 92 41.49121475219727 90.82384490966797 35.66376876831055 88.50419616699219 30.17950439453125 C 86.26304626464844 24.88084411621094 83.05401611328125 20.12152099609375 78.96624755859375 16.03375244140625 C 74.87847900390625 11.94598388671875 70.11915588378906 8.736953735351562 64.82049560546875 6.495796203613281 C 59.33623123168945 4.176155090332031 53.50878524780273 3 47.5 3 M 47.5 0 C 73.7335205078125 0 95 21.2664794921875 95 47.5 C 95 73.7335205078125 73.7335205078125 95 47.5 95 C 21.2664794921875 95 0 73.7335205078125 0 47.5 C 0 21.2664794921875 21.2664794921875 0 47.5 0 Z" stroke="none" fill="#ee70f7"/>
        </g>
      </g>
    </g>
    <g id="smartphone" transform="translate(1164.562 3722.739)">
      <g id="Group_1148589" data-name="Group 1148589" transform="translate(23.742 1.062)">
        <g id="Group_1148588" data-name="Group 1148588" transform="translate(0)">
          <g id="Group_1148587" data-name="Group 1148587">
            <ellipse id="Ellipse_11572" data-name="Ellipse 11572" cx="13.265" cy="13.326" rx="13.265" ry="13.326" transform="translate(10.182 32.832)" fill="#ffdbd3"/>
            <g id="Group_1148585" data-name="Group 1148585" transform="translate(16.98)">
              <g id="Group_1148584" data-name="Group 1148584">
                <g id="Group_1148583" data-name="Group 1148583">
                  <path id="Path_983052" data-name="Path 983052" d="M184.021,59.042H162.069a3.2,3.2,0,0,1-3.195-3.195V10.695A3.2,3.2,0,0,1,162.069,7.5h21.952a3.2,3.2,0,0,1,3.195,3.195V55.847A3.2,3.2,0,0,1,184.021,59.042Z" transform="translate(-158.874 -7.5)" fill="#7776d0"/>
                  <path id="Path_983053" data-name="Path 983053" d="M302.151,7.5h-5.663a3.2,3.2,0,0,1,3.195,3.195V55.847a3.2,3.2,0,0,1-3.195,3.195h5.663a3.2,3.2,0,0,0,3.195-3.195V10.695A3.2,3.2,0,0,0,302.151,7.5Z" transform="translate(-277.004 -7.5)" fill="#6967bf"/>
                  <path id="Path_983054" data-name="Path 983054" d="M158.873,41.534h28.342v39.7H158.873Z" transform="translate(-158.873 -36.715)" fill="#d4d9ff"/>
                  <path id="Path_983055" data-name="Path 983055" d="M319.053,41.534h5.663v39.7h-5.663Z" transform="translate(-296.374 -36.715)" fill="#c7cdff"/>
                </g>
              </g>
            </g>
            <path id="Path_983056" data-name="Path 983056" d="M91.651,176.5c3.856-5.607,2.153-14.961-4.36-17.78V145.869a3.368,3.368,0,1,0-6.735,0v25.339l-5,5.022L87.2,187.923l5.111-5.135" transform="translate(-70.374 -123.374)" fill="#ffdbd3"/>
            <path id="Path_983057" data-name="Path 983057" d="M117.6,158.717V145.869a3.368,3.368,0,1,0-6.735,0v12.869c4.63,2.033,6.811,7.38,6.27,12.307a4.879,4.879,0,0,0,4.825,5.452C125.813,170.889,124.11,161.535,117.6,158.717Z" transform="translate(-100.68 -123.374)" fill="#ffd1c7"/>
            <g id="Group_1148586" data-name="Group 1148586" transform="translate(40.909 12.262)">
              <path id="Path_983058" data-name="Path 983058" d="M327.884,97.215V97.2a3.1,3.1,0,0,1,3.1-3.1h1.854a3.1,3.1,0,0,1,3.1,3.1v.014a3.1,3.1,0,0,1-3.1,3.1h-1.854A3.1,3.1,0,0,1,327.884,97.215Z" transform="translate(-327.884 -94.106)" fill="#ffdbd3"/>
              <path id="Path_983059" data-name="Path 983059" d="M344.344,94.106H342.49a3.086,3.086,0,0,0-1.2.24,3.1,3.1,0,0,1,1.9,2.855v.014a3.1,3.1,0,0,1-1.9,2.855,3.086,3.086,0,0,0,1.2.24h1.854a3.1,3.1,0,0,0,3.1-3.1V97.2A3.1,3.1,0,0,0,344.344,94.106Z" transform="translate(-339.395 -94.106)" fill="#ffd1c7"/>
              <path id="Path_983060" data-name="Path 983060" d="M327.884,141.038v-.014a3.1,3.1,0,0,1,3.1-3.1h1.854a3.1,3.1,0,0,1,3.1,3.1v.014a3.1,3.1,0,0,1-3.1,3.1h-1.854A3.1,3.1,0,0,1,327.884,141.038Z" transform="translate(-327.884 -131.724)" fill="#ffdbd3"/>
              <path id="Path_983061" data-name="Path 983061" d="M344.344,137.928H342.49a3.086,3.086,0,0,0-1.2.24,3.1,3.1,0,0,1,1.9,2.855v.014a3.1,3.1,0,0,1-1.9,2.855,3.086,3.086,0,0,0,1.2.24h1.854a3.1,3.1,0,0,0,3.1-3.1v-.014A3.1,3.1,0,0,0,344.344,137.928Z" transform="translate(-339.395 -131.724)" fill="#ffd1c7"/>
              <path id="Path_983062" data-name="Path 983062" d="M327.884,184.86v-.014a3.1,3.1,0,0,1,3.1-3.1h1.854a3.1,3.1,0,0,1,3.1,3.1v.014a3.1,3.1,0,0,1-3.1,3.1h-1.854A3.1,3.1,0,0,1,327.884,184.86Z" transform="translate(-327.884 -169.342)" fill="#ffdbd3"/>
              <path id="Path_983063" data-name="Path 983063" d="M344.344,181.751H342.49a3.086,3.086,0,0,0-1.2.24,3.1,3.1,0,0,1,1.9,2.855v.014a3.1,3.1,0,0,1-1.9,2.855,3.086,3.086,0,0,0,1.2.24h1.854a3.1,3.1,0,0,0,3.1-3.1v-.014A3.1,3.1,0,0,0,344.344,181.751Z" transform="translate(-339.395 -169.342)" fill="#ffd1c7"/>
              <path id="Path_983064" data-name="Path 983064" d="M327.884,228.683v-.014a3.1,3.1,0,0,1,3.1-3.1h1.854a3.1,3.1,0,0,1,3.1,3.1v.014a3.1,3.1,0,0,1-3.1,3.1h-1.854A3.1,3.1,0,0,1,327.884,228.683Z" transform="translate(-327.884 -206.96)" fill="#ffdbd3"/>
              <path id="Path_983065" data-name="Path 983065" d="M344.344,225.573H342.49a3.083,3.083,0,0,0-1.2.24,3.1,3.1,0,0,1,1.9,2.855v.014a3.1,3.1,0,0,1-1.9,2.855,3.086,3.086,0,0,0,1.2.24h1.854a3.1,3.1,0,0,0,3.1-3.1v-.014A3.1,3.1,0,0,0,344.344,225.573Z" transform="translate(-339.395 -206.96)" fill="#ffd1c7"/>
            </g>
            <path id="Path_983066" data-name="Path 983066" d="M57.935,379.135a4.689,4.689,0,0,1-6.651,0L40.322,368.123a4.71,4.71,0,0,1,6.651-6.67l10.962,11.012A4.731,4.731,0,0,1,57.935,379.135Z" transform="translate(-38.946 -310.152)" fill="#7776d0"/>
          </g>
        </g>
      </g>
      <g id="Group_1148590" data-name="Group 1148590" transform="translate(21.234 0)">
        <path id="Path_983067" data-name="Path 983067" d="M81.03,87.149a1.142,1.142,0,0,0,1.5-.068,1.062,1.062,0,1,0-1.5.068Z" transform="translate(-72.267 -73.226)"/>
        <path id="Path_983068" data-name="Path 983068" d="M55.849,120.688a1.1,1.1,0,0,0,1.463-.34,1.062,1.062,0,1,0-1.463.34Z" transform="translate(-50.518 -101.915)"/>
        <path id="Path_983069" data-name="Path 983069" d="M112.769,59.2a1.1,1.1,0,0,0,.847-1.7,1.062,1.062,0,1,0-.847,1.7Z" transform="translate(-98.897 -48.998)"/>
        <path id="Path_983070" data-name="Path 983070" d="M37.266,158.281a1.116,1.116,0,0,0,1.375-.606,1.062,1.062,0,1,0-1.375.606Z" transform="translate(-34.415 -134.109)"/>
        <path id="Path_983071" data-name="Path 983071" d="M25.961,198.674a1.134,1.134,0,0,0,1.239-.849,1.061,1.061,0,1,0-1.239.849Z" transform="translate(-24.548 -168.738)"/>
        <path id="Path_983072" data-name="Path 983072" d="M37.142,320.512a1.063,1.063,0,0,0,.384,2.053,1.118,1.118,0,0,0,.991-1.446A1.062,1.062,0,0,0,37.142,320.512Z" transform="translate(-34.307 -275.071)"/>
        <path id="Path_983073" data-name="Path 983073" d="M26.284,282.2a1.058,1.058,0,1,0-.194.018A1.009,1.009,0,0,0,26.284,282.2Z" transform="translate(-24.491 -240.438)"/>
        <path id="Path_983074" data-name="Path 983074" d="M22.3,240.454a1.062,1.062,0,1,0-1.062-1.063,1.062,1.062,0,0,0,1.062,1.063Z" transform="translate(-21.234 -204.587)"/>
        <path id="Path_983075" data-name="Path 983075" d="M441.785,360.257a1.062,1.062,0,1,0,.327,1.467A1.063,1.063,0,0,0,441.785,360.257Z" transform="translate(-380.842 -309.109)"/>
        <path id="Path_983076" data-name="Path 983076" d="M443.135,121.044a1.062,1.062,0,0,0-.357,1.458,1.1,1.1,0,0,0,1.46.357,1.062,1.062,0,1,0-1.1-1.815Z" transform="translate(-382.962 -103.774)"/>
        <path id="Path_983077" data-name="Path 983077" d="M418.028,87.463a1.062,1.062,0,1,0,1.5.084A1.062,1.062,0,0,0,418.028,87.463Z" transform="translate(-361.545 -74.848)"/>
        <path id="Path_983078" data-name="Path 983078" d="M460.792,322.847a1.062,1.062,0,0,0-1.38.59,1.117,1.117,0,0,0,.985,1.457,1.062,1.062,0,0,0,.4-2.047Z" transform="translate(-397.318 -277.072)"/>
        <path id="Path_983079" data-name="Path 983079" d="M476.477,240.84a1.062,1.062,0,0,0-1.073,1.052,1.122,1.122,0,0,0,1.062,1.072,1.062,1.062,0,0,0,.011-2.124Z" transform="translate(-411.101 -206.741)"/>
        <path id="Path_983080" data-name="Path 983080" d="M462.024,160.722a1.05,1.05,0,0,0,.374-.068,1.062,1.062,0,1,0-.374.068Z" transform="translate(-398.704 -136.143)"/>
        <path id="Path_983081" data-name="Path 983081" d="M472.015,200.29a1.135,1.135,0,0,0,1.229.862,1.062,1.062,0,1,0-1.229-.862Z" transform="translate(-408.178 -170.863)"/>
        <path id="Path_983082" data-name="Path 983082" d="M416.29,393.558a1.061,1.061,0,1,0,.054,1.5A1.061,1.061,0,0,0,416.29,393.558Z" transform="translate(-358.825 -337.592)"/>
        <path id="Path_983083" data-name="Path 983083" d="M472.437,282.567a1.062,1.062,0,0,0-1.247.837,1.134,1.134,0,0,0,1.043,1.267,1.062,1.062,0,0,0,.2-2.1Z" transform="translate(-407.47 -242.543)"/>
        <path id="Path_983084" data-name="Path 983084" d="M267.777,464.858h0A1.063,1.063,0,0,0,266.8,466a1.146,1.146,0,0,0,1.144.974,1.062,1.062,0,1,0-.17-2.117Z" transform="translate(-232.032 -399.039)"/>
        <path id="Path_983085" data-name="Path 983085" d="M347.956,443.022a1.061,1.061,0,0,0-.491,1.419,1.1,1.1,0,0,0,1.419.491,1.062,1.062,0,1,0-.927-1.91Z" transform="translate(-301.184 -380.206)"/>
        <path id="Path_983086" data-name="Path 983086" d="M308.882,457.674a1.062,1.062,0,0,0-.746,1.3,1.129,1.129,0,0,0,1.3.746,1.062,1.062,0,0,0-.558-2.05Z" transform="translate(-267.483 -392.843)"/>
        <path id="Path_983087" data-name="Path 983087" d="M388.674,58.849h0a1.062,1.062,0,1,0,.193,1.49A1.063,1.063,0,0,0,388.672,58.849Z" transform="translate(-335.181 -50.327)"/>
        <path id="Path_983088" data-name="Path 983088" d="M383.655,421.409a1.062,1.062,0,1,0,1.485.222,1.062,1.062,0,0,0-1.485-.222Z" transform="translate(-331.973 -361.566)"/>
        <path id="Path_983089" data-name="Path 983089" d="M226.045,464.4h0a1.064,1.064,0,0,0-1.165.949,1.141,1.141,0,0,0,1.058,1.171,1.062,1.062,0,0,0,.107-2.118Z" transform="translate(-196.043 -398.64)"/>
        <path id="Path_983090" data-name="Path 983090" d="M82.543,35.033a4.148,4.148,0,0,0-1.386-3.1,4.207,4.207,0,0,0,0-6.2,4.207,4.207,0,0,0,0-6.2A4.2,4.2,0,0,0,78.911,12.3V4.257A4.261,4.261,0,0,0,74.655,0H61.2a1.062,1.062,0,0,0,0,2.124H74.655a2.135,2.135,0,0,1,2.133,2.133v.562H50.569V4.257A2.135,2.135,0,0,1,52.7,2.124h2.7A1.062,1.062,0,0,0,55.4,0H52.7a4.261,4.261,0,0,0-4.257,4.257V19.8a4.474,4.474,0,0,0-6.8,3.755v24.9l-1.988,2a5.777,5.777,0,0,0-6.509,9.328l6.572,6.6a1.062,1.062,0,0,0,1.505-1.5l-6.572-6.6A3.648,3.648,0,1,1,39.8,53.112L50.764,64.124a3.673,3.673,0,0,1,0,5.171,3.753,3.753,0,0,1-5.562-.418,1.062,1.062,0,0,0-1.505,1.5,5.917,5.917,0,0,0,8.572.418,5.805,5.805,0,0,0,.7-7.314l1.913-1.922a14.453,14.453,0,0,0,13.9-7.893h5.867a4.261,4.261,0,0,0,4.257-4.257V39.17A4.168,4.168,0,0,0,82.543,35.033Zm-2.124.014a2.036,2.036,0,0,1-2.033,2.033H76.532A2.035,2.035,0,0,1,74.5,35.047v-.014A2.035,2.035,0,0,1,76.532,33h1.854A2.039,2.039,0,0,1,80.419,35.047Zm0-6.2a2.036,2.036,0,0,1-2.033,2.033H76.532A2.035,2.035,0,0,1,74.5,28.842v-.014a2.035,2.035,0,0,1,2.033-2.033h1.854A2.039,2.039,0,0,1,80.419,28.842Zm0-6.2a2.036,2.036,0,0,1-2.033,2.033H76.532A2.035,2.035,0,0,1,74.5,22.638v-.014a2.035,2.035,0,0,1,2.033-2.033h1.854A2.039,2.039,0,0,1,80.419,22.638Zm0-6.219a2.094,2.094,0,0,1-2.033,2.048H76.532A2.035,2.035,0,0,1,74.5,16.433v-.014a2.035,2.035,0,0,1,2.033-2.033h1.854A2.035,2.035,0,0,1,80.419,16.419ZM76.788,6.942v5.32h-.256a4.162,4.162,0,0,0-4.157,4.157v.014a4.148,4.148,0,0,0,1.385,3.1,4.148,4.148,0,0,0-1.385,3.1v.014a4.148,4.148,0,0,0,1.385,3.1,4.148,4.148,0,0,0-1.385,3.1v.014a4.148,4.148,0,0,0,1.385,3.1,4.148,4.148,0,0,0-1.385,3.1v.014A4.162,4.162,0,0,0,76.532,39.2h.256v5.32H56.653a12.26,12.26,0,0,0-6.084-8.759V6.942ZM56,59.484l-1.487-.069a1.072,1.072,0,0,0-.8.312L51.547,61.9,41.4,51.712l2.058-2.068a1.062,1.062,0,0,0,.309-.749V23.557c0-2.991,4.611-2.991,4.611,0V36.4a1.062,1.062,0,0,0,.64.975,9.567,9.567,0,0,1,5.271,6.383,11.911,11.911,0,0,1-1.364,9.82,1.062,1.062,0,0,0,1.75,1.2,11.465,11.465,0,0,0,.678-1.12h11A12.1,12.1,0,0,1,56,59.484Zm18.655-7.943H56.245a14.451,14.451,0,0,0,.644-4.895h19.9v2.762A2.135,2.135,0,0,1,74.655,51.542Z" transform="translate(-30.02 0)"/>
        <path id="Path_983091" data-name="Path 983091" d="M185.856,75.458a1.062,1.062,0,0,0,1.5-.02l3.108-3.19a1.062,1.062,0,0,0-1.521-1.482l-3.108,3.19a1.062,1.062,0,0,0,.02,1.5Z" transform="translate(-162.273 -60.469)"/>
        <path id="Path_983092" data-name="Path 983092" d="M185.856,82.285a1.062,1.062,0,0,0,1.5-.02l9.759-10.018a1.062,1.062,0,0,0-1.521-1.482l-9.759,10.018a1.062,1.062,0,0,0,.02,1.5Z" transform="translate(-162.273 -60.469)"/>
      </g>
    </g>
  </g>
</svg>
