<svg xmlns="http://www.w3.org/2000/svg" xmlns:xlink="http://www.w3.org/1999/xlink" width="110" height="110" viewBox="0 0 110 110">
  <defs>
    <filter id="Path_982547" x="0" y="0" width="110" height="110" filterUnits="userSpaceOnUse">
      <feOffset dy="3" input="SourceAlpha"/>
      <feGaussianBlur stdDeviation="3" result="blur"/>
      <feFlood flood-opacity="0.161"/>
      <feComposite operator="in" in2="blur"/>
      <feComposite in="SourceGraphic"/>
    </filter>
  </defs>
  <g id="Group_1156450" data-name="Group 1156450" transform="translate(-1397 -3531)">
    <g id="Group_1154728" data-name="Group 1154728">
      <g id="Group_1154218" data-name="Group 1154218" transform="translate(284 2633)">
        <g id="Group_1154214" data-name="Group 1154214" transform="translate(79 -5809)">
          <g id="Group_1152583" data-name="Group 1152583" transform="translate(1043 6713)">
            <g id="Group_1146973" data-name="Group 1146973" transform="translate(0 0)">
              <g id="Group_1146954" data-name="Group 1146954">
                <g transform="matrix(1, 0, 0, 1, -9, -6)" filter="url(#Path_982547)">
                  <g id="Path_982547-2" data-name="Path 982547" transform="translate(9 6)" fill="#fdeffe">
                    <path d="M 46 90.49987030029297 C 39.99187850952148 90.49987030029297 34.16426849365234 89.32350921630859 28.67905426025391 87.00345611572266 C 23.38019943237305 84.76224517822266 18.62104034423828 81.55341339111328 14.53374671936035 77.46613311767578 C 10.44646644592285 73.37885284423828 7.237639904022217 68.61969757080078 4.996413230895996 63.32085418701172 C 2.676359891891479 57.83565521240234 1.5 52.008056640625 1.5 45.99993515014648 C 1.5 39.99181365966797 2.676359891891479 34.16421508789062 4.996413230895996 28.67901420593262 C 7.237639904022217 23.38017463684082 10.44646644592285 18.62101554870605 14.53374671936035 14.53373527526855 C 18.62104034423828 10.44645500183105 23.38019943237305 7.23762845993042 28.67905426025391 4.996415138244629 C 34.16426849365234 2.676361799240112 39.99187850952148 1.500001788139343 46 1.500001788139343 C 52.00812149047852 1.500001788139343 57.83573150634766 2.676361799240112 63.32094573974609 4.996415138244629 C 68.61979675292969 7.23762845993042 73.37895965576172 10.44645500183105 77.46625518798828 14.53373527526855 C 81.55353546142578 18.62101554870605 84.76235961914062 23.38017463684082 87.00358581542969 28.67901420593262 C 89.32363891601562 34.16421508789062 90.5 39.99181365966797 90.5 45.99993515014648 C 90.5 52.008056640625 89.32363891601562 57.83565521240234 87.00358581542969 63.32085418701172 C 84.76235961914062 68.61969757080078 81.55353546142578 73.37885284423828 77.46625518798828 77.46613311767578 C 73.37895965576172 81.55341339111328 68.61979675292969 84.76224517822266 63.32094573974609 87.00345611572266 C 57.83573150634766 89.32350921630859 52.00812149047852 90.49987030029297 46 90.49987030029297 Z" stroke="none"/>
                    <path d="M 46 2.999992370605469 C 40.1937141418457 2.999992370605469 34.56269836425781 4.136489868164062 29.26337051391602 6.377906799316406 C 24.14332580566406 8.543502807617188 19.54441070556641 11.64437866210938 15.59439849853516 15.59437561035156 C 11.64440155029297 19.54439544677734 8.54351806640625 24.14329528808594 6.377914428710938 29.26333618164062 C 4.136497497558594 34.56264877319336 3 40.19366455078125 3 45.99993515014648 C 3 51.80620574951172 4.136497497558594 57.43720626831055 6.377914428710938 62.73651885986328 C 8.54351806640625 67.8565673828125 11.64440155029297 72.45545959472656 15.59439849853516 76.40547943115234 C 19.54441070556641 80.35547637939453 24.14332580566406 83.45635223388672 29.26337051391602 85.6219482421875 C 34.56269836425781 87.86336517333984 40.1937141418457 88.99986267089844 46 88.99986267089844 C 51.8062858581543 88.99986267089844 57.43730163574219 87.86336517333984 62.73661422729492 85.6219482421875 C 67.85667419433594 83.45635223388672 72.45557403564453 80.35547637939453 76.40558624267578 76.40547943115234 C 80.35559844970703 72.45545959472656 83.45647430419922 67.8565673828125 85.6220703125 62.73651885986328 C 87.86350250244141 57.43720626831055 89 51.80620574951172 89 45.99993515014648 C 89 40.19366455078125 87.86350250244141 34.56264877319336 85.6220703125 29.26333618164062 C 83.45647430419922 24.14329528808594 80.35559844970703 19.54439544677734 76.40558624267578 15.59437561035156 C 72.45557403564453 11.64437866210938 67.85667419433594 8.543502807617188 62.73661422729492 6.377906799316406 C 57.43730163574219 4.136489868164062 51.8062858581543 2.999992370605469 46 2.999992370605469 M 46 -7.62939453125e-06 C 71.40509033203125 -7.62939453125e-06 92 20.59486389160156 92 45.99993515014648 C 92 71.40499114990234 71.40509033203125 91.99986267089844 46 91.99986267089844 C 20.59490203857422 91.99986267089844 0 71.40499114990234 0 45.99993515014648 C 0 20.59486389160156 20.59490203857422 -7.62939453125e-06 46 -7.62939453125e-06 Z" stroke="none" fill="#ee70f7"/>
                  </g>
                </g>
              </g>
            </g>
          </g>
        </g>
      </g>
      <g id="audiovisual" transform="translate(1426 3555.605)">
        <g id="Group_1154725" data-name="Group 1154725" transform="translate(0.773 1.168)">
          <g id="Group_1154724" data-name="Group 1154724">
            <path id="Path_991277" data-name="Path 991277" d="M29.154,59.091H13.687A6.187,6.187,0,0,1,7.5,52.9V14.082a6.187,6.187,0,0,1,6.187-6.187H29.154c3.417,0,6.187,2.77,6.187,5.259V51.976C35.341,56.321,32.571,59.091,29.154,59.091Z" transform="translate(-7.5 -7.895)" fill="#a4bccc"/>
            <circle id="Ellipse_11678" data-name="Ellipse 11678" cx="9.28" cy="9.28" r="9.28" transform="translate(4.64 4.795)" fill="#fff"/>
            <circle id="Ellipse_11679" data-name="Ellipse 11679" cx="3.093" cy="3.093" r="3.093" transform="translate(10.827 10.982)" fill="#a4bccc"/>
            <circle id="Ellipse_11680" data-name="Ellipse 11680" cx="9.28" cy="9.28" r="9.28" transform="translate(4.64 27.789)" fill="#fff"/>
            <circle id="Ellipse_11681" data-name="Ellipse 11681" cx="3.093" cy="3.093" r="3.093" transform="translate(10.827 33.976)" fill="#a4bccc"/>
            <path id="Path_991278" data-name="Path 991278" d="M10.078,52.9V14.082a6.187,6.187,0,0,1,6.187-6.187H13.687A6.187,6.187,0,0,0,7.5,14.082V52.9a6.187,6.187,0,0,0,6.187,6.187h2.578A6.187,6.187,0,0,1,10.078,52.9Z" transform="translate(-7.5 -7.895)" fill="#8ca3b7"/>
            <path id="Path_991279" data-name="Path 991279" d="M55.078,63.675a9.282,9.282,0,0,1,7.991-9.191,9.28,9.28,0,1,0,0,18.381A9.282,9.282,0,0,1,55.078,63.675Z" transform="translate(-47.86 -49.6)" fill="#e3e9ee"/>
            <path id="Path_991280" data-name="Path 991280" d="M55.078,286.675a9.282,9.282,0,0,1,7.991-9.191,9.28,9.28,0,1,0,0,18.381A9.282,9.282,0,0,1,55.078,286.675Z" transform="translate(-47.86 -249.606)" fill="#e3e9ee"/>
            <g id="Group_1154723" data-name="Group 1154723" transform="translate(10.827 10.982)">
              <path id="Path_991281" data-name="Path 991281" d="M115.078,117.488a3.1,3.1,0,0,1,1.8-2.811,3.093,3.093,0,1,0,0,5.622A3.1,3.1,0,0,1,115.078,117.488Z" transform="translate(-112.5 -114.395)" fill="#8ca3b7"/>
              <path id="Path_991282" data-name="Path 991282" d="M115.078,340.488a3.1,3.1,0,0,1,1.8-2.811,3.093,3.093,0,1,0,0,5.622A3.1,3.1,0,0,1,115.078,340.488Z" transform="translate(-112.5 -314.401)" fill="#8ca3b7"/>
            </g>
          </g>
          <path id="Path_991283" data-name="Path 991283" d="M196.465,392.209H167.593a3.093,3.093,0,0,1-3.093-3.093V382.4a3.093,3.093,0,0,1,3.093-3.093h28.872a3.093,3.093,0,0,1,3.093,3.093v6.711A3.093,3.093,0,0,1,196.465,392.209Z" transform="translate(-148.311 -341.013)" fill="#5b92f2"/>
          <circle id="Ellipse_11682" data-name="Ellipse 11682" cx="8.249" cy="8.249" r="8.249" transform="translate(31.14 30.049)" fill="#fff"/>
          <circle id="Ellipse_11683" data-name="Ellipse 11683" cx="4.949" cy="4.949" r="4.949" transform="translate(34.44 33.348)" fill="#5b92f2"/>
          <path id="Path_991284" data-name="Path 991284" d="M167.078,389.115V382.4a3.093,3.093,0,0,1,3.093-3.093h-2.578A3.093,3.093,0,0,0,164.5,382.4v6.711a3.093,3.093,0,0,0,3.093,3.093h2.578a3.093,3.093,0,0,1-3.093-3.093Z" transform="translate(-148.311 -341.013)" fill="#006dee"/>
          <path id="Path_991285" data-name="Path 991285" d="M344.078,336.26a4.958,4.958,0,0,1,3.661-4.778,4.949,4.949,0,1,0,0,9.556A4.957,4.957,0,0,1,344.078,336.26Z" transform="translate(-307.06 -297.963)" fill="#006dee"/>
          <path id="Path_991286" data-name="Path 991286" d="M253.512,96.538,238.6,110.1l-4.477-4.477,13.56-14.915Z" transform="translate(-210.753 -82.167)" fill="#fff"/>
          <path id="Path_991287" data-name="Path 991287" d="M238.915,103.636l10.332-11.364-1.566-1.566-13.56,14.915L238.6,110.1l1.566-1.424-1.156-1.156A2.813,2.813,0,0,1,238.915,103.636Z" transform="translate(-210.753 -82.167)" fill="#e3e9ee"/>
          <path id="Path_991288" data-name="Path 991288" d="M356.142,23.333l-4.375-4.375a3.093,3.093,0,0,1,0-4.375l4.375-4.375a6.187,6.187,0,1,1,8.749,8.749l-4.375,4.375A3.093,3.093,0,0,1,356.142,23.333Z" transform="translate(-315.456 -8.345)" fill="#ff6a47"/>
          <path id="Path_991289" data-name="Path 991289" d="M354.809,18.715a3.168,3.168,0,0,1,0-4.48l5.822-5.822a6.167,6.167,0,0,0-4.49,1.809L351.766,14.6a3.093,3.093,0,0,0,0,4.375l4.375,4.375a3.094,3.094,0,0,0,3.77.471Z" transform="translate(-315.455 -8.358)" fill="#fd3501"/>
        </g>
        <g id="Group_1154726" data-name="Group 1154726" transform="translate(37.842 38.693)">
          <path id="Path_991290" data-name="Path 991290" d="M367,371.811h1.547v1.547H367Z" transform="translate(-367 -371.811)" fill="#fff"/>
          <path id="Path_991291" data-name="Path 991291" d="M397,371.811h1.547v1.547H397Z" transform="translate(-393.907 -371.811)" fill="#fff"/>
        </g>
        <g id="Group_1154727" data-name="Group 1154727" transform="translate(0 0.395)">
          <path id="Path_991292" data-name="Path 991292" d="M49.152,38.7c-1.243-10.944-16.732-10.942-17.978-.007H29.387V29.446l13-11.82a3.878,3.878,0,0,0,3.993-.923l4.375-4.375c6.258-6.8-3.045-16.1-9.843-9.843L36.538,6.86a3.871,3.871,0,0,0-.921,3.992L29.387,17.7V7.355A6.968,6.968,0,0,0,22.427.4H6.96A6.968,6.968,0,0,0,0,7.355V12.15H1.547V7.355A5.42,5.42,0,0,1,6.96,1.942H22.427a5.42,5.42,0,0,1,5.413,5.413V19.4l-4.768,5.244,2.213,2.213L23.27,28.877l1.094,1.094,2.016-2.016,1.461,1.461v9.277h-3.1a10.053,10.053,0,1,0-8.547,9.486v1.091a3.846,3.846,0,0,0,.775,2.32h-10a5.42,5.42,0,0,1-5.413-5.413V13.7H0V46.177a6.968,6.968,0,0,0,6.96,6.96H44.339V51.591H20.056a2.323,2.323,0,0,1-2.32-2.32V42.56a2.323,2.323,0,0,1,2.32-2.32H31.174c1.25,10.931,16.718,10.932,17.977.011a2.323,2.323,0,0,1,2.1,2.309v6.711a2.323,2.323,0,0,1-2.32,2.32H45.885v1.547h3.042a3.871,3.871,0,0,0,3.867-3.867V42.56A3.871,3.871,0,0,0,49.152,38.7ZM14.694,40.558a2.32,2.32,0,1,1,2.32-2.32A2.323,2.323,0,0,1,14.694,40.558Zm8.495-1.864H20.056a3.843,3.843,0,0,0-1.577.338,3.867,3.867,0,1,0-2.207,2.736c-.158.477-.054,4.275-.082,4.847a8.508,8.508,0,1,1,7-7.92ZM37.631,7.954l4.375-4.375a5.413,5.413,0,0,1,7.656,7.656l-4.375,4.375a2.331,2.331,0,0,1-3.281,0l-4.375-4.375a2.323,2.323,0,0,1,0-3.281ZM25.209,24.6l11.24-12.362c.029.031.058.063.089.093L40.912,16.7c.031.031.062.06.093.089L28.643,28.031ZM40.163,46.942a7.484,7.484,0,0,1-7.476-7.476c.411-9.918,14.542-9.915,14.951,0A7.484,7.484,0,0,1,40.163,46.942Z" transform="translate(0 -0.395)"/>
          <path id="Path_991293" data-name="Path 991293" d="M339.723,323.811a5.723,5.723,0,1,0,5.723,5.723A5.729,5.729,0,0,0,339.723,323.811Zm0,9.9a4.176,4.176,0,1,1,4.176-4.176A4.181,4.181,0,0,1,339.723,333.71Z" transform="translate(-299.56 -290.463)"/>
          <path id="Path_991294" data-name="Path 991294" d="M197.294,419.353h8.27V420.9h-8.27Z" transform="translate(-176.95 -376.153)"/>
          <path id="Path_991295" data-name="Path 991295" d="M197.294,449.353h12.395V450.9H197.294Z" transform="translate(-176.95 -403.06)"/>
          <path id="Path_991296" data-name="Path 991296" d="M55.054,67.454A10.065,10.065,0,0,0,65.107,57.4C64.555,44.063,45.55,44.067,45,57.4A10.065,10.065,0,0,0,55.054,67.454Zm0-18.56A8.516,8.516,0,0,1,63.56,57.4c-.467,11.285-16.548,11.282-17.014,0A8.516,8.516,0,0,1,55.054,48.894Z" transform="translate(-40.36 -42.552)"/>
          <path id="Path_991297" data-name="Path 991297" d="M108.867,114.8A3.867,3.867,0,1,0,105,110.936,3.871,3.871,0,0,0,108.867,114.8Zm0-6.187a2.32,2.32,0,1,1-2.32,2.32A2.323,2.323,0,0,1,108.867,108.616Z" transform="translate(-94.173 -96.087)"/>
        </g>
      </g>
    </g>
  </g>
</svg>
