<svg xmlns="http://www.w3.org/2000/svg" width="37.643" height="37.642" viewBox="0 0 37.643 37.642">
  <g id="folder_4029427" transform="translate(-0.002 -0.01)">
    <g id="Page-1_19_" transform="translate(0.002 0.01)">
      <g id="_x30_20---Foldered-Files" transform="translate(0 0)">
        <path id="Shape_141_" d="M3.139,35.581a2.506,2.506,0,0,0,2.472,2.07H32.034a2.506,2.506,0,0,0,2.472-2.07l3.1-17.566a2.509,2.509,0,0,0-2.472-2.949h-.627V12.557A2.509,2.509,0,0,0,32,10.048H31.37V6.284a1.255,1.255,0,0,0-1.255-1.255h-.627V3.774a1.255,1.255,0,0,0-1.255-1.255h-.627V1.265A1.255,1.255,0,0,0,26.351.01H11.294A1.255,1.255,0,0,0,10.04,1.265V2.519H9.412A1.255,1.255,0,0,0,8.158,3.774V5.029H7.53A1.255,1.255,0,0,0,6.276,6.284v.627H5.648A2.509,2.509,0,0,0,3.139,9.421v5.646H2.511A2.509,2.509,0,0,0,.041,18.015ZM32,11.3a1.255,1.255,0,0,1,1.255,1.255v2.509H31.37V11.3ZM11.294,1.265H26.351V2.519H11.294ZM9.412,3.774H28.233V5.029H9.412ZM7.53,6.284H30.115v8.783H7.53ZM4.393,9.421A1.255,1.255,0,0,1,5.648,8.166h.627v6.9H4.393ZM1.551,16.769a1.251,1.251,0,0,1,.961-.448H35.134a1.255,1.255,0,0,1,1.236,1.473l-3.1,17.566A1.255,1.255,0,0,1,32.034,36.4H5.611a1.255,1.255,0,0,1-1.235-1.036l-3.1-17.566a1.255,1.255,0,0,1,.275-1.025Z" transform="translate(-0.002 -0.01)"/>
        <path id="Shape_140_" d="M78.053,253.751h7.528a1.255,1.255,0,0,0,1.255-1.255v-3.764a1.255,1.255,0,0,0-1.255-1.255H78.053a1.255,1.255,0,0,0-1.255,1.255V252.5A1.255,1.255,0,0,0,78.053,253.751Zm0-5.019h7.528V252.5H78.053Z" transform="translate(-71.152 -229.283)"/>
        <path id="Shape_139_" d="M93.488,349.877H85.959a.627.627,0,1,0,0,1.255h7.528a.627.627,0,1,0,0-1.255Z" transform="translate(-79.059 -324.155)"/>
        <path id="Shape_138_" d="M115.324,384.011h-3.764a.627.627,0,1,0,0,1.255h3.764a.627.627,0,1,0,0-1.255Z" transform="translate(-102.777 -355.78)"/>
        <path id="Shape_137_" d="M128.625,103.666h2.509a.627.627,0,0,0,0-1.255h-2.509a.627.627,0,1,0,0,1.255Z" transform="translate(-118.588 -94.883)"/>
        <path id="Shape_136_" d="M128.625,137.8h17.566a.627.627,0,1,0,0-1.255H128.625a.627.627,0,1,0,0,1.255Z" transform="translate(-118.588 -126.507)"/>
        <path id="Shape_135_" d="M128.625,171.933h15.057a.627.627,0,0,0,0-1.255H128.625a.627.627,0,1,0,0,1.255Z" transform="translate(-118.588 -158.131)"/>
      </g>
    </g>
  </g>
</svg>
