<svg xmlns="http://www.w3.org/2000/svg" xmlns:xlink="http://www.w3.org/1999/xlink" width="113" height="113" viewBox="0 0 113 113">
  <defs>
    <filter id="Path_982547" x="0" y="0" width="113" height="113" filterUnits="userSpaceOnUse">
      <feOffset dy="3" input="SourceAlpha"/>
      <feGaussianBlur stdDeviation="3" result="blur"/>
      <feFlood flood-opacity="0.161"/>
      <feComposite operator="in" in2="blur"/>
      <feComposite in="SourceGraphic"/>
    </filter>
  </defs>
  <g id="Group_1148578" data-name="Group 1148578" transform="translate(-324 -3704.178)">
    <g id="Group_1147086" data-name="Group 1147086" transform="translate(333 3710.178)">
      <g transform="matrix(1, 0, 0, 1, -9, -6)" filter="url(#Path_982547)">
        <g id="Path_982547-2" data-name="Path 982547" transform="translate(9 6)" fill="#fdeffe">
          <path d="M 47.5 93.5 C 41.28937149047852 93.5 35.26533508300781 92.28397369384766 29.59518623352051 89.88570404052734 C 24.11771965026855 87.56893157958984 19.19813346862793 84.25196075439453 14.97309303283691 80.02691650390625 C 10.74804019927979 75.80186462402344 7.431066513061523 70.88229370117188 5.114293098449707 65.40481567382812 C 2.716026782989502 59.73468017578125 1.5 53.71062850952148 1.5 47.5 C 1.5 41.28937149047852 2.716026782989502 35.26533508300781 5.114293098449707 29.59518623352051 C 7.431066513061523 24.11771965026855 10.74804019927979 19.19813346862793 14.97309303283691 14.97309303283691 C 19.19813346862793 10.74804019927979 24.11771965026855 7.431066513061523 29.59518623352051 5.114293098449707 C 35.26533508300781 2.716026782989502 41.28937149047852 1.5 47.5 1.5 C 53.71062850952148 1.5 59.73468017578125 2.716026782989502 65.40481567382812 5.114293098449707 C 70.88229370117188 7.431066513061523 75.80186462402344 10.74804019927979 80.02691650390625 14.97309303283691 C 84.25196075439453 19.19813346862793 87.56893157958984 24.11771965026855 89.88570404052734 29.59518623352051 C 92.28397369384766 35.26533508300781 93.5 41.28937149047852 93.5 47.5 C 93.5 53.71062850952148 92.28397369384766 59.73468017578125 89.88570404052734 65.40481567382812 C 87.56893157958984 70.88229370117188 84.25196075439453 75.80186462402344 80.02691650390625 80.02691650390625 C 75.80186462402344 84.25196075439453 70.88229370117188 87.56893157958984 65.40481567382812 89.88570404052734 C 59.73468017578125 92.28397369384766 53.71062850952148 93.5 47.5 93.5 Z" stroke="none"/>
          <path d="M 47.5 3 C 41.49121475219727 3 35.66376876831055 4.176155090332031 30.17950439453125 6.495796203613281 C 24.88084411621094 8.736953735351562 20.12152099609375 11.94598388671875 16.03375244140625 16.03375244140625 C 11.94598388671875 20.12152099609375 8.736953735351562 24.88084411621094 6.495796203613281 30.17950439453125 C 4.176155090332031 35.66376876831055 3 41.49121475219727 3 47.5 C 3 53.50878524780273 4.176155090332031 59.33623123168945 6.495796203613281 64.82049560546875 C 8.736953735351562 70.11915588378906 11.94598388671875 74.87847900390625 16.03375244140625 78.96624755859375 C 20.12152099609375 83.05401611328125 24.88084411621094 86.26304626464844 30.17950439453125 88.50419616699219 C 35.66376876831055 90.82384490966797 41.49121475219727 92 47.5 92 C 53.50878524780273 92 59.33623123168945 90.82384490966797 64.82049560546875 88.50419616699219 C 70.11915588378906 86.26304626464844 74.87847900390625 83.05401611328125 78.96624755859375 78.96624755859375 C 83.05401611328125 74.87847900390625 86.26304626464844 70.11915588378906 88.50419616699219 64.82049560546875 C 90.82384490966797 59.33623123168945 92 53.50878524780273 92 47.5 C 92 41.49121475219727 90.82384490966797 35.66376876831055 88.50419616699219 30.17950439453125 C 86.26304626464844 24.88084411621094 83.05401611328125 20.12152099609375 78.96624755859375 16.03375244140625 C 74.87847900390625 11.94598388671875 70.11915588378906 8.736953735351562 64.82049560546875 6.495796203613281 C 59.33623123168945 4.176155090332031 53.50878524780273 3 47.5 3 M 47.5 0 C 73.7335205078125 0 95 21.2664794921875 95 47.5 C 95 73.7335205078125 73.7335205078125 95 47.5 95 C 21.2664794921875 95 0 73.7335205078125 0 47.5 C 0 21.2664794921875 21.2664794921875 0 47.5 0 Z" stroke="none" fill="#ee70f7"/>
        </g>
      </g>
    </g>
    <g id="Group_1148577" data-name="Group 1148577" transform="translate(346.791 3723.969)">
      <g id="Group_1148575" data-name="Group 1148575" transform="translate(2.055 2.055)">
        <g id="Group_1148564" data-name="Group 1148564" transform="translate(17.758)">
          <path id="Path_983029" data-name="Path 983029" d="M41.167,48.426a23.18,23.18,0,0,1-18.2-8.8,6.236,6.236,0,0,0,1.319-3.862H25.34a3.169,3.169,0,0,0,1.625-5.888,12.47,12.47,0,0,0,2.48-4.326l.116-.338H27.45l1.118-1.688a5.855,5.855,0,0,0,.369-5.888l-.433-.865a12.6,12.6,0,0,1-6.974,2.11h-2.7A23.215,23.215,0,1,1,41.167,48.426Z" transform="translate(-18.83 -2)" fill="#69d6f4"/>
        </g>
        <g id="Group_1148565" data-name="Group 1148565" transform="translate(37.985 54.867)">
          <path id="Path_983030" data-name="Path 983030" d="M46.441,56.11v2.11a4.221,4.221,0,0,1-8.441,0V55.055A1.058,1.058,0,0,1,39.055,54h6.331a1.058,1.058,0,0,1,1.055,1.055Z" transform="translate(-38 -54)" fill="#dfb28b"/>
        </g>
        <g id="Group_1148566" data-name="Group 1148566" transform="translate(40.095 46.426)">
          <circle id="Ellipse_11565" data-name="Ellipse 11565" cx="2" cy="2" r="2" transform="translate(-0.15 -0.063)" fill="#ef7385"/>
        </g>
        <g id="Group_1148567" data-name="Group 1148567" transform="translate(0 43.26)">
          <path id="Path_983031" data-name="Path 983031" d="M2,55.662a12.446,12.446,0,0,1,9.159-12L13.606,43l.222.116a8.984,8.984,0,0,0,8,0L22.048,43l2.448.665a12.446,12.446,0,0,1,9.159,12,5.26,5.26,0,0,1-5.276,5.276H27.323V49.331a1.058,1.058,0,0,0-1.055-1.055H9.386a1.058,1.058,0,0,0-1.055,1.055V60.937H7.276A5.26,5.26,0,0,1,2,55.662Z" transform="translate(-2 -43)" fill="#fcd770"/>
        </g>
        <g id="Group_1148568" data-name="Group 1148568" transform="translate(6.331 59.087)">
          <path id="Path_983032" data-name="Path 983032" d="M26.992,60.11v1.055a1.058,1.058,0,0,1-1.055,1.055H9.055A1.058,1.058,0,0,1,8,61.165V58H26.992Z" transform="translate(-8 -58)" fill="#aab2bd"/>
        </g>
        <g id="Group_1148569" data-name="Group 1148569" transform="translate(6.331 48.536)">
          <path id="Path_983033" data-name="Path 983033" d="M26.992,54.331v4.221H8v-9.5A1.058,1.058,0,0,1,9.055,48H25.937a1.058,1.058,0,0,1,1.055,1.055Z" transform="translate(-8 -48)" fill="#ccd1d9"/>
        </g>
        <g id="Group_1148570" data-name="Group 1148570" transform="translate(4.221 14.772)">
          <path id="Path_983034" data-name="Path 983034" d="M30.152,24.779a12.47,12.47,0,0,1-2.48,4.326,3.257,3.257,0,0,0-1.625-.443H24.992a4.219,4.219,0,0,0-4.221-4.221H13.386a4.639,4.639,0,0,0-3.165,4.221H9.165A3.163,3.163,0,0,0,6.728,29.8l-.306-.939A7.949,7.949,0,0,1,6,26.277a8.178,8.178,0,0,1,8.167-8.167h8.072A12.6,12.6,0,0,0,29.213,16l.433.865a5.855,5.855,0,0,1-.369,5.888l-1.118,1.688h2.11Z" transform="translate(-6 -16)" fill="#656d78"/>
        </g>
        <g id="Group_1148571" data-name="Group 1148571" transform="translate(23.213 27.433)">
          <path id="Path_983035" data-name="Path 983035" d="M26.68,28.443a3.169,3.169,0,0,1-1.625,5.888H24V28h1.055A3.257,3.257,0,0,1,26.68,28.443Z" transform="translate(-24 -28)" fill="#f0d0b4"/>
        </g>
        <g id="Group_1148572" data-name="Group 1148572" transform="translate(11.606 39.673)">
          <path id="Path_983036" data-name="Path 983036" d="M20.544,39.6l.9,3.587-.222.116a8.984,8.984,0,0,1-8,0L13,43.187l.9-3.587a6.235,6.235,0,0,0,2.269.422h2.11A6.235,6.235,0,0,0,20.544,39.6Z" transform="translate(-13 -39.6)" fill="#f0d0b4"/>
        </g>
        <g id="Group_1148573" data-name="Group 1148573" transform="translate(8.441 23.213)">
          <path id="Path_983037" data-name="Path 983037" d="M10,28.221A4.639,4.639,0,0,1,13.165,24h7.386a4.219,4.219,0,0,1,4.221,4.221v6.331a6.236,6.236,0,0,1-1.319,3.862A6.308,6.308,0,0,1,20.71,40.46a6.235,6.235,0,0,1-2.269.422h-2.11a6.235,6.235,0,0,1-2.269-.422A6.333,6.333,0,0,1,10,34.551V28.221Z" transform="translate(-10 -24)" fill="#f0d0b4"/>
        </g>
        <g id="Group_1148574" data-name="Group 1148574" transform="translate(4.221 27.433)">
          <path id="Path_983038" data-name="Path 983038" d="M10.221,28v6.331H9.165a3.165,3.165,0,1,1,0-6.331Z" transform="translate(-6 -28)" fill="#f0d0b4"/>
        </g>
      </g>
      <g id="Group_1148576" data-name="Group 1148576" transform="translate(1 1)">
        <circle id="Ellipse_11566" data-name="Ellipse 11566" cx="1" cy="1" r="1" transform="translate(13 29.418)"/>
        <circle id="Ellipse_11567" data-name="Ellipse 11567" cx="1" cy="1" r="1" transform="translate(19 29.418)"/>
        <path id="Path_983039" data-name="Path 983039" d="M19.325,33.776a2.359,2.359,0,0,1-4.221,0l-.111-.223-1.888.944.111.223a4.47,4.47,0,0,0,8,0l.111-.223-1.888-.944Z" transform="translate(-0.333 0.795)"/>
        <path id="Path_983040" data-name="Path 983040" d="M0,0H2.11V3.8H0Z" transform="matrix(0.832, -0.555, 0.555, 0.832, 13.9, 24.847)"/>
        <path id="Path_983041" data-name="Path 983041" d="M0,0H2.11V3.8H0Z" transform="matrix(0.832, -0.555, 0.555, 0.832, 18.121, 24.846)"/>
        <path id="Path_983042" data-name="Path 983042" d="M49.053,41.954l1.517-1.468a11.256,11.256,0,0,0-16.289,0L35.8,41.955a9.143,9.143,0,0,1,13.255,0Z" transform="translate(0.835 0.985)"/>
        <path id="Path_983043" data-name="Path 983043" d="M47.3,43.492a6.33,6.33,0,0,0-10.068,0l1.626,1.345a4.224,4.224,0,0,1,6.815,0Z" transform="translate(0.997 1.205)"/>
        <path id="Path_983044" data-name="Path 983044" d="M39,48.165A3.165,3.165,0,1,0,42.165,45,3.169,3.169,0,0,0,39,48.165Zm4.221,0a1.055,1.055,0,1,1-1.055-1.055A1.056,1.056,0,0,1,43.221,48.165Z" transform="translate(1.095 1.426)"/>
        <path id="Path_983045" data-name="Path 983045" d="M48.606,55.11H47.551A2.112,2.112,0,0,0,45.441,53H39.11A2.112,2.112,0,0,0,37,55.11v3.165a5.257,5.257,0,0,0,9.469,3.165h2.138a3.165,3.165,0,0,0,0-6.331Zm-3.165,3.165a3.165,3.165,0,0,1-6.331,0V55.11h6.331Zm3.165,1.055H47.445a5.271,5.271,0,0,0,.107-1.055V57.221h1.055a1.055,1.055,0,0,1,0,2.11Z" transform="translate(0.985 1.867)"/>
        <path id="Path_983046" data-name="Path 983046" d="M42.15,1a24.345,24.345,0,0,0-23.1,16.882h-4.6A9.227,9.227,0,0,0,5.693,30.025l.151.452a4.182,4.182,0,0,0-.624,2.178,4.225,4.225,0,0,0,4.221,4.221h.084a7.4,7.4,0,0,0,3.8,5.444l-.536,2.141-1.85.5A13.518,13.518,0,0,0,1,57.977a6.337,6.337,0,0,0,6.331,6.331,2.112,2.112,0,0,0,2.11,2.11H26.323a2.112,2.112,0,0,0,2.11-2.11,6.337,6.337,0,0,0,6.331-6.331,13.518,13.518,0,0,0-9.939-13.013l-1.849-.5-.536-2.141a7.441,7.441,0,0,0,1.472-1.057,24.212,24.212,0,0,0,10.517,7.02l.672-2A22.118,22.118,0,0,1,25.269,39.6a7.329,7.329,0,0,0,.971-2.729h8.123c.262.844.542,1.68.864,2.5l1.964-.772c-.223-.567-.427-1.143-.619-1.724H61a22.172,22.172,0,0,1-7.771,7.587l1.057,1.825A24.27,24.27,0,0,0,42.15,1Zm9.461,23.213a39.7,39.7,0,0,0-1.087-8.441H62.14a21.982,21.982,0,0,1,2.116,8.441Zm-21.206,0,.03-.045A6.9,6.9,0,0,0,31.6,20.324a6.977,6.977,0,0,0-.731-3.1l-.727-1.452h3.635a39.7,39.7,0,0,0-1.087,8.441Zm-1.972,8.441a2.112,2.112,0,0,1-2.11,2.11V30.544A2.112,2.112,0,0,1,28.433,32.654Zm7.529-16.882H48.337A37.147,37.147,0,0,1,49.5,24.213H34.8a37.091,37.091,0,0,1,1.163-8.441Zm.624-2.11A29.593,29.593,0,0,1,42.15,3.592a29.593,29.593,0,0,1,5.564,10.069Zm24.4,0H49.945a32.185,32.185,0,0,0-5.318-10.4A22.16,22.16,0,0,1,60.989,13.662ZM39.664,3.269a32.187,32.187,0,0,0-5.309,10.393H23.295A22.272,22.272,0,0,1,39.664,3.269Zm-17.537,12.5h7.042l-.266.177a11.477,11.477,0,0,1-6.384,1.933H21.268a21.592,21.592,0,0,1,.859-2.11ZM7.331,32.654a2.112,2.112,0,0,1,2.11-2.11v4.221A2.112,2.112,0,0,1,7.331,32.654Zm2.11,31.654V62.2H26.325v2.11Zm0-4.221V51.646H26.323v8.441ZM24.27,47a11.4,11.4,0,0,1,8.384,10.977A4.225,4.225,0,0,1,28.433,62.2V57.977h2.11v-2.11h-2.11V51.646a2.112,2.112,0,0,0-2.11-2.11H9.441a2.112,2.112,0,0,0-2.11,2.11v4.221H5.221v2.11h2.11V62.2A4.225,4.225,0,0,1,3.11,57.977,11.4,11.4,0,0,1,11.493,47l2.07-.564a9.915,9.915,0,0,0,8.636,0Zm-3.4-2.286a8.031,8.031,0,0,1-5.966,0l.417-1.666a7.347,7.347,0,0,0,1.511.157h2.11a7.347,7.347,0,0,0,1.511-.157ZM18.937,41.1h-2.11a5.282,5.282,0,0,1-5.276-5.276V29.66A3.572,3.572,0,0,1,14,26.268l-.668-2a5.664,5.664,0,0,0-3.736,4.166h-.15a4.178,4.178,0,0,0-1.862.452,7.04,7.04,0,0,1,6.867-8.893h8.073a13.573,13.573,0,0,0,6.534-1.669,4.85,4.85,0,0,1,.436,2A4.8,4.8,0,0,1,28.679,23l-2.218,3.327h2.56a11.536,11.536,0,0,1-1.4,2.334,4.177,4.177,0,0,0-1.294-.224h-2.11v7.386A5.282,5.282,0,0,1,18.937,41.1Zm11.02-6.331a4.136,4.136,0,0,0-.551-4.972,13.573,13.573,0,0,0,1.876-3.469h1.395a39.555,39.555,0,0,0,1.1,8.441Zm4.83-8.441H49.5a37.289,37.289,0,0,1-1.166,8.441H35.954A37.18,37.18,0,0,1,34.787,26.323Zm15.72,8.441a39.635,39.635,0,0,0,1.1-8.441H64.272a22.113,22.113,0,0,1-2.123,8.441Z" transform="translate(-1 -1)"/>
        <path id="Path_983047" data-name="Path 983047" d="M20.717,3.11V1A13.733,13.733,0,0,0,7,14.717H9.11A11.62,11.62,0,0,1,20.717,3.11Z" transform="translate(-0.669 -1)"/>
        <path id="Path_983048" data-name="Path 983048" d="M13.11,14.5A7.4,7.4,0,0,1,20.5,7.11V5A9.506,9.506,0,0,0,11,14.5Z" transform="translate(-0.449 -0.779)"/>
      </g>
    </g>
  </g>
</svg>
