<svg xmlns="http://www.w3.org/2000/svg" xmlns:xlink="http://www.w3.org/1999/xlink" width="108" height="108" viewBox="0 0 108 108">
  <defs>
    <filter id="Path_982547" x="0" y="0" width="108" height="108" filterUnits="userSpaceOnUse">
      <feOffset dy="3" input="SourceAlpha"/>
      <feGaussianBlur stdDeviation="3" result="blur"/>
      <feFlood flood-opacity="0.161"/>
      <feComposite operator="in" in2="blur"/>
      <feComposite in="SourceGraphic"/>
    </filter>
  </defs>
  <g id="Group_1148592" data-name="Group 1148592" transform="translate(-201 -4219.924)">
    <g id="Group_1147089" data-name="Group 1147089" transform="translate(-415 236.924)">
      <g transform="matrix(1, 0, 0, 1, 616, 3983)" filter="url(#Path_982547)">
        <g id="Path_982547-2" data-name="Path 982547" transform="translate(9 6)" fill="#eaf4fb">
          <path d="M 45 88.5 C 39.12687683105469 88.5 33.43022537231445 87.35007476806641 28.06830024719238 85.08217620849609 C 22.88852500915527 82.89131164550781 18.23629951477051 79.75458526611328 14.2408504486084 75.75914764404297 C 10.24541282653809 71.76370239257812 7.108687400817871 67.11147308349609 4.917825222015381 61.93170166015625 C 2.649924993515015 56.56977462768555 1.5 50.87312316894531 1.5 45 C 1.5 39.12687683105469 2.649924993515015 33.43022537231445 4.917825222015381 28.06830024719238 C 7.108687400817871 22.88852500915527 10.24541282653809 18.23629951477051 14.2408504486084 14.2408504486084 C 18.23629951477051 10.24541282653809 22.88852500915527 7.108687400817871 28.06830024719238 4.917825222015381 C 33.43022537231445 2.649924993515015 39.12687683105469 1.5 45 1.5 C 50.87312316894531 1.5 56.56977462768555 2.649924993515015 61.93170166015625 4.917825222015381 C 67.11147308349609 7.108687400817871 71.76370239257812 10.24541282653809 75.75914764404297 14.2408504486084 C 79.75458526611328 18.23629951477051 82.89131164550781 22.88852500915527 85.08217620849609 28.06830024719238 C 87.35007476806641 33.43022537231445 88.5 39.12687683105469 88.5 45 C 88.5 50.87312316894531 87.35007476806641 56.56977462768555 85.08217620849609 61.93170166015625 C 82.89131164550781 67.11147308349609 79.75458526611328 71.76370239257812 75.75914764404297 75.75914764404297 C 71.76370239257812 79.75458526611328 67.11147308349609 82.89131164550781 61.93170166015625 85.08217620849609 C 56.56977462768555 87.35007476806641 50.87312316894531 88.5 45 88.5 Z" stroke="none"/>
          <path d="M 45 3 C 39.32871246337891 3 33.82865524291992 4.110054016113281 28.65262985229492 6.299339294433594 C 23.65165710449219 8.414573669433594 19.15968322753906 11.44334411621094 15.301513671875 15.301513671875 C 11.44334411621094 19.15968322753906 8.414573669433594 23.65165710449219 6.299339294433594 28.65262985229492 C 4.110054016113281 33.82865524291992 3 39.32871246337891 3 45 C 3 50.67128753662109 4.110054016113281 56.17134475708008 6.299339294433594 61.34737396240234 C 8.414573669433594 66.34834289550781 11.44334411621094 70.84031677246094 15.301513671875 74.698486328125 C 19.15968322753906 78.55665588378906 23.65165710449219 81.58542633056641 28.65262985229492 83.70066070556641 C 33.82865524291992 85.88994598388672 39.32871246337891 87 45 87 C 50.67128753662109 87 56.17134475708008 85.88994598388672 61.34737396240234 83.70066070556641 C 66.34834289550781 81.58542633056641 70.84031677246094 78.55665588378906 74.698486328125 74.698486328125 C 78.55665588378906 70.84031677246094 81.58542633056641 66.34834289550781 83.70066070556641 61.34737396240234 C 85.88994598388672 56.17134475708008 87 50.67128753662109 87 45 C 87 39.32871246337891 85.88994598388672 33.82865524291992 83.70066070556641 28.65262985229492 C 81.58542633056641 23.65165710449219 78.55665588378906 19.15968322753906 74.698486328125 15.301513671875 C 70.84031677246094 11.44334411621094 66.34834289550781 8.414573669433594 61.34737396240234 6.299339294433594 C 56.17134475708008 4.110054016113281 50.67128753662109 3 45 3 M 45 0 C 69.85281372070312 0 90 20.14718627929688 90 45 C 90 69.85281372070312 69.85281372070312 90 45 90 C 20.14718627929688 90 0 69.85281372070312 0 45 C 0 20.14718627929688 20.14718627929688 0 45 0 Z" stroke="none" fill="#205277"/>
        </g>
      </g>
    </g>
    <g id="internet" transform="translate(228.353 4245.277)">
      <circle id="Ellipse_11573" data-name="Ellipse 11573" cx="16.298" cy="16.298" r="16.298" transform="translate(10.349 10.349)" fill="#62d8f9"/>
      <path id="Path_983093" data-name="Path 983093" d="M284.988,102.114a18.459,18.459,0,0,1,0,32.036,16.3,16.3,0,0,0,0-32.036Z" transform="translate(-255.324 -91.485)" fill="#00bef7"/>
      <circle id="Ellipse_11574" data-name="Ellipse 11574" cx="2.629" cy="2.629" r="2.629" transform="translate(24.018 0.781)" fill="#fbe77b"/>
      <path id="Path_983094" data-name="Path 983094" d="M236.638,9.9a2.629,2.629,0,0,1-3.5,3.5,2.629,2.629,0,1,0,3.5-3.5Z" transform="translate(-208.874 -8.865)" fill="#fcdd2e"/>
      <circle id="Ellipse_11575" data-name="Ellipse 11575" cx="2.629" cy="2.629" r="2.629" transform="translate(0.781 0.781)" fill="#b9ea6a"/>
      <path id="Path_983095" data-name="Path 983095" d="M13.392,9.9a2.629,2.629,0,0,1-3.5,3.5,2.629,2.629,0,1,0,3.5-3.5Z" transform="translate(-8.865 -8.865)" fill="#a1e42c"/>
      <circle id="Ellipse_11576" data-name="Ellipse 11576" cx="2.629" cy="2.629" r="2.629" transform="translate(47.256 24.018)" fill="#fbe77b"/>
      <path id="Path_983096" data-name="Path 983096" d="M459.884,233.141a2.629,2.629,0,0,1-3.5,3.5,2.629,2.629,0,1,0,3.5-3.5Z" transform="translate(-408.882 -208.874)" fill="#fcdd2e"/>
      <circle id="Ellipse_11577" data-name="Ellipse 11577" cx="2.629" cy="2.629" r="2.629" transform="translate(24.018 47.256)" fill="#fbe77b"/>
      <path id="Path_983097" data-name="Path 983097" d="M236.638,456.387a2.629,2.629,0,0,1-3.5,3.5,2.629,2.629,0,1,0,3.5-3.5Z" transform="translate(-208.874 -408.882)" fill="#fcdd2e"/>
      <circle id="Ellipse_11578" data-name="Ellipse 11578" cx="2.629" cy="2.629" r="2.629" transform="translate(0.781 24.018)" fill="#fbe77b"/>
      <path id="Path_983098" data-name="Path 983098" d="M13.392,233.141a2.629,2.629,0,0,1-3.5,3.5,2.629,2.629,0,1,0,3.5-3.5Z" transform="translate(-8.865 -208.874)" fill="#fcdd2e"/>
      <circle id="Ellipse_11579" data-name="Ellipse 11579" cx="2.629" cy="2.629" r="2.629" transform="translate(47.256 0.781)" fill="#b9ea6a"/>
      <path id="Path_983099" data-name="Path 983099" d="M456.387,13.392a2.629,2.629,0,0,0,3.5-3.5,2.629,2.629,0,1,1-3.5,3.5Z" transform="translate(-408.882 -8.865)" fill="#a1e42c"/>
      <circle id="Ellipse_11580" data-name="Ellipse 11580" cx="2.629" cy="2.629" r="2.629" transform="translate(0.781 47.256)" fill="#b9ea6a"/>
      <path id="Path_983100" data-name="Path 983100" d="M9.9,459.884a2.629,2.629,0,0,0,3.5-3.5,2.629,2.629,0,1,1-3.5,3.5Z" transform="translate(-8.865 -408.882)" fill="#a1e42c"/>
      <circle id="Ellipse_11581" data-name="Ellipse 11581" cx="2.629" cy="2.629" r="2.629" transform="translate(47.256 47.256)" fill="#b9ea6a"/>
      <path id="Path_983101" data-name="Path 983101" d="M459.884,456.387a2.629,2.629,0,0,1-3.5,3.5,2.629,2.629,0,1,0,3.5-3.5Z" transform="translate(-408.882 -408.882)" fill="#a1e42c"/>
      <path id="Path_983102" data-name="Path 983102" d="M50.43,30.012a3.409,3.409,0,0,0,0-6.73,24.08,24.08,0,0,0-6.257-13.057l3.918-3.918a3.413,3.413,0,1,0-1.1-1.1L43.069,9.121A24.08,24.08,0,0,0,30.012,2.864a3.409,3.409,0,0,0-6.73,0A24.08,24.08,0,0,0,10.225,9.121L6.307,5.2a3.414,3.414,0,1,0-1.1,1.1l3.918,3.918A24.08,24.08,0,0,0,2.864,23.282a3.409,3.409,0,0,0,0,6.73A24.08,24.08,0,0,0,9.121,43.069L5.2,46.987a3.414,3.414,0,1,0,1.1,1.1l3.918-3.918A24.08,24.08,0,0,0,23.282,50.43a3.409,3.409,0,0,0,6.73,0,24.08,24.08,0,0,0,13.057-6.257l3.918,3.918a3.413,3.413,0,1,0,1.1-1.1l-3.918-3.918A24.08,24.08,0,0,0,50.43,30.012ZM26.647,46.475a3.415,3.415,0,0,0-3.255,2.393A22.607,22.607,0,0,1,4.425,29.9a3.41,3.41,0,0,0,0-6.509A22.607,22.607,0,0,1,23.392,4.425a3.41,3.41,0,0,0,6.509,0A22.607,22.607,0,0,1,48.868,23.392a3.41,3.41,0,0,0,0,6.509A22.607,22.607,0,0,1,29.9,48.868,3.415,3.415,0,0,0,26.647,46.475ZM51.732,26.647A1.848,1.848,0,1,1,49.884,24.8,1.85,1.85,0,0,1,51.732,26.647ZM49.884,1.561a1.848,1.848,0,1,1-1.848,1.848,1.85,1.85,0,0,1,1.848-1.848Zm-23.237,0A1.848,1.848,0,1,1,24.8,3.409a1.85,1.85,0,0,1,1.848-1.848ZM1.561,3.409A1.848,1.848,0,1,1,3.409,5.257,1.85,1.85,0,0,1,1.561,3.409Zm0,23.237a1.848,1.848,0,1,1,1.848,1.848,1.85,1.85,0,0,1-1.848-1.848ZM3.409,51.732a1.848,1.848,0,1,1,1.848-1.848A1.85,1.85,0,0,1,3.409,51.732Zm23.237,0a1.848,1.848,0,1,1,1.848-1.848A1.85,1.85,0,0,1,26.647,51.732Zm25.085-1.848a1.848,1.848,0,1,1-1.848-1.848A1.85,1.85,0,0,1,51.732,49.884Z"/>
      <path id="Path_983103" data-name="Path 983103" d="M124.326,114.622a.781.781,0,0,0-1.023.415,15.575,15.575,0,0,1-1.915,3.319,21.038,21.038,0,0,0-4.049-2.081,29.9,29.9,0,0,0,.846-6.492H124.5a15.616,15.616,0,0,1-.21,1.9.781.781,0,0,0,.635.9.79.79,0,0,0,.135.012.781.781,0,0,0,.768-.647,17.254,17.254,0,0,0,.253-2.945,17,17,0,0,0-3.876-10.821c-.009-.014-.017-.028-.027-.042a.777.777,0,0,0-.114-.126,17.07,17.07,0,0,0-27.545,1.935.781.781,0,1,0,1.323.829q.366-.584.777-1.127a21.045,21.045,0,0,0,4.047,2.079,29.905,29.905,0,0,0-.846,6.492H93.505a15.446,15.446,0,0,1,.835-4.313.781.781,0,1,0-1.475-.512A17.081,17.081,0,0,0,95.8,119.825c.009.014.017.028.027.042a.786.786,0,0,0,.114.126,17.073,17.073,0,0,0,28.8-4.348.781.781,0,0,0-.415-1.023Zm-8.467,1.142a23.345,23.345,0,0,0-6.076-1.009v-4.971h6.841A28.4,28.4,0,0,1,115.859,115.764Zm-22.354-5.98H99.82a29.9,29.9,0,0,0,.846,6.492,21.045,21.045,0,0,0-4.041,2.075A15.433,15.433,0,0,1,93.505,109.784Zm7.876,0h6.841v4.971a23.345,23.345,0,0,0-6.076,1.009A28.4,28.4,0,0,1,101.381,109.784Zm6.841,6.533v8.118c-1.656-.356-3.221-1.839-4.474-4.266a18.568,18.568,0,0,1-1.181-2.9A21.774,21.774,0,0,1,108.222,116.317Zm1.561,8.118v-8.118a21.77,21.77,0,0,1,5.655.949,18.571,18.571,0,0,1-1.181,2.9C113,122.6,111.439,124.079,109.783,124.436Zm4.474-26.6a18.57,18.57,0,0,1,1.181,2.9,21.77,21.77,0,0,1-5.655.949V93.571C111.439,93.927,113,95.41,114.257,97.837Zm-6.035-4.266v8.118a21.769,21.769,0,0,1-5.655-.949,18.569,18.569,0,0,1,1.181-2.9C105,95.41,106.566,93.927,108.222,93.571Zm1.561,9.68a23.345,23.345,0,0,0,6.076-1.009,28.4,28.4,0,0,1,.765,5.98h-6.841Zm14.717,4.971h-6.315a29.9,29.9,0,0,0-.846-6.492,21.05,21.05,0,0,0,4.041-2.075A15.433,15.433,0,0,1,124.5,108.223Zm-4.132-9.771a19.49,19.49,0,0,1-3.456,1.771,20.038,20.038,0,0,0-1.268-3.1,13.052,13.052,0,0,0-2.008-2.928A15.547,15.547,0,0,1,120.369,98.452Zm-22.742-.007a15.388,15.388,0,0,1,6.75-4.26,13.036,13.036,0,0,0-2.015,2.936,20.05,20.05,0,0,0-1.268,3.1A19.5,19.5,0,0,1,97.626,98.445Zm4.52,3.8a23.344,23.344,0,0,0,6.076,1.009v4.971h-6.841A28.4,28.4,0,0,1,102.146,102.243Zm-4.509,17.312a19.49,19.49,0,0,1,3.456-1.771,20.045,20.045,0,0,0,1.268,3.1,13.052,13.052,0,0,0,2.008,2.928,15.548,15.548,0,0,1-6.732-4.259Zm16,4.261a13.05,13.05,0,0,0,2.01-2.93,20.051,20.051,0,0,0,1.268-3.1,19.486,19.486,0,0,1,3.467,1.778A15.482,15.482,0,0,1,113.634,123.816Z" transform="translate(-82.356 -82.357)"/>
    </g>
  </g>
</svg>
