<svg xmlns="http://www.w3.org/2000/svg" xmlns:xlink="http://www.w3.org/1999/xlink" width="108" height="108" viewBox="0 0 108 108">
  <defs>
    <filter id="Path_982538" x="0" y="0" width="108" height="108" filterUnits="userSpaceOnUse">
      <feOffset dy="3" input="SourceAlpha"/>
      <feGaussianBlur stdDeviation="3" result="blur"/>
      <feFlood flood-opacity="0.161"/>
      <feComposite operator="in" in2="blur"/>
      <feComposite in="SourceGraphic"/>
    </filter>
  </defs>
  <g id="Group_1156472" data-name="Group 1156472" transform="translate(-606 -319)">
    <g id="Group_1155998" data-name="Group 1155998">
      <g id="Group_1154236" data-name="Group 1154236" transform="translate(-11 -9263)">
        <g id="Group_1149573" data-name="Group 1149573" transform="translate(416 5416.88)">
          <g id="Group_1146955" data-name="Group 1146955" transform="translate(0 1196.12)">
            <g transform="matrix(1, 0, 0, 1, 201, 2969)" filter="url(#Path_982538)">
              <g id="Path_982538-2" data-name="Path 982538" transform="translate(9 6)" fill="#fef4ec">
                <path d="M 45 88.5 C 39.12687683105469 88.5 33.43022537231445 87.35007476806641 28.06830024719238 85.08217620849609 C 22.88852500915527 82.89131164550781 18.23629951477051 79.75458526611328 14.2408504486084 75.75914764404297 C 10.24541282653809 71.76370239257812 7.108687400817871 67.11147308349609 4.917825222015381 61.93170166015625 C 2.649924993515015 56.56977462768555 1.5 50.87312316894531 1.5 45 C 1.5 39.12687683105469 2.649924993515015 33.43022537231445 4.917825222015381 28.06830024719238 C 7.108687400817871 22.88852500915527 10.24541282653809 18.23629951477051 14.2408504486084 14.2408504486084 C 18.23629951477051 10.24541282653809 22.88852500915527 7.108687400817871 28.06830024719238 4.917825222015381 C 33.43022537231445 2.649924993515015 39.12687683105469 1.5 45 1.5 C 50.87312316894531 1.5 56.56977462768555 2.649924993515015 61.93170166015625 4.917825222015381 C 67.11147308349609 7.108687400817871 71.76370239257812 10.24541282653809 75.75914764404297 14.2408504486084 C 79.75458526611328 18.23629951477051 82.89131164550781 22.88852500915527 85.08217620849609 28.06830024719238 C 87.35007476806641 33.43022537231445 88.5 39.12687683105469 88.5 45 C 88.5 50.87312316894531 87.35007476806641 56.56977462768555 85.08217620849609 61.93170166015625 C 82.89131164550781 67.11147308349609 79.75458526611328 71.76370239257812 75.75914764404297 75.75914764404297 C 71.76370239257812 79.75458526611328 67.11147308349609 82.89131164550781 61.93170166015625 85.08217620849609 C 56.56977462768555 87.35007476806641 50.87312316894531 88.5 45 88.5 Z" stroke="none"/>
                <path d="M 45 3 C 39.32871246337891 3 33.82865524291992 4.110054016113281 28.65262985229492 6.299339294433594 C 23.65165710449219 8.414573669433594 19.15968322753906 11.44334411621094 15.301513671875 15.301513671875 C 11.44334411621094 19.15968322753906 8.414573669433594 23.65165710449219 6.299339294433594 28.65262985229492 C 4.110054016113281 33.82865524291992 3 39.32871246337891 3 45 C 3 50.67128753662109 4.110054016113281 56.17134475708008 6.299339294433594 61.34737396240234 C 8.414573669433594 66.34834289550781 11.44334411621094 70.84031677246094 15.301513671875 74.698486328125 C 19.15968322753906 78.55665588378906 23.65165710449219 81.58542633056641 28.65262985229492 83.70066070556641 C 33.82865524291992 85.88994598388672 39.32871246337891 87 45 87 C 50.67128753662109 87 56.17134475708008 85.88994598388672 61.34737396240234 83.70066070556641 C 66.34834289550781 81.58542633056641 70.84031677246094 78.55665588378906 74.698486328125 74.698486328125 C 78.55665588378906 70.84031677246094 81.58542633056641 66.34834289550781 83.70066070556641 61.34737396240234 C 85.88994598388672 56.17134475708008 87 50.67128753662109 87 45 C 87 39.32871246337891 85.88994598388672 33.82865524291992 83.70066070556641 28.65262985229492 C 81.58542633056641 23.65165710449219 78.55665588378906 19.15968322753906 74.698486328125 15.301513671875 C 70.84031677246094 11.44334411621094 66.34834289550781 8.414573669433594 61.34737396240234 6.299339294433594 C 56.17134475708008 4.110054016113281 50.67128753662109 3 45 3 M 45 0 C 69.85281372070312 0 90 20.14718627929688 90 45 C 90 69.85281372070312 69.85281372070312 90 45 90 C 20.14718627929688 90 0 69.85281372070312 0 45 C 0 20.14718627929688 20.14718627929688 0 45 0 Z" stroke="none" fill="#fe9d52"/>
              </g>
            </g>
          </g>
        </g>
      </g>
      <g id="informacion_1_" data-name="informacion (1)" transform="translate(627.99 338.002)">
        <path id="Path_993719" data-name="Path 993719" d="M60.39,39.36a3.585,3.585,0,0,0-3.46,2.65H49.56V32.14H54.4a.975.975,0,0,0,.97-.87,22.919,22.919,0,0,0-.27-6.55l3.3-1.31a.935.935,0,0,0,.53-.52.908.908,0,0,0,.01-.74l-2.72-6.84a.949.949,0,0,0-.51-.53.932.932,0,0,0-.75-.01l-3.3,1.32a22.929,22.929,0,0,0-6.35-6.52L46.72,6.3a.908.908,0,0,0,.01-.74.949.949,0,0,0-.51-.53L39.45,2.12a.975.975,0,0,0-.75-.01,1.016,1.016,0,0,0-.53.51l-1.4,3.27a23.8,23.8,0,0,0-9.1-.14L26.36,2.47a.962.962,0,0,0-1.26-.54L18.26,4.65a.974.974,0,0,0-.54,1.26L19.04,9.2a23.326,23.326,0,0,0-6.52,6.35L9.25,14.14a.932.932,0,0,0-.75-.01,1.016,1.016,0,0,0-.53.51L5.07,21.4a.989.989,0,0,0,.51,1.28l3.26,1.41a23.615,23.615,0,0,0-.39,7.16.973.973,0,0,0,.96.87h5.03V42H7.08a3.61,3.61,0,1,0,0,1.94h8.34a.977.977,0,0,0,.97-.97V32.13h3.85V47.14L12,55.39a3.6,3.6,0,1,0,1.86,3.14,3.487,3.487,0,0,0-.48-1.76l8.53-8.53a.976.976,0,0,0,.28-.69V32.13h3.85V55.05a3.61,3.61,0,1,0,1.94,0V32.13h8.08V55.05a3.61,3.61,0,1,0,1.94,0V32.13h3.84V47.54a1,1,0,0,0,.29.69l8.52,8.53a3.6,3.6,0,1,0,3.14-1.86,3.487,3.487,0,0,0-1.76.48l-8.25-8.24V32.13h3.86V42.97a.977.977,0,0,0,.97.97h8.34a3.6,3.6,0,0,0,7.07-.97,3.645,3.645,0,0,0-3.63-3.61ZM3.62,44.64a1.675,1.675,0,1,1,1.67-1.67A1.682,1.682,0,0,1,3.62,44.64ZM10.23,60.2a1.675,1.675,0,0,1,0-3.35,1.639,1.639,0,0,1,1.17.48.01.01,0,0,1,.01.01h.01a1.705,1.705,0,0,1,.48,1.18A1.669,1.669,0,0,1,10.23,60.2Zm42.36-2.86a1.676,1.676,0,1,1-.49,1.19A1.688,1.688,0,0,1,52.59,57.34ZM28.66,58.53a1.675,1.675,0,1,1-1.67-1.68A1.673,1.673,0,0,1,28.66,58.53Zm10.02,0a1.675,1.675,0,1,1-1.67-1.68A1.673,1.673,0,0,1,38.68,58.53Zm7.49-28.34H17.66a14.307,14.307,0,1,1,28.51,0Zm1.95,0a16.247,16.247,0,1,0-32.4.01h-5.4a21.181,21.181,0,0,1,.59-6.43.951.951,0,0,0-.55-1.12L7.25,21.3l2.13-4.97,3.12,1.35a.968.968,0,0,0,1.2-.38,21.407,21.407,0,0,1,7.03-6.85.979.979,0,0,0,.4-1.19L19.88,6.12l5.04-2.01,1.25,3.13a.969.969,0,0,0,1.11.59,21.569,21.569,0,0,1,9.82.14.957.957,0,0,0,1.12-.56L39.56,4.3l4.98,2.14L43.2,9.55a.968.968,0,0,0,.38,1.2,21.247,21.247,0,0,1,6.86,7.03.967.967,0,0,0,1.18.41l3.16-1.26,2,5.03-3.15,1.25a.964.964,0,0,0-.58,1.12,21.186,21.186,0,0,1,.47,5.87h-5.4ZM60.39,44.64a1.675,1.675,0,1,1,1.67-1.67A1.682,1.682,0,0,1,60.39,44.64Z" fill="#2a2f64"/>
        <path id="Path_993720" data-name="Path 993720" d="M46.17,30.19H17.66a14.307,14.307,0,1,1,28.51,0Z" fill="#ececec"/>
        <path id="Path_993721" data-name="Path 993721" d="M46.17,30.19h-1.9a13.055,13.055,0,0,0-.84-5.79,12.417,12.417,0,0,0-6.61-6.96,12.035,12.035,0,0,0-9.49-.13,12.661,12.661,0,0,0-7.76,12.88h-1.9a14.3,14.3,0,0,1,27.54-6.53,14.493,14.493,0,0,1,.96,6.53Z" fill="#d5d6d5"/>
        <g id="Group_1155997" data-name="Group 1155997">
          <path id="Path_993722" data-name="Path 993722" d="M5.28,42.97a1.675,1.675,0,1,1-1.67-1.68A1.673,1.673,0,0,1,5.28,42.97Z" fill="#ffdc7c"/>
          <path id="Path_993723" data-name="Path 993723" d="M11.91,58.53a1.675,1.675,0,1,1-1.68-1.68,1.639,1.639,0,0,1,1.17.48.01.01,0,0,1,.01.01h.01a1.739,1.739,0,0,1,.49,1.19Z" fill="#ffdc7c"/>
          <path id="Path_993724" data-name="Path 993724" d="M28.66,58.53a1.675,1.675,0,1,1-1.67-1.68A1.673,1.673,0,0,1,28.66,58.53Z" fill="#ffdc7c"/>
          <path id="Path_993725" data-name="Path 993725" d="M38.68,58.53a1.675,1.675,0,1,1-1.67-1.68A1.673,1.673,0,0,1,38.68,58.53Z" fill="#ffdc7c"/>
          <path id="Path_993726" data-name="Path 993726" d="M55.45,58.53a1.675,1.675,0,0,1-3.35,0,1.645,1.645,0,0,1,.48-1.18h.01v-.01a1.68,1.68,0,0,1,1.18-.48A1.662,1.662,0,0,1,55.45,58.53Z" fill="#ffdc7c"/>
          <path id="Path_993727" data-name="Path 993727" d="M62.06,42.97a1.675,1.675,0,1,1-1.67-1.68A1.673,1.673,0,0,1,62.06,42.97Z" fill="#ffdc7c"/>
        </g>
        <path id="Path_993728" data-name="Path 993728" d="M53.04,24.33a21.186,21.186,0,0,1,.47,5.87H48.12a16.247,16.247,0,1,0-32.4.01h-5.4a21.181,21.181,0,0,1,.59-6.43.951.951,0,0,0-.55-1.12L7.25,21.31l2.13-4.97,3.12,1.35a.968.968,0,0,0,1.2-.38,21.407,21.407,0,0,1,7.03-6.85.979.979,0,0,0,.4-1.19L19.88,6.13l5.04-2.01,1.25,3.13a.969.969,0,0,0,1.11.59,21.569,21.569,0,0,1,9.82.14.957.957,0,0,0,1.12-.56l1.34-3.11,4.98,2.14L43.2,9.55a.968.968,0,0,0,.38,1.2,21.247,21.247,0,0,1,6.86,7.03.967.967,0,0,0,1.18.41l3.16-1.26,2,5.03-3.15,1.25a.986.986,0,0,0-.59,1.12Z" fill="#4dbde5"/>
        <path id="Path_993729" data-name="Path 993729" d="M53.04,24.33a21.186,21.186,0,0,1,.47,5.87h-1.1a19.832,19.832,0,0,0-.45-5.57.926.926,0,0,1,.55-1.06l2.99-1.19-1.89-4.77L50.6,18.8a.926.926,0,0,1-1.12-.38,20.151,20.151,0,0,0-6.51-6.67.924.924,0,0,1-.36-1.14l1.28-2.97L39.16,5.61,37.89,8.56a.9.9,0,0,1-1.07.53,20.654,20.654,0,0,0-9.32-.13.92.92,0,0,1-1.05-.56L25.26,5.43l-4.78,1.9,1.18,2.99a.91.91,0,0,1-.37,1.12,20.121,20.121,0,0,0-6.67,6.5.924.924,0,0,1-1.14.36l-2.97-1.28L8.49,21.74l2.95,1.28a.89.89,0,0,1,.52,1.07,19.961,19.961,0,0,0-.55,6.1H10.29a21.181,21.181,0,0,1,.59-6.43.951.951,0,0,0-.55-1.12L7.22,21.29l2.13-4.97,3.12,1.35a.968.968,0,0,0,1.2-.38,21.407,21.407,0,0,1,7.03-6.85.979.979,0,0,0,.4-1.19L19.85,6.11,24.89,4.1l1.25,3.13a.969.969,0,0,0,1.11.59,21.569,21.569,0,0,1,9.82.14.957.957,0,0,0,1.12-.56l1.34-3.11,4.98,2.14L43.2,9.55a.968.968,0,0,0,.38,1.2,21.247,21.247,0,0,1,6.86,7.03.967.967,0,0,0,1.18.41l3.16-1.26,2,5.03-3.15,1.25a.986.986,0,0,0-.59,1.12Z" fill="#37a7d9"/>
      </g>
    </g>
  </g>
</svg>
