<svg xmlns="http://www.w3.org/2000/svg" xmlns:xlink="http://www.w3.org/1999/xlink" width="110" height="110" viewBox="0 0 110 110">
  <defs>
    <filter id="Path_982547" x="0" y="0" width="110" height="110" filterUnits="userSpaceOnUse">
      <feOffset dy="3" input="SourceAlpha"/>
      <feGaussianBlur stdDeviation="3" result="blur"/>
      <feFlood flood-opacity="0.161"/>
      <feComposite operator="in" in2="blur"/>
      <feComposite in="SourceGraphic"/>
    </filter>
  </defs>
  <g id="Group_1156445" data-name="Group 1156445" transform="translate(-801 -3218)">
    <g id="Group_1154703" data-name="Group 1154703">
      <g id="Group_1150789" data-name="Group 1150789" transform="translate(3 2320)">
        <g id="Group_1154212" data-name="Group 1154212" transform="translate(-236 -5809)">
          <g id="Group_1152583" data-name="Group 1152583" transform="translate(1043 6713)">
            <g id="Group_1146973" data-name="Group 1146973" transform="translate(0 0)">
              <g id="Group_1146954" data-name="Group 1146954">
                <g transform="matrix(1, 0, 0, 1, -9, -6)" filter="url(#Path_982547)">
                  <g id="Path_982547-2" data-name="Path 982547" transform="translate(9 6)" fill="#fdeffe">
                    <path d="M 46 90.49987030029297 C 39.99187850952148 90.49987030029297 34.16426849365234 89.32350921630859 28.67905426025391 87.00345611572266 C 23.38019943237305 84.76224517822266 18.62104034423828 81.55341339111328 14.53374671936035 77.46613311767578 C 10.44646644592285 73.37885284423828 7.237639904022217 68.61969757080078 4.996413230895996 63.32085418701172 C 2.676359891891479 57.83565521240234 1.5 52.008056640625 1.5 45.99993515014648 C 1.5 39.99181365966797 2.676359891891479 34.16421508789062 4.996413230895996 28.67901420593262 C 7.237639904022217 23.38017463684082 10.44646644592285 18.62101554870605 14.53374671936035 14.53373527526855 C 18.62104034423828 10.44645500183105 23.38019943237305 7.23762845993042 28.67905426025391 4.996415138244629 C 34.16426849365234 2.676361799240112 39.99187850952148 1.500001788139343 46 1.500001788139343 C 52.00812149047852 1.500001788139343 57.83573150634766 2.676361799240112 63.32094573974609 4.996415138244629 C 68.61979675292969 7.23762845993042 73.37895965576172 10.44645500183105 77.46625518798828 14.53373527526855 C 81.55353546142578 18.62101554870605 84.76235961914062 23.38017463684082 87.00358581542969 28.67901420593262 C 89.32363891601562 34.16421508789062 90.5 39.99181365966797 90.5 45.99993515014648 C 90.5 52.008056640625 89.32363891601562 57.83565521240234 87.00358581542969 63.32085418701172 C 84.76235961914062 68.61969757080078 81.55353546142578 73.37885284423828 77.46625518798828 77.46613311767578 C 73.37895965576172 81.55341339111328 68.61979675292969 84.76224517822266 63.32094573974609 87.00345611572266 C 57.83573150634766 89.32350921630859 52.00812149047852 90.49987030029297 46 90.49987030029297 Z" stroke="none"/>
                    <path d="M 46 2.999992370605469 C 40.1937141418457 2.999992370605469 34.56269836425781 4.136489868164062 29.26337051391602 6.377906799316406 C 24.14332580566406 8.543502807617188 19.54441070556641 11.64437866210938 15.59439849853516 15.59437561035156 C 11.64440155029297 19.54439544677734 8.54351806640625 24.14329528808594 6.377914428710938 29.26333618164062 C 4.136497497558594 34.56264877319336 3 40.19366455078125 3 45.99993515014648 C 3 51.80620574951172 4.136497497558594 57.43720626831055 6.377914428710938 62.73651885986328 C 8.54351806640625 67.8565673828125 11.64440155029297 72.45545959472656 15.59439849853516 76.40547943115234 C 19.54441070556641 80.35547637939453 24.14332580566406 83.45635223388672 29.26337051391602 85.6219482421875 C 34.56269836425781 87.86336517333984 40.1937141418457 88.99986267089844 46 88.99986267089844 C 51.8062858581543 88.99986267089844 57.43730163574219 87.86336517333984 62.73661422729492 85.6219482421875 C 67.85667419433594 83.45635223388672 72.45557403564453 80.35547637939453 76.40558624267578 76.40547943115234 C 80.35559844970703 72.45545959472656 83.45647430419922 67.8565673828125 85.6220703125 62.73651885986328 C 87.86350250244141 57.43720626831055 89 51.80620574951172 89 45.99993515014648 C 89 40.19366455078125 87.86350250244141 34.56264877319336 85.6220703125 29.26333618164062 C 83.45647430419922 24.14329528808594 80.35559844970703 19.54439544677734 76.40558624267578 15.59437561035156 C 72.45557403564453 11.64437866210938 67.85667419433594 8.543502807617188 62.73661422729492 6.377906799316406 C 57.43730163574219 4.136489868164062 51.8062858581543 2.999992370605469 46 2.999992370605469 M 46 -7.62939453125e-06 C 71.40509033203125 -7.62939453125e-06 92 20.59486389160156 92 45.99993515014648 C 92 71.40499114990234 71.40509033203125 91.99986267089844 46 91.99986267089844 C 20.59490203857422 91.99986267089844 0 71.40499114990234 0 45.99993515014648 C 0 20.59486389160156 20.59490203857422 -7.62939453125e-06 46 -7.62939453125e-06 Z" stroke="none" fill="#ee70f7"/>
                  </g>
                </g>
              </g>
            </g>
          </g>
        </g>
      </g>
      <g id="objetivo_2_" data-name="objetivo (2)" transform="translate(828 3242)">
        <g id="Group_1154695" data-name="Group 1154695" transform="translate(1.075 1.075)">
          <path id="Path_991201" data-name="Path 991201" d="M10,21.324H62.907V12.374A2.381,2.381,0,0,0,60.533,10H12.374A2.379,2.379,0,0,0,10,12.374Z" transform="translate(-10 -10)" fill="#ff7d95" fill-rule="evenodd"/>
        </g>
        <g id="Group_1154696" data-name="Group 1154696" transform="translate(1.075 12.399)">
          <path id="Path_991202" data-name="Path 991202" d="M22.034,138.371a14.418,14.418,0,1,1,24.632,10.178H60.533a2.383,2.383,0,0,0,2.374-2.374V115.305H10v30.869a2.381,2.381,0,0,0,2.374,2.374H26.241A14.373,14.373,0,0,1,22.034,138.371Z" transform="translate(-10 -115.305)" fill="#fff" fill-rule="evenodd"/>
        </g>
        <g id="Group_1154697" data-name="Group 1154697" transform="translate(13.11 21.05)">
          <path id="Path_991203" data-name="Path 991203" d="M127.561,210.166a8.768,8.768,0,0,1,8.767-8.767v-5.648a14.416,14.416,0,0,0-14.418,14.415Z" transform="translate(-121.91 -195.751)" fill="#ffec80" fill-rule="evenodd"/>
        </g>
        <g id="Group_1154698" data-name="Group 1154698" transform="translate(27.527 21.05)">
          <path id="Path_991204" data-name="Path 991204" d="M255.986,201.4a8.769,8.769,0,0,1,8.77,8.767H270.4a14.416,14.416,0,0,0-14.418-14.415Z" transform="translate(-255.986 -195.751)" fill="#ffec80" fill-rule="evenodd"/>
        </g>
        <g id="Group_1154699" data-name="Group 1154699" transform="translate(27.527 35.465)">
          <path id="Path_991205" data-name="Path 991205" d="M255.986,344.217A14.414,14.414,0,0,0,270.4,329.8h-5.648a8.769,8.769,0,0,1-8.77,8.77Z" transform="translate(-255.986 -329.799)" fill="#ffec80" fill-rule="evenodd"/>
        </g>
        <g id="Group_1154700" data-name="Group 1154700" transform="translate(13.11 35.465)">
          <path id="Path_991206" data-name="Path 991206" d="M126.116,339.977a14.373,14.373,0,0,0,10.211,4.24v-5.648a8.769,8.769,0,0,1-8.767-8.77H121.91a14.373,14.373,0,0,0,4.206,10.178Z" transform="translate(-121.91 -329.799)" fill="#ffec80" fill-rule="evenodd"/>
        </g>
        <g id="Group_1154701" data-name="Group 1154701" transform="translate(18.761 26.698)">
          <path id="Path_991207" data-name="Path 991207" d="M183.23,265.812a8.768,8.768,0,1,0-8.767-8.77A8.769,8.769,0,0,0,183.23,265.812Z" transform="translate(-174.463 -248.276)" fill="#a0e5a5" fill-rule="evenodd"/>
        </g>
        <g id="Group_1154702" data-name="Group 1154702" transform="translate(0 0)">
          <path id="Path_991208" data-name="Path 991208" d="M379.862,53.714a1.075,1.075,0,0,0-1.075-1.075h-.006a1.075,1.075,0,1,0,1.081,1.075Z" transform="translate(-337.091 -46.978)"/>
          <path id="Path_991209" data-name="Path 991209" d="M433.833,53.714a1.075,1.075,0,0,0-1.075-1.075h-.006a1.075,1.075,0,1,0,1.081,1.075Z" transform="translate(-385.258 -46.978)"/>
          <path id="Path_991210" data-name="Path 991210" d="M325.892,53.714a1.075,1.075,0,0,0-1.075-1.075h-.006a1.075,1.075,0,1,0,1.081,1.075Z" transform="translate(-288.925 -46.978)"/>
          <path id="Path_991211" data-name="Path 991211" d="M60.263,53.714a1.075,1.075,0,0,0,1.075,1.075H77.5a1.075,1.075,0,0,0,0-2.151H61.338A1.075,1.075,0,0,0,60.263,53.714Z" transform="translate(-53.783 -46.978)"/>
          <path id="Path_991212" data-name="Path 991212" d="M51.608,0H17.947a1.075,1.075,0,0,0,0,2.151H51.608a1.3,1.3,0,0,1,1.3,1.3v7.874H2.151V3.45a1.3,1.3,0,0,1,1.3-1.3H8.287A1.075,1.075,0,0,0,8.287,0H3.45A3.454,3.454,0,0,0,0,3.45V43.268a3.454,3.454,0,0,0,3.45,3.45H16.892a15.436,15.436,0,0,0,9.56,4.2v3.062a1.075,1.075,0,0,0,2.151,0V50.92a15.44,15.44,0,0,0,9.562-4.2H51.608a3.454,3.454,0,0,0,3.45-3.45V3.45A3.453,3.453,0,0,0,51.608,0ZM26.452,48.764A13.362,13.362,0,0,1,14.231,36.54h3.513a9.862,9.862,0,0,0,8.708,8.711ZM14.231,34.39A13.361,13.361,0,0,1,26.452,22.169v3.513a9.86,9.86,0,0,0-8.708,8.708Zm13.3,8.77a7.693,7.693,0,1,1,7.694-7.694,7.7,7.7,0,0,1-7.694,7.694ZM28.6,25.682V22.169A13.362,13.362,0,0,1,40.826,34.39H37.313A9.861,9.861,0,0,0,28.6,25.682Zm0,23.082V45.251a9.863,9.863,0,0,0,8.711-8.711h3.513A13.364,13.364,0,0,1,28.6,48.764Zm24.3-5.5a1.3,1.3,0,0,1-1.3,1.3H40.057a15.4,15.4,0,0,0,2.926-8.027h3.062a1.075,1.075,0,0,0,0-2.151H42.983A15.514,15.514,0,0,0,28.6,20.013V16.95a1.075,1.075,0,1,0-2.151,0v3.062A15.513,15.513,0,0,0,12.075,34.39H9.013a1.075,1.075,0,1,0,0,2.151h3.062A15.406,15.406,0,0,0,15,44.567H3.45a1.3,1.3,0,0,1-1.3-1.3V13.475H52.907Z" transform="translate(0 0)"/>
          <path id="Path_991213" data-name="Path 991213" d="M225.746,298.195a1.075,1.075,0,0,0-1.515.134l-3.244,3.872-1.266-1.072a1.075,1.075,0,1,0-1.39,1.641l2.091,1.771a1.086,1.086,0,0,0,1.519-.13l3.938-4.7A1.075,1.075,0,0,0,225.746,298.195Z" transform="translate(-194.514 -265.904)"/>
          <path id="Path_991214" data-name="Path 991214" d="M113.07,2.151h0A1.075,1.075,0,1,0,112,1.075,1.074,1.074,0,0,0,113.073,2.151Z" transform="translate(-99.952 0)"/>
        </g>
      </g>
    </g>
  </g>
</svg>
