<svg xmlns="http://www.w3.org/2000/svg" xmlns:xlink="http://www.w3.org/1999/xlink" width="110" height="110" viewBox="0 0 110 110">
  <defs>
    <filter id="Path_982547" x="0" y="0" width="110" height="110" filterUnits="userSpaceOnUse">
      <feOffset dy="3" input="SourceAlpha"/>
      <feGaussianBlur stdDeviation="3" result="blur"/>
      <feFlood flood-opacity="0.161"/>
      <feComposite operator="in" in2="blur"/>
      <feComposite in="SourceGraphic"/>
    </filter>
  </defs>
  <g id="Group_1156448" data-name="Group 1156448" transform="translate(-1397 -3213)">
    <g id="Group_1154707" data-name="Group 1154707">
      <g id="Group_1154216" data-name="Group 1154216" transform="translate(284 2315)">
        <g id="Group_1154214" data-name="Group 1154214" transform="translate(79 -5809)">
          <g id="Group_1152583" data-name="Group 1152583" transform="translate(1043 6713)">
            <g id="Group_1146973" data-name="Group 1146973" transform="translate(0 0)">
              <g id="Group_1146954" data-name="Group 1146954">
                <g transform="matrix(1, 0, 0, 1, -9, -6)" filter="url(#Path_982547)">
                  <g id="Path_982547-2" data-name="Path 982547" transform="translate(9 6)" fill="#fdeffe">
                    <path d="M 46 90.49987030029297 C 39.99187850952148 90.49987030029297 34.16426849365234 89.32350921630859 28.67905426025391 87.00345611572266 C 23.38019943237305 84.76224517822266 18.62104034423828 81.55341339111328 14.53374671936035 77.46613311767578 C 10.44646644592285 73.37885284423828 7.237639904022217 68.61969757080078 4.996413230895996 63.32085418701172 C 2.676359891891479 57.83565521240234 1.5 52.008056640625 1.5 45.99993515014648 C 1.5 39.99181365966797 2.676359891891479 34.16421508789062 4.996413230895996 28.67901420593262 C 7.237639904022217 23.38017463684082 10.44646644592285 18.62101554870605 14.53374671936035 14.53373527526855 C 18.62104034423828 10.44645500183105 23.38019943237305 7.23762845993042 28.67905426025391 4.996415138244629 C 34.16426849365234 2.676361799240112 39.99187850952148 1.500001788139343 46 1.500001788139343 C 52.00812149047852 1.500001788139343 57.83573150634766 2.676361799240112 63.32094573974609 4.996415138244629 C 68.61979675292969 7.23762845993042 73.37895965576172 10.44645500183105 77.46625518798828 14.53373527526855 C 81.55353546142578 18.62101554870605 84.76235961914062 23.38017463684082 87.00358581542969 28.67901420593262 C 89.32363891601562 34.16421508789062 90.5 39.99181365966797 90.5 45.99993515014648 C 90.5 52.008056640625 89.32363891601562 57.83565521240234 87.00358581542969 63.32085418701172 C 84.76235961914062 68.61969757080078 81.55353546142578 73.37885284423828 77.46625518798828 77.46613311767578 C 73.37895965576172 81.55341339111328 68.61979675292969 84.76224517822266 63.32094573974609 87.00345611572266 C 57.83573150634766 89.32350921630859 52.00812149047852 90.49987030029297 46 90.49987030029297 Z" stroke="none"/>
                    <path d="M 46 2.999992370605469 C 40.1937141418457 2.999992370605469 34.56269836425781 4.136489868164062 29.26337051391602 6.377906799316406 C 24.14332580566406 8.543502807617188 19.54441070556641 11.64437866210938 15.59439849853516 15.59437561035156 C 11.64440155029297 19.54439544677734 8.54351806640625 24.14329528808594 6.377914428710938 29.26333618164062 C 4.136497497558594 34.56264877319336 3 40.19366455078125 3 45.99993515014648 C 3 51.80620574951172 4.136497497558594 57.43720626831055 6.377914428710938 62.73651885986328 C 8.54351806640625 67.8565673828125 11.64440155029297 72.45545959472656 15.59439849853516 76.40547943115234 C 19.54441070556641 80.35547637939453 24.14332580566406 83.45635223388672 29.26337051391602 85.6219482421875 C 34.56269836425781 87.86336517333984 40.1937141418457 88.99986267089844 46 88.99986267089844 C 51.8062858581543 88.99986267089844 57.43730163574219 87.86336517333984 62.73661422729492 85.6219482421875 C 67.85667419433594 83.45635223388672 72.45557403564453 80.35547637939453 76.40558624267578 76.40547943115234 C 80.35559844970703 72.45545959472656 83.45647430419922 67.8565673828125 85.6220703125 62.73651885986328 C 87.86350250244141 57.43720626831055 89 51.80620574951172 89 45.99993515014648 C 89 40.19366455078125 87.86350250244141 34.56264877319336 85.6220703125 29.26333618164062 C 83.45647430419922 24.14329528808594 80.35559844970703 19.54439544677734 76.40558624267578 15.59437561035156 C 72.45557403564453 11.64437866210938 67.85667419433594 8.543502807617188 62.73661422729492 6.377906799316406 C 57.43730163574219 4.136489868164062 51.8062858581543 2.999992370605469 46 2.999992370605469 M 46 -7.62939453125e-06 C 71.40509033203125 -7.62939453125e-06 92 20.59486389160156 92 45.99993515014648 C 92 71.40499114990234 71.40509033203125 91.99986267089844 46 91.99986267089844 C 20.59490203857422 91.99986267089844 0 71.40499114990234 0 45.99993515014648 C 0 20.59486389160156 20.59490203857422 -7.62939453125e-06 46 -7.62939453125e-06 Z" stroke="none" fill="#ee70f7"/>
                  </g>
                </g>
              </g>
            </g>
          </g>
        </g>
      </g>
      <g id="www" transform="translate(1423 3237.5)">
        <path id="Path_991242" data-name="Path 991242" d="M57.9,32.713H63.45a3.471,3.471,0,0,0,3.471-3.471V13.971A3.47,3.47,0,0,0,63.45,10.5H13.471A3.471,3.471,0,0,0,10,13.971V29.242a3.471,3.471,0,0,0,3.471,3.471Zm0,0" transform="translate(-8.843 -8.843)" fill="#ffc66c"/>
        <path id="Path_991243" data-name="Path 991243" d="M378.094,328.505l9.613,9.613a2.766,2.766,0,0,0,3.912-3.911l-9.613-9.613Zm0,0" transform="translate(-334.352 -286.598)" fill="#ff5d5d"/>
        <path id="Path_991244" data-name="Path 991244" d="M217.77,150.383A13.883,13.883,0,1,1,203.887,136.5,13.883,13.883,0,0,1,217.77,150.383Zm0,0" transform="translate(-168.022 -120.266)" fill="#fff"/>
        <path id="Path_991245" data-name="Path 991245" d="M250.052,187.524a9.024,9.024,0,1,1-9.024-9.024A9.024,9.024,0,0,1,250.052,187.524Zm0,0" transform="translate(-205.163 -157.407)" fill="#72d8ff"/>
        <path id="Path_991246" data-name="Path 991246" d="M232.185,168.5a10.181,10.181,0,1,0,10.181,10.181A10.192,10.192,0,0,0,232.185,168.5Zm0,18.048a7.867,7.867,0,1,1,7.867-7.867A7.876,7.876,0,0,1,232.185,186.548Zm0,0" transform="translate(-196.32 -148.564)"/>
        <path id="Path_991247" data-name="Path 991247" d="M301.161,211.5a1.157,1.157,0,1,0,0,2.314,2.9,2.9,0,0,1,2.892,2.892,1.157,1.157,0,0,0,2.314,0A5.211,5.211,0,0,0,301.161,211.5Zm0,0" transform="translate(-265.296 -186.592)"/>
        <path id="Path_991248" data-name="Path 991248" d="M44.946,71.122a1.157,1.157,0,1,0-2.055,1.064L46.005,78.2a1.157,1.157,0,0,0,2.07-.031l1.885-3.925L52.009,78.2a1.158,1.158,0,0,0,1.028.625h.017a1.158,1.158,0,0,0,1.026-.656l2.889-6.016a1.157,1.157,0,1,0-2.086-1L53,75.079l-2.048-3.957a1.157,1.157,0,0,0-2.07.031l-1.885,3.925Zm0,0" transform="translate(-37.815 -61.898)"/>
        <path id="Path_991249" data-name="Path 991249" d="M117.145,2.814a1.157,1.157,0,0,0,.818-1.975,1.157,1.157,0,1,0-.818,1.975Zm0,0" transform="translate(-102.569 0)"/>
        <path id="Path_991250" data-name="Path 991250" d="M59.234,20.4V5.128A4.633,4.633,0,0,0,54.606.5H19.435a1.157,1.157,0,1,0,0,2.314H54.606A2.317,2.317,0,0,1,56.92,5.128V20.4a2.317,2.317,0,0,1-2.314,2.314H49.053c-.033,0-.066,0-.1,0a15.12,15.12,0,0,0-8.132-6.8l1.715-3.571L44.585,16.3a1.156,1.156,0,0,0,1.027.625h.018a1.157,1.157,0,0,0,1.025-.656l2.889-6.016a1.157,1.157,0,0,0-2.086-1L45.574,13.18,43.526,9.223a1.157,1.157,0,0,0-2.07.031L39.57,13.18,37.523,9.223a1.157,1.157,0,0,0-2.055,1.064l2.561,4.946a15.063,15.063,0,0,0-6.267.413l2.589-5.391a1.157,1.157,0,0,0-2.086-1L30.379,13.18,28.331,9.223a1.157,1.157,0,0,0-2.07.031L24.375,13.18,22.327,9.223a1.157,1.157,0,0,0-2.055,1.064L23.387,16.3a1.157,1.157,0,0,0,2.07-.031l1.885-3.925L29.39,16.3a1.129,1.129,0,0,0,.122.184,15.141,15.141,0,0,0-6.734,6.226H4.627A2.317,2.317,0,0,1,2.313,20.4V5.128A2.317,2.317,0,0,1,4.627,2.814H9.37A1.157,1.157,0,0,0,9.37.5H4.627A4.633,4.633,0,0,0,0,5.128V20.4a4.633,4.633,0,0,0,4.628,4.628H21.712A15.037,15.037,0,0,0,43.355,43.156l9.182,9.182a3.923,3.923,0,0,0,5.548-5.548l-3.608-3.608a1.157,1.157,0,1,0-1.636,1.636l3.608,3.608A1.609,1.609,0,0,1,54.173,50.7L45.3,41.824a15.026,15.026,0,0,0,4.722-16.8h4.589A4.633,4.633,0,0,0,59.234,20.4ZM35.865,42.843A12.726,12.726,0,1,1,48.591,30.117,12.741,12.741,0,0,1,35.865,42.843Zm0,0" transform="translate(0 0)"/>
        <path id="Path_991251" data-name="Path 991251" d="M430.429,343.12a1.157,1.157,0,1,0,.818-.339A1.165,1.165,0,0,0,430.429,343.12Zm0,0" transform="translate(-380.333 -302.682)"/>
      </g>
    </g>
  </g>
</svg>
