<svg xmlns="http://www.w3.org/2000/svg" xmlns:xlink="http://www.w3.org/1999/xlink" width="108" height="108" viewBox="0 0 108 108">
  <defs>
    <filter id="Path_982538" x="0" y="0" width="108" height="108" filterUnits="userSpaceOnUse">
      <feOffset dy="3" input="SourceAlpha"/>
      <feGaussianBlur stdDeviation="3" result="blur"/>
      <feFlood flood-opacity="0.161"/>
      <feComposite operator="in" in2="blur"/>
      <feComposite in="SourceGraphic"/>
    </filter>
  </defs>
  <g id="Group_1156455" data-name="Group 1156455" transform="translate(-201 -4391)">
    <g id="Group_1154945" data-name="Group 1154945">
      <g id="Group_1154235" data-name="Group 1154235" transform="translate(-416 -5191)">
        <g id="Group_1149573" data-name="Group 1149573" transform="translate(416 5416.88)">
          <g id="Group_1146955" data-name="Group 1146955" transform="translate(0 1196.12)">
            <g transform="matrix(1, 0, 0, 1, 201, 2969)" filter="url(#Path_982538)">
              <g id="Path_982538-2" data-name="Path 982538" transform="translate(9 6)" fill="#fdeffe">
                <path d="M 45 88.5 C 39.12687683105469 88.5 33.43022537231445 87.35007476806641 28.06830024719238 85.08217620849609 C 22.88852500915527 82.89131164550781 18.23629951477051 79.75458526611328 14.2408504486084 75.75914764404297 C 10.24541282653809 71.76370239257812 7.108687400817871 67.11147308349609 4.917825222015381 61.93170166015625 C 2.649924993515015 56.56977462768555 1.5 50.87312316894531 1.5 45 C 1.5 39.12687683105469 2.649924993515015 33.43022537231445 4.917825222015381 28.06830024719238 C 7.108687400817871 22.88852500915527 10.24541282653809 18.23629951477051 14.2408504486084 14.2408504486084 C 18.23629951477051 10.24541282653809 22.88852500915527 7.108687400817871 28.06830024719238 4.917825222015381 C 33.43022537231445 2.649924993515015 39.12687683105469 1.5 45 1.5 C 50.87312316894531 1.5 56.56977462768555 2.649924993515015 61.93170166015625 4.917825222015381 C 67.11147308349609 7.108687400817871 71.76370239257812 10.24541282653809 75.75914764404297 14.2408504486084 C 79.75458526611328 18.23629951477051 82.89131164550781 22.88852500915527 85.08217620849609 28.06830024719238 C 87.35007476806641 33.43022537231445 88.5 39.12687683105469 88.5 45 C 88.5 50.87312316894531 87.35007476806641 56.56977462768555 85.08217620849609 61.93170166015625 C 82.89131164550781 67.11147308349609 79.75458526611328 71.76370239257812 75.75914764404297 75.75914764404297 C 71.76370239257812 79.75458526611328 67.11147308349609 82.89131164550781 61.93170166015625 85.08217620849609 C 56.56977462768555 87.35007476806641 50.87312316894531 88.5 45 88.5 Z" stroke="none"/>
                <path d="M 45 3 C 39.32871246337891 3 33.82865524291992 4.110054016113281 28.65262985229492 6.299339294433594 C 23.65165710449219 8.414573669433594 19.15968322753906 11.44334411621094 15.301513671875 15.301513671875 C 11.44334411621094 19.15968322753906 8.414573669433594 23.65165710449219 6.299339294433594 28.65262985229492 C 4.110054016113281 33.82865524291992 3 39.32871246337891 3 45 C 3 50.67128753662109 4.110054016113281 56.17134475708008 6.299339294433594 61.34737396240234 C 8.414573669433594 66.34834289550781 11.44334411621094 70.84031677246094 15.301513671875 74.698486328125 C 19.15968322753906 78.55665588378906 23.65165710449219 81.58542633056641 28.65262985229492 83.70066070556641 C 33.82865524291992 85.88994598388672 39.32871246337891 87 45 87 C 50.67128753662109 87 56.17134475708008 85.88994598388672 61.34737396240234 83.70066070556641 C 66.34834289550781 81.58542633056641 70.84031677246094 78.55665588378906 74.698486328125 74.698486328125 C 78.55665588378906 70.84031677246094 81.58542633056641 66.34834289550781 83.70066070556641 61.34737396240234 C 85.88994598388672 56.17134475708008 87 50.67128753662109 87 45 C 87 39.32871246337891 85.88994598388672 33.82865524291992 83.70066070556641 28.65262985229492 C 81.58542633056641 23.65165710449219 78.55665588378906 19.15968322753906 74.698486328125 15.301513671875 C 70.84031677246094 11.44334411621094 66.34834289550781 8.414573669433594 61.34737396240234 6.299339294433594 C 56.17134475708008 4.110054016113281 50.67128753662109 3 45 3 M 45 0 C 69.85281372070312 0 90 20.14718627929688 90 45 C 90 69.85281372070312 69.85281372070312 90 45 90 C 20.14718627929688 90 0 69.85281372070312 0 45 C 0 20.14718627929688 20.14718627929688 0 45 0 Z" stroke="none" fill="#ee70f7"/>
              </g>
            </g>
          </g>
        </g>
      </g>
      <g id="kpi" transform="translate(225.5 4411.75)">
        <g id="Group_1154940" data-name="Group 1154940" transform="translate(15.141 2.805)">
          <g id="Group_1154939" data-name="Group 1154939" transform="translate(0 0)">
            <g id="Group_1154938" data-name="Group 1154938" transform="translate(5.067 6.836)">
              <path id="Path_991982" data-name="Path 991982" d="M88.559,52.475H87.78a1.923,1.923,0,1,1,0-3.846h.676v2.682A6.221,6.221,0,0,0,88.559,52.475Z" transform="translate(-85.856 -45.734)" fill="#ffb69f"/>
              <path id="Path_991983" data-name="Path 991983" d="M160.091,50.553a1.921,1.921,0,0,1-1.922,1.922h-.779a6.249,6.249,0,0,0,.1-1.164V48.629h.676A1.922,1.922,0,0,1,160.091,50.553Z" transform="translate(-141.526 -45.734)" fill="#ffb69f"/>
              <path id="Path_991984" data-name="Path 991984" d="M110.949,35.576v5.577a6.249,6.249,0,0,1-.1,1.164,6.682,6.682,0,0,1-13.161,0,6.185,6.185,0,0,1-.1-1.164V35.576Z" transform="translate(-94.982 -35.576)" fill="#ffb69f"/>
            </g>
            <path id="Path_991985" data-name="Path 991985" d="M111.287,5.578l-1.21-.828a2.294,2.294,0,0,1-2.253,1.867h-7.211a3.035,3.035,0,0,0-3.034,3.034v1.936h13.368l.836-.849a3.38,3.38,0,0,0-.5-5.16Z" transform="translate(-89.912 -4.75)" fill="#7c7b7a"/>
            <path id="Path_991986" data-name="Path 991986" d="M100.26,35.578,97.578,39.36V35.578Z" transform="translate(-89.912 -28.741)" fill="#afafaf"/>
            <path id="Path_991987" data-name="Path 991987" d="M148.433,35.578V39.36l-2.685-3.782Z" transform="translate(-127.399 -28.741)" fill="#afafaf"/>
            <path id="Path_991988" data-name="Path 991988" d="M114.338,89.355a7.408,7.408,0,0,1-10.838,0l1.7-.515V85.884l7.345,0v2.961l1.794.515Z" transform="translate(-94.52 -67.888)" fill="#ffb69f"/>
            <path id="Path_991989" data-name="Path 991989" d="M91.838,108.52H63.01l.271-1.552.164-.94a3.258,3.258,0,0,1,2.264-2.566l6.278-1.912h0a7.408,7.408,0,0,0,10.838,0l6.442,1.958a3.253,3.253,0,0,1,2.133,2.519l.164.94Z" transform="translate(-63.01 -80.082)" fill="#72c3e9"/>
            <path id="Path_991990" data-name="Path 991990" d="M91.838,127.532H63.01l.271-1.552H91.568Z" transform="translate(-63.01 -99.095)" fill="#4ba5c8"/>
          </g>
        </g>
        <path id="Path_991991" data-name="Path 991991" d="M59,134.089V158.1a1.109,1.109,0,0,1-1.109,1.109H5.109A1.109,1.109,0,0,1,4,158.1V134.089a1.109,1.109,0,0,1,1.109-1.109H6.746v.836A1.551,1.551,0,0,0,8.3,135.368h4.879a1.553,1.553,0,0,0,1.552-1.552v-.836H48.27v.836a1.553,1.553,0,0,0,1.552,1.552H54.7a1.551,1.551,0,0,0,1.552-1.552v-.836h1.637A1.109,1.109,0,0,1,59,134.089Z" transform="translate(-1.946 -101.738)" fill="#efefef"/>
        <path id="Path_991992" data-name="Path 991992" d="M21.025,132.98v.836a2.887,2.887,0,0,1-2.883,2.883H13.263a2.886,2.886,0,0,1-2.883-2.883v-.836h1.331v.836a1.551,1.551,0,0,0,1.552,1.552h4.879a1.553,1.553,0,0,0,1.552-1.552v-.836Z" transform="translate(-6.911 -101.738)" fill="#afafaf"/>
        <path id="Path_991993" data-name="Path 991993" d="M208.265,132.98v.836a2.886,2.886,0,0,1-2.883,2.883H200.5a2.887,2.887,0,0,1-2.883-2.883v-.836h1.331v.836a1.553,1.553,0,0,0,1.552,1.552h4.879a1.551,1.551,0,0,0,1.552-1.552v-.836Z" transform="translate(-152.626 -101.738)" fill="#afafaf"/>
        <path id="Path_991994" data-name="Path 991994" d="M53.938,174.44a1.331,1.331,0,0,1-1.331,1.331H23.331A1.331,1.331,0,0,1,22,174.44V160.331a1.331,1.331,0,1,1,2.661,0v12.779H52.608A1.331,1.331,0,0,1,53.938,174.44Z" transform="translate(-15.954 -121.987)" fill="#72c3e9"/>
        <path id="Path_991995" data-name="Path 991995" d="M92.111,186.563H87.38V177.4a1.109,1.109,0,0,1,1.109-1.109H91a1.109,1.109,0,0,1,1.109,1.109Z" transform="translate(-66.834 -135.441)" fill="#f0c020"/>
        <path id="Path_991996" data-name="Path 991996" d="M58.283,197.384H53.552V191.3a1.109,1.109,0,0,1,1.109-1.109h2.513a1.109,1.109,0,0,1,1.109,1.109Z" transform="translate(-40.508 -146.261)" fill="#fc5d3d"/>
        <path id="Path_991997" data-name="Path 991997" d="M125.939,177.584h-4.731V165.859a1.109,1.109,0,0,1,1.109-1.109h2.513a1.109,1.109,0,0,1,1.109,1.109Z" transform="translate(-93.16 -126.462)" fill="#13bf6d"/>
        <g id="Group_1154941" data-name="Group 1154941" transform="translate(4.8 28.029)">
          <path id="Path_991998" data-name="Path 991998" d="M211.6,120.042v2.5a1.551,1.551,0,0,1-1.552,1.552h-4.879a1.553,1.553,0,0,1-1.552-1.552v-2.5a1.554,1.554,0,0,1,1.552-1.552h4.879A1.553,1.553,0,0,1,211.6,120.042Z" transform="translate(-162.095 -118.49)" fill="#ffb69f"/>
          <path id="Path_991999" data-name="Path 991999" d="M24.364,120.042v2.5a1.553,1.553,0,0,1-1.552,1.552H17.932a1.551,1.551,0,0,1-1.552-1.552v-2.5a1.553,1.553,0,0,1,1.552-1.552h4.879A1.554,1.554,0,0,1,24.364,120.042Z" transform="translate(-16.38 -118.49)" fill="#ffb69f"/>
        </g>
        <g id="Group_1154942" data-name="Group 1154942" transform="translate(15.006 34.633)">
          <path id="Path_992000" data-name="Path 992000" d="M67.142,151.1c-.908-.3-1.846-.562-2.372-2.83-.485,2.089-1.262,2.463-2.372,2.83a3.15,3.15,0,0,1,2.372,2.83C65.266,151.789,66.087,151.446,67.142,151.1Z" transform="translate(-62.398 -148.268)" fill="#f0c020"/>
        </g>
        <g id="Group_1154943" data-name="Group 1154943" transform="translate(38.266 44.697)">
          <path id="Path_992001" data-name="Path 992001" d="M172.027,196.476c-.908-.3-1.846-.562-2.372-2.83-.485,2.089-1.262,2.463-2.372,2.83a3.15,3.15,0,0,1,2.372,2.83C170.151,197.167,170.972,196.824,172.027,196.476Z" transform="translate(-167.283 -193.646)" fill="#f0c020"/>
        </g>
        <path id="Path_992002" data-name="Path 992002" d="M62.062,171.143H61.046a.554.554,0,0,1,0-1.109h1.016a.554.554,0,0,1,0,1.109Zm-3.234,0H11.054a.554.554,0,0,1-.554-.554V150.721a.554.554,0,0,1,1.109,0v19.313H58.828a.554.554,0,1,1,0,1.109Z" transform="translate(-7.004 -115.113)" fill="#fff"/>
        <path id="Path_992003" data-name="Path 992003" d="M99.054,192.341a.554.554,0,0,1-.554-.554v-5.571a.554.554,0,1,1,1.109,0v5.571A.554.554,0,0,1,99.054,192.341Zm0-7.789A.554.554,0,0,1,98.5,184v-.444a.554.554,0,1,1,1.109,0V184A.554.554,0,0,1,99.054,184.552Z" transform="translate(-75.488 -140.664)" fill="#f8e5b0"/>
        <path id="Path_992004" data-name="Path 992004" d="M65.721,203.2a.554.554,0,0,1-.554-.554V200.17a.554.554,0,0,1,1.109,0v2.476A.554.554,0,0,1,65.721,203.2Zm0-4.694a.554.554,0,0,1-.554-.554v-.444a.554.554,0,1,1,1.109,0v.444A.554.554,0,0,1,65.721,198.506Z" transform="translate(-49.547 -151.524)" fill="#ffcbc3"/>
        <path id="Path_992005" data-name="Path 992005" d="M133.221,184.559a.554.554,0,0,1-.554-.554v-7.789a.554.554,0,1,1,1.109,0V184A.554.554,0,0,1,133.221,184.559Zm0-10.006a.554.554,0,0,1-.554-.554v-.444a.554.554,0,0,1,1.109,0V174A.554.554,0,0,1,133.221,174.552Z" transform="translate(-102.078 -132.882)" fill="#76ffbb"/>
        <path id="Path_992006" data-name="Path 992006" d="M116.472,68.656a2.636,2.636,0,0,0,4.934,0,.557.557,0,0,0-.326-.714.566.566,0,0,0-.714.326,1.525,1.525,0,0,1-2.854,0,.566.566,0,0,0-.712-.326.554.554,0,0,0-.328.71Z" transform="translate(-89.448 -51.099)"/>
        <path id="Path_992007" data-name="Path 992007" d="M112.3,49.434V49.04a.554.554,0,1,0-1.109,0v.393a.554.554,0,1,0,1.109,0Z" transform="translate(-85.362 -35.982)"/>
        <path id="Path_992008" data-name="Path 992008" d="M139.792,49.988a.554.554,0,0,0,.554-.554V49.04a.554.554,0,1,0-1.109,0v.393A.554.554,0,0,0,139.792,49.988Z" transform="translate(-107.191 -35.982)"/>
        <path id="Path_992009" data-name="Path 992009" d="M125.767,53.164a.554.554,0,0,0,.554-.554v-1.8a.554.554,0,1,0-1.109,0v1.8A.554.554,0,0,0,125.767,53.164Z" transform="translate(-96.277 -37.363)"/>
        <path id="Path_992010" data-name="Path 992010" d="M122.2,11.224a.554.554,0,1,0,.554-.554A.554.554,0,0,0,122.2,11.224Z" transform="translate(-93.932 -6.553)"/>
        <path id="Path_992011" data-name="Path 992011" d="M62.075,125.224a.555.555,0,1,0-.452-.643A.555.555,0,0,0,62.075,125.224Z" transform="translate(-46.783 -94.844)"/>
        <path id="Path_992012" data-name="Path 992012" d="M172.323,170.137a.554.554,0,0,0-.554-.554h-9.684a.555.555,0,0,0-.257.063l-6.641,3.475a.554.554,0,1,0,.514.982l6.52-3.411h9.548A.554.554,0,0,0,172.323,170.137Z" transform="translate(-119.372 -130.223)"/>
        <path id="Path_992013" data-name="Path 992013" d="M200.908,181.917h-8.021a.554.554,0,1,0,0,1.109h8.021a.554.554,0,1,0,0-1.109Z" transform="translate(-148.511 -139.822)"/>
        <path id="Path_992014" data-name="Path 992014" d="M200.908,194.25h-8.021a.554.554,0,0,0,0,1.109h8.021a.554.554,0,0,0,0-1.109Z" transform="translate(-148.511 -149.42)"/>
        <path id="Path_992015" data-name="Path 992015" d="M192.887,226.359h8.021a.554.554,0,1,0,0-1.109h-8.021a.554.554,0,1,0,0,1.109Z" transform="translate(-148.511 -173.545)"/>
        <circle id="Ellipse_11686" data-name="Ellipse 11686" cx="0.554" cy="0.554" r="0.554" transform="translate(46.821 56.917)"/>
        <path id="Path_992016" data-name="Path 992016" d="M21.385,156.5a1.887,1.887,0,0,0-1.885,1.885v14.109a1.887,1.887,0,0,0,1.885,1.885H50.662a1.885,1.885,0,0,0,0-3.77H47.342V159.438a1.665,1.665,0,0,0-1.663-1.663H43.165a1.665,1.665,0,0,0-1.663,1.663v11.171H39.839V162a1.665,1.665,0,0,0-1.663-1.663H35.663A1.665,1.665,0,0,0,34,162v8.612H32.337v-5.528a1.665,1.665,0,0,0-1.663-1.663H28.161a1.665,1.665,0,0,0-1.663,1.663v5.528H23.27V158.385a1.887,1.887,0,0,0-1.885-1.885Zm21.225,2.938a.555.555,0,0,1,.554-.554h2.513a.555.555,0,0,1,.554.554v11.171H42.61ZM35.108,162a.555.555,0,0,1,.554-.554h2.513a.555.555,0,0,1,.554.554v8.612H35.108Zm-7.5,3.084a.555.555,0,0,1,.554-.554h2.513a.555.555,0,0,1,.554.554v5.528H27.606Zm23.056,6.637a.776.776,0,1,1,0,1.552H21.385a.777.777,0,0,1-.776-.776V158.385a.776.776,0,1,1,1.552,0v12.779a.554.554,0,0,0,.554.554Z" transform="translate(-14.008 -120.041)"/>
        <path id="Path_992017" data-name="Path 992017" d="M62.289,152.108a.555.555,0,0,0,1.08,0c.444-1.913,1.1-2.129,2.006-2.429a.555.555,0,0,0,0-1.053c-.868-.287-1.551-.47-2.006-2.429a.554.554,0,0,0-1.08,0c-.444,1.913-1.1,2.129-2.006,2.429a.555.555,0,0,0,0,1.053C61.845,150.195,62.022,150.956,62.289,152.108Zm.542-4.122a3.088,3.088,0,0,0,1.011,1.173,3,3,0,0,0-1,1.132,3.136,3.136,0,0,0-1.057-1.125A3.006,3.006,0,0,0,62.831,147.985Z" transform="translate(-45.451 -111.69)"/>
        <path id="Path_992018" data-name="Path 992018" d="M167.174,197.486a.555.555,0,0,0,1.08,0c.444-1.913,1.1-2.129,2.006-2.429a.555.555,0,0,0,0-1.053c-.868-.287-1.551-.47-2.006-2.429a.554.554,0,0,0-1.08,0c-.444,1.913-1.1,2.129-2.006,2.429a.555.555,0,0,0,0,1.053c1.562.516,1.738,1.277,2.006,2.429Zm.542-4.122a3.088,3.088,0,0,0,1.012,1.173,3,3,0,0,0-1,1.132,3.136,3.136,0,0,0-1.057-1.125A3,3,0,0,0,167.716,193.363Z" transform="translate(-127.076 -147.004)"/>
        <g id="Group_1154944" data-name="Group 1154944" transform="translate(1.5 2.25)">
          <path id="Path_992019" data-name="Path 992019" d="M55.945,30.688H54.863V29.581a2.109,2.109,0,0,0-2.107-2.107H47.877a2.109,2.109,0,0,0-2.107,2.107v1.107H44.435l-.355-2.034a3.817,3.817,0,0,0-2.5-2.947c-7.9-2.4-5.91-1.806-7.866-2.366V21.088a7.2,7.2,0,0,0,2.805-4.152h.328a2.477,2.477,0,0,0,0-4.954h-.12V9.866l.674-.683a3.934,3.934,0,0,0-.577-6.008L35.62,2.348a.554.554,0,0,0-.858.353,1.742,1.742,0,0,1-1.71,1.417H31.04a.554.554,0,0,0,0,1.109l2.011,0a2.832,2.832,0,0,0,2.537-1.552l.614.419A2.826,2.826,0,0,1,36.618,8.4l-.674.685H23.36l0-1.382a2.49,2.49,0,0,1,2.479-2.482H26.6a.553.553,0,1,0,0-1.107h-.763a3.59,3.59,0,0,0-3.588,3.588v4.276h-.122a2.477,2.477,0,0,0,0,4.954h.333a7.258,7.258,0,0,0,2.8,4.156v2.255s-.465.139-3.384,1.027a.555.555,0,0,0,.322,1.062l1.759-.537a7.922,7.922,0,0,0,5.56,2.282h.009A8,8,0,0,0,35.116,24.9l6.113,1.857a2.734,2.734,0,0,1,1.76,2.088l.321,1.843H15.8l.321-1.843a2.7,2.7,0,0,1,1.843-2.12.553.553,0,0,0,.359-.7.56.56,0,0,0-.7-.359,3.8,3.8,0,0,0-2.6,2.987l-.355,2.032H13.338V29.581a2.109,2.109,0,0,0-2.107-2.107H6.352a2.109,2.109,0,0,0-2.107,2.107v1.107H3.163A1.667,1.667,0,0,0,1.5,32.351V56.363a1.667,1.667,0,0,0,1.663,1.663H45.158a.554.554,0,1,0,0-1.109H3.163a.555.555,0,0,1-.554-.554V32.351a.555.555,0,0,1,.554-.554H4.246v.282a2.109,2.109,0,0,0,2.107,2.107h4.879a2.109,2.109,0,0,0,2.107-2.107V31.8H45.77v.282a2.109,2.109,0,0,0,2.107,2.107h4.879a2.109,2.109,0,0,0,2.107-2.107V31.8h1.082a.555.555,0,0,1,.554.554V56.363a.555.555,0,0,1-.554.554H49.594a.554.554,0,0,0,0,1.109h6.352a1.667,1.667,0,0,0,1.663-1.663V32.351a1.667,1.667,0,0,0-1.663-1.663ZM36.729,15.217v-1.79s0-.332,0-.337h.12a1.368,1.368,0,1,1,0,2.737H36.7c.014-.057.024-.543.024-.61Zm-14.451.61h-.146a1.368,1.368,0,0,1,0-2.737h.122v2.127c0,.285.024.606.024.61ZM12.229,32.079a1,1,0,0,1-1,1h-.583V30.992a.554.554,0,1,0-1.109,0v2.085H8.04V30.992a.553.553,0,1,0-1.107,0v2.085H6.352a1,1,0,0,1-1-1v-2.5a1,1,0,0,1,1-1h4.879a1,1,0,0,1,1,1ZM35.62,10.2v1.488L34.564,10.2Zm-12.257,0h1.053l-1.053,1.486Zm0,5.021V13.6l2.413-3.4H33.2l2.415,3.4v1.619a6.129,6.129,0,1,1-12.257,0Zm2.617,9.07a.554.554,0,0,0,.393-.53v-2a7.215,7.215,0,0,0,6.236,0v2.007a.556.556,0,0,0,.4.532l.847.244a6.875,6.875,0,0,1-4.333,1.539h0A6.8,6.8,0,0,1,25.2,24.525Zm27.775,7.791a1,1,0,0,1-1,1h-.581V30.992a.554.554,0,1,0-1.109,0v2.085h-1.5V30.992a.554.554,0,0,0-1.109,0v2.085h-.583a1,1,0,0,1-1-1v-2.5a1,1,0,0,1,1-1h4.879a1,1,0,0,1,1,1Z" transform="translate(-1.5 -2.25)"/>
          <path id="Path_992020" data-name="Path 992020" d="M82.759,105.9a.555.555,0,1,0-.692-.37A.556.556,0,0,0,82.759,105.9Z" transform="translate(-64.181 -82.068)"/>
        </g>
      </g>
    </g>
  </g>
</svg>
