<svg xmlns="http://www.w3.org/2000/svg" xmlns:xlink="http://www.w3.org/1999/xlink" width="113" height="113" viewBox="0 0 113 113">
  <defs>
    <filter id="Path_982547" x="0" y="0" width="113" height="113" filterUnits="userSpaceOnUse">
      <feOffset dy="3" input="SourceAlpha"/>
      <feGaussianBlur stdDeviation="3" result="blur"/>
      <feFlood flood-opacity="0.161"/>
      <feComposite operator="in" in2="blur"/>
      <feComposite in="SourceGraphic"/>
    </filter>
  </defs>
  <g id="Group_1156458" data-name="Group 1156458" transform="translate(-323.623 -796.993)">
    <g id="Group_1155420" data-name="Group 1155420" transform="translate(0 -35.007)">
      <g id="Group_1154222" data-name="Group 1154222" transform="translate(-0.377 -2287.496)">
        <g id="Group_1149518" data-name="Group 1149518" transform="translate(0 -584.682)">
          <g id="Group_1147086" data-name="Group 1147086" transform="translate(333 3710.178)">
            <g transform="matrix(1, 0, 0, 1, -9, -6)" filter="url(#Path_982547)">
              <g id="Path_982547-2" data-name="Path 982547" transform="translate(9 6)" fill="#eaf4fb">
                <path d="M 47.5 93.5 C 41.28937149047852 93.5 35.26533508300781 92.28397369384766 29.59518623352051 89.88570404052734 C 24.11771965026855 87.56893157958984 19.19813346862793 84.25196075439453 14.97309303283691 80.02691650390625 C 10.74804019927979 75.80186462402344 7.431066513061523 70.88229370117188 5.114293098449707 65.40481567382812 C 2.716026782989502 59.73468017578125 1.5 53.71062850952148 1.5 47.5 C 1.5 41.28937149047852 2.716026782989502 35.26533508300781 5.114293098449707 29.59518623352051 C 7.431066513061523 24.11771965026855 10.74804019927979 19.19813346862793 14.97309303283691 14.97309303283691 C 19.19813346862793 10.74804019927979 24.11771965026855 7.431066513061523 29.59518623352051 5.114293098449707 C 35.26533508300781 2.716026782989502 41.28937149047852 1.5 47.5 1.5 C 53.71062850952148 1.5 59.73468017578125 2.716026782989502 65.40481567382812 5.114293098449707 C 70.88229370117188 7.431066513061523 75.80186462402344 10.74804019927979 80.02691650390625 14.97309303283691 C 84.25196075439453 19.19813346862793 87.56893157958984 24.11771965026855 89.88570404052734 29.59518623352051 C 92.28397369384766 35.26533508300781 93.5 41.28937149047852 93.5 47.5 C 93.5 53.71062850952148 92.28397369384766 59.73468017578125 89.88570404052734 65.40481567382812 C 87.56893157958984 70.88229370117188 84.25196075439453 75.80186462402344 80.02691650390625 80.02691650390625 C 75.80186462402344 84.25196075439453 70.88229370117188 87.56893157958984 65.40481567382812 89.88570404052734 C 59.73468017578125 92.28397369384766 53.71062850952148 93.5 47.5 93.5 Z" stroke="none"/>
                <path d="M 47.5 3 C 41.49121475219727 3 35.66376876831055 4.176155090332031 30.17950439453125 6.495796203613281 C 24.88084411621094 8.736953735351562 20.12152099609375 11.94598388671875 16.03375244140625 16.03375244140625 C 11.94598388671875 20.12152099609375 8.736953735351562 24.88084411621094 6.495796203613281 30.17950439453125 C 4.176155090332031 35.66376876831055 3 41.49121475219727 3 47.5 C 3 53.50878524780273 4.176155090332031 59.33623123168945 6.495796203613281 64.82049560546875 C 8.736953735351562 70.11915588378906 11.94598388671875 74.87847900390625 16.03375244140625 78.96624755859375 C 20.12152099609375 83.05401611328125 24.88084411621094 86.26304626464844 30.17950439453125 88.50419616699219 C 35.66376876831055 90.82384490966797 41.49121475219727 92 47.5 92 C 53.50878524780273 92 59.33623123168945 90.82384490966797 64.82049560546875 88.50419616699219 C 70.11915588378906 86.26304626464844 74.87847900390625 83.05401611328125 78.96624755859375 78.96624755859375 C 83.05401611328125 74.87847900390625 86.26304626464844 70.11915588378906 88.50419616699219 64.82049560546875 C 90.82384490966797 59.33623123168945 92 53.50878524780273 92 47.5 C 92 41.49121475219727 90.82384490966797 35.66376876831055 88.50419616699219 30.17950439453125 C 86.26304626464844 24.88084411621094 83.05401611328125 20.12152099609375 78.96624755859375 16.03375244140625 C 74.87847900390625 11.94598388671875 70.11915588378906 8.736953735351562 64.82049560546875 6.495796203613281 C 59.33623123168945 4.176155090332031 53.50878524780273 3 47.5 3 M 47.5 0 C 73.7335205078125 0 95 21.2664794921875 95 47.5 C 95 73.7335205078125 73.7335205078125 95 47.5 95 C 21.2664794921875 95 0 73.7335205078125 0 47.5 C 0 21.2664794921875 21.2664794921875 0 47.5 0 Z" stroke="none" fill="#ee70f7"/>
              </g>
            </g>
          </g>
        </g>
      </g>
      <g id="las-tendencias-del-mercado" transform="translate(350.623 855.991)">
        <g id="Group_1155418" data-name="Group 1155418" transform="translate(1.925 1.925)">
          <g id="Group_1155404" data-name="Group 1155404" transform="translate(13.868 36.981)">
            <path id="Path_993074" data-name="Path 993074" d="M17,42h5.547V60.491H17Z" transform="translate(-17 -42)" fill="#ff826e"/>
          </g>
          <g id="Group_1155405" data-name="Group 1155405" transform="translate(2.774 44.378)">
            <path id="Path_993075" data-name="Path 993075" d="M5,50h5.547V61.094H5Z" transform="translate(-5 -50)" fill="#ff826e"/>
          </g>
          <g id="Group_1155406" data-name="Group 1155406" transform="translate(36.057 42.529)">
            <path id="Path_993076" data-name="Path 993076" d="M41,48h5.547V60.943H41Z" transform="translate(-41 -48)" fill="#ff826e"/>
          </g>
          <g id="Group_1155407" data-name="Group 1155407" transform="translate(24.962 36.981)">
            <path id="Path_993077" data-name="Path 993077" d="M29,42h5.547V60.491H29Z" transform="translate(-29 -42)" fill="#ff826e"/>
          </g>
          <g id="Group_1155408" data-name="Group 1155408" transform="translate(47.151 20.34)">
            <path id="Path_993078" data-name="Path 993078" d="M53,24h5.547V59.132H53Z" transform="translate(-53 -24)" fill="#ff826e"/>
          </g>
          <g id="Group_1155409" data-name="Group 1155409" transform="translate(0 29.585)">
            <path id="Path_993079" data-name="Path 993079" d="M12.808,37.791A5.547,5.547,0,1,1,7.547,34a5.551,5.551,0,0,1,5.261,3.791Z" transform="translate(-2 -34)" fill="#ffc729"/>
          </g>
          <g id="Group_1155410" data-name="Group 1155410" transform="translate(33.283 27.736)">
            <path id="Path_993080" data-name="Path 993080" d="M45.535,32.37A5.547,5.547,0,1,1,38,37.547a5.7,5.7,0,0,1,.129-1.2A5.56,5.56,0,0,1,43.547,32,5.463,5.463,0,0,1,45.535,32.37Z" transform="translate(-38 -32)" fill="#ffc729"/>
          </g>
          <g id="Group_1155411" data-name="Group 1155411" transform="translate(40.911 1.849)">
            <path id="Path_993081" data-name="Path 993081" d="M53.415,4a7.4,7.4,0,1,1-7.165,9.245H49.7a1.571,1.571,0,0,0,.472-.065,3.7,3.7,0,1,0,0-3.569,1.571,1.571,0,0,0-.472-.065H46.25A7.4,7.4,0,0,1,53.415,4Z" transform="translate(-46.25 -4)" fill="#ffc729"/>
          </g>
          <g id="Group_1155412" data-name="Group 1155412" transform="translate(18.491 25.887)">
            <path id="Path_993082" data-name="Path 993082" d="M25.7,30a3.7,3.7,0,0,1,3.7,3.7,3.3,3.3,0,0,1-.092.8,3.692,3.692,0,0,1-7.11.361A3.5,3.5,0,0,1,22,33.7,3.7,3.7,0,0,1,25.7,30Z" transform="translate(-22 -30)" fill="#fcd770"/>
          </g>
          <g id="Group_1155413" data-name="Group 1155413" transform="translate(3.698 33.283)">
            <circle id="Ellipse_11704" data-name="Ellipse 11704" cx="1.849" cy="1.849" r="1.849" fill="#fcd770"/>
          </g>
          <g id="Group_1155414" data-name="Group 1155414" transform="translate(36.981 31.434)">
            <circle id="Ellipse_11705" data-name="Ellipse 11705" cx="1.849" cy="1.849" r="1.849" fill="#fcd770"/>
          </g>
          <g id="Group_1155415" data-name="Group 1155415" transform="translate(44.831 5.547)">
            <path id="Path_993083" data-name="Path 993083" d="M53.735,8a3.7,3.7,0,1,1-3.245,5.482A1.753,1.753,0,0,0,51.322,13a1.808,1.808,0,0,0,.545-1.3A1.853,1.853,0,0,0,50.49,9.914,3.722,3.722,0,0,1,53.735,8Z" transform="translate(-50.49 -8)" fill="#fcd770"/>
          </g>
          <g id="Group_1155416" data-name="Group 1155416" transform="translate(4.623 0.925)">
            <path id="Path_993084" data-name="Path 993084" d="M18.085,21.491,7,25.189V3L18.076,6.7h.018V21.491Z" transform="translate(-7 -3)" fill="#4fc1e9"/>
          </g>
          <g id="Group_1155417" data-name="Group 1155417" transform="translate(15.708)">
            <path id="Path_993085" data-name="Path 993085" d="M36.547,13.094A1.855,1.855,0,0,1,38.4,14.943a1.863,1.863,0,0,1-1.849,1.849A1.855,1.855,0,0,1,38.4,18.642a1.863,1.863,0,0,1-1.849,1.849H34.7a1.855,1.855,0,0,1,1.849,1.849A1.863,1.863,0,0,1,34.7,24.189H24.528A5.54,5.54,0,0,1,21.2,23.079l-2.21-1.664H19V6.623H18.99L23.4,4.432a5.447,5.447,0,0,1,2.469-.582h3.8a5.893,5.893,0,0,0,2.6-.61L34.42,2.157A1.5,1.5,0,0,1,36.584,3.5v.083A5.808,5.808,0,0,1,30.769,9.4H47.641a1.571,1.571,0,0,1,.472.065,1.853,1.853,0,0,1,1.378,1.784,1.808,1.808,0,0,1-.545,1.3,1.753,1.753,0,0,1-.832.481,1.571,1.571,0,0,1-.472.065H36.547Z" transform="translate(-18.99 -2)" fill="#f0d0b4"/>
          </g>
        </g>
        <g id="Group_1155419" data-name="Group 1155419" transform="translate(1 1.009)">
          <path id="Path_993086" data-name="Path 993086" d="M50,2.85A8.319,8.319,0,0,0,42.153,8.4H34.026a6.828,6.828,0,0,0,2.125-4.974,2.4,2.4,0,0,0-.708-1.712,2.459,2.459,0,0,0-2.795-.454L30.494,2.335a4.922,4.922,0,0,1-2.186.515h-3.8a6.509,6.509,0,0,0-2.878.675L17.561,5.546,5.623,1.567V26.321l11.839-3.946,1.825,1.369a6.509,6.509,0,0,0,3.883,1.294h10.17a2.765,2.765,0,0,0,2.57-3.805,2.749,2.749,0,0,0,1.331-4.515,2.688,2.688,0,0,0,.551-2.774h4.361a8.309,8.309,0,0,0,4.017,4.61L42.19,28.9a6.438,6.438,0,0,0-7.479,4.015l-5.982-1.329c0-.027.007-.051.007-.078a4.623,4.623,0,0,0-9.245,0,4.476,4.476,0,0,0,.055.548l-6.3,2.1a6.577,6.577,0,1,0,.586,1.753l6.293-2.1a4.6,4.6,0,0,0,8.2-.419l5.983,1.329c-.012.161-.025.322-.025.485a6.472,6.472,0,1,0,9.633-5.642L47.9,19.22A8.321,8.321,0,1,0,50,2.85ZM7.472,41.68a4.623,4.623,0,1,1,4.623-4.623A4.628,4.628,0,0,1,7.472,41.68Zm16.642-7.4a2.774,2.774,0,1,1,2.774-2.774A2.777,2.777,0,0,1,24.113,34.284Zm21.264.925a4.623,4.623,0,1,1-4.623-4.623A4.628,4.628,0,0,1,45.378,35.208ZM16.717,20.674,7.472,23.756V4.132l9.245,3.081Zm19.4-5.805a.925.925,0,0,1-.925.925h-4.6v1.849h4.6a.925.925,0,0,1,0,1.849h-4.6V21.34h2.754a.925.925,0,0,1,0,1.849H23.169a4.653,4.653,0,0,1-2.775-.925l-1.829-1.372V7.111l3.887-1.93A4.662,4.662,0,0,1,24.51,4.7h3.8a6.775,6.775,0,0,0,3.013-.711l2.152-1.077a.58.58,0,0,1,.662.106.638.638,0,0,1,.167.493A4.893,4.893,0,0,1,29.415,8.4H25.981v1.849h20.3a.925.925,0,1,1,0,1.849h-15.7v1.849h4.6A.925.925,0,0,1,36.113,14.869ZM48.147,9.13a2.774,2.774,0,1,1,0,4.081,2.743,2.743,0,0,0,0-4.081ZM50,17.642a6.465,6.465,0,0,1-5.839-3.7h2.122l.018,0a4.623,4.623,0,1,0,0-5.544l-.019,0H44.161A6.469,6.469,0,1,1,50,17.642Z" transform="translate(-1 -1.009)"/>
          <path id="Path_993087" data-name="Path 993087" d="M7.774,37a2.774,2.774,0,1,0,2.774,2.774A2.777,2.777,0,0,0,7.774,37Zm0,3.7a.925.925,0,1,1,.925-.925A.925.925,0,0,1,7.774,40.7Z" transform="translate(-1.302 -3.725)"/>
          <path id="Path_993088" data-name="Path 993088" d="M41,37.774A2.774,2.774,0,1,0,43.774,35,2.777,2.777,0,0,0,41,37.774Zm3.7,0a.925.925,0,1,1-.925-.925A.925.925,0,0,1,44.7,37.774Z" transform="translate(-4.019 -3.574)"/>
          <path id="Path_993089" data-name="Path 993089" d="M48.378,58.132h-3.7V45.189h-7.4V58.132h-3.7V39.642h-7.4V58.132h-3.7V39.642h-7.4V58.132H11.4V47.038H4V59.981H55.774V23h-7.4Zm-38.83,0h-3.7V48.887h3.7ZM39.132,47.038h3.7V58.132h-3.7ZM28.038,41.491h3.7V58.132h-3.7Zm-11.094,0h3.7V58.132h-3.7ZM50.227,24.849h3.7V58.132h-3.7Z" transform="translate(-1.226 -2.668)"/>
        </g>
      </g>
    </g>
  </g>
</svg>
