<svg xmlns="http://www.w3.org/2000/svg" xmlns:xlink="http://www.w3.org/1999/xlink" width="110" height="110" viewBox="0 0 110 110">
  <defs>
    <filter id="Path_982547" x="0" y="0" width="110" height="110" filterUnits="userSpaceOnUse">
      <feOffset dy="3" input="SourceAlpha"/>
      <feGaussianBlur stdDeviation="3" result="blur"/>
      <feFlood flood-opacity="0.161"/>
      <feComposite operator="in" in2="blur"/>
      <feComposite in="SourceGraphic"/>
    </filter>
  </defs>
  <g id="Group_1156449" data-name="Group 1156449" transform="translate(-1082 -3531)">
    <g id="Group_1154722" data-name="Group 1154722">
      <g id="Group_1154217" data-name="Group 1154217" transform="translate(284 2633)">
        <g id="Group_1154212" data-name="Group 1154212" transform="translate(-236 -5809)">
          <g id="Group_1152583" data-name="Group 1152583" transform="translate(1043 6713)">
            <g id="Group_1146973" data-name="Group 1146973" transform="translate(0 0)">
              <g id="Group_1146954" data-name="Group 1146954">
                <g transform="matrix(1, 0, 0, 1, -9, -6)" filter="url(#Path_982547)">
                  <g id="Path_982547-2" data-name="Path 982547" transform="translate(9 6)" fill="#fdeffe">
                    <path d="M 46 90.49987030029297 C 39.99187850952148 90.49987030029297 34.16426849365234 89.32350921630859 28.67905426025391 87.00345611572266 C 23.38019943237305 84.76224517822266 18.62104034423828 81.55341339111328 14.53374671936035 77.46613311767578 C 10.44646644592285 73.37885284423828 7.237639904022217 68.61969757080078 4.996413230895996 63.32085418701172 C 2.676359891891479 57.83565521240234 1.5 52.008056640625 1.5 45.99993515014648 C 1.5 39.99181365966797 2.676359891891479 34.16421508789062 4.996413230895996 28.67901420593262 C 7.237639904022217 23.38017463684082 10.44646644592285 18.62101554870605 14.53374671936035 14.53373527526855 C 18.62104034423828 10.44645500183105 23.38019943237305 7.23762845993042 28.67905426025391 4.996415138244629 C 34.16426849365234 2.676361799240112 39.99187850952148 1.500001788139343 46 1.500001788139343 C 52.00812149047852 1.500001788139343 57.83573150634766 2.676361799240112 63.32094573974609 4.996415138244629 C 68.61979675292969 7.23762845993042 73.37895965576172 10.44645500183105 77.46625518798828 14.53373527526855 C 81.55353546142578 18.62101554870605 84.76235961914062 23.38017463684082 87.00358581542969 28.67901420593262 C 89.32363891601562 34.16421508789062 90.5 39.99181365966797 90.5 45.99993515014648 C 90.5 52.008056640625 89.32363891601562 57.83565521240234 87.00358581542969 63.32085418701172 C 84.76235961914062 68.61969757080078 81.55353546142578 73.37885284423828 77.46625518798828 77.46613311767578 C 73.37895965576172 81.55341339111328 68.61979675292969 84.76224517822266 63.32094573974609 87.00345611572266 C 57.83573150634766 89.32350921630859 52.00812149047852 90.49987030029297 46 90.49987030029297 Z" stroke="none"/>
                    <path d="M 46 2.999992370605469 C 40.1937141418457 2.999992370605469 34.56269836425781 4.136489868164062 29.26337051391602 6.377906799316406 C 24.14332580566406 8.543502807617188 19.54441070556641 11.64437866210938 15.59439849853516 15.59437561035156 C 11.64440155029297 19.54439544677734 8.54351806640625 24.14329528808594 6.377914428710938 29.26333618164062 C 4.136497497558594 34.56264877319336 3 40.19366455078125 3 45.99993515014648 C 3 51.80620574951172 4.136497497558594 57.43720626831055 6.377914428710938 62.73651885986328 C 8.54351806640625 67.8565673828125 11.64440155029297 72.45545959472656 15.59439849853516 76.40547943115234 C 19.54441070556641 80.35547637939453 24.14332580566406 83.45635223388672 29.26337051391602 85.6219482421875 C 34.56269836425781 87.86336517333984 40.1937141418457 88.99986267089844 46 88.99986267089844 C 51.8062858581543 88.99986267089844 57.43730163574219 87.86336517333984 62.73661422729492 85.6219482421875 C 67.85667419433594 83.45635223388672 72.45557403564453 80.35547637939453 76.40558624267578 76.40547943115234 C 80.35559844970703 72.45545959472656 83.45647430419922 67.8565673828125 85.6220703125 62.73651885986328 C 87.86350250244141 57.43720626831055 89 51.80620574951172 89 45.99993515014648 C 89 40.19366455078125 87.86350250244141 34.56264877319336 85.6220703125 29.26333618164062 C 83.45647430419922 24.14329528808594 80.35559844970703 19.54439544677734 76.40558624267578 15.59437561035156 C 72.45557403564453 11.64437866210938 67.85667419433594 8.543502807617188 62.73661422729492 6.377906799316406 C 57.43730163574219 4.136489868164062 51.8062858581543 2.999992370605469 46 2.999992370605469 M 46 -7.62939453125e-06 C 71.40509033203125 -7.62939453125e-06 92 20.59486389160156 92 45.99993515014648 C 92 71.40499114990234 71.40509033203125 91.99986267089844 46 91.99986267089844 C 20.59490203857422 91.99986267089844 0 71.40499114990234 0 45.99993515014648 C 0 20.59486389160156 20.59490203857422 -7.62939453125e-06 46 -7.62939453125e-06 Z" stroke="none" fill="#ee70f7"/>
                  </g>
                </g>
              </g>
            </g>
          </g>
        </g>
      </g>
      <g id="informacion-personal_1_" data-name="informacion-personal (1)" transform="translate(1110 3555)">
        <g id="Group_1154720" data-name="Group 1154720" transform="translate(0.887 0.887)">
          <g id="Group_1154708" data-name="Group 1154708" transform="translate(6.207)">
            <path id="Path_991252" data-name="Path 991252" d="M43.471,1V11.641h-.887V5.434a.889.889,0,0,0-.887-.887H8V1Z" transform="translate(-8 -1)" fill="#f0d0b4"/>
          </g>
          <g id="Group_1154709" data-name="Group 1154709" transform="translate(4.434 3.547)">
            <path id="Path_991253" data-name="Path 991253" d="M42.358,5.887v6.207H21.625a.889.889,0,0,1-.8-.488L19.55,9.035a.889.889,0,0,0-.8-.488H6V5H41.471a.889.889,0,0,1,.887.887Z" transform="translate(-6 -5)" fill="#e6e9ed"/>
          </g>
          <g id="Group_1154710" data-name="Group 1154710" transform="translate(0 19.509)">
            <path id="Path_991254" data-name="Path 991254" d="M1,55.811V23H38.245A8.859,8.859,0,0,0,34.7,30.094V36.63a10.494,10.494,0,0,0-1.774,5.879A10.631,10.631,0,0,0,45.339,53v2.811a.889.889,0,0,1-.887.887H1.887A.889.889,0,0,1,1,55.811Z" transform="translate(-1 -23)" fill="#e6e9ed"/>
          </g>
          <g id="Group_1154711" data-name="Group 1154711" transform="translate(0 7.094)">
            <path id="Path_991255" data-name="Path 991255" d="M45.339,13.434v6.385a8.888,8.888,0,0,0-7.094,1.6H1V9.887A.889.889,0,0,1,1.887,9h16.3a.889.889,0,0,1,.8.488l1.277,2.572a.889.889,0,0,0,.8.488H44.452a.889.889,0,0,1,.887.887Z" transform="translate(-1 -9)" fill="#5cd6b3"/>
          </g>
          <g id="Group_1154712" data-name="Group 1154712" transform="translate(12.415 23.056)">
            <path id="Path_991256" data-name="Path 991256" d="M18.547,39.415a4.437,4.437,0,0,0,2.51,4l-.736,2.208a4.849,4.849,0,0,0-2.093,1.383,1.857,1.857,0,0,0-.124.151,6.43,6.43,0,0,1-3.1-5.5V34.981a7.981,7.981,0,0,1,15.962,0v6.677a6.43,6.43,0,0,1-3.1,5.5,4.737,4.737,0,0,0-2.217-1.534l-.736-2.208,1.215-.86a4.453,4.453,0,0,0,1.295-3.139v-2.66a1.779,1.779,0,0,0-1.774-1.774H24.9a3.855,3.855,0,0,1-2.35-.8l-2.572.514a1.774,1.774,0,0,0-1.428,1.738Z" transform="translate(-15 -27)" fill="#b27946"/>
          </g>
          <g id="Group_1154713" data-name="Group 1154713" transform="translate(14.188 41.678)">
            <path id="Path_991257" data-name="Path 991257" d="M23.207,50.66,25.868,48a4.738,4.738,0,0,1,2.217,1.534,4.805,4.805,0,0,1,.993,2.1l.337,1.685H17l.337-1.685a4.805,4.805,0,0,1,.993-2.1,1.858,1.858,0,0,1,.124-.151A4.849,4.849,0,0,1,20.547,48Z" transform="translate(-17 -48)" fill="#ff826e"/>
          </g>
          <g id="Group_1154714" data-name="Group 1154714" transform="translate(17.735 39.47)">
            <path id="Path_991258" data-name="Path 991258" d="M21.736,45.51a4.478,4.478,0,0,0,3.849,0l.736,2.208-2.66,2.66L21,47.718Z" transform="translate(-21 -45.51)" fill="#f0d0b4"/>
          </g>
          <g id="Group_1154715" data-name="Group 1154715" transform="translate(15.962 30.239)">
            <path id="Path_991259" data-name="Path 991259" d="M26.573,43.471l-1.215.86a4.434,4.434,0,0,1-6.358-4v-2.98a1.774,1.774,0,0,1,1.428-1.738L23,35.1a3.855,3.855,0,0,0,2.35.8h.745a1.779,1.779,0,0,1,1.774,1.774v2.66A4.453,4.453,0,0,1,26.573,43.471Z" transform="translate(-19 -35.1)" fill="#f0d0b4"/>
          </g>
          <g id="Group_1154716" data-name="Group 1154716" transform="translate(33.697 17.735)">
            <path id="Path_991260" data-name="Path 991260" d="M56.735,29.868v6.527a10.809,10.809,0,0,0-3.547-3.334V29.868a5.329,5.329,0,0,0-5.321-5.321,5.325,5.325,0,0,0-5.321,5.321V33.06A10.577,10.577,0,0,0,39,36.4V29.868a8.868,8.868,0,0,1,17.735,0Z" transform="translate(-39 -21)" fill="#aab2bd"/>
          </g>
          <g id="Group_1154717" data-name="Group 1154717" transform="translate(31.924 28.377)">
            <path id="Path_991261" data-name="Path 991261" d="M52.962,34.419a10.809,10.809,0,0,1,3.547,3.334A10.643,10.643,0,1,1,37,43.641a10.651,10.651,0,0,1,15.962-9.222Z" transform="translate(-37 -33)" fill="#fcd770"/>
          </g>
          <g id="Group_1154718" data-name="Group 1154718" transform="translate(35.471 31.924)">
            <path id="Path_991262" data-name="Path 991262" d="M48.094,37A7.094,7.094,0,1,1,41,44.094,7.092,7.092,0,0,1,48.094,37Z" transform="translate(-41 -37)" fill="#ffeaa7"/>
          </g>
          <g id="Group_1154719" data-name="Group 1154719" transform="translate(40.792 35.471)">
            <ellipse id="Ellipse_11677" data-name="Ellipse 11677" cx="1.5" cy="2" rx="1.5" ry="2" transform="translate(0.322 -0.358)" fill="#5cd6b3"/>
          </g>
        </g>
        <g id="Group_1154721" data-name="Group 1154721">
          <path id="Path_991263" data-name="Path 991263" d="M48.66,40a2.654,2.654,0,0,0-.887,5.157v3.71h1.774v-3.71A2.654,2.654,0,0,0,48.66,40Zm0,3.547a.887.887,0,1,1,.887-.887A.888.888,0,0,1,48.66,43.547Z" transform="translate(-5.208 -4.529)"/>
          <path id="Path_991264" data-name="Path 991264" d="M47.981,36a7.981,7.981,0,1,0,7.981,7.981A7.99,7.99,0,0,0,47.981,36Zm0,14.188a6.207,6.207,0,1,1,6.207-6.207A6.215,6.215,0,0,1,47.981,50.188Z" transform="translate(-4.529 -4.076)"/>
          <path id="Path_991265" data-name="Path 991265" d="M54.98,40.358a11.437,11.437,0,0,0-1.774-6.115v-6.3a9.766,9.766,0,0,0-7.094-9.377v-5.7a1.775,1.775,0,0,0-1.774-1.774H42.565V5.774A1.775,1.775,0,0,0,40.792,4H5.321V5.774H40.792v5.321H20.944L19.661,8.527a1.765,1.765,0,0,0-1.586-.98H1.774A1.775,1.775,0,0,0,0,9.321V53.659a1.775,1.775,0,0,0,1.774,1.774H44.339a1.775,1.775,0,0,0,1.774-1.774v-2.1A11.541,11.541,0,0,0,54.98,40.358ZM51.433,27.943v4.116a11.574,11.574,0,0,0-1.774-1.4V27.943a6.207,6.207,0,0,0-12.415,0v2.716a11.574,11.574,0,0,0-1.774,1.4V27.943a7.981,7.981,0,1,1,15.962,0Zm-3.547,1.776a11.5,11.5,0,0,0-8.868,0V27.943a4.434,4.434,0,0,1,8.868,0ZM18.074,9.321l1.283,2.567a1.765,1.765,0,0,0,1.586.98H44.339v5.366c-.293-.027-.587-.045-.887-.045a9.693,9.693,0,0,0-5.591,1.774H1.774V9.321ZM44.339,53.659H1.774V21.735H35.933A9.709,9.709,0,0,0,33.7,27.943v6.3a11.506,11.506,0,0,0,9.755,17.643c.3,0,.593-.022.887-.045Zm-.887-3.547a9.755,9.755,0,1,1,9.755-9.755A9.766,9.766,0,0,1,43.452,50.112Z" transform="translate(0 -0.453)"/>
          <path id="Path_991266" data-name="Path 991266" d="M8,0H43.471V1.774H8Z" transform="translate(-0.906)"/>
          <path id="Path_991267" data-name="Path 991267" d="M6,14H7.774v3.547H6Z" transform="translate(-0.679 -1.585)"/>
          <path id="Path_991268" data-name="Path 991268" d="M10,14h1.774v3.547H10Z" transform="translate(-1.132 -1.585)"/>
          <path id="Path_991269" data-name="Path 991269" d="M14,14h1.774v3.547H14Z" transform="translate(-1.585 -1.585)"/>
          <path id="Path_991270" data-name="Path 991270" d="M4,56H7.547v1.774H4Z" transform="translate(-0.453 -6.341)"/>
          <path id="Path_991271" data-name="Path 991271" d="M10,56h3.547v1.774H10Z" transform="translate(-1.132 -6.341)"/>
          <path id="Path_991272" data-name="Path 991272" d="M4,52h8.868v1.774H4Z" transform="translate(-0.453 -5.888)"/>
          <path id="Path_991273" data-name="Path 991273" d="M4,48H5.774v1.774H4Z" transform="translate(-0.453 -5.435)"/>
          <path id="Path_991274" data-name="Path 991274" d="M8,48h5.321v1.774H8Z" transform="translate(-0.906 -5.435)"/>
          <path id="Path_991275" data-name="Path 991275" d="M23.406,40.92H22v1.774h1.406a3.888,3.888,0,0,0,2.769-1.147L24.92,40.293a2.126,2.126,0,0,1-1.514.627Z" transform="translate(-2.491 -4.562)"/>
          <path id="Path_991276" data-name="Path 991276" d="M22.868,26A8.878,8.878,0,0,0,14,34.868v6.676a7.346,7.346,0,0,0,2.775,5.727,5.684,5.684,0,0,0-.646,1.7l-.55,2.745H30.157l-.549-2.745a5.684,5.684,0,0,0-.646-1.7,7.345,7.345,0,0,0,2.774-5.727V34.868A8.878,8.878,0,0,0,22.868,26ZM17.742,49.943l.125-.623A3.959,3.959,0,0,1,20,46.552l2.87,2.871,2.871-2.871a3.957,3.957,0,0,1,2.13,2.768l.124.623Zm5.126-7.094A3.551,3.551,0,0,1,19.321,39.3v-2.98a.887.887,0,0,1,.713-.869l2.193-.439a4.778,4.778,0,0,0,2.558.74h.743a.888.888,0,0,1,.887.887V39.3A3.551,3.551,0,0,1,22.868,42.849Zm0,1.774a5.318,5.318,0,0,0,1.368-.184l.278.833-1.646,1.645L21.222,45.27l.278-.833A5.28,5.28,0,0,0,22.868,44.622Zm7.094-3.079a5.564,5.564,0,0,1-2.1,4.339,5.708,5.708,0,0,0-1.621-1.053L25.86,43.7a5.32,5.32,0,0,0,2.329-4.4v-2.66a2.664,2.664,0,0,0-2.66-2.66h-.743A3,3,0,0,1,22.7,33.14l-.005-.028-.02,0a3,3,0,0,1-.739-1.188l-1.682.561a4.8,4.8,0,0,0,.477,1.016l-1.044.208a2.667,2.667,0,0,0-2.14,2.609V39.3a5.319,5.319,0,0,0,2.33,4.4L19.5,44.83a5.689,5.689,0,0,0-1.621,1.053,5.562,5.562,0,0,1-2.105-4.339V34.868a7.094,7.094,0,1,1,14.188,0Z" transform="translate(-1.585 -2.944)"/>
        </g>
      </g>
    </g>
  </g>
</svg>
