<svg xmlns="http://www.w3.org/2000/svg" xmlns:xlink="http://www.w3.org/1999/xlink" width="113" height="113" viewBox="0 0 113 113">
  <defs>
    <filter id="Path_982547" x="0" y="0" width="113" height="113" filterUnits="userSpaceOnUse">
      <feOffset dy="3" input="SourceAlpha"/>
      <feGaussianBlur stdDeviation="3" result="blur"/>
      <feFlood flood-opacity="0.161"/>
      <feComposite operator="in" in2="blur"/>
      <feComposite in="SourceGraphic"/>
    </filter>
  </defs>
  <g id="Group_1156460" data-name="Group 1156460" transform="translate(-1163.623 -796.993)">
    <g id="Group_1155445" data-name="Group 1155445" transform="translate(0 -35.007)">
      <g id="Group_1154224" data-name="Group 1154224" transform="translate(-0.377 -2287.496)">
        <g id="Group_1149520" data-name="Group 1149520" transform="translate(0 -584.682)">
          <g id="Group_1147088" data-name="Group 1147088" transform="translate(1173 3710.178)">
            <g transform="matrix(1, 0, 0, 1, -9, -6)" filter="url(#Path_982547)">
              <g id="Path_982547-2" data-name="Path 982547" transform="translate(9 6)" fill="#fdeffe">
                <path d="M 47.5 93.5 C 41.28937149047852 93.5 35.26533508300781 92.28397369384766 29.59518623352051 89.88570404052734 C 24.11771965026855 87.56893157958984 19.19813346862793 84.25196075439453 14.97309303283691 80.02691650390625 C 10.74804019927979 75.80186462402344 7.431066513061523 70.88229370117188 5.114293098449707 65.40481567382812 C 2.716026782989502 59.73468017578125 1.5 53.71062850952148 1.5 47.5 C 1.5 41.28937149047852 2.716026782989502 35.26533508300781 5.114293098449707 29.59518623352051 C 7.431066513061523 24.11771965026855 10.74804019927979 19.19813346862793 14.97309303283691 14.97309303283691 C 19.19813346862793 10.74804019927979 24.11771965026855 7.431066513061523 29.59518623352051 5.114293098449707 C 35.26533508300781 2.716026782989502 41.28937149047852 1.5 47.5 1.5 C 53.71062850952148 1.5 59.73468017578125 2.716026782989502 65.40481567382812 5.114293098449707 C 70.88229370117188 7.431066513061523 75.80186462402344 10.74804019927979 80.02691650390625 14.97309303283691 C 84.25196075439453 19.19813346862793 87.56893157958984 24.11771965026855 89.88570404052734 29.59518623352051 C 92.28397369384766 35.26533508300781 93.5 41.28937149047852 93.5 47.5 C 93.5 53.71062850952148 92.28397369384766 59.73468017578125 89.88570404052734 65.40481567382812 C 87.56893157958984 70.88229370117188 84.25196075439453 75.80186462402344 80.02691650390625 80.02691650390625 C 75.80186462402344 84.25196075439453 70.88229370117188 87.56893157958984 65.40481567382812 89.88570404052734 C 59.73468017578125 92.28397369384766 53.71062850952148 93.5 47.5 93.5 Z" stroke="none"/>
                <path d="M 47.5 3 C 41.49121475219727 3 35.66376876831055 4.176155090332031 30.17950439453125 6.495796203613281 C 24.88084411621094 8.736953735351562 20.12152099609375 11.94598388671875 16.03375244140625 16.03375244140625 C 11.94598388671875 20.12152099609375 8.736953735351562 24.88084411621094 6.495796203613281 30.17950439453125 C 4.176155090332031 35.66376876831055 3 41.49121475219727 3 47.5 C 3 53.50878524780273 4.176155090332031 59.33623123168945 6.495796203613281 64.82049560546875 C 8.736953735351562 70.11915588378906 11.94598388671875 74.87847900390625 16.03375244140625 78.96624755859375 C 20.12152099609375 83.05401611328125 24.88084411621094 86.26304626464844 30.17950439453125 88.50419616699219 C 35.66376876831055 90.82384490966797 41.49121475219727 92 47.5 92 C 53.50878524780273 92 59.33623123168945 90.82384490966797 64.82049560546875 88.50419616699219 C 70.11915588378906 86.26304626464844 74.87847900390625 83.05401611328125 78.96624755859375 78.96624755859375 C 83.05401611328125 74.87847900390625 86.26304626464844 70.11915588378906 88.50419616699219 64.82049560546875 C 90.82384490966797 59.33623123168945 92 53.50878524780273 92 47.5 C 92 41.49121475219727 90.82384490966797 35.66376876831055 88.50419616699219 30.17950439453125 C 86.26304626464844 24.88084411621094 83.05401611328125 20.12152099609375 78.96624755859375 16.03375244140625 C 74.87847900390625 11.94598388671875 70.11915588378906 8.736953735351562 64.82049560546875 6.495796203613281 C 59.33623123168945 4.176155090332031 53.50878524780273 3 47.5 3 M 47.5 0 C 73.7335205078125 0 95 21.2664794921875 95 47.5 C 95 73.7335205078125 73.7335205078125 95 47.5 95 C 21.2664794921875 95 0 73.7335205078125 0 47.5 C 0 21.2664794921875 21.2664794921875 0 47.5 0 Z" stroke="none" fill="#ee70f7"/>
              </g>
            </g>
          </g>
        </g>
      </g>
      <g id="_03-medical_history" data-name="03-medical history" transform="translate(1191.623 857)">
        <path id="Path_993122" data-name="Path 993122" d="M55.333,1V42.931H48.2V32.225a3.569,3.569,0,0,0-3.569-3.569H25V1Z" transform="translate(-2.265 -0.108)" fill="#e7f7ff"/>
        <path id="Path_993123" data-name="Path 993123" d="M53.549,41.146H49.98V30.441a3.569,3.569,0,0,0-3.569-3.569H26.784V1H25V28.656H44.627A3.569,3.569,0,0,1,48.2,32.225V42.931h7.137V41.146Z" transform="translate(-2.265 -0.108)" fill="#dbf2fd"/>
        <path id="Path_993124" data-name="Path 993124" d="M54.137,48v9.814a3.569,3.569,0,0,1-3.569,3.569H47a3.569,3.569,0,0,0,3.569-3.569V48Z" transform="translate(-4.638 -5.177)" fill="#a37862"/>
        <path id="Path_993125" data-name="Path 993125" d="M52.353,57.814V48H50.569v9.814A3.569,3.569,0,0,1,47,61.382h1.784A3.569,3.569,0,0,0,52.353,57.814Z" transform="translate(-4.638 -5.177)" fill="#966857"/>
        <path id="Path_993126" data-name="Path 993126" d="M46.039,45.735v9.814a3.569,3.569,0,0,1-3.569,3.569H8.569A3.569,3.569,0,0,1,5,55.549V28.784A1.79,1.79,0,0,1,6.784,27H16.6a1.79,1.79,0,0,1,1.784,1.784v2.676H42.47a3.569,3.569,0,0,1,3.569,3.569ZM24.627,55.549V48.411H8.569v7.137Z" transform="translate(-0.108 -2.912)" fill="#bf947a"/>
        <path id="Path_993127" data-name="Path 993127" d="M27,51h1.784v7.137H27Z" transform="translate(-2.481 -5.501)" fill="#a37862"/>
        <path id="Path_993128" data-name="Path 993128" d="M6.784,55.549V28.784A1.79,1.79,0,0,1,8.569,27H6.784A1.79,1.79,0,0,0,5,28.784V55.549a3.569,3.569,0,0,0,3.569,3.569h1.784A3.569,3.569,0,0,1,6.784,55.549Z" transform="translate(-0.108 -2.912)" fill="#a37862"/>
        <path id="Path_993129" data-name="Path 993129" d="M9,51H25.059v7.137H9Z" transform="translate(-0.539 -5.501)" fill="#fff"/>
        <path id="Path_993130" data-name="Path 993130" d="M9,55H25.059v3.569H9Z" transform="translate(-0.539 -5.932)" fill="#dbf2fd"/>
        <path id="Path_993131" data-name="Path 993131" d="M21.488,21.274A104.648,104.648,0,0,0,18,8.784L24.245,7V29.3H22.461a42.282,42.282,0,0,0-.972-8.029Z" transform="translate(-1.51 -0.755)" fill="#7cb6d3"/>
        <path id="Path_993132" data-name="Path 993132" d="M23,7.509V29.3h1.784V7Z" transform="translate(-2.049 -0.755)" fill="#6796ae"/>
        <path id="Path_993133" data-name="Path 993133" d="M21.274,31.029H18.6V28.353a1.79,1.79,0,0,0-1.784-1.784H7V24.784A1.79,1.79,0,0,1,8.784,23H20.3a42.281,42.281,0,0,1,.972,8.029Z" transform="translate(-0.324 -2.481)" fill="#a37862"/>
        <path id="Path_993134" data-name="Path 993134" d="M20,30v1.784h2.676c0-.574-.027-1.172-.069-1.784Z" transform="translate(-1.726 -3.236)" fill="#966857"/>
        <path id="Path_993135" data-name="Path 993135" d="M18.6,26.784A1.79,1.79,0,0,0,16.814,25H7v1.784h9.814A1.79,1.79,0,0,1,18.6,28.569Z" transform="translate(-0.324 -2.696)" fill="#966857"/>
        <path id="Path_993136" data-name="Path 993136" d="M37.921,7.676v3.569H35.245v2.676H31.676V11.245H29V7.676h2.676V5h3.569V7.676Z" transform="translate(-2.696 -0.539)" fill="#fc6a78"/>
        <path id="Path_993137" data-name="Path 993137" d="M52.2,31.029H29V25.676h3.569L35.245,23,40.6,28.353l4.461-4.461H52.2Z" transform="translate(-2.696 -2.481)" fill="#1babb1"/>
        <path id="Path_993138" data-name="Path 993138" d="M52.2,19v4.461H45.059L40.6,27.921l-5.353-5.353-2.676,2.676H29V19Z" transform="translate(-2.696 -2.049)" fill="#94fde5"/>
        <path id="Path_993139" data-name="Path 993139" d="M46,7h1.784V8.784H46Z" transform="translate(-4.53 -0.755)" fill="#5b849a"/>
        <path id="Path_993140" data-name="Path 993140" d="M50,7h5.353V8.784H50Z" transform="translate(-4.961 -0.755)" fill="#5b849a"/>
        <path id="Path_993141" data-name="Path 993141" d="M46,11h8.921v1.784H46Z" transform="translate(-4.53 -1.186)" fill="#5b849a"/>
        <path id="Path_993142" data-name="Path 993142" d="M35.784,7.676V5H34v8.921h1.784V11.245h2.676V7.676Z" transform="translate(-3.236 -0.539)" fill="#d64351"/>
        <g id="Group_1155444" data-name="Group 1155444" transform="translate(11.137 33.009)">
          <path id="Path_993143" data-name="Path 993143" d="M12,54h1.784v1.784H12Z" transform="translate(-12 -38.834)" fill="#5b849a"/>
          <path id="Path_993144" data-name="Path 993144" d="M16,54h7.137v1.784H16Z" transform="translate(-12.431 -38.834)" fill="#5b849a"/>
          <path id="Path_993145" data-name="Path 993145" d="M51,37h3.569v1.784H51Z" transform="translate(-16.206 -37)" fill="#5b849a"/>
          <path id="Path_993146" data-name="Path 993146" d="M51,41h3.569v1.784H51Z" transform="translate(-16.206 -37.431)" fill="#5b849a"/>
        </g>
        <path id="Path_993147" data-name="Path 993147" d="M53.068,0H22.735a.892.892,0,0,0-.892.892v4.68l-5.6,1.6a.892.892,0,0,0-.6,1.16,107.135,107.135,0,0,1,3.221,11.3H8.461A2.676,2.676,0,0,0,5.784,22.3V23.36A2.676,2.676,0,0,0,4,25.872V52.636A4.466,4.466,0,0,0,8.461,57.1h37.47a4.466,4.466,0,0,0,4.461-4.461V43.715h2.676a.892.892,0,0,0,.892-.892V.892A.892.892,0,0,0,53.068,0ZM21.843,7.428V27.656h-.024c-.244-6.865-3.193-16.116-4.178-19.029ZM8.461,21.411H19.24a42.233,42.233,0,0,1,.8,6.245h-.877V25.872A2.676,2.676,0,0,0,16.49,23.2H7.569V22.3A.892.892,0,0,1,8.461,21.411Zm0,33.9a2.676,2.676,0,0,1-2.676-2.676V25.872a.892.892,0,0,1,.892-.892H16.49a.892.892,0,0,1,.892.892v2.676a.892.892,0,0,0,.892.892H42.362a2.676,2.676,0,0,1,2.676,2.676V52.636a2.676,2.676,0,0,1-2.676,2.676ZM48.607,20.519H42.362a.892.892,0,0,0-.631.261l-3.83,3.83-4.722-4.722a.892.892,0,0,0-1.261,0L29.5,22.3H27.2V17.843H48.607ZM27.2,24.088h2.676a.892.892,0,0,0,.631-.261l2.046-2.046L37.271,26.5a.892.892,0,0,0,1.261,0l4.2-4.2h5.876v5.353H27.2ZM48.607,52.636a2.676,2.676,0,0,1-2.676,2.676h-.023a4.414,4.414,0,0,0,.915-2.676V43.715h1.784Zm3.569-10.706H46.823V38.362H49.5V36.578H46.823V34.794H49.5V33.009H46.823v-.892a4.414,4.414,0,0,0-.915-2.676H49.5a.892.892,0,0,0,.892-.892v-11.6a.892.892,0,0,0-.892-.892H26.3a.892.892,0,0,0-.892.892V27.656H23.627V1.784H52.176Z"/>
        <path id="Path_993148" data-name="Path 993148" d="M28.892,12.029h1.784v1.784a.892.892,0,0,0,.892.892h3.569a.892.892,0,0,0,.892-.892V12.029h1.784a.892.892,0,0,0,.892-.892V7.569a.892.892,0,0,0-.892-.892H36.029V4.892A.892.892,0,0,0,35.137,4H31.569a.892.892,0,0,0-.892.892V6.676H28.892A.892.892,0,0,0,28,7.569v3.569A.892.892,0,0,0,28.892,12.029Zm.892-3.569h1.784a.892.892,0,0,0,.892-.892V5.784h1.784V7.569a.892.892,0,0,0,.892.892h1.784v1.784H35.137a.892.892,0,0,0-.892.892v1.784H32.461V11.137a.892.892,0,0,0-.892-.892H29.784Z" transform="translate(-2.589 -0.431)"/>
        <path id="Path_993149" data-name="Path 993149" d="M46,7h1.784V8.784H46Z" transform="translate(-4.53 -0.755)"/>
        <path id="Path_993150" data-name="Path 993150" d="M50,7h5.353V8.784H50Z" transform="translate(-4.961 -0.755)"/>
        <path id="Path_993151" data-name="Path 993151" d="M46,11h8.921v1.784H46Z" transform="translate(-4.53 -1.186)"/>
        <path id="Path_993152" data-name="Path 993152" d="M24.951,50H8.892A.892.892,0,0,0,8,50.892v7.137a.892.892,0,0,0,.892.892H24.951a.892.892,0,0,0,.892-.892V50.892A.892.892,0,0,0,24.951,50Zm-.892,7.137H9.784V51.784H24.059Z" transform="translate(-0.431 -5.393)"/>
        <path id="Path_993153" data-name="Path 993153" d="M12,54h1.784v1.784H12Z" transform="translate(-0.863 -5.824)"/>
        <path id="Path_993154" data-name="Path 993154" d="M16,54h7.137v1.784H16Z" transform="translate(-1.294 -5.824)"/>
      </g>
    </g>
  </g>
</svg>
