<svg xmlns="http://www.w3.org/2000/svg" xmlns:xlink="http://www.w3.org/1999/xlink" width="108" height="108" viewBox="0 0 108 108">
  <defs>
    <filter id="Path_982538" x="0" y="0" width="108" height="108" filterUnits="userSpaceOnUse">
      <feOffset dy="3" input="SourceAlpha"/>
      <feGaussianBlur stdDeviation="3" result="blur"/>
      <feFlood flood-opacity="0.161"/>
      <feComposite operator="in" in2="blur"/>
      <feComposite in="SourceGraphic"/>
    </filter>
  </defs>
  <g id="Group_1156432" data-name="Group 1156432" transform="translate(-191 -754)">
    <g id="Group_1154666" data-name="Group 1154666">
      <g id="Group_1150765" data-name="Group 1150765" transform="translate(-426 -602)">
        <g id="Group_1149507" data-name="Group 1149507" transform="translate(416 -2809.12)">
          <g id="Group_1146955" data-name="Group 1146955" transform="translate(0 1196.12)">
            <g transform="matrix(1, 0, 0, 1, 201, 2969)" filter="url(#Path_982538)">
              <g id="Path_982538-2" data-name="Path 982538" transform="translate(9 6)" fill="#eaf4fb">
                <path d="M 45 88.5 C 39.12687683105469 88.5 33.43022537231445 87.35007476806641 28.06830024719238 85.08217620849609 C 22.88852500915527 82.89131164550781 18.23629951477051 79.75458526611328 14.2408504486084 75.75914764404297 C 10.24541282653809 71.76370239257812 7.108687400817871 67.11147308349609 4.917825222015381 61.93170166015625 C 2.649924993515015 56.56977462768555 1.5 50.87312316894531 1.5 45 C 1.5 39.12687683105469 2.649924993515015 33.43022537231445 4.917825222015381 28.06830024719238 C 7.108687400817871 22.88852500915527 10.24541282653809 18.23629951477051 14.2408504486084 14.2408504486084 C 18.23629951477051 10.24541282653809 22.88852500915527 7.108687400817871 28.06830024719238 4.917825222015381 C 33.43022537231445 2.649924993515015 39.12687683105469 1.5 45 1.5 C 50.87312316894531 1.5 56.56977462768555 2.649924993515015 61.93170166015625 4.917825222015381 C 67.11147308349609 7.108687400817871 71.76370239257812 10.24541282653809 75.75914764404297 14.2408504486084 C 79.75458526611328 18.23629951477051 82.89131164550781 22.88852500915527 85.08217620849609 28.06830024719238 C 87.35007476806641 33.43022537231445 88.5 39.12687683105469 88.5 45 C 88.5 50.87312316894531 87.35007476806641 56.56977462768555 85.08217620849609 61.93170166015625 C 82.89131164550781 67.11147308349609 79.75458526611328 71.76370239257812 75.75914764404297 75.75914764404297 C 71.76370239257812 79.75458526611328 67.11147308349609 82.89131164550781 61.93170166015625 85.08217620849609 C 56.56977462768555 87.35007476806641 50.87312316894531 88.5 45 88.5 Z" stroke="none"/>
                <path d="M 45 3 C 39.32871246337891 3 33.82865524291992 4.110054016113281 28.65262985229492 6.299339294433594 C 23.65165710449219 8.414573669433594 19.15968322753906 11.44334411621094 15.301513671875 15.301513671875 C 11.44334411621094 19.15968322753906 8.414573669433594 23.65165710449219 6.299339294433594 28.65262985229492 C 4.110054016113281 33.82865524291992 3 39.32871246337891 3 45 C 3 50.67128753662109 4.110054016113281 56.17134475708008 6.299339294433594 61.34737396240234 C 8.414573669433594 66.34834289550781 11.44334411621094 70.84031677246094 15.301513671875 74.698486328125 C 19.15968322753906 78.55665588378906 23.65165710449219 81.58542633056641 28.65262985229492 83.70066070556641 C 33.82865524291992 85.88994598388672 39.32871246337891 87 45 87 C 50.67128753662109 87 56.17134475708008 85.88994598388672 61.34737396240234 83.70066070556641 C 66.34834289550781 81.58542633056641 70.84031677246094 78.55665588378906 74.698486328125 74.698486328125 C 78.55665588378906 70.84031677246094 81.58542633056641 66.34834289550781 83.70066070556641 61.34737396240234 C 85.88994598388672 56.17134475708008 87 50.67128753662109 87 45 C 87 39.32871246337891 85.88994598388672 33.82865524291992 83.70066070556641 28.65262985229492 C 81.58542633056641 23.65165710449219 78.55665588378906 19.15968322753906 74.698486328125 15.301513671875 C 70.84031677246094 11.44334411621094 66.34834289550781 8.414573669433594 61.34737396240234 6.299339294433594 C 56.17134475708008 4.110054016113281 50.67128753662109 3 45 3 M 45 0 C 69.85281372070312 0 90 20.14718627929688 90 45 C 90 69.85281372070312 69.85281372070312 90 45 90 C 20.14718627929688 90 0 69.85281372070312 0 45 C 0 20.14718627929688 20.14718627929688 0 45 0 Z" stroke="none" fill="#3c97da"/>
              </g>
            </g>
          </g>
        </g>
      </g>
      <g id="_x38_8_Business_Innovation" transform="translate(205.995 738.766)">
        <g id="Group_1154665" data-name="Group 1154665" transform="translate(6.005 42.234)">
          <path id="Path_991139" data-name="Path 991139" d="M148.844,67.776a19.411,19.411,0,0,1-8.26,15.9,5.223,5.223,0,0,0-2.217,4.27H120.352a5.223,5.223,0,0,0-2.217-4.27,19.462,19.462,0,1,1,30.709-15.9Z" transform="translate(-96.025 -47.518)" fill="#fbca43"/>
          <path id="Path_991140" data-name="Path 991140" d="M167.092,93.067a19.432,19.432,0,0,1-8.261,15.9,5.21,5.21,0,0,0-2.218,4.267H138.6a5.19,5.19,0,0,0-2.218-4.267,19.668,19.668,0,0,1-5.451-5.828A21.233,21.233,0,0,0,159.3,77.515,19.408,19.408,0,0,1,167.092,93.067Z" transform="translate(-114.271 -72.811)" fill="#fff" opacity="0.4"/>
          <path id="Path_991141" data-name="Path 991141" d="M196.019,347.7a2.277,2.277,0,0,1-2.277,2.277H176.483a2.277,2.277,0,0,1,0-4.554h17.258A2.277,2.277,0,0,1,196.019,347.7Z" transform="translate(-151.778 -304.994)" fill="#333c54"/>
          <path id="Path_991142" data-name="Path 991142" d="M196.011,355.425a2.275,2.275,0,0,1-2.277,2.277H176.472a2.275,2.275,0,0,1-2.277-2.277.956.956,0,0,1,.007-.137,52.068,52.068,0,0,0,21.536-.95A2.262,2.262,0,0,1,196.011,355.425Z" transform="translate(-151.768 -312.722)" fill="#fff" opacity="0.4"/>
          <path id="Path_991143" data-name="Path 991143" d="M196.019,381.855a2.277,2.277,0,0,1-2.277,2.277H176.483a2.277,2.277,0,1,1,0-4.554h17.258A2.277,2.277,0,0,1,196.019,381.855Z" transform="translate(-151.778 -334.596)" fill="#333c54"/>
          <path id="Path_991144" data-name="Path 991144" d="M196.011,389.6a2.275,2.275,0,0,1-2.277,2.277H176.472A2.275,2.275,0,0,1,174.2,389.6a.956.956,0,0,1,.007-.137,52.068,52.068,0,0,0,21.536-.95A2.261,2.261,0,0,1,196.011,389.6Z" transform="translate(-151.768 -342.342)" fill="#fff" opacity="0.4"/>
          <path id="Path_991145" data-name="Path 991145" d="M214.382,413.734a6.658,6.658,0,0,1-6.658,6.658h-1.818a6.658,6.658,0,0,1-6.658-6.658Z" transform="translate(-173.481 -364.198)" fill="#efe9e5"/>
          <path id="Path_991146" data-name="Path 991146" d="M192.918,121.283H191.65a9.266,9.266,0,0,0-.969-2.322l.9-.9a.99.99,0,0,0,0-1.386L189.6,114.7a.978.978,0,0,0-1.385,0l-.9.9a9.253,9.253,0,0,0-2.322-.963v-1.268a.976.976,0,0,0-.982-.976h-2.8a.976.976,0,0,0-.982.976v1.268a9.258,9.258,0,0,0-2.322.963l-.9-.9a.977.977,0,0,0-1.385,0l-1.984,1.977a.99.99,0,0,0,0,1.386l.9.9a9.274,9.274,0,0,0-.969,2.322H172.3a.98.98,0,0,0-.982.976v2.8a.98.98,0,0,0,.982.976h1.268a9.262,9.262,0,0,0,.969,2.322l-.9.9a.989.989,0,0,0,0,1.385l1.984,1.977a.977.977,0,0,0,1.385,0l.9-.9a9.512,9.512,0,0,0,2.322.963v1.268a.976.976,0,0,0,.982.976h2.8a.976.976,0,0,0,.982-.976v-1.268a9.512,9.512,0,0,0,2.322-.963l.9.9a.977.977,0,0,0,1.385,0l1.984-1.977a.989.989,0,0,0,0-1.385l-.9-.9a9.273,9.273,0,0,0,.969-2.322h1.268a.98.98,0,0,0,.982-.976v-2.8A.98.98,0,0,0,192.918,121.283Zm-10.309,7.109a4.774,4.774,0,1,1,4.774-4.781A4.779,4.779,0,0,1,182.609,128.393Z" transform="translate(-149.274 -103.037)" fill="#efe9e5"/>
          <g id="Group_1154664" data-name="Group 1154664" transform="translate(0 0)">
            <path id="Path_991147" data-name="Path 991147" d="M143.455,64.528a.817.817,0,0,0-.922.687,18.719,18.719,0,0,1-7.714,12.526,6.028,6.028,0,0,0-2.509,4.119h-16.5a6.015,6.015,0,0,0-2.506-4.118,18.65,18.65,0,1,1,28.934-19.5.813.813,0,0,0,1.583-.371,20.295,20.295,0,1,0-31.452,21.2,4.372,4.372,0,0,1,1.836,3.047,3.072,3.072,0,0,0-.838,5.114,3.048,3.048,0,0,0-1.024,2.273A3.094,3.094,0,0,0,115.43,92.6h.3a7.48,7.48,0,0,0,7.425,6.658h1.818a7.48,7.48,0,0,0,7.425-6.658h.3a3.094,3.094,0,0,0,3.09-3.091,3.048,3.048,0,0,0-1.024-2.273,3.073,3.073,0,0,0-.838-5.114,4.4,4.4,0,0,1,1.837-3.048,20.359,20.359,0,0,0,8.388-13.621.814.814,0,0,0-.687-.923Zm-18.487,33.1H123.15a5.854,5.854,0,0,1-5.788-5.032h13.395A5.853,5.853,0,0,1,124.968,97.629Zm9.184-8.123a1.466,1.466,0,0,1-1.464,1.465H115.43a1.464,1.464,0,1,1,0-2.929h17.258A1.466,1.466,0,0,1,134.152,89.506Zm-1.464-3.09H115.43a1.464,1.464,0,1,1,0-2.928h17.258a1.464,1.464,0,0,1,0,2.928Z" transform="translate(-90.724 -42.247)"/>
            <path id="Path_991148" data-name="Path 991148" d="M187.633,121.562a1.794,1.794,0,0,0,1.8-1.789v-2.8a1.794,1.794,0,0,0-1.8-1.789h-.664a10.058,10.058,0,0,0-.567-1.362l.478-.474a1.812,1.812,0,0,0-.006-2.532l-1.984-1.977a1.8,1.8,0,0,0-2.533,0l-.476.473a9.99,9.99,0,0,0-1.365-.567v-.661a1.794,1.794,0,0,0-1.8-1.789h-2.8a1.794,1.794,0,0,0-1.8,1.789v.661a10.018,10.018,0,0,0-1.365.567l-.473-.47a1.834,1.834,0,0,0-2.534,0l-1.991,1.984a1.814,1.814,0,0,0,.007,2.533l.471.467a10.058,10.058,0,0,0-.567,1.362h-.664a1.794,1.794,0,0,0-1.8,1.789v2.8a1.794,1.794,0,0,0,1.8,1.789h.664a10.059,10.059,0,0,0,.567,1.362l-.478.474a1.813,1.813,0,0,0,.006,2.531l1.983,1.976a1.836,1.836,0,0,0,2.533,0l.476-.473a10.269,10.269,0,0,0,1.364.565v.664a1.794,1.794,0,0,0,1.8,1.789h2.8a1.794,1.794,0,0,0,1.8-1.789V128a10.266,10.266,0,0,0,1.364-.565l.474.471a1.8,1.8,0,0,0,2.534,0l1.989-1.983a1.812,1.812,0,0,0-.007-2.533l-.471-.467a10.053,10.053,0,0,0,.567-1.363h.664Zm-1.268-1.626a.813.813,0,0,0-.786.6,8.459,8.459,0,0,1-.884,2.119.813.813,0,0,0,.127.991l.9.891a.173.173,0,0,1,.006.239l-1.984,1.978a.166.166,0,0,1-.238,0l-.9-.9a.813.813,0,0,0-.982-.125,8.694,8.694,0,0,1-2.123.879.813.813,0,0,0-.6.786v1.268a.162.162,0,0,1-.169.163h-2.8a.162.162,0,0,1-.169-.163V127.4a.813.813,0,0,0-.6-.786,8.659,8.659,0,0,1-2.124-.88.813.813,0,0,0-.981.126l-.906.9a.165.165,0,0,1-.237,0l-1.978-1.971a.174.174,0,0,1-.007-.238l.9-.9a.813.813,0,0,0,.127-.991,8.463,8.463,0,0,1-.884-2.119.813.813,0,0,0-.786-.6h-1.268a.166.166,0,0,1-.169-.163v-2.8a.166.166,0,0,1,.169-.163h1.268a.813.813,0,0,0,.786-.6,8.459,8.459,0,0,1,.884-2.119.813.813,0,0,0-.127-.991l-.9-.89a.175.175,0,0,1-.006-.239l1.986-1.979a.144.144,0,0,1,.238,0l.9.9a.816.816,0,0,0,.981.126,8.41,8.41,0,0,1,2.118-.878.813.813,0,0,0,.609-.787v-1.268a.162.162,0,0,1,.169-.163h2.8a.162.162,0,0,1,.169.163v1.268a.813.813,0,0,0,.609.787,8.44,8.44,0,0,1,2.117.878.815.815,0,0,0,.982-.125l.906-.9a.165.165,0,0,1,.236,0l1.978,1.972a.173.173,0,0,1,.007.238l-.9.9a.813.813,0,0,0-.127.991,8.464,8.464,0,0,1,.884,2.119.813.813,0,0,0,.786.6h1.268a.166.166,0,0,1,.169.163v2.8a.166.166,0,0,1-.169.163Z" transform="translate(-143.989 -97.755)"/>
            <path id="Path_991149" data-name="Path 991149" d="M219.682,154.685a5.587,5.587,0,1,0,5.587,5.581A5.59,5.59,0,0,0,219.682,154.685Zm0,9.548a3.961,3.961,0,1,1,3.961-3.967A3.969,3.969,0,0,1,219.682,164.233Z" transform="translate(-186.347 -139.691)"/>
            <path id="Path_991150" data-name="Path 991150" d="M421.79,48.166l4.552-4.543a.813.813,0,0,0-1.148-1.151l-4.552,4.543a.813.813,0,1,0,1.148,1.151Z" transform="translate(-365.146 -42.235)"/>
            <path id="Path_991151" data-name="Path 991151" d="M452.773,136.816h-6.438a.813.813,0,0,0,0,1.626h6.438a.813.813,0,0,0,0-1.626Z" transform="translate(-386.916 -124.204)"/>
            <path id="Path_991152" data-name="Path 991152" d="M421.79,197.562a.813.813,0,1,0-1.148,1.151l4.552,4.543a.813.813,0,1,0,1.148-1.151Z" transform="translate(-365.146 -176.644)"/>
            <path id="Path_991153" data-name="Path 991153" d="M46.645,42.472A.813.813,0,0,0,45.5,43.623l4.552,4.543A.813.813,0,1,0,51.2,47.015Z" transform="translate(-40.023 -42.235)"/>
            <path id="Path_991154" data-name="Path 991154" d="M14.069,137.63a.813.813,0,0,0-.813-.813H6.818a.813.813,0,0,0,0,1.626h6.438A.813.813,0,0,0,14.069,137.63Z" transform="translate(-6.005 -124.205)"/>
            <path id="Path_991155" data-name="Path 991155" d="M50.048,197.562,45.5,202.1a.813.813,0,0,0,1.148,1.151l4.552-4.543a.813.813,0,0,0-1.148-1.151Z" transform="translate(-40.023 -176.644)"/>
          </g>
        </g>
      </g>
    </g>
  </g>
</svg>
