<svg xmlns="http://www.w3.org/2000/svg" xmlns:xlink="http://www.w3.org/1999/xlink" width="101.5" height="101.5" viewBox="0 0 101.5 101.5">
  <defs>
    <filter id="Path_982547" x="0" y="0" width="101.5" height="101.5" filterUnits="userSpaceOnUse">
      <feOffset dy="3" input="SourceAlpha"/>
      <feGaussianBlur stdDeviation="3" result="blur"/>
      <feFlood flood-opacity="0.161"/>
      <feComposite operator="in" in2="blur"/>
      <feComposite in="SourceGraphic"/>
    </filter>
  </defs>
  <g id="Group_1156436" data-name="Group 1156436" transform="translate(-612 -789)">
    <g id="Group_1154668" data-name="Group 1154668">
      <g id="Group_1150771" data-name="Group 1150771" transform="translate(-0.377 -10412.932)">
        <g id="Group_1149577" data-name="Group 1149577" transform="translate(288.377 7497.754)">
          <g id="Group_1147086" data-name="Group 1147086" transform="translate(333 3710.178)">
            <g transform="matrix(1, 0, 0, 1, -9, -6)" filter="url(#Path_982547)">
              <g id="Path_982547-2" data-name="Path 982547" transform="translate(9 6)" fill="#fdeffe">
                <path d="M 41.75 82 C 36.31562423706055 82 31.04459953308105 80.93599700927734 26.08334159851074 78.83757781982422 C 21.29058837890625 76.81040191650391 16.98592948913574 73.90802001953125 13.28895282745361 70.21104431152344 C 9.591976165771484 66.51406860351562 6.689599990844727 62.20942306518555 4.662435531616211 57.41666030883789 C 2.563999891281128 52.45539855957031 1.5 47.18437576293945 1.5 41.75 C 1.5 36.31562423706055 2.563999891281128 31.04459953308105 4.662435531616211 26.08334159851074 C 6.689599990844727 21.29058837890625 9.591976165771484 16.98592948913574 13.28895282745361 13.28895282745361 C 16.98592948913574 9.591976165771484 21.29058837890625 6.689599990844727 26.08334159851074 4.662435531616211 C 31.04459953308105 2.563999891281128 36.31562423706055 1.5 41.75 1.5 C 47.18437576293945 1.5 52.45539855957031 2.563999891281128 57.41666030883789 4.662435531616211 C 62.20942306518555 6.689599990844727 66.51406860351562 9.591976165771484 70.21104431152344 13.28895282745361 C 73.90802001953125 16.98592948913574 76.81040191650391 21.29058837890625 78.83757781982422 26.08334159851074 C 80.93599700927734 31.04459953308105 82 36.31562423706055 82 41.75 C 82 47.18437576293945 80.93599700927734 52.45539855957031 78.83757781982422 57.41666030883789 C 76.81040191650391 62.20942306518555 73.90802001953125 66.51408386230469 70.21104431152344 70.21104431152344 C 66.51408386230469 73.90802001953125 62.20942306518555 76.81040191650391 57.41666030883789 78.83757781982422 C 52.45539855957031 80.93599700927734 47.18437576293945 82 41.75 82 Z" stroke="none"/>
                <path d="M 41.75 3 C 36.5174674987793 3 31.44303894042969 4.024131774902344 26.66767883300781 6.043930053710938 C 22.05370712280273 7.9954833984375 17.90931701660156 10.7899169921875 14.34961700439453 14.34961700439453 C 10.7899169921875 17.90931701660156 7.9954833984375 22.05370712280273 6.043930053710938 26.66767883300781 C 4.024131774902344 31.44303894042969 3 36.5174674987793 3 41.75 C 3 46.9825325012207 4.024131774902344 52.05697250366211 6.043930053710938 56.83233261108398 C 7.9954833984375 61.44629287719727 10.7899169921875 65.59069061279297 14.34961700439453 69.150390625 C 17.90931701660156 72.71009063720703 22.05370712280273 75.5045166015625 26.66767883300781 77.45606994628906 C 31.44303894042969 79.47586822509766 36.5174674987793 80.5 41.75 80.5 C 46.9825325012207 80.5 52.05697250366211 79.47586822509766 56.83233261108398 77.45606994628906 C 61.44629287719727 75.5045166015625 65.59069061279297 72.71009063720703 69.150390625 69.150390625 C 72.71009063720703 65.59069061279297 75.5045166015625 61.44629287719727 77.45606994628906 56.83233261108398 C 79.47586822509766 52.05697250366211 80.5 46.9825325012207 80.5 41.75 C 80.5 36.5174674987793 79.47586822509766 31.44303894042969 77.45606994628906 26.66767883300781 C 75.5045166015625 22.05370712280273 72.71009063720703 17.90931701660156 69.150390625 14.34961700439453 C 65.59069061279297 10.7899169921875 61.44629287719727 7.9954833984375 56.83233261108398 6.043930053710938 C 52.05697250366211 4.024131774902344 46.9825325012207 3 41.75 3 M 41.75 0 C 64.80789184570312 0 83.5 18.69212341308594 83.5 41.75 C 83.5 64.80789184570312 64.80789184570312 83.5 41.75 83.5 C 18.69212341308594 83.5 0 64.80789184570312 0 41.75 C 0 18.69212341308594 18.69212341308594 0 41.75 0 Z" stroke="none" fill="#ee70f7"/>
              </g>
            </g>
          </g>
        </g>
      </g>
      <g id="Filled_outline" data-name="Filled outline" transform="translate(636 809)">
        <g id="Color" transform="translate(3.129 3.129)">
          <rect id="Rectangle_409155" data-name="Rectangle 409155" width="48.552" height="33.873" rx="4" fill="#01cadb"/>
          <ellipse id="Ellipse_11674" data-name="Ellipse 11674" cx="10.727" cy="11.291" rx="10.727" ry="11.291" transform="translate(13.549 5.646)" fill="#89f2ff"/>
          <ellipse id="Ellipse_11675" data-name="Ellipse 11675" cx="6.21" cy="5.646" rx="6.21" ry="5.646" transform="translate(18.066 11.291)" fill="#01cadb"/>
          <rect id="Rectangle_409156" data-name="Rectangle 409156" width="5.646" height="5.646" rx="1" transform="translate(39.519 10.162)" fill="#89f2ff"/>
          <rect id="Rectangle_409157" data-name="Rectangle 409157" width="5.646" height="5.646" rx="1" transform="translate(3.387 10.162)" fill="#89f2ff"/>
          <path id="Path_991178" data-name="Path 991178" d="M40.834,32.795a1.7,1.7,0,0,0-1.7,1.7v-1.7a1.7,1.7,0,1,0-3.4,0v-.849a1.7,1.7,0,1,0-3.4,0V27.7a1.7,1.7,0,0,0-3.4,0V39.736L25.9,36.69c-1.545-1.582-3.976.879-2.4,2.4l6.649,6.65a1.7,1.7,0,0,1,.5,1.2V51.48H40.834V46.9a1.7,1.7,0,0,1,.286-.943l1.128-1.695a1.7,1.7,0,0,0,.285-.939V34.493a1.7,1.7,0,0,0-1.7-1.7Z" transform="translate(-6.291 -6.745)" fill="#ffd5c5"/>
          <rect id="Rectangle_409158" data-name="Rectangle 409158" width="13.549" height="6.775" rx="2" transform="translate(22.582 41.777)" fill="#1d252d"/>
        </g>
        <g id="Outline" transform="translate(2 2)">
          <path id="Path_991179" data-name="Path 991179" d="M54.945,14H50.7A1.7,1.7,0,0,0,49,15.7v4.247a1.7,1.7,0,0,0,1.7,1.7h4.247a1.7,1.7,0,0,0,1.7-1.7V15.7A1.7,1.7,0,0,0,54.945,14ZM50.7,19.945V15.7h4.247v4.247Z" transform="translate(-9.081 -3.808)" fill="#1e120b"/>
          <path id="Path_991180" data-name="Path 991180" d="M11.945,38h-5.1a.849.849,0,1,0,0,1.7h5.1a.849.849,0,0,0,0-1.7Z" transform="translate(-2.603 -7.423)" fill="#1e120b"/>
          <path id="Path_991181" data-name="Path 991181" d="M6.849,11.7h5.945a.849.849,0,0,0,0-1.7H6.849a.849.849,0,1,0,0,1.7Z" transform="translate(-2.603 -3.205)" fill="#1e120b"/>
          <path id="Path_991182" data-name="Path 991182" d="M55.795,10H49.849a.849.849,0,1,0,0,1.7h5.945a.849.849,0,1,0,0-1.7Z" transform="translate(-9.081 -3.205)" fill="#1e120b"/>
          <path id="Path_991183" data-name="Path 991183" d="M11.945,14H7.7A1.7,1.7,0,0,0,6,15.7v4.247a1.7,1.7,0,0,0,1.7,1.7h4.247a1.7,1.7,0,0,0,1.7-1.7V15.7A1.7,1.7,0,0,0,11.945,14ZM7.7,19.945V15.7h4.247v4.247Z" transform="translate(-2.603 -3.808)" fill="#1e120b"/>
          <path id="Path_991184" data-name="Path 991184" d="M48.714,2H6.247A4.252,4.252,0,0,0,2,6.247V33.426a4.252,4.252,0,0,0,4.247,4.247H21.33l5.053,5.053a.849.849,0,0,1,.249.6v1.3a2.548,2.548,0,0,0-1.7,2.392v3.4a2.548,2.548,0,0,0,2.548,2.548H37.673a2.548,2.548,0,0,0,2.548-2.548v-3.4a2.548,2.548,0,0,0-1.7-2.392V43.283a.844.844,0,0,1,.143-.471L39.8,41.121a2.54,2.54,0,0,0,.425-1.41V37.673h8.493a4.252,4.252,0,0,0,4.247-4.247V6.247A4.252,4.252,0,0,0,48.714,2ZM38.522,50.413a.849.849,0,0,1-.849.849H27.48a.849.849,0,0,1-.849-.849v-3.4a.849.849,0,0,1,.849-.849H37.673a.849.849,0,0,1,.849.849Zm0-10.7a.844.844,0,0,1-.143.471l-1.131,1.687a2.54,2.54,0,0,0-.425,1.414v1.185H28.33V43.327a2.531,2.531,0,0,0-.747-1.8s-4.94-5.049-6.658-6.659c-.77-.72.484-1.977,1.211-1.189s3.045,3.046,3.045,3.046a.854.854,0,0,0,1.45-.6V24.083a.849.849,0,0,1,1.7,0v9.343a.849.849,0,1,0,1.7,0v-5.1a.849.849,0,0,1,1.7,0v5.1a.849.849,0,1,0,1.7,0V29.179a.849.849,0,0,1,1.7,0v4.247a.849.849,0,1,0,1.7,0V30.878a.849.849,0,0,1,1.7,0ZM27.48,21.535a2.548,2.548,0,0,0-2.548,2.548v.162a5.1,5.1,0,1,1,5.1,0v-.162A2.548,2.548,0,0,0,27.48,21.535Zm6.795-1.7a6.795,6.795,0,1,0-9.343,6.273v3.579A10.208,10.208,0,1,1,34.96,26.733a2.507,2.507,0,0,0-1.935.227A2.514,2.514,0,0,0,30.7,25.8,6.83,6.83,0,0,0,34.275,19.836Zm16.987,13.59a2.548,2.548,0,0,1-2.548,2.548H40.221v-5.1a2.548,2.548,0,0,0-3.482-2.369,2.56,2.56,0,0,0-.375-.789,11.82,11.82,0,0,0,.475-15.2L41.947,7.1h6.768a.849.849,0,1,0,0-1.7H41.58a.849.849,0,0,0-.617.267L35.69,11.258a11.786,11.786,0,0,0-12.237-2.6L20.437,5.646a.849.849,0,0,0-.6-.249H6.247a.849.849,0,0,0,0,1.7H19.485L21.79,9.4a11.871,11.871,0,0,0,3.143,22.028V34.07l-1.588-1.588c-2.234-2.339-5.9,1.157-3.694,3.493H6.247A2.548,2.548,0,0,1,3.7,33.426V6.247A2.548,2.548,0,0,1,6.247,3.7H48.714a2.548,2.548,0,0,1,2.548,2.548Z" transform="translate(-2 -2)" fill="#1e120b"/>
          <ellipse id="Ellipse_11676" data-name="Ellipse 11676" cx="0.565" cy="1.129" rx="0.565" ry="1.129" transform="translate(12.42 30.486)" fill="#1e120b"/>
        </g>
      </g>
    </g>
  </g>
</svg>
