<svg xmlns="http://www.w3.org/2000/svg" xmlns:xlink="http://www.w3.org/1999/xlink" width="101.5" height="101.5" viewBox="0 0 101.5 101.5">
  <defs>
    <filter id="Path_982547" x="0" y="0" width="101.5" height="101.5" filterUnits="userSpaceOnUse">
      <feOffset dy="3" input="SourceAlpha"/>
      <feGaussianBlur stdDeviation="3" result="blur"/>
      <feFlood flood-opacity="0.161"/>
      <feComposite operator="in" in2="blur"/>
      <feComposite in="SourceGraphic"/>
    </filter>
  </defs>
  <g id="Group_1156469" data-name="Group 1156469" transform="translate(-822.623 -4095.993)">
    <g id="Group_1155996" data-name="Group 1155996" transform="translate(0 -169.007)">
      <g id="Group_1154233" data-name="Group 1154233" transform="translate(-209.999 -6936.932)">
        <g id="Group_1149578" data-name="Group 1149578" transform="translate(708.623 7497.754)">
          <g id="Group_1147086" data-name="Group 1147086" transform="translate(333 3710.178)">
            <g transform="matrix(1, 0, 0, 1, -9, -6)" filter="url(#Path_982547)">
              <g id="Path_982547-2" data-name="Path 982547" transform="translate(9 6)" fill="#fdeffe">
                <path d="M 41.75 82 C 36.31562423706055 82 31.04459953308105 80.93599700927734 26.08334159851074 78.83757781982422 C 21.29058837890625 76.81040191650391 16.98592948913574 73.90802001953125 13.28895282745361 70.21104431152344 C 9.591976165771484 66.51406860351562 6.689599990844727 62.20942306518555 4.662435531616211 57.41666030883789 C 2.563999891281128 52.45539855957031 1.5 47.18437576293945 1.5 41.75 C 1.5 36.31562423706055 2.563999891281128 31.04459953308105 4.662435531616211 26.08334159851074 C 6.689599990844727 21.29058837890625 9.591976165771484 16.98592948913574 13.28895282745361 13.28895282745361 C 16.98592948913574 9.591976165771484 21.29058837890625 6.689599990844727 26.08334159851074 4.662435531616211 C 31.04459953308105 2.563999891281128 36.31562423706055 1.5 41.75 1.5 C 47.18437576293945 1.5 52.45539855957031 2.563999891281128 57.41666030883789 4.662435531616211 C 62.20942306518555 6.689599990844727 66.51406860351562 9.591976165771484 70.21104431152344 13.28895282745361 C 73.90802001953125 16.98592948913574 76.81040191650391 21.29058837890625 78.83757781982422 26.08334159851074 C 80.93599700927734 31.04459953308105 82 36.31562423706055 82 41.75 C 82 47.18437576293945 80.93599700927734 52.45539855957031 78.83757781982422 57.41666030883789 C 76.81040191650391 62.20942306518555 73.90802001953125 66.51408386230469 70.21104431152344 70.21104431152344 C 66.51408386230469 73.90802001953125 62.20942306518555 76.81040191650391 57.41666030883789 78.83757781982422 C 52.45539855957031 80.93599700927734 47.18437576293945 82 41.75 82 Z" stroke="none"/>
                <path d="M 41.75 3 C 36.5174674987793 3 31.44303894042969 4.024131774902344 26.66767883300781 6.043930053710938 C 22.05370712280273 7.9954833984375 17.90931701660156 10.7899169921875 14.34961700439453 14.34961700439453 C 10.7899169921875 17.90931701660156 7.9954833984375 22.05370712280273 6.043930053710938 26.66767883300781 C 4.024131774902344 31.44303894042969 3 36.5174674987793 3 41.75 C 3 46.9825325012207 4.024131774902344 52.05697250366211 6.043930053710938 56.83233261108398 C 7.9954833984375 61.44629287719727 10.7899169921875 65.59069061279297 14.34961700439453 69.150390625 C 17.90931701660156 72.71009063720703 22.05370712280273 75.5045166015625 26.66767883300781 77.45606994628906 C 31.44303894042969 79.47586822509766 36.5174674987793 80.5 41.75 80.5 C 46.9825325012207 80.5 52.05697250366211 79.47586822509766 56.83233261108398 77.45606994628906 C 61.44629287719727 75.5045166015625 65.59069061279297 72.71009063720703 69.150390625 69.150390625 C 72.71009063720703 65.59069061279297 75.5045166015625 61.44629287719727 77.45606994628906 56.83233261108398 C 79.47586822509766 52.05697250366211 80.5 46.9825325012207 80.5 41.75 C 80.5 36.5174674987793 79.47586822509766 31.44303894042969 77.45606994628906 26.66767883300781 C 75.5045166015625 22.05370712280273 72.71009063720703 17.90931701660156 69.150390625 14.34961700439453 C 65.59069061279297 10.7899169921875 61.44629287719727 7.9954833984375 56.83233261108398 6.043930053710938 C 52.05697250366211 4.024131774902344 46.9825325012207 3 41.75 3 M 41.75 0 C 64.80789184570312 0 83.5 18.69212341308594 83.5 41.75 C 83.5 64.80789184570312 64.80789184570312 83.5 41.75 83.5 C 18.69212341308594 83.5 0 64.80789184570312 0 41.75 C 0 18.69212341308594 18.69212341308594 0 41.75 0 Z" stroke="none" fill="#ee70f7"/>
              </g>
            </g>
          </g>
        </g>
      </g>
      <g id="resumen" transform="translate(856.623 4290)">
        <path id="Path_993693" data-name="Path 993693" d="M7.52,7.5H40.343V52.322H7.52Zm0,0" transform="translate(-6.841 -6.824)" fill="#dcdfe8"/>
        <path id="Path_993694" data-name="Path 993694" d="M341.523,7.5h2.705V52.322h-2.705Zm0,0" transform="translate(-310.723 -6.824)" fill="#cbcdd9"/>
        <path id="Path_993695" data-name="Path 993695" d="M7.52,7.5H40.343v7.215H7.52Zm0,0" transform="translate(-6.841 -6.824)" fill="#5793c9"/>
        <path id="Path_993696" data-name="Path 993696" d="M341.523,7.5h2.705v7.215h-2.705Zm0,0" transform="translate(-310.723 -6.824)" fill="#4c87bd"/>
        <path id="Path_993697" data-name="Path 993697" d="M41.206,33.353A1.353,1.353,0,1,1,39.853,32,1.353,1.353,0,0,1,41.206,33.353Zm0,0" transform="translate(-35.028 -29.114)" fill="#ff4b26"/>
        <path id="Path_993698" data-name="Path 993698" d="M101.206,33.353A1.353,1.353,0,1,1,99.853,32,1.353,1.353,0,0,1,101.206,33.353Zm0,0" transform="translate(-89.617 -29.114)" fill="#ffd659"/>
        <path id="Path_993699" data-name="Path 993699" d="M161.206,33.353A1.353,1.353,0,1,1,159.853,32,1.353,1.353,0,0,1,161.206,33.353Zm0,0" transform="translate(-144.206 -29.114)" fill="#47d5e6"/>
        <path id="Path_993700" data-name="Path 993700" d="M266.689,432.24a1.443,1.443,0,0,1-1.443-1.443v-2.164h2.886V430.8A1.443,1.443,0,0,1,266.689,432.24Zm0,0" transform="translate(-241.325 -389.977)" fill="#5793c9"/>
        <path id="Path_993701" data-name="Path 993701" d="M255.875,130.438h-3.847a.781.781,0,0,1-.783-.778v-28a.779.779,0,0,1,.782-.777h3.847a.78.78,0,0,1,.782.777v28a.78.78,0,0,1-.782.777Zm0,0" transform="translate(-228.588 -91.781)" fill="#ffd659"/>
        <path id="Path_993702" data-name="Path 993702" d="M264.539,101.652a.779.779,0,0,0-.782-.777h-2.706a.779.779,0,0,1,.782.777v28a.78.78,0,0,1-.782.777h2.705a.78.78,0,0,0,.782-.777Zm0,0" transform="translate(-236.47 -91.778)" fill="#ffbd54"/>
        <path id="Path_993703" data-name="Path 993703" d="M251.246,334.145h5.411v5.282h-5.411Zm0,0" transform="translate(-228.588 -304.01)" fill="#4fc6f5"/>
        <path id="Path_993704" data-name="Path 993704" d="M281.246,334.145h2.706v5.282h-2.706Zm0,0" transform="translate(-255.882 -304.01)" fill="#3bb3e3"/>
        <path id="Path_993705" data-name="Path 993705" d="M266.288,64.607H263V62.646a1.646,1.646,0,1,1,3.292,0Zm0,0" transform="translate(-239.278 -55.499)" fill="#ff4b26"/>
        <path id="Path_993706" data-name="Path 993706" d="M33.029,24.5a2.029,2.029,0,1,0,2.029,2.029A2.031,2.031,0,0,0,33.029,24.5Zm0,2.706a.676.676,0,1,1,.676-.676A.677.677,0,0,1,33.029,27.206Zm0,0" transform="translate(-28.204 -22.29)"/>
        <path id="Path_993707" data-name="Path 993707" d="M93.029,24.5a2.029,2.029,0,1,0,2.029,2.029A2.031,2.031,0,0,0,93.029,24.5Zm0,2.706a.676.676,0,1,1,.676-.676A.677.677,0,0,1,93.029,27.206Zm0,0" transform="translate(-82.793 -22.29)"/>
        <path id="Path_993708" data-name="Path 993708" d="M153.029,24.5a2.029,2.029,0,1,0,2.029,2.029A2.031,2.031,0,0,0,153.029,24.5Zm0,2.706a.676.676,0,1,1,.676-.676A.677.677,0,0,1,153.029,27.206Zm0,0" transform="translate(-137.382 -22.29)"/>
        <path id="Path_993709" data-name="Path 993709" d="M5.546,182.286H1.353V151.766a.676.676,0,1,0-1.353,0v31.2a.676.676,0,0,0,.676.676h4.87a.676.676,0,1,0,0-1.353Zm0,0" transform="translate(0 -137.464)"/>
        <path id="Path_993710" data-name="Path 993710" d="M33.5,0H.676A.676.676,0,0,0,0,.676V11.514a.676.676,0,1,0,1.353,0V8.568H22.807a1.453,1.453,0,0,0-.825,1.307v28a1.458,1.458,0,0,0,1.263,1.44v1.5a2.119,2.119,0,0,0,4.239,0v-1.5a1.456,1.456,0,0,0,1.263-1.439v-8.99a.676.676,0,1,0-1.353,0v.569H23.335V12h4.058V25.973a.676.676,0,0,0,1.353,0V12h.247v5.8a.676.676,0,0,0,1.353,0V11.321a.676.676,0,0,0-.676-.676h-.923v-.77a1.454,1.454,0,0,0-.825-1.307h4.906V44.822H8.432a.676.676,0,1,0,0,1.353H33.5a.676.676,0,0,0,.676-.676V.676A.676.676,0,0,0,33.5,0Zm-7.17,8.421H24.395V7.147a.969.969,0,1,1,1.939,0Zm1.06,29.458a.1.1,0,0,1-.105.1H23.441a.1.1,0,0,1-.106-.1V36.093h4.058Zm-1.263,2.942a.767.767,0,0,1-1.533,0V39.333h1.533Zm1.263-10.01V34.74H23.335V30.811ZM23.335,10.645v-.77a.1.1,0,0,1,.105-.1h3.847a.1.1,0,0,1,.106.1v.77Zm4.351-3.43V7.147a2.322,2.322,0,1,0-4.644,0v.068H1.353V1.353H32.827V7.215Zm0,0"/>
        <path id="Path_993711" data-name="Path 993711" d="M46.118,151.082H41.044a.676.676,0,0,0,0,1.353h5.074a.676.676,0,0,0,0-1.353Zm0,0" transform="translate(-36.727 -137.457)"/>
        <path id="Path_993712" data-name="Path 993712" d="M80.725,180.918H69.172a.676.676,0,1,0,0,1.353H80.725a.676.676,0,1,0,0-1.353Zm0,0" transform="translate(-62.319 -164.602)"/>
        <path id="Path_993713" data-name="Path 993713" d="M55.134,210.75H41.044a.676.676,0,1,0,0,1.353h14.09a.676.676,0,0,0,0-1.353Zm0,0" transform="translate(-36.727 -191.744)"/>
        <path id="Path_993714" data-name="Path 993714" d="M55.134,241.4H41.044a.676.676,0,1,0,0,1.353h14.09a.676.676,0,1,0,0-1.353Zm0,0" transform="translate(-36.727 -219.628)"/>
        <path id="Path_993715" data-name="Path 993715" d="M55.81,270.914a.677.677,0,0,0-.676-.676H41.044a.676.676,0,1,0,0,1.353h14.09A.676.676,0,0,0,55.81,270.914Zm0,0" transform="translate(-36.727 -245.867)"/>
        <path id="Path_993716" data-name="Path 993716" d="M41.044,299.079a.676.676,0,0,0,0,1.353h8a.676.676,0,0,0,0-1.353Zm0,0" transform="translate(-36.727 -272.106)"/>
        <path id="Path_993717" data-name="Path 993717" d="M41.044,413.479h15.5a.676.676,0,0,0,0-1.353h-15.5a.676.676,0,1,0,0,1.353Zm0,0" transform="translate(-36.727 -374.958)"/>
        <path id="Path_993718" data-name="Path 993718" d="M41.044,444.85H51.349a.676.676,0,0,0,0-1.353H41.044a.676.676,0,1,0,0,1.353Zm0,0" transform="translate(-36.727 -403.5)"/>
      </g>
    </g>
  </g>
</svg>
