<svg xmlns="http://www.w3.org/2000/svg" xmlns:xlink="http://www.w3.org/1999/xlink" width="101.5" height="101.5" viewBox="0 0 101.5 101.5">
  <defs>
    <filter id="Path_982547" x="0" y="0" width="101.5" height="101.5" filterUnits="userSpaceOnUse">
      <feOffset dy="3" input="SourceAlpha"/>
      <feGaussianBlur stdDeviation="3" result="blur"/>
      <feFlood flood-opacity="0.161"/>
      <feComposite operator="in" in2="blur"/>
      <feComposite in="SourceGraphic"/>
    </filter>
  </defs>
  <g id="Group_1156437" data-name="Group 1156437" transform="translate(-1033 -789)">
    <g id="Group_1154694" data-name="Group 1154694">
      <g id="Group_1150772" data-name="Group 1150772" transform="translate(0.377 -10412.932)">
        <g id="Group_1149578" data-name="Group 1149578" transform="translate(708.623 7497.754)">
          <g id="Group_1147086" data-name="Group 1147086" transform="translate(333 3710.178)">
            <g transform="matrix(1, 0, 0, 1, -9, -6)" filter="url(#Path_982547)">
              <g id="Path_982547-2" data-name="Path 982547" transform="translate(9 6)" fill="#fdeffe">
                <path d="M 41.75 82 C 36.31562423706055 82 31.04459953308105 80.93599700927734 26.08334159851074 78.83757781982422 C 21.29058837890625 76.81040191650391 16.98592948913574 73.90802001953125 13.28895282745361 70.21104431152344 C 9.591976165771484 66.51406860351562 6.689599990844727 62.20942306518555 4.662435531616211 57.41666030883789 C 2.563999891281128 52.45539855957031 1.5 47.18437576293945 1.5 41.75 C 1.5 36.31562423706055 2.563999891281128 31.04459953308105 4.662435531616211 26.08334159851074 C 6.689599990844727 21.29058837890625 9.591976165771484 16.98592948913574 13.28895282745361 13.28895282745361 C 16.98592948913574 9.591976165771484 21.29058837890625 6.689599990844727 26.08334159851074 4.662435531616211 C 31.04459953308105 2.563999891281128 36.31562423706055 1.5 41.75 1.5 C 47.18437576293945 1.5 52.45539855957031 2.563999891281128 57.41666030883789 4.662435531616211 C 62.20942306518555 6.689599990844727 66.51406860351562 9.591976165771484 70.21104431152344 13.28895282745361 C 73.90802001953125 16.98592948913574 76.81040191650391 21.29058837890625 78.83757781982422 26.08334159851074 C 80.93599700927734 31.04459953308105 82 36.31562423706055 82 41.75 C 82 47.18437576293945 80.93599700927734 52.45539855957031 78.83757781982422 57.41666030883789 C 76.81040191650391 62.20942306518555 73.90802001953125 66.51408386230469 70.21104431152344 70.21104431152344 C 66.51408386230469 73.90802001953125 62.20942306518555 76.81040191650391 57.41666030883789 78.83757781982422 C 52.45539855957031 80.93599700927734 47.18437576293945 82 41.75 82 Z" stroke="none"/>
                <path d="M 41.75 3 C 36.5174674987793 3 31.44303894042969 4.024131774902344 26.66767883300781 6.043930053710938 C 22.05370712280273 7.9954833984375 17.90931701660156 10.7899169921875 14.34961700439453 14.34961700439453 C 10.7899169921875 17.90931701660156 7.9954833984375 22.05370712280273 6.043930053710938 26.66767883300781 C 4.024131774902344 31.44303894042969 3 36.5174674987793 3 41.75 C 3 46.9825325012207 4.024131774902344 52.05697250366211 6.043930053710938 56.83233261108398 C 7.9954833984375 61.44629287719727 10.7899169921875 65.59069061279297 14.34961700439453 69.150390625 C 17.90931701660156 72.71009063720703 22.05370712280273 75.5045166015625 26.66767883300781 77.45606994628906 C 31.44303894042969 79.47586822509766 36.5174674987793 80.5 41.75 80.5 C 46.9825325012207 80.5 52.05697250366211 79.47586822509766 56.83233261108398 77.45606994628906 C 61.44629287719727 75.5045166015625 65.59069061279297 72.71009063720703 69.150390625 69.150390625 C 72.71009063720703 65.59069061279297 75.5045166015625 61.44629287719727 77.45606994628906 56.83233261108398 C 79.47586822509766 52.05697250366211 80.5 46.9825325012207 80.5 41.75 C 80.5 36.5174674987793 79.47586822509766 31.44303894042969 77.45606994628906 26.66767883300781 C 75.5045166015625 22.05370712280273 72.71009063720703 17.90931701660156 69.150390625 14.34961700439453 C 65.59069061279297 10.7899169921875 61.44629287719727 7.9954833984375 56.83233261108398 6.043930053710938 C 52.05697250366211 4.024131774902344 46.9825325012207 3 41.75 3 M 41.75 0 C 64.80789184570312 0 83.5 18.69212341308594 83.5 41.75 C 83.5 64.80789184570312 64.80789184570312 83.5 41.75 83.5 C 18.69212341308594 83.5 0 64.80789184570312 0 41.75 C 0 18.69212341308594 18.69212341308594 0 41.75 0 Z" stroke="none" fill="#ee70f7"/>
              </g>
            </g>
          </g>
        </g>
      </g>
      <g id="xls_3399821" transform="translate(1001.456 812)">
        <g id="Group_1154670" data-name="Group 1154670" transform="translate(64.284 0.74)">
          <g id="Group_1154669" data-name="Group 1154669" transform="translate(0)">
            <path id="Path_991185" data-name="Path 991185" d="M73.255,7.5a2.211,2.211,0,0,0-2.211,2.211V52.106c0,3.193.99,4.183,2.211,4.183h31.834c1.221,0,2.211-.99,2.211-4.183V9.711A2.211,2.211,0,0,0,105.089,7.5Z" transform="translate(-71.044 -7.5)" fill="#edf5fa"/>
          </g>
        </g>
        <g id="Group_1154672" data-name="Group 1154672" transform="translate(95.37 0.74)">
          <g id="Group_1154671" data-name="Group 1154671" transform="translate(0)">
            <path id="Path_991186" data-name="Path 991186" d="M389.227,7.5h-2.958a2.211,2.211,0,0,1,2.211,2.211V52.106c0,3.193-.99,4.183-2.211,4.183h2.958c1.221,0,2.211-.99,2.211-4.183V9.711A2.211,2.211,0,0,0,389.227,7.5Z" transform="translate(-386.268 -7.5)" fill="#d0e7f2"/>
          </g>
        </g>
        <g id="Group_1154674" data-name="Group 1154674" transform="translate(64.284 39.379)">
          <g id="Group_1154673" data-name="Group 1154673" transform="translate(0)">
            <path id="Path_991187" data-name="Path 991187" d="M71.044,399.315v7.938a2.211,2.211,0,0,0,2.211,2.211h31.834a2.211,2.211,0,0,0,2.211-2.211v-7.938Z" transform="translate(-71.044 -399.315)" fill="#46cc8d"/>
          </g>
        </g>
        <g id="Group_1154676" data-name="Group 1154676" transform="translate(95.37 39.379)">
          <g id="Group_1154675" data-name="Group 1154675">
            <path id="Path_991188" data-name="Path 991188" d="M388.479,399.315v7.938a2.211,2.211,0,0,1-2.211,2.211h2.959a2.211,2.211,0,0,0,2.211-2.211v-7.938Z" transform="translate(-386.268 -399.315)" fill="#08b865"/>
          </g>
        </g>
        <g id="Group_1154678" data-name="Group 1154678" transform="translate(72.126 15.23)">
          <g id="Group_1154677" data-name="Group 1154677">
            <path id="Path_991189" data-name="Path 991189" d="M150.57,154.437h20.571v3.685H150.57Z" transform="translate(-150.57 -154.437)" fill="#46cc8d"/>
          </g>
        </g>
        <g id="Group_1154680" data-name="Group 1154680" transform="translate(89.738 15.23)">
          <g id="Group_1154679" data-name="Group 1154679" transform="translate(0)">
            <path id="Path_991190" data-name="Path 991190" d="M329.162,154.437h2.958v3.685h-2.958Z" transform="translate(-329.162 -154.437)" fill="#08b865"/>
          </g>
        </g>
        <g id="Group_1154682" data-name="Group 1154682" transform="translate(72.126 18.973)">
          <g id="Group_1154681" data-name="Group 1154681">
            <path id="Path_991191" data-name="Path 991191" d="M150.57,192.4h20.571V207.31H150.57Z" transform="translate(-150.57 -192.395)" fill="#fee97d"/>
          </g>
        </g>
        <g id="Group_1154684" data-name="Group 1154684" transform="translate(89.738 18.973)">
          <g id="Group_1154683" data-name="Group 1154683" transform="translate(0)">
            <path id="Path_991192" data-name="Path 991192" d="M329.162,192.4h2.958V207.31h-2.958Z" transform="translate(-329.162 -192.395)" fill="#fedf30"/>
          </g>
        </g>
        <g id="Group_1154686" data-name="Group 1154686" transform="translate(63.544)">
          <g id="Group_1154685" data-name="Group 1154685" transform="translate(0)">
            <path id="Path_991193" data-name="Path 991193" d="M98.329,0H66.495a2.954,2.954,0,0,0-2.951,2.951V19.123a.74.74,0,0,0,1.479,0V2.951a1.473,1.473,0,0,1,1.471-1.471H98.329A1.473,1.473,0,0,1,99.8,2.951V38.64H65.023V22.081a.74.74,0,0,0-1.479,0V47.318a2.954,2.954,0,0,0,2.951,2.951H98.329a2.954,2.954,0,0,0,2.951-2.951V2.951A2.954,2.954,0,0,0,98.329,0ZM99.8,47.318a1.473,1.473,0,0,1-1.471,1.471H66.495a1.473,1.473,0,0,1-1.471-1.471v-7.2H99.8v7.2Z" transform="translate(-63.544)"/>
          </g>
        </g>
        <g id="Group_1154688" data-name="Group 1154688" transform="translate(71.387 14.49)">
          <g id="Group_1154687" data-name="Group 1154687">
            <path id="Path_991194" data-name="Path 991194" d="M143.07,155.163v11.171a.74.74,0,0,0,.74.74H164.38a.74.74,0,0,0,.74-.74V151.42c0-.01,0-.019,0-.029s0-.019,0-.029v-3.685a.74.74,0,0,0-.74-.74H153.487a.74.74,0,0,0,0,1.479h10.154v2.206H144.549v-2.206h5.979a.74.74,0,1,0,0-1.479H143.81a.74.74,0,0,0-.74.74v3.685c0,.01,0,.019,0,.029s0,.019,0,.029Zm8.293,4.483h5.463v2.206h-5.463Zm-1.479,2.205h-5.335v-2.205h5.335Zm13.757-3.743h-5.335V155.9h5.335Zm-6.814,0h-5.463V155.9h5.463Zm1.479,1.538h5.335v2.206h-5.335Zm5.335-5.223h-5.335v-2.264h5.335Zm-6.814-2.264v2.264h-5.463V152.16Zm-6.943,2.264h-5.335v-2.264h5.335Zm-5.335,1.479h5.335v2.206h-5.335Zm12.277,7.487v2.206h-5.463v-2.206Zm-12.277,0h5.335v2.206h-5.335Zm19.091,2.206h-5.335v-2.206h5.335Z" transform="translate(-143.07 -146.937)"/>
          </g>
        </g>
        <g id="Group_1154690" data-name="Group 1154690" transform="translate(71.387 9.488)">
          <g id="Group_1154689" data-name="Group 1154689" transform="translate(0)">
            <path id="Path_991195" data-name="Path 991195" d="M143.81,97.69h13.438a.74.74,0,0,0,0-1.479H143.81a.74.74,0,1,0,0,1.479Z" transform="translate(-143.07 -96.211)"/>
          </g>
        </g>
        <g id="Group_1154692" data-name="Group 1154692" transform="translate(71.387 5.934)">
          <g id="Group_1154691" data-name="Group 1154691" transform="translate(0)">
            <path id="Path_991196" data-name="Path 991196" d="M143.81,61.653h13.438a.74.74,0,0,0,0-1.479H143.81a.74.74,0,1,0,0,1.479Z" transform="translate(-143.07 -60.174)"/>
          </g>
        </g>
        <g id="Group_1154693" data-name="Group 1154693" transform="translate(76.205 41.645)">
          <path id="Path_991197" data-name="Path 991197" d="M194.661,424.819l1.095-1.754a.429.429,0,0,0,.075-.234c0-.307-.39-.545-.726-.545a.375.375,0,0,0-.357.2l-.848,1.479-.848-1.478a.376.376,0,0,0-.358-.2c-.336,0-.726.238-.726.545a.429.429,0,0,0,.074.234l1.1,1.755L192,426.582a.407.407,0,0,0-.067.213c0,.328.445.565.746.565a.325.325,0,0,0,.29-.131l.935-1.589.934,1.587a.314.314,0,0,0,.291.133c.3,0,.746-.237.746-.565a.409.409,0,0,0-.068-.214Z" transform="translate(-191.928 -422.286)"/>
          <path id="Path_991198" data-name="Path 991198" d="M243.169,426.678h-1.477v-3.62c0-.269-.308-.364-.572-.364s-.572.1-.572.364v4.259c0,.255.262.371.5.371h2.116c.241,0,.351-.262.351-.5S243.41,426.678,243.169,426.678Z" transform="translate(-235.753 -422.654)"/>
          <path id="Path_991199" data-name="Path 991199" d="M278.951,424.146c-.378-.167-.677-.3-.677-.525,0-.17.163-.352.62-.352a1.208,1.208,0,0,1,.627.16.615.615,0,0,0,.291.095c.328,0,.464-.39.464-.6,0-.608-1.151-.639-1.382-.639-.813,0-1.764.376-1.764,1.435,0,.943.747,1.29,1.348,1.569.416.193.775.36.775.668,0,.29-.323.393-.6.393a1.123,1.123,0,0,1-.737-.3.687.687,0,0,0-.4-.2c-.293,0-.5.365-.5.612,0,.49.777.92,1.663.92a1.519,1.519,0,0,0,1.723-1.536C280.4,424.784,279.561,424.415,278.951,424.146Z" transform="translate(-268.62 -422.286)"/>
        </g>
      </g>
    </g>
  </g>
</svg>
