<svg xmlns="http://www.w3.org/2000/svg" xmlns:xlink="http://www.w3.org/1999/xlink" width="110" height="110" viewBox="0 0 110 110">
  <defs>
    <filter id="Path_982547" x="0" y="0" width="110" height="110" filterUnits="userSpaceOnUse">
      <feOffset dy="3" input="SourceAlpha"/>
      <feGaussianBlur stdDeviation="3" result="blur"/>
      <feFlood flood-opacity="0.161"/>
      <feComposite operator="in" in2="blur"/>
      <feComposite in="SourceGraphic"/>
    </filter>
  </defs>
  <g id="Group_1156447" data-name="Group 1156447" transform="translate(-1082 -3213)">
    <g id="Group_1154706" data-name="Group 1154706">
      <g id="Group_1154215" data-name="Group 1154215" transform="translate(284 2315)">
        <g id="Group_1154212" data-name="Group 1154212" transform="translate(-236 -5809)">
          <g id="Group_1152583" data-name="Group 1152583" transform="translate(1043 6713)">
            <g id="Group_1146973" data-name="Group 1146973" transform="translate(0 0)">
              <g id="Group_1146954" data-name="Group 1146954">
                <g transform="matrix(1, 0, 0, 1, -9, -6)" filter="url(#Path_982547)">
                  <g id="Path_982547-2" data-name="Path 982547" transform="translate(9 6)" fill="#fdeffe">
                    <path d="M 46 90.49987030029297 C 39.99187850952148 90.49987030029297 34.16426849365234 89.32350921630859 28.67905426025391 87.00345611572266 C 23.38019943237305 84.76224517822266 18.62104034423828 81.55341339111328 14.53374671936035 77.46613311767578 C 10.44646644592285 73.37885284423828 7.237639904022217 68.61969757080078 4.996413230895996 63.32085418701172 C 2.676359891891479 57.83565521240234 1.5 52.008056640625 1.5 45.99993515014648 C 1.5 39.99181365966797 2.676359891891479 34.16421508789062 4.996413230895996 28.67901420593262 C 7.237639904022217 23.38017463684082 10.44646644592285 18.62101554870605 14.53374671936035 14.53373527526855 C 18.62104034423828 10.44645500183105 23.38019943237305 7.23762845993042 28.67905426025391 4.996415138244629 C 34.16426849365234 2.676361799240112 39.99187850952148 1.500001788139343 46 1.500001788139343 C 52.00812149047852 1.500001788139343 57.83573150634766 2.676361799240112 63.32094573974609 4.996415138244629 C 68.61979675292969 7.23762845993042 73.37895965576172 10.44645500183105 77.46625518798828 14.53373527526855 C 81.55353546142578 18.62101554870605 84.76235961914062 23.38017463684082 87.00358581542969 28.67901420593262 C 89.32363891601562 34.16421508789062 90.5 39.99181365966797 90.5 45.99993515014648 C 90.5 52.008056640625 89.32363891601562 57.83565521240234 87.00358581542969 63.32085418701172 C 84.76235961914062 68.61969757080078 81.55353546142578 73.37885284423828 77.46625518798828 77.46613311767578 C 73.37895965576172 81.55341339111328 68.61979675292969 84.76224517822266 63.32094573974609 87.00345611572266 C 57.83573150634766 89.32350921630859 52.00812149047852 90.49987030029297 46 90.49987030029297 Z" stroke="none"/>
                    <path d="M 46 2.999992370605469 C 40.1937141418457 2.999992370605469 34.56269836425781 4.136489868164062 29.26337051391602 6.377906799316406 C 24.14332580566406 8.543502807617188 19.54441070556641 11.64437866210938 15.59439849853516 15.59437561035156 C 11.64440155029297 19.54439544677734 8.54351806640625 24.14329528808594 6.377914428710938 29.26333618164062 C 4.136497497558594 34.56264877319336 3 40.19366455078125 3 45.99993515014648 C 3 51.80620574951172 4.136497497558594 57.43720626831055 6.377914428710938 62.73651885986328 C 8.54351806640625 67.8565673828125 11.64440155029297 72.45545959472656 15.59439849853516 76.40547943115234 C 19.54441070556641 80.35547637939453 24.14332580566406 83.45635223388672 29.26337051391602 85.6219482421875 C 34.56269836425781 87.86336517333984 40.1937141418457 88.99986267089844 46 88.99986267089844 C 51.8062858581543 88.99986267089844 57.43730163574219 87.86336517333984 62.73661422729492 85.6219482421875 C 67.85667419433594 83.45635223388672 72.45557403564453 80.35547637939453 76.40558624267578 76.40547943115234 C 80.35559844970703 72.45545959472656 83.45647430419922 67.8565673828125 85.6220703125 62.73651885986328 C 87.86350250244141 57.43720626831055 89 51.80620574951172 89 45.99993515014648 C 89 40.19366455078125 87.86350250244141 34.56264877319336 85.6220703125 29.26333618164062 C 83.45647430419922 24.14329528808594 80.35559844970703 19.54439544677734 76.40558624267578 15.59437561035156 C 72.45557403564453 11.64437866210938 67.85667419433594 8.543502807617188 62.73661422729492 6.377906799316406 C 57.43730163574219 4.136489868164062 51.8062858581543 2.999992370605469 46 2.999992370605469 M 46 -7.62939453125e-06 C 71.40509033203125 -7.62939453125e-06 92 20.59486389160156 92 45.99993515014648 C 92 71.40499114990234 71.40509033203125 91.99986267089844 46 91.99986267089844 C 20.59490203857422 91.99986267089844 0 71.40499114990234 0 45.99993515014648 C 0 20.59486389160156 20.59490203857422 -7.62939453125e-06 46 -7.62939453125e-06 Z" stroke="none" fill="#ee70f7"/>
                  </g>
                </g>
              </g>
            </g>
          </g>
        </g>
      </g>
      <g id="animo" transform="translate(1108 3235.998)">
        <path id="Path_991224" data-name="Path 991224" d="M38.915,21.643v-1.88a1.7,1.7,0,0,0-1.7-1.7H27.28a1.7,1.7,0,0,1-1.5-2.5l2.087-3.881a2.833,2.833,0,0,0-2.5-4.175h-.958a1.133,1.133,0,0,0-1,.6L17.77,18.6a5.666,5.666,0,0,1-4.99,2.982H8.633A1.133,1.133,0,0,0,7.5,22.716V34.53a1.133,1.133,0,0,0,1.133,1.133h5.024a1.692,1.692,0,0,1,1.445.806,5.663,5.663,0,0,0,4.838,2.715H35.455a1.7,1.7,0,0,0,1.7-1.7V35.6a1.7,1.7,0,0,0-1.7-1.7h1.76a1.7,1.7,0,0,0,1.7-1.7v-1.88a1.7,1.7,0,0,0-1.7-1.7,1.7,1.7,0,0,0,1.7-1.7v-1.88a1.7,1.7,0,0,0-1.7-1.7,1.7,1.7,0,0,0,1.7-1.7Z" transform="translate(-6.65 -6.65)" fill="#ffe5c2"/>
        <path id="Path_991225" data-name="Path 991225" d="M305.478,235.493H309.2a1.133,1.133,0,0,0,1-1.67l-2.536-4.716a2.833,2.833,0,0,1,2.5-4.175h.958a1.133,1.133,0,0,1,1,.6l5.648,10.5a5.666,5.666,0,0,0,4.99,2.982H326.9a1.133,1.133,0,0,1,1.133,1.133V251.96a1.133,1.133,0,0,1-1.133,1.133h-5.024a1.692,1.692,0,0,0-1.445.806,5.663,5.663,0,0,1-4.838,2.715H305.478Z" transform="translate(-270.86 -199.44)" fill="#d78878"/>
        <path id="Path_991226" data-name="Path 991226" d="M100.775,104.272v-1.88a1.7,1.7,0,0,0-1.7-1.7H94.483V113.88a5.666,5.666,0,0,1-5.666,5.666H77.267a5.658,5.658,0,0,0,4.533,2.266H97.316a1.7,1.7,0,0,0,1.7-1.7v-1.88a1.7,1.7,0,0,0-1.7-1.7h1.76a1.7,1.7,0,0,0,1.7-1.7v-1.88a1.7,1.7,0,0,0-1.7-1.7,1.7,1.7,0,0,0,1.7-1.7v-1.88a1.7,1.7,0,0,0-1.7-1.7A1.7,1.7,0,0,0,100.775,104.272Z" transform="translate(-68.511 -89.279)" fill="#fed2a4"/>
        <path id="Path_991227" data-name="Path 991227" d="M249.922,449.417h-5.4a1.7,1.7,0,0,1-1.7-1.7v-1.881a1.7,1.7,0,0,1,1.7-1.7l1.554-1.76,3.847,1.76a1.7,1.7,0,0,1,1.7,1.7v1.881A1.7,1.7,0,0,1,249.922,449.417Z" transform="translate(-215.305 -392.244)" fill="#eb9c8d"/>
        <g id="Group_1154705" data-name="Group 1154705" transform="translate(6.13 6.132)">
          <path id="Path_991228" data-name="Path 991228" d="M331.945,59.373a13.693,13.693,0,0,0-4.059,4.058.568.568,0,0,1-.957,0,13.692,13.692,0,0,0-4.059-4.058.568.568,0,0,1,0-.957,13.706,13.706,0,0,0,4.059-4.058.568.568,0,0,1,.957,0,13.7,13.7,0,0,0,4.059,4.058A.568.568,0,0,1,331.945,59.373Z" transform="translate(-292.18 -54.096)" fill="#ffe177"/>
          <path id="Path_991229" data-name="Path 991229" d="M396.367,147.831a11.181,11.181,0,0,0-3.314,3.314.464.464,0,0,1-.782,0,11.181,11.181,0,0,0-3.314-3.314.464.464,0,0,1,0-.781,11.192,11.192,0,0,0,3.315-3.314.464.464,0,0,1,.781,0,11.192,11.192,0,0,0,3.315,3.314A.464.464,0,0,1,396.367,147.831Z" transform="translate(-350.819 -133.388)" fill="#ffe177"/>
          <path id="Path_991230" data-name="Path 991230" d="M104.96,335.662a13.693,13.693,0,0,1,4.059,4.058.568.568,0,0,0,.957,0,13.692,13.692,0,0,1,4.059-4.058.568.568,0,0,0,0-.957,13.706,13.706,0,0,1-4.059-4.058.568.568,0,0,0-.957,0,13.7,13.7,0,0,1-4.059,4.058A.568.568,0,0,0,104.96,335.662Z" transform="translate(-98.963 -299.075)" fill="#ffe177"/>
          <path id="Path_991231" data-name="Path 991231" d="M54.309,424.12a11.18,11.18,0,0,1,3.314,3.314.464.464,0,0,0,.782,0,11.179,11.179,0,0,1,3.314-3.314.464.464,0,0,0,0-.781,11.192,11.192,0,0,1-3.315-3.314.464.464,0,0,0-.781,0,11.192,11.192,0,0,1-3.315,3.314A.464.464,0,0,0,54.309,424.12Z" transform="translate(-54.096 -378.367)" fill="#ffe177"/>
        </g>
        <path id="Path_991232" data-name="Path 991232" d="M236.15,402.823H228.99a1.7,1.7,0,0,1-1.7-1.7v-1.881a1.7,1.7,0,0,1,1.7-1.7l3.314-1.76,3.847,1.76a1.7,1.7,0,0,1,1.7,1.7v1.881A1.7,1.7,0,0,1,236.15,402.823Z" transform="translate(-201.533 -350.93)" fill="#f1b0a2"/>
        <path id="Path_991233" data-name="Path 991233" d="M236.15,356.229H228.99a1.7,1.7,0,0,1-1.7-1.7v-1.88a1.7,1.7,0,0,1,1.7-1.7l3.314-1.76,3.847,1.76a1.7,1.7,0,0,1,1.7,1.7v1.88A1.7,1.7,0,0,1,236.15,356.229Z" transform="translate(-201.533 -309.616)" fill="#eb9c8d"/>
        <path id="Path_991234" data-name="Path 991234" d="M236.15,323.407H228.99a1.7,1.7,0,0,1-1.7-1.7v-1.881a1.7,1.7,0,0,1,1.7-1.7h7.161a1.7,1.7,0,0,1,1.7,1.7v1.881A1.7,1.7,0,0,1,236.15,323.407Z" transform="translate(-201.533 -282.074)" fill="#f1b0a2"/>
        <path id="Path_991235" data-name="Path 991235" d="M7.726,30.262a6.476,6.476,0,0,0,5.563,3.122H28.8a2.553,2.553,0,0,0,2.55-2.55v-1.88a2.538,2.538,0,0,0-.174-.925,2.554,2.554,0,0,0,1.934-2.475v-1.88a2.54,2.54,0,0,0-.651-1.7,2.54,2.54,0,0,0,.651-1.7v-1.88a2.54,2.54,0,0,0-.651-1.7,2.54,2.54,0,0,0,.651-1.7v-1.88a2.553,2.553,0,0,0-2.55-2.55H20.63a.85.85,0,0,1-.749-1.252l2.087-3.881A3.683,3.683,0,0,0,18.725,0h-.958A1.981,1.981,0,0,0,16.02,1.046L14.012,4.78a.85.85,0,0,0,1.5.805l2.008-3.734a.283.283,0,0,1,.25-.149h.958a1.983,1.983,0,0,1,1.747,2.922L18.384,8.505a2.526,2.526,0,0,0-.159,2.058h-1.8a.85.85,0,1,0,0,1.7H30.565a.851.851,0,0,1,.85.85v1.88a.851.851,0,0,1-.85.85h-5.34a.85.85,0,1,0,0,1.7h5.34a.851.851,0,0,1,.85.85v1.88a.851.851,0,0,1-.85.85h-5.34a.85.85,0,1,0,0,1.7h5.34a.851.851,0,0,1,.85.85v1.88a.851.851,0,0,1-.85.85h-5.34a.85.85,0,1,0,0,1.7H28.8a.851.851,0,0,1,.85.85v1.88a.851.851,0,0,1-.85.85H13.289a4.788,4.788,0,0,1-4.113-2.308,2.556,2.556,0,0,0-2.17-1.212H1.983A.284.284,0,0,1,1.7,27.88V16.066a.284.284,0,0,1,.283-.283H6.13a6.508,6.508,0,0,0,5.739-3.43l1.743-3.241a.85.85,0,1,0-1.5-.805l-1.743,3.241A4.81,4.81,0,0,1,6.13,14.083H1.983A1.985,1.985,0,0,0,0,16.066V27.88a1.985,1.985,0,0,0,1.983,1.983H7.007a.845.845,0,0,1,.719.4Z" transform="translate(0)"/>
        <path id="Path_991236" data-name="Path 991236" d="M59.775,171.7v3.52a.85.85,0,1,0,1.7,0V171.7a.85.85,0,1,0-1.7,0Z" transform="translate(-53.001 -151.49)"/>
        <path id="Path_991237" data-name="Path 991237" d="M250.922,231.513h-4.147a4.81,4.81,0,0,1-4.242-2.535l-5.648-10.5a1.981,1.981,0,0,0-1.747-1.044h-.958a3.683,3.683,0,0,0-3.244,5.427l2.536,4.716a.283.283,0,0,1-.25.417H222.34a2.553,2.553,0,0,0-2.55,2.55v1.88a2.54,2.54,0,0,0,.651,1.7,2.54,2.54,0,0,0-.651,1.7v1.88a2.54,2.54,0,0,0,.651,1.7,2.54,2.54,0,0,0-.651,1.7v1.881a2.554,2.554,0,0,0,1.934,2.474,2.538,2.538,0,0,0-.174.925v1.88a2.553,2.553,0,0,0,2.55,2.55h15.515a6.476,6.476,0,0,0,5.563-3.122.846.846,0,0,1,.719-.4h5.024a1.986,1.986,0,0,0,1.983-1.983V233.5a1.985,1.985,0,0,0-1.983-1.983Zm-29.432-.97a.851.851,0,0,1,.85-.85H229.5a.851.851,0,0,1,.85.85v1.88a.851.851,0,0,1-.85.85H222.34a.851.851,0,0,1-.85-.85Zm0,10.56a.851.851,0,0,1,.85-.85h.747a.85.85,0,0,0,0-1.7h-.747a.851.851,0,0,1-.85-.85v-1.881a.851.851,0,0,1,.85-.85H229.5a.851.851,0,0,1,.85.85V237.7a.851.851,0,0,1-.85.85h-2.334a.85.85,0,0,0,0,1.7H229.5a.851.851,0,0,1,.85.85v1.88a.851.851,0,0,1-.85.85H222.34a.851.851,0,0,1-.85-.85Zm1.76,7.161v-1.88a.851.851,0,0,1,.85-.85h5.4a.851.851,0,0,1,.85.85v1.88a.851.851,0,0,1-.85.85h-5.4A.851.851,0,0,1,223.25,248.264ZM251.2,245.31a.284.284,0,0,1-.283.283H245.9a2.556,2.556,0,0,0-2.17,1.212,4.788,4.788,0,0,1-4.113,2.308H231.9a2.539,2.539,0,0,0,.146-.85v-1.88a2.54,2.54,0,0,0-.651-1.7,2.539,2.539,0,0,0,.651-1.7V241.1a2.54,2.54,0,0,0-.651-1.7,2.539,2.539,0,0,0,.651-1.7v-1.881a2.54,2.54,0,0,0-.651-1.7,2.539,2.539,0,0,0,.651-1.7v-1.88a2.539,2.539,0,0,0-.146-.85h1.318a1.971,1.971,0,0,0,1.18-.387l.213.4a6.3,6.3,0,0,1,.748,2.972v2.138a7.21,7.21,0,0,0,4.937,6.849l.925.308a.85.85,0,0,0,.538-1.613l-.925-.308a5.513,5.513,0,0,1-3.774-5.236v-2.138a8,8,0,0,0-.951-3.777l-3.679-6.843a1.983,1.983,0,0,1,1.747-2.922h.958a.283.283,0,0,1,.25.149l5.648,10.5a6.507,6.507,0,0,0,5.739,3.43h4.147a.284.284,0,0,1,.283.283V245.31Z" transform="translate(-194.883 -192.79)"/>
        <path id="Path_991238" data-name="Path 991238" d="M315.758,53.437a12.922,12.922,0,0,1,3.807,3.806,1.418,1.418,0,0,0,2.385,0,12.923,12.923,0,0,1,3.806-3.806,1.418,1.418,0,0,0,0-2.384,12.939,12.939,0,0,1-3.807-3.806,1.418,1.418,0,0,0-2.385,0,12.936,12.936,0,0,1-3.807,3.806,1.418,1.418,0,0,0,0,2.384Zm5-4.915a14.679,14.679,0,0,0,3.724,3.723,14.665,14.665,0,0,0-3.724,3.723,14.663,14.663,0,0,0-3.724-3.723A14.681,14.681,0,0,0,320.757,48.521Z" transform="translate(-279.399 -41.314)"/>
        <path id="Path_991239" data-name="Path 991239" d="M381.845,139.686a1.314,1.314,0,0,0,0,2.209,10.394,10.394,0,0,1,3.062,3.062,1.311,1.311,0,0,0,1.1.6h0a1.31,1.31,0,0,0,1.1-.6,10.4,10.4,0,0,1,3.062-3.062,1.314,1.314,0,0,0,0-2.209,10.408,10.408,0,0,1-3.063-3.062,1.314,1.314,0,0,0-2.209,0A10.405,10.405,0,0,1,381.845,139.686Zm4.167-1.665a12.157,12.157,0,0,0,2.77,2.769,12.144,12.144,0,0,0-2.77,2.77,12.142,12.142,0,0,0-2.77-2.77A12.152,12.152,0,0,0,386.012,138.021Z" transform="translate(-338.039 -120.606)"/>
        <path id="Path_991240" data-name="Path 991240" d="M107.845,327.341a12.938,12.938,0,0,1-3.807-3.806,1.418,1.418,0,0,0-2.385,0,12.935,12.935,0,0,1-3.807,3.806,1.418,1.418,0,0,0,0,2.384,12.925,12.925,0,0,1,3.806,3.806,1.418,1.418,0,0,0,2.385,0,12.921,12.921,0,0,1,3.807-3.806,1.418,1.418,0,0,0,0-2.384Zm-9.075.956h0Zm4.076,3.959a14.665,14.665,0,0,0-3.724-3.723,14.678,14.678,0,0,0,3.724-3.723,14.681,14.681,0,0,0,3.724,3.723A14.665,14.665,0,0,0,102.845,332.257Z" transform="translate(-86.181 -286.293)"/>
        <path id="Path_991241" data-name="Path 991241" d="M55.532,415.976a10.407,10.407,0,0,1-3.063-3.062,1.314,1.314,0,0,0-2.209,0,10.408,10.408,0,0,1-3.063,3.062,1.314,1.314,0,0,0,0,2.209,10.4,10.4,0,0,1,3.062,3.062,1.31,1.31,0,0,0,1.1.6h0a1.311,1.311,0,0,0,1.1-.6,10.394,10.394,0,0,1,3.062-3.062,1.314,1.314,0,0,0,0-2.209Zm-4.167,3.874a12.148,12.148,0,0,0-2.77-2.77,12.158,12.158,0,0,0,2.77-2.769,12.156,12.156,0,0,0,2.77,2.769A12.147,12.147,0,0,0,51.365,419.85Z" transform="translate(-41.316 -365.586)"/>
      </g>
    </g>
  </g>
</svg>
