<svg xmlns="http://www.w3.org/2000/svg" xmlns:xlink="http://www.w3.org/1999/xlink" width="101.5" height="101.5" viewBox="0 0 101.5 101.5">
  <defs>
    <filter id="Path_982547" x="0" y="0" width="101.5" height="101.5" filterUnits="userSpaceOnUse">
      <feOffset dy="3" input="SourceAlpha"/>
      <feGaussianBlur stdDeviation="3" result="blur"/>
      <feFlood flood-opacity="0.161"/>
      <feComposite operator="in" in2="blur"/>
      <feComposite in="SourceGraphic"/>
    </filter>
  </defs>
  <g id="Group_1156479" data-name="Group 1156479" transform="translate(-184 -2718)">
    <g id="Group_1156010" data-name="Group 1156010">
      <g id="Group_1154242" data-name="Group 1154242" transform="translate(-8.377 -8483.932)">
        <g id="Group_1149576" data-name="Group 1149576" transform="translate(-131.623 7497.754)">
          <g id="Group_1147086" data-name="Group 1147086" transform="translate(333 3710.178)">
            <g transform="matrix(1, 0, 0, 1, -9, -6)" filter="url(#Path_982547)">
              <g id="Path_982547-2" data-name="Path 982547" transform="translate(9 6)" fill="#fdeffe">
                <path d="M 41.75 82 C 36.31562423706055 82 31.04459953308105 80.93599700927734 26.08334159851074 78.83757781982422 C 21.29058837890625 76.81040191650391 16.98592948913574 73.90802001953125 13.28895282745361 70.21104431152344 C 9.591976165771484 66.51406860351562 6.689599990844727 62.20942306518555 4.662435531616211 57.41666030883789 C 2.563999891281128 52.45539855957031 1.5 47.18437576293945 1.5 41.75 C 1.5 36.31562423706055 2.563999891281128 31.04459953308105 4.662435531616211 26.08334159851074 C 6.689599990844727 21.29058837890625 9.591976165771484 16.98592948913574 13.28895282745361 13.28895282745361 C 16.98592948913574 9.591976165771484 21.29058837890625 6.689599990844727 26.08334159851074 4.662435531616211 C 31.04459953308105 2.563999891281128 36.31562423706055 1.5 41.75 1.5 C 47.18437576293945 1.5 52.45539855957031 2.563999891281128 57.41666030883789 4.662435531616211 C 62.20942306518555 6.689599990844727 66.51406860351562 9.591976165771484 70.21104431152344 13.28895282745361 C 73.90802001953125 16.98592948913574 76.81040191650391 21.29058837890625 78.83757781982422 26.08334159851074 C 80.93599700927734 31.04459953308105 82 36.31562423706055 82 41.75 C 82 47.18437576293945 80.93599700927734 52.45539855957031 78.83757781982422 57.41666030883789 C 76.81040191650391 62.20942306518555 73.90802001953125 66.51408386230469 70.21104431152344 70.21104431152344 C 66.51408386230469 73.90802001953125 62.20942306518555 76.81040191650391 57.41666030883789 78.83757781982422 C 52.45539855957031 80.93599700927734 47.18437576293945 82 41.75 82 Z" stroke="none"/>
                <path d="M 41.75 3 C 36.5174674987793 3 31.44303894042969 4.024131774902344 26.66767883300781 6.043930053710938 C 22.05370712280273 7.9954833984375 17.90931701660156 10.7899169921875 14.34961700439453 14.34961700439453 C 10.7899169921875 17.90931701660156 7.9954833984375 22.05370712280273 6.043930053710938 26.66767883300781 C 4.024131774902344 31.44303894042969 3 36.5174674987793 3 41.75 C 3 46.9825325012207 4.024131774902344 52.05697250366211 6.043930053710938 56.83233261108398 C 7.9954833984375 61.44629287719727 10.7899169921875 65.59069061279297 14.34961700439453 69.150390625 C 17.90931701660156 72.71009063720703 22.05370712280273 75.5045166015625 26.66767883300781 77.45606994628906 C 31.44303894042969 79.47586822509766 36.5174674987793 80.5 41.75 80.5 C 46.9825325012207 80.5 52.05697250366211 79.47586822509766 56.83233261108398 77.45606994628906 C 61.44629287719727 75.5045166015625 65.59069061279297 72.71009063720703 69.150390625 69.150390625 C 72.71009063720703 65.59069061279297 75.5045166015625 61.44629287719727 77.45606994628906 56.83233261108398 C 79.47586822509766 52.05697250366211 80.5 46.9825325012207 80.5 41.75 C 80.5 36.5174674987793 79.47586822509766 31.44303894042969 77.45606994628906 26.66767883300781 C 75.5045166015625 22.05370712280273 72.71009063720703 17.90931701660156 69.150390625 14.34961700439453 C 65.59069061279297 10.7899169921875 61.44629287719727 7.9954833984375 56.83233261108398 6.043930053710938 C 52.05697250366211 4.024131774902344 46.9825325012207 3 41.75 3 M 41.75 0 C 64.80789184570312 0 83.5 18.69212341308594 83.5 41.75 C 83.5 64.80789184570312 64.80789184570312 83.5 41.75 83.5 C 18.69212341308594 83.5 0 64.80789184570312 0 41.75 C 0 18.69212341308594 18.69212341308594 0 41.75 0 Z" stroke="none" fill="#ee70f7"/>
              </g>
            </g>
          </g>
        </g>
      </g>
      <g id="usuario_1_" data-name="usuario (1)" transform="translate(186.698 2739)">
        <g id="Group_1156008" data-name="Group 1156008" transform="translate(24.092 0.79)">
          <path id="Path_993730" data-name="Path 993730" d="M145.12,7.5h6.236a.737.737,0,0,1,.521.216l3.055,3.055-9.281.926a.737.737,0,0,1-.521-.216Z" transform="translate(-133.083 -7.5)" fill="#d7ecfe"/>
          <path id="Path_993731" data-name="Path 993731" d="M62.74,56.56h-31.2a.737.737,0,0,1-.737-.737V8.237a.737.737,0,0,1,.737-.737h11.3l3.055,3.055a.737.737,0,0,0,.521.216H62a.737.737,0,0,1,.737.737V56.56Z" transform="translate(-30.802 -7.5)" fill="#f0fcff"/>
          <g id="Group_1155999" data-name="Group 1155999" transform="translate(29.99 3.271)">
            <path id="Path_993732" data-name="Path 993732" d="M318.783,38.562h-3.159a.737.737,0,0,1,.737.737V84.351h3.159V39.3A.737.737,0,0,0,318.783,38.562Z" transform="translate(-315.624 -38.562)" fill="#d7ecfe"/>
          </g>
          <g id="Group_1156003" data-name="Group 1156003" transform="translate(3.544 9.351)">
            <path id="Path_993733" data-name="Path 993733" d="M89.408,191.827h-.892a3.458,3.458,0,0,1-3.458-3.458v-8.553h7.809v8.553A3.459,3.459,0,0,1,89.408,191.827Z" transform="translate(-82.889 -171.024)" fill="#808b95"/>
            <path id="Path_993734" data-name="Path 993734" d="M151.144,179.816v8.553a3.458,3.458,0,0,1-3.458,3.458h5.3a3.458,3.458,0,0,0,3.458-3.458v-8.553Z" transform="translate(-138.923 -171.024)" fill="#5e6b75"/>
            <path id="Path_993735" data-name="Path 993735" d="M65.2,291.618a.737.737,0,0,1-.737-.737v-2.323a3.748,3.748,0,0,1,3.246-3.714h7.94a3.748,3.748,0,0,1,3.246,3.714v2.323a.737.737,0,0,1-.737.737Z" transform="translate(-64.464 -264.992)" fill="#fd8087"/>
            <path id="Path_993736" data-name="Path 993736" d="M187.6,284.843h-3.849c1.859.251,2.477,1.838,2.477,3.714v2.323a.737.737,0,0,1-.737.737h4.618a.737.737,0,0,0,.737-.737v-2.323A3.748,3.748,0,0,0,187.6,284.843Z" transform="translate(-171.194 -264.992)" fill="#fe646f"/>
            <path id="Path_993737" data-name="Path 993737" d="M103.908,275.929l-2.612.939v6.775h11.929v-6.775l-2.642-.939Z" transform="translate(-97.418 -257.016)" fill="#ffc344"/>
            <path id="Path_993738" data-name="Path 993738" d="M126.107,225.86v5.272a4.927,4.927,0,0,0,1.758,1.038A3.921,3.921,0,0,0,130.5,231v-4.034h-1.5a4.5,4.5,0,0,1-2.9-1.1Z" transform="translate(-119.616 -212.219)" fill="#ffdacc"/>
            <g id="Group_1156000" data-name="Group 1156000" transform="translate(8.248 13.641)">
              <path id="Path_993739" data-name="Path 993739" d="M144.817,226.961h-.258v4.171a4.928,4.928,0,0,1-1.758,1.038,4.944,4.944,0,0,0,4.917-1.038V225.86A4.5,4.5,0,0,1,144.817,226.961Z" transform="translate(-142.801 -225.86)" fill="#fcccb9"/>
            </g>
            <g id="Group_1156002" data-name="Group 1156002" transform="translate(1.692)">
              <path id="Path_993740" data-name="Path 993740" d="M110.173,128.876v8.22c0,2.595-4.273,3.586-4.653,3.486a4.7,4.7,0,0,1-3.507-4.545v-.358l-.881-1.867.881-1.868v-2.586a1.921,1.921,0,0,1,1.921-1.921h4.8A1.438,1.438,0,0,1,110.173,128.876Z" transform="translate(-98.963 -124.16)" fill="#ffece4"/>
              <path id="Path_993741" data-name="Path 993741" d="M148.028,127.436h-3.159a1.439,1.439,0,0,1,1.439,1.439v7.161a4.7,4.7,0,0,1-3.507,4.545,4.706,4.706,0,0,0,1.191.152h.777a4.7,4.7,0,0,0,4.7-4.7v-.358l.687-1.867-.687-1.868v-3.068A1.439,1.439,0,0,0,148.028,127.436Z" transform="translate(-136.244 -124.159)" fill="#ffdacc"/>
              <path id="Path_993742" data-name="Path 993742" d="M175.2,106.809A4.186,4.186,0,0,1,179.382,111v2.949h-2.576c0-1.345-.2-3.568-3.474-3.568v-3.568H175.2Z" transform="translate(-163.56 -105.704)" fill="#5e6b75"/>
              <path id="Path_993743" data-name="Path 993743" d="M89.037,102.733a1.284,1.284,0,0,0-1.431,1.253v1.12H85.03v-3.3a5.488,5.488,0,0,1,5.488-5.488h2.7a3.215,3.215,0,1,1-.009,6.431Z" transform="translate(-84.556 -96.313)" fill="#808b95"/>
              <g id="Group_1156001" data-name="Group 1156001" transform="translate(0 7.784)">
                <path id="Path_993744" data-name="Path 993744" d="M206.1,170.238h1.461a1.589,1.589,0,0,1,1.589,1.589v.558a1.589,1.589,0,0,1-1.589,1.589H206.1Z" transform="translate(-192.882 -170.238)" fill="#fcccb9"/>
                <path id="Path_993745" data-name="Path 993745" d="M83.58,170.238H82.119a1.589,1.589,0,0,0-1.589,1.589v.558a1.589,1.589,0,0,0,1.589,1.589H83.58Z" transform="translate(-80.53 -170.238)" fill="#fcccb9"/>
              </g>
            </g>
          </g>
          <g id="Group_1156004" data-name="Group 1156004" transform="translate(26.755 13.083)">
            <path id="Path_993746" data-name="Path 993746" d="M302.885,141.561H285.637a.737.737,0,0,1-.737-.737v-8.338a.737.737,0,0,1,.737-.737h17.248a.737.737,0,0,1,.737.737v8.338A.737.737,0,0,1,302.885,141.561Z" transform="translate(-284.9 -131.749)" fill="#9dcffd"/>
          </g>
          <g id="Group_1156005" data-name="Group 1156005" transform="translate(26.755 26.165)">
            <path id="Path_993747" data-name="Path 993747" d="M302.435,265.81h-16.8a.737.737,0,0,1-.737-.737v-8.338a.737.737,0,0,1,.737-.737h16.8a.737.737,0,0,1,.737.737v8.338A.737.737,0,0,1,302.435,265.81Z" transform="translate(-284.9 -255.998)" fill="#9dcffd"/>
          </g>
          <path id="Path_993748" data-name="Path 993748" d="M447.363,131.749H444.2a.737.737,0,0,1,.737.737v8.338a.737.737,0,0,1-.737.737h3.159a.737.737,0,0,0,.737-.737v-8.338A.737.737,0,0,0,447.363,131.749Z" transform="translate(-400.675 -118.666)" fill="#84c4f4"/>
          <path id="Path_993749" data-name="Path 993749" d="M447.363,256H444.2a.737.737,0,0,1,.737.737v8.338a.737.737,0,0,1-.737.737h3.159a.737.737,0,0,0,.737-.737v-8.338A.737.737,0,0,0,447.363,256Z" transform="translate(-400.675 -229.833)" fill="#84c4f4"/>
          <g id="Group_1156006" data-name="Group 1156006" transform="translate(13.387 40.883)">
            <path id="Path_993750" data-name="Path 993750" d="M188.845,405.59H158.679a.737.737,0,0,1-.737-.737v-8.338a.737.737,0,0,1,.737-.737h30.166a.737.737,0,0,1,.737.737v8.338A.737.737,0,0,1,188.845,405.59Z" transform="translate(-157.942 -395.778)" fill="#9dcffd"/>
          </g>
          <path id="Path_993751" data-name="Path 993751" d="M447.363,395.778H444.2a.737.737,0,0,1,.737.737v8.338a.737.737,0,0,1-.737.737h3.159a.737.737,0,0,0,.737-.737v-8.338A.737.737,0,0,0,447.363,395.778Z" transform="translate(-400.675 -354.895)" fill="#84c4f4"/>
          <g id="Group_1156007" data-name="Group 1156007" transform="translate(3.27 39.244)">
            <path id="Path_993752" data-name="Path 993752" d="M72.853,388.257c0,6.144-5.529,6.476-6.035,6.35a6.544,6.544,0,0,1,0-12.7C67.324,381.782,72.853,382.148,72.853,388.257Z" transform="translate(-61.855 -381.712)" fill="#abdc94"/>
            <path id="Path_993753" data-name="Path 993753" d="M108.988,380.4a6.544,6.544,0,0,1,0,12.7,6.544,6.544,0,1,0,0-12.7Z" transform="translate(-104.025 -380.206)" fill="#8ccf75"/>
            <path id="Path_993754" data-name="Path 993754" d="M103.145,420.216l-.758,1.536-1.695.246,1.226,1.2.347.022a1.543,1.543,0,0,0,1.638-1.464Z" transform="translate(-96.603 -416.003)" fill="#ffe177"/>
            <path id="Path_993755" data-name="Path 993755" d="M113.559,434.991l-1.695-.246,0-.007a2.685,2.685,0,0,1-1.982,1.453l-.289,1.683,1.516-.8,1.516.8-.29-1.688Z" transform="translate(-104.564 -428.996)" fill="#ffce71"/>
          </g>
        </g>
        <g id="Group_1156009" data-name="Group 1156009" transform="translate(23.302 0)">
          <path id="Path_993756" data-name="Path 993756" d="M57.751,31.067a.789.789,0,1,0,.792.789A.791.791,0,0,0,57.751,31.067Z" transform="translate(-53.419 -27.796)"/>
          <path id="Path_993757" data-name="Path 993757" d="M89.853,32.642a.79.79,0,1,0-.79-.79A.791.791,0,0,0,89.853,32.642Z" transform="translate(-82.139 -27.792)"/>
          <path id="Path_993758" data-name="Path 993758" d="M121.953,32.642a.79.79,0,1,0-.79-.79A.792.792,0,0,0,121.953,32.642Z" transform="translate(-110.859 -27.792)"/>
          <path id="Path_993759" data-name="Path 993759" d="M56.964,113.167v2.323a1.529,1.529,0,0,0,1.527,1.527H76.672a1.529,1.529,0,0,0,1.527-1.527v-2.323a4.558,4.558,0,0,0-2.681-4.139,4.225,4.225,0,0,0,.543-2.081v-6.028a2.365,2.365,0,0,0,.447-1.386,2.974,2.974,0,0,0-.45-1.948V94.893a4.982,4.982,0,0,0-4.976-4.976h-.215a3.991,3.991,0,0,0-2.76-1.105h-2.7a6.285,6.285,0,0,0-6.278,6.278v2.462a2.96,2.96,0,0,0-.474,1.981,2.367,2.367,0,0,0,.477,1.427v5.988a4.26,4.26,0,0,0,.54,2.07,4.558,4.558,0,0,0-2.708,4.151ZM70.935,95.653q.069-.069.135-.141a2.224,2.224,0,0,1,.808,1.874v4.093a3.913,3.913,0,0,1-3.908,3.908h-.777a3.913,3.913,0,0,1-3.908-3.908v-4.2a.457.457,0,0,1,.158-.34c.228-.2.007-.1,4.653-.112h.011A3.978,3.978,0,0,0,70.935,95.653Zm2.921,13.01H73.7l-1.989-.706v-2.465a5.477,5.477,0,0,0,1.732-3.581,7.744,7.744,0,0,0,1.041-.026v5.062A2.649,2.649,0,0,1,73.856,108.663Zm-8.822-.514v-1.625a6.689,6.689,0,0,0,2.936.443,5.458,5.458,0,0,0,2.159-.443v1.625A4.127,4.127,0,0,1,65.034,108.149Zm9.894-9.174v.558a.8.8,0,0,1-.8.8h-.672V98.175h.672A.8.8,0,0,1,74.928,98.974Zm-13.222,1.357h-.672a.8.8,0,0,1-.8-.8v-.558a.8.8,0,0,1,.8-.8h.672Zm-.994,1.558a8.381,8.381,0,0,0,1.011.022,5.476,5.476,0,0,0,1.732,3.581v2.467l-1.96.7h-.158a2.64,2.64,0,0,1-.625-1.717Zm1.71,8.12,1.663-.6a5.713,5.713,0,0,0,2.707,1.135v1.825a.79.79,0,1,0,1.579,0v-1.825a5.714,5.714,0,0,0,2.708-1.136l1.691.6v5.428H62.422Zm14.2,3.159v2.271H74.35V110.29A2.97,2.97,0,0,1,76.62,113.167ZM74.478,94.893v1.728a8.333,8.333,0,0,0-1.091-.026,3.474,3.474,0,0,0-1.5-2.441,4.026,4.026,0,0,0,.039-2.553A3.4,3.4,0,0,1,74.478,94.893Zm-9.071-4.5h2.7a2.4,2.4,0,0,1,1.912.935,2.425,2.425,0,0,1-1.912,3.916H68.1l-4.133-.011A2.086,2.086,0,0,0,61.824,96.6a9.373,9.373,0,0,0-1.115.022V95.09a4.7,4.7,0,0,1,4.7-4.7Zm-6.864,22.776a2.97,2.97,0,0,1,2.3-2.884v5.155h-2.3Z" transform="translate(-53.42 -79.461)"/>
          <path id="Path_993760" data-name="Path 993760" d="M70.779,24.474a1.529,1.529,0,0,0,1.527-1.527V14.609a1.529,1.529,0,0,0-1.527-1.527H58.767V4.8a1.529,1.529,0,0,0-1.527-1.527H46.268L43.444.447A1.517,1.517,0,0,0,42.365,0H24.829A1.529,1.529,0,0,0,23.3,1.527v8.832a.79.79,0,1,0,1.579,0V1.579H35.8L38.625,4.4A1.517,1.517,0,0,0,39.7,4.85H57.188v8.233h-5.6a1.529,1.529,0,0,0-1.527,1.527v8.338a1.529,1.529,0,0,0,1.527,1.527h5.6v1.691h-5.6a1.529,1.529,0,0,0-1.527,1.527V36.03a1.529,1.529,0,0,0,1.527,1.527h5.6v3.327H38.516A7.323,7.323,0,0,0,29.8,40.5a.79.79,0,0,0,.884,1.309A5.752,5.752,0,1,1,28.71,44.1a.79.79,0,0,0-1.425-.681A7.337,7.337,0,0,0,27,49.06H24.881V13.674a.79.79,0,1,0-1.579,0V49.113a1.529,1.529,0,0,0,1.527,1.527H27.8a7.326,7.326,0,0,0,10.715,1.635H70.779a1.529,1.529,0,0,0,1.527-1.527V42.41a1.529,1.529,0,0,0-1.527-1.527H58.767V37.557H70.779a1.529,1.529,0,0,0,1.527-1.527V33.882a.79.79,0,0,0-1.579,0v2.1H51.636V27.745h19.09v2.7a.79.79,0,1,0,1.579,0V27.692a1.529,1.529,0,0,0-1.527-1.527H58.767V24.474H70.779ZM38.035,1.579h4.308l1.691,1.691H39.726ZM70.727,50.7H39.969a7.316,7.316,0,0,0,0-8.233H70.727ZM51.636,14.662h19.09v8.233H51.636Z" transform="translate(-23.302 0)"/>
          <path id="Path_993761" data-name="Path 993761" d="M330.427,155.312H318.179a.79.79,0,1,0,0,1.579h12.248a.79.79,0,1,0,0-1.579Z" transform="translate(-286.423 -138.959)"/>
          <path id="Path_993762" data-name="Path 993762" d="M328.457,186.374H318.179a.79.79,0,1,0,0,1.579h10.278a.79.79,0,1,0,0-1.579Z" transform="translate(-286.423 -166.75)"/>
          <path id="Path_993763" data-name="Path 993763" d="M331.217,280.351a.79.79,0,0,0-.79-.79H318.179a.79.79,0,1,0,0,1.579h12.248A.79.79,0,0,0,331.217,280.351Z" transform="translate(-286.423 -250.125)"/>
          <path id="Path_993764" data-name="Path 993764" d="M318.179,310.623a.79.79,0,1,0,0,1.579h10.278a.79.79,0,1,0,0-1.579Z" transform="translate(-286.423 -277.916)"/>
          <path id="Path_993765" data-name="Path 993765" d="M218.09,420.919h22.787a.79.79,0,1,0,0-1.579H218.09a.79.79,0,0,0,0,1.579Z" transform="translate(-196.873 -375.186)"/>
          <path id="Path_993766" data-name="Path 993766" d="M218.09,451.982h20.817a.79.79,0,1,0,0-1.579H218.09a.79.79,0,1,0,0,1.579Z" transform="translate(-196.873 -402.978)"/>
          <path id="Path_993767" data-name="Path 993767" d="M99,414.512l-1.284-.187-.574-1.164a.79.79,0,0,0-1.416,0l-.574,1.164-1.284.187a.79.79,0,0,0-.438,1.347l.929.906-.219,1.279a.79.79,0,0,0,1.146.832l1.148-.6,1.149.6a.79.79,0,0,0,1.146-.833l-.219-1.279.929-.906A.79.79,0,0,0,99,414.512Zm-1.891,1.412a.789.789,0,0,0-.227.7l.019.111-.1-.052a.79.79,0,0,0-.735,0l-.1.052.019-.111a.789.789,0,0,0-.227-.7l-.081-.079.112-.016a.79.79,0,0,0,.595-.432l.05-.1.05.1a.79.79,0,0,0,.595.432l.112.016Z" transform="translate(-85.83 -369.265)"/>
        </g>
      </g>
    </g>
  </g>
</svg>
