<svg xmlns="http://www.w3.org/2000/svg" xmlns:xlink="http://www.w3.org/1999/xlink" width="108" height="108" viewBox="0 0 108 108">
  <defs>
    <filter id="Path_982538" x="0" y="0" width="108" height="108" filterUnits="userSpaceOnUse">
      <feOffset dy="3" input="SourceAlpha"/>
      <feGaussianBlur stdDeviation="3" result="blur"/>
      <feFlood flood-opacity="0.161"/>
      <feComposite operator="in" in2="blur"/>
      <feComposite in="SourceGraphic"/>
    </filter>
  </defs>
  <g id="Group_1156482" data-name="Group 1156482" transform="translate(-204 -3599)">
    <g id="Group_1156014" data-name="Group 1156014">
      <g id="Group_1154245" data-name="Group 1154245" transform="translate(-413 -5983)">
        <g id="Group_1149573" data-name="Group 1149573" transform="translate(416 5416.88)">
          <g id="Group_1146955" data-name="Group 1146955" transform="translate(0 1196.12)">
            <g transform="matrix(1, 0, 0, 1, 201, 2969)" filter="url(#Path_982538)">
              <g id="Path_982538-2" data-name="Path 982538" transform="translate(9 6)" fill="#fdeffe">
                <path d="M 45 88.5 C 39.12687683105469 88.5 33.43022537231445 87.35007476806641 28.06830024719238 85.08217620849609 C 22.88852500915527 82.89131164550781 18.23629951477051 79.75458526611328 14.2408504486084 75.75914764404297 C 10.24541282653809 71.76370239257812 7.108687400817871 67.11147308349609 4.917825222015381 61.93170166015625 C 2.649924993515015 56.56977462768555 1.5 50.87312316894531 1.5 45 C 1.5 39.12687683105469 2.649924993515015 33.43022537231445 4.917825222015381 28.06830024719238 C 7.108687400817871 22.88852500915527 10.24541282653809 18.23629951477051 14.2408504486084 14.2408504486084 C 18.23629951477051 10.24541282653809 22.88852500915527 7.108687400817871 28.06830024719238 4.917825222015381 C 33.43022537231445 2.649924993515015 39.12687683105469 1.5 45 1.5 C 50.87312316894531 1.5 56.56977462768555 2.649924993515015 61.93170166015625 4.917825222015381 C 67.11147308349609 7.108687400817871 71.76370239257812 10.24541282653809 75.75914764404297 14.2408504486084 C 79.75458526611328 18.23629951477051 82.89131164550781 22.88852500915527 85.08217620849609 28.06830024719238 C 87.35007476806641 33.43022537231445 88.5 39.12687683105469 88.5 45 C 88.5 50.87312316894531 87.35007476806641 56.56977462768555 85.08217620849609 61.93170166015625 C 82.89131164550781 67.11147308349609 79.75458526611328 71.76370239257812 75.75914764404297 75.75914764404297 C 71.76370239257812 79.75458526611328 67.11147308349609 82.89131164550781 61.93170166015625 85.08217620849609 C 56.56977462768555 87.35007476806641 50.87312316894531 88.5 45 88.5 Z" stroke="none"/>
                <path d="M 45 3 C 39.32871246337891 3 33.82865524291992 4.110054016113281 28.65262985229492 6.299339294433594 C 23.65165710449219 8.414573669433594 19.15968322753906 11.44334411621094 15.301513671875 15.301513671875 C 11.44334411621094 19.15968322753906 8.414573669433594 23.65165710449219 6.299339294433594 28.65262985229492 C 4.110054016113281 33.82865524291992 3 39.32871246337891 3 45 C 3 50.67128753662109 4.110054016113281 56.17134475708008 6.299339294433594 61.34737396240234 C 8.414573669433594 66.34834289550781 11.44334411621094 70.84031677246094 15.301513671875 74.698486328125 C 19.15968322753906 78.55665588378906 23.65165710449219 81.58542633056641 28.65262985229492 83.70066070556641 C 33.82865524291992 85.88994598388672 39.32871246337891 87 45 87 C 50.67128753662109 87 56.17134475708008 85.88994598388672 61.34737396240234 83.70066070556641 C 66.34834289550781 81.58542633056641 70.84031677246094 78.55665588378906 74.698486328125 74.698486328125 C 78.55665588378906 70.84031677246094 81.58542633056641 66.34834289550781 83.70066070556641 61.34737396240234 C 85.88994598388672 56.17134475708008 87 50.67128753662109 87 45 C 87 39.32871246337891 85.88994598388672 33.82865524291992 83.70066070556641 28.65262985229492 C 81.58542633056641 23.65165710449219 78.55665588378906 19.15968322753906 74.698486328125 15.301513671875 C 70.84031677246094 11.44334411621094 66.34834289550781 8.414573669433594 61.34737396240234 6.299339294433594 C 56.17134475708008 4.110054016113281 50.67128753662109 3 45 3 M 45 0 C 69.85281372070312 0 90 20.14718627929688 90 45 C 90 69.85281372070312 69.85281372070312 90 45 90 C 20.14718627929688 90 0 69.85281372070312 0 45 C 0 20.14718627929688 20.14718627929688 0 45 0 Z" stroke="none" fill="#ee70f7"/>
              </g>
            </g>
          </g>
        </g>
      </g>
      <g id="informacion_2_" data-name="informacion (2)" transform="translate(226 3617.72)">
        <path id="Path_993787" data-name="Path 993787" d="M43.96.28A2.9,2.9,0,0,0,41.04,3.2a2.8,2.8,0,0,0,.45,1.52L40.03,6.53l-16.05.01L22.52,4.73a2.9,2.9,0,0,0-.41-3.59A2.871,2.871,0,0,0,20.04.29a2.987,2.987,0,0,0-2.07.85,2.946,2.946,0,0,0,0,4.14,2.912,2.912,0,0,0,2.07.85,3.137,3.137,0,0,0,.97-.17l1.76,2.17a.969.969,0,0,0,.75.36l16.96-.01a.972.972,0,0,0,.76-.36L43,5.94a2.784,2.784,0,0,0,.97.17A2.915,2.915,0,1,0,43.96.28ZM20.72,3.89a.985.985,0,0,1-.69.29,1.046,1.046,0,0,1-.7-.29.983.983,0,0,1,.7-1.67.993.993,0,0,1,.69.28.967.967,0,0,1,.29.7.907.907,0,0,1-.29.69Zm23.25.28a.99.99,0,0,1-.99-.98,1,1,0,0,1,.29-.69.981.981,0,1,1,.7,1.67Z" fill="#2a2f64"/>
        <path id="Path_993788" data-name="Path 993788" d="M21.01,3.2a.961.961,0,0,1-.29.69.985.985,0,0,1-.69.29,1.046,1.046,0,0,1-.7-.29.983.983,0,0,1,.7-1.67.993.993,0,0,1,.69.28.944.944,0,0,1,.29.7Z" fill="#ffdc7c"/>
        <path id="Path_993789" data-name="Path 993789" d="M44.95,3.2a.985.985,0,0,1-1.97,0,1,1,0,0,1,.29-.69.983.983,0,0,1,1.68.69Z" fill="#ffdc7c"/>
        <path id="Path_993790" data-name="Path 993790" d="M61.08,41.94a2.927,2.927,0,0,0-1.34.34l-4.68-4.45a1.019,1.019,0,0,0-.67-.26l-6.1-.01a18.809,18.809,0,0,0,.55-1.95h2.33a.977.977,0,0,0,.97-.97V29.35a.977.977,0,0,0-.97-.97H48.84c-.15-.66-.34-1.3-.55-1.94l6.1-.01a1.04,1.04,0,0,0,.67-.26l4.68-4.45A2.908,2.908,0,0,0,64,19.13a2.972,2.972,0,0,0-.85-2.07,2.912,2.912,0,0,0-2.07-.85,3.011,3.011,0,0,0-2.08.85,2.951,2.951,0,0,0-.85,2.07,3.116,3.116,0,0,0,.25,1.18L54,24.49l-6.52.01a15.88,15.88,0,0,0-1.03-1.85L48.11,21a.978.978,0,0,0,0-1.38l-.96-.96,6.59-5.57a.975.975,0,0,0,.35-.75V8.79A2.914,2.914,0,1,0,50.2,6.05v.01a2.9,2.9,0,0,0,1.95,2.73V11.9l-6.38,5.39-1.41-1.41a.948.948,0,0,0-1.37,0l-1.65,1.65a17.078,17.078,0,0,0-5.73-2.38V12.81a.977.977,0,0,0-.97-.97h-5.3a.977.977,0,0,0-.97.97v2.34a16.744,16.744,0,0,0-5.72,2.38l-1.66-1.66a.978.978,0,0,0-1.38.01L18.2,17.29,11.84,11.9V8.79a2.924,2.924,0,0,0,1.94-2.73,2.854,2.854,0,0,0-.85-2.07,2.887,2.887,0,0,0-2.07-.86A2.91,2.91,0,0,0,9.9,8.79v3.56a.99.99,0,0,0,.35.75l6.58,5.58-.96.95a.978.978,0,0,0,0,1.38l1.65,1.65a15.81,15.81,0,0,0-1.02,1.85l-6.53.01-4.4-4.19a2.89,2.89,0,0,0,.25-1.17,2.987,2.987,0,0,0-.85-2.07,2.951,2.951,0,0,0-2.07-.85,2.915,2.915,0,0,0,.02,5.83,2.855,2.855,0,0,0,1.33-.34l4.69,4.45a.962.962,0,0,0,.67.27l6.1-.01a19.355,19.355,0,0,0-.55,1.94H12.82a.977.977,0,0,0-.97.97v5.29a.977.977,0,0,0,.97.97h2.34c.15.66.34,1.31.55,1.95l-6.1-.01a1.019,1.019,0,0,0-.67.26L4.25,42.27a2.824,2.824,0,0,0-1.33-.34,2.92,2.92,0,1,0,0,5.84,2.987,2.987,0,0,0,2.07-.85,2.951,2.951,0,0,0,.85-2.07,3.116,3.116,0,0,0-.25-1.18l4.4-4.18,6.53.01a16.662,16.662,0,0,0,1.02,1.85L15.88,43a.966.966,0,0,0,0,1.37l.96.96-6.58,5.58a.97.97,0,0,0-.35.74v3.56a2.91,2.91,0,0,0,.96,5.66,2.9,2.9,0,0,0,2.07-.85,2.854,2.854,0,0,0,.85-2.07,2.9,2.9,0,0,0-1.94-2.73V52.1l6.36-5.39,1.41,1.41a.978.978,0,0,0,1.38,0l1.66-1.65a17.234,17.234,0,0,0,5.72,2.38v2.33a.971.971,0,0,0,.97.97h5.3a.971.971,0,0,0,.97-.97V48.85a16.994,16.994,0,0,0,5.73-2.38L43,48.11a.984.984,0,0,0,1.37,0l1.42-1.41,6.37,5.39V55.2a2.909,2.909,0,0,0-1.95,2.73A2.987,2.987,0,0,0,51.06,60a2.927,2.927,0,0,0,4.99-2.07,2.9,2.9,0,0,0-1.95-2.74V51.63a.985.985,0,0,0-.35-.74l-6.59-5.58.96-.96a.966.966,0,0,0,0-1.37l-1.65-1.66a16.606,16.606,0,0,0,1.03-1.84l6.5.03,4.4,4.18a2.962,2.962,0,0,0-.25,1.17,2.927,2.927,0,1,0,2.93-2.92Zm0-23.79a1,1,0,0,1,.69.29.985.985,0,0,1,.29.69,1.027,1.027,0,0,1-.29.7.976.976,0,0,1-.69.28,1.03,1.03,0,0,1-.69-.27c-.01-.02-.01-.04-.03-.05a.01.01,0,0,0-.01-.01.969.969,0,0,1,.73-1.63ZM52.14,6.05a.98.98,0,1,1,.98.99A.988.988,0,0,1,52.14,6.05Zm-41.27.99a.985.985,0,0,1,0-1.97,1.027,1.027,0,0,1,.7.29.976.976,0,0,1,.28.69A.99.99,0,0,1,10.87,7.04ZM3.64,19.8c0,.01-.01.01,0,0-.02.02-.02.03-.03.04a.95.95,0,0,1-.69.29.98.98,0,1,1,0-1.96.975.975,0,0,1,.98.98,1.019,1.019,0,0,1-.26.65ZM2.92,45.83a.98.98,0,1,1,0-1.96,1,1,0,0,1,.69.28c.01.01.01.03.02.04h.01a.977.977,0,0,1-.72,1.64Zm8.65,12.81a1,1,0,0,1-.7.28.957.957,0,1,1,.7-.28Zm41.55-1.68a.98.98,0,1,1-.98.98A.988.988,0,0,1,53.12,56.96ZM47.08,34.5a14.927,14.927,0,0,1-2.66,6.39.973.973,0,0,0,.1,1.26l1.53,1.54-2.37,2.37-1.53-1.53a.96.96,0,0,0-1.25-.1,15.312,15.312,0,0,1-6.41,2.66.965.965,0,0,0-.81.95V50.2H30.32V48.04a.958.958,0,0,0-.8-.95,15.259,15.259,0,0,1-6.41-2.66.959.959,0,0,0-1.25.1l-1.54,1.53-2.37-2.37,1.53-1.53a.971.971,0,0,0,.1-1.25,15.406,15.406,0,0,1-2.66-6.42.968.968,0,0,0-.96-.81H13.8V30.32h2.16a.968.968,0,0,0,.96-.8,15.406,15.406,0,0,1,2.66-6.42.971.971,0,0,0-.1-1.25l-1.53-1.53,2.37-2.37,1.54,1.53a.971.971,0,0,0,1.25.1,15.131,15.131,0,0,1,6.41-2.66.959.959,0,0,0,.8-.96V13.8h3.36v2.16a.977.977,0,0,0,.81.96,15.184,15.184,0,0,1,6.41,2.66.972.972,0,0,0,1.25-.1l1.53-1.53,2.37,2.37-1.53,1.54a.96.96,0,0,0-.1,1.25,15.018,15.018,0,0,1,2.66,6.4.949.949,0,0,0,.95.81H50.2v3.36H48.03a.942.942,0,0,0-.95.82ZM61.77,45.56a.985.985,0,0,1-.69.29,1,1,0,0,1-.99-.99.983.983,0,0,1,.26-.64l.01-.01a.133.133,0,0,0,.03-.05,1.02,1.02,0,0,1,.69-.28,1,1,0,0,1,.69.29.978.978,0,0,1,0,1.39Z" fill="#2a2f64"/>
        <path id="Path_993791" data-name="Path 993791" d="M48.03,30.32a.95.95,0,0,1-.95-.81,15.018,15.018,0,0,0-2.66-6.4.96.96,0,0,1,.1-1.25l1.53-1.54-2.37-2.37-1.53,1.53a.972.972,0,0,1-1.25.1,15.184,15.184,0,0,0-6.41-2.66.968.968,0,0,1-.81-.96V13.8H30.32v2.16a.968.968,0,0,1-.8.96,15.131,15.131,0,0,0-6.41,2.66.971.971,0,0,1-1.25-.1l-1.54-1.53-2.37,2.37,1.53,1.53a.971.971,0,0,1,.1,1.25,15.406,15.406,0,0,0-2.66,6.42.959.959,0,0,1-.96.8H13.8v3.36h2.16a.977.977,0,0,1,.96.81,15.407,15.407,0,0,0,2.66,6.42.971.971,0,0,1-.1,1.25l-1.53,1.53,2.37,2.37,1.54-1.53a.959.959,0,0,1,1.25-.1,15.259,15.259,0,0,0,6.41,2.66.956.956,0,0,1,.8.95V50.2h3.36V48.04a.967.967,0,0,1,.81-.95,15.312,15.312,0,0,0,6.41-2.66.96.96,0,0,1,1.25.1l1.53,1.53,2.37-2.37-1.53-1.54a.973.973,0,0,1-.1-1.26,14.927,14.927,0,0,0,2.66-6.39.957.957,0,0,1,.95-.82H50.2V30.32ZM31.99,43.44A11.435,11.435,0,1,1,43.43,32,11.446,11.446,0,0,1,31.99,43.44Z" fill="#53be9e"/>
        <path id="Path_993792" data-name="Path 993792" d="M48.03,30.32a.95.95,0,0,1-.95-.81,15.018,15.018,0,0,0-2.66-6.4.96.96,0,0,1,.1-1.25l1.53-1.54-2.37-2.37-1.53,1.53a.972.972,0,0,1-1.25.1,15.184,15.184,0,0,0-6.41-2.66.968.968,0,0,1-.81-.96V13.8H30.32v2.16a.968.968,0,0,1-.8.96,15.131,15.131,0,0,0-6.41,2.66.971.971,0,0,1-1.25-.1l-1.54-1.53-2.37,2.37,1.53,1.53a.971.971,0,0,1,.1,1.25,15.406,15.406,0,0,0-2.66,6.42.959.959,0,0,1-.96.8H13.8v3.36h2.16a.977.977,0,0,1,.96.81,15.407,15.407,0,0,0,2.66,6.42.971.971,0,0,1-.1,1.25l-1.53,1.53,2.37,2.37,1.54-1.53a.959.959,0,0,1,1.25-.1,15.259,15.259,0,0,0,6.41,2.66.956.956,0,0,1,.8.95V50.2h3.36V48.04a.967.967,0,0,1,.81-.95,15.312,15.312,0,0,0,6.41-2.66.96.96,0,0,1,1.25.1l1.53,1.53,2.37-2.37-1.53-1.54a.973.973,0,0,1-.1-1.26,14.927,14.927,0,0,0,2.66-6.39.957.957,0,0,1,.95-.82H50.2V30.32Zm.72,3.22h-2a.874.874,0,0,0-.87.76,13.977,13.977,0,0,1-2.44,5.89.882.882,0,0,0,.09,1.15l1.41,1.43-2.17,2.17-1.42-1.41a.871.871,0,0,0-1.14-.09,14.319,14.319,0,0,1-5.91,2.44.889.889,0,0,0-.75.87v1.99H30.46V46.75a.873.873,0,0,0-.75-.87,14.334,14.334,0,0,1-5.9-2.44.87.87,0,0,0-1.14.09l-1.43,1.41-2.17-2.17,1.41-1.42a.883.883,0,0,0,.09-1.14,14.36,14.36,0,0,1-2.44-5.92.9.9,0,0,0-.88-.75H15.26V30.46h1.99a.883.883,0,0,0,.88-.75,14.431,14.431,0,0,1,2.44-5.91.882.882,0,0,0-.09-1.14l-1.41-1.42,2.17-2.17,1.43,1.41a.883.883,0,0,0,1.14.09,14.146,14.146,0,0,1,5.9-2.44.891.891,0,0,0,.75-.88V15.26h3.09v1.99a.892.892,0,0,0,.75.88,14.241,14.241,0,0,1,5.91,2.44.883.883,0,0,0,1.14-.09l1.42-1.41,2.17,2.17-1.41,1.43a.871.871,0,0,0-.09,1.14,13.964,13.964,0,0,1,2.44,5.9.873.873,0,0,0,.87.75h2Z" fill="#3ba37f"/>
        <g id="Group_1156013" data-name="Group 1156013">
          <path id="Path_993793" data-name="Path 993793" d="M3.9,44.85a.98.98,0,1,1-.98-.98,1,1,0,0,1,.69.28c.01.01.01.03.02.04h.01A1.046,1.046,0,0,1,3.9,44.85Z" fill="#ffdc7c"/>
          <path id="Path_993794" data-name="Path 993794" d="M11.85,57.94a1.017,1.017,0,0,1-.28.7,1,1,0,0,1-.7.28.98.98,0,1,1,.98-.98Z" fill="#ffdc7c"/>
          <circle id="Ellipse_11715" data-name="Ellipse 11715" cx="0.98" cy="0.98" r="0.98" transform="translate(52.14 56.96)" fill="#ffdc7c"/>
          <path id="Path_993795" data-name="Path 993795" d="M62.06,44.87a1,1,0,0,1-.29.69.985.985,0,0,1-.69.29,1,1,0,0,1-.99-.99.983.983,0,0,1,.26-.64l.01-.01a.133.133,0,0,0,.03-.05,1.02,1.02,0,0,1,.69-.28.99.99,0,0,1,.98.99Z" fill="#ffdc7c"/>
          <path id="Path_993796" data-name="Path 993796" d="M62.06,19.13a1.027,1.027,0,0,1-.29.7.976.976,0,0,1-.69.28,1.03,1.03,0,0,1-.69-.27c-.01-.02-.01-.04-.03-.05a.01.01,0,0,0-.01-.01.969.969,0,0,1,.73-1.63,1,1,0,0,1,.69.29.985.985,0,0,1,.29.69Z" fill="#ffdc7c"/>
          <path id="Path_993797" data-name="Path 993797" d="M3.9,19.15a1,1,0,0,1-.26.65.01.01,0,0,1-.01.01c-.01.01-.01.02-.02.03a.95.95,0,0,1-.69.29.98.98,0,1,1,0-1.96.975.975,0,0,1,.98.98Z" fill="#ffdc7c"/>
          <path id="Path_993798" data-name="Path 993798" d="M11.85,6.05a.99.99,0,0,1-.98.99.985.985,0,0,1,0-1.97,1.027,1.027,0,0,1,.7.29A.959.959,0,0,1,11.85,6.05Z" fill="#ffdc7c"/>
          <path id="Path_993799" data-name="Path 993799" d="M54.1,6.05a.98.98,0,1,1-.98-.98A.982.982,0,0,1,54.1,6.05Z" fill="#ffdc7c"/>
        </g>
        <path id="Path_993800" data-name="Path 993800" d="M43.97,57.88a2.934,2.934,0,0,0-.98.18l-1.76-2.18a.989.989,0,0,0-.76-.36H23.52a.984.984,0,0,0-.75.36L21,58.05a2.869,2.869,0,0,0-.97-.17,2.929,2.929,0,0,0-2.07.85,2.935,2.935,0,1,0,4.55.55l1.46-1.81H40.01l1.46,1.81a2.907,2.907,0,0,0,2.47,4.45h.01a2.925,2.925,0,0,0,.02-5.85ZM20.03,61.77a.982.982,0,0,1-.98-.98.957.957,0,0,1,.98-.98.973.973,0,0,1,.98.98.969.969,0,0,1-.98.98Zm23.94.01a1.009,1.009,0,0,1-.7-.29.985.985,0,0,1-.29-.69,1.027,1.027,0,0,1,.29-.7,1.009,1.009,0,0,1,.7-.29.985.985,0,0,1,0,1.97Z" fill="#2a2f64"/>
        <path id="Path_993801" data-name="Path 993801" d="M21.01,60.8a.98.98,0,0,1-1.96,0,.957.957,0,0,1,.98-.98.993.993,0,0,1,.69.28.929.929,0,0,1,.29.7Z" fill="#ffdc7c"/>
        <path id="Path_993802" data-name="Path 993802" d="M44.95,60.8a1,1,0,0,1-.98.98h-.01a1,1,0,0,1-.69-.29.985.985,0,0,1-.29-.69,1.027,1.027,0,0,1,.29-.7.983.983,0,0,1,1.68.7Z" fill="#ffdc7c"/>
        <path id="Path_993803" data-name="Path 993803" d="M31.99,20.56A11.435,11.435,0,1,0,43.43,31.99,11.444,11.444,0,0,0,31.99,20.56Zm0,20.94a9.5,9.5,0,1,1,9.5-9.5,9.5,9.5,0,0,1-9.5,9.5Z" fill="#2a2f64"/>
      </g>
    </g>
  </g>
</svg>
