<svg xmlns="http://www.w3.org/2000/svg" xmlns:xlink="http://www.w3.org/1999/xlink" width="113" height="113" viewBox="0 0 113 113">
  <defs>
    <filter id="Path_982547" x="0" y="0" width="113" height="113" filterUnits="userSpaceOnUse">
      <feOffset dy="3" input="SourceAlpha"/>
      <feGaussianBlur stdDeviation="3" result="blur"/>
      <feFlood flood-opacity="0.161"/>
      <feComposite operator="in" in2="blur"/>
      <feComposite in="SourceGraphic"/>
    </filter>
  </defs>
  <g id="Group_1156459" data-name="Group 1156459" transform="translate(-743.623 -796.993)">
    <g id="Group_1155443" data-name="Group 1155443" transform="translate(0 -35.007)">
      <g id="Group_1154223" data-name="Group 1154223" transform="translate(-0.377 -2287.496)">
        <g id="Group_1149519" data-name="Group 1149519" transform="translate(0 -584.682)">
          <g id="Group_1147087" data-name="Group 1147087" transform="translate(753 3710.178)">
            <g transform="matrix(1, 0, 0, 1, -9, -6)" filter="url(#Path_982547)">
              <g id="Path_982547-2" data-name="Path 982547" transform="translate(9 6)" fill="#fdeffe">
                <path d="M 47.5 93.5 C 41.28937149047852 93.5 35.26533508300781 92.28397369384766 29.59518623352051 89.88570404052734 C 24.11771965026855 87.56893157958984 19.19813346862793 84.25196075439453 14.97309303283691 80.02691650390625 C 10.74804019927979 75.80186462402344 7.431066513061523 70.88229370117188 5.114293098449707 65.40481567382812 C 2.716026782989502 59.73468017578125 1.5 53.71062850952148 1.5 47.5 C 1.5 41.28937149047852 2.716026782989502 35.26533508300781 5.114293098449707 29.59518623352051 C 7.431066513061523 24.11771965026855 10.74804019927979 19.19813346862793 14.97309303283691 14.97309303283691 C 19.19813346862793 10.74804019927979 24.11771965026855 7.431066513061523 29.59518623352051 5.114293098449707 C 35.26533508300781 2.716026782989502 41.28937149047852 1.5 47.5 1.5 C 53.71062850952148 1.5 59.73468017578125 2.716026782989502 65.40481567382812 5.114293098449707 C 70.88229370117188 7.431066513061523 75.80186462402344 10.74804019927979 80.02691650390625 14.97309303283691 C 84.25196075439453 19.19813346862793 87.56893157958984 24.11771965026855 89.88570404052734 29.59518623352051 C 92.28397369384766 35.26533508300781 93.5 41.28937149047852 93.5 47.5 C 93.5 53.71062850952148 92.28397369384766 59.73468017578125 89.88570404052734 65.40481567382812 C 87.56893157958984 70.88229370117188 84.25196075439453 75.80186462402344 80.02691650390625 80.02691650390625 C 75.80186462402344 84.25196075439453 70.88229370117188 87.56893157958984 65.40481567382812 89.88570404052734 C 59.73468017578125 92.28397369384766 53.71062850952148 93.5 47.5 93.5 Z" stroke="none"/>
                <path d="M 47.5 3 C 41.49121475219727 3 35.66376876831055 4.176155090332031 30.17950439453125 6.495796203613281 C 24.88084411621094 8.736953735351562 20.12152099609375 11.94598388671875 16.03375244140625 16.03375244140625 C 11.94598388671875 20.12152099609375 8.736953735351562 24.88084411621094 6.495796203613281 30.17950439453125 C 4.176155090332031 35.66376876831055 3 41.49121475219727 3 47.5 C 3 53.50878524780273 4.176155090332031 59.33623123168945 6.495796203613281 64.82049560546875 C 8.736953735351562 70.11915588378906 11.94598388671875 74.87847900390625 16.03375244140625 78.96624755859375 C 20.12152099609375 83.05401611328125 24.88084411621094 86.26304626464844 30.17950439453125 88.50419616699219 C 35.66376876831055 90.82384490966797 41.49121475219727 92 47.5 92 C 53.50878524780273 92 59.33623123168945 90.82384490966797 64.82049560546875 88.50419616699219 C 70.11915588378906 86.26304626464844 74.87847900390625 83.05401611328125 78.96624755859375 78.96624755859375 C 83.05401611328125 74.87847900390625 86.26304626464844 70.11915588378906 88.50419616699219 64.82049560546875 C 90.82384490966797 59.33623123168945 92 53.50878524780273 92 47.5 C 92 41.49121475219727 90.82384490966797 35.66376876831055 88.50419616699219 30.17950439453125 C 86.26304626464844 24.88084411621094 83.05401611328125 20.12152099609375 78.96624755859375 16.03375244140625 C 74.87847900390625 11.94598388671875 70.11915588378906 8.736953735351562 64.82049560546875 6.495796203613281 C 59.33623123168945 4.176155090332031 53.50878524780273 3 47.5 3 M 47.5 0 C 73.7335205078125 0 95 21.2664794921875 95 47.5 C 95 73.7335205078125 73.7335205078125 95 47.5 95 C 21.2664794921875 95 0 73.7335205078125 0 47.5 C 0 21.2664794921875 21.2664794921875 0 47.5 0 Z" stroke="none" fill="#ee70f7"/>
              </g>
            </g>
          </g>
        </g>
      </g>
      <g id="analizando" transform="translate(773.623 858)">
        <g id="Group_1155441" data-name="Group 1155441" transform="translate(0.87 0.87)">
          <g id="Group_1155421" data-name="Group 1155421" transform="translate(10.435)">
            <path id="Path_993090" data-name="Path 993090" d="M26.913,2.739V6.218H13V1.87A.872.872,0,0,1,13.87,1H26.044a.872.872,0,0,1,.87.87Z" transform="translate(-13 -1)" fill="#b27946"/>
          </g>
          <g id="Group_1155422" data-name="Group 1155422" transform="translate(24.349 1.739)">
            <path id="Path_993091" data-name="Path 993091" d="M39.435,3.87V15.322a10.326,10.326,0,0,0-3.478,1.244V6.478H29V3h9.565A.872.872,0,0,1,39.435,3.87Z" transform="translate(-29 -3)" fill="#d3a06c"/>
          </g>
          <g id="Group_1155423" data-name="Group 1155423" transform="translate(0 1.739)">
            <path id="Path_993092" data-name="Path 993092" d="M32.305,49.958H1.87a.872.872,0,0,1-.87-.87V3.87A.872.872,0,0,1,1.87,3h9.565V6.478H4.478v40H30.566a1.752,1.752,0,0,0,1.739,1.739h1.739a1.752,1.752,0,0,0-1.739,1.739Z" transform="translate(-1 -3)" fill="#d3a06c"/>
          </g>
          <g id="Group_1155424" data-name="Group 1155424" transform="translate(3.478 5.218)">
            <path id="Path_993093" data-name="Path 993093" d="M11.957,43.523V40.044H8.478v3.478Zm0-6.957V33.088H8.478v3.478Zm0-6.957V26.131H8.478v3.478Zm11.957-7.5a3.418,3.418,0,0,0,.217-1.2,3.491,3.491,0,1,0-.217,1.2Zm3.7,4.018A10.432,10.432,0,0,0,38.044,36.566H35.436a.872.872,0,0,0-.87.87,2.41,2.41,0,0,0,.157.87h-1.9a1.752,1.752,0,0,0-1.739,1.739,1.744,1.744,0,0,0,1.739,1.739,1.744,1.744,0,0,0-1.739,1.739,1.752,1.752,0,0,0,1.739,1.739A1.744,1.744,0,0,0,31.088,47H5V7H32.827V17.087a10.436,10.436,0,0,0-4.9,6.5A10.157,10.157,0,0,0,27.609,26.131Z" transform="translate(-5 -7)" fill="#e6e9ed"/>
          </g>
          <g id="Group_1155425" data-name="Group 1155425" transform="translate(6.957 38.262)">
            <path id="Path_993094" data-name="Path 993094" d="M9,45h3.478v3.478H9Z" transform="translate(-9 -45)" fill="#ef7385"/>
          </g>
          <g id="Group_1155426" data-name="Group 1155426" transform="translate(6.957 31.305)">
            <path id="Path_993095" data-name="Path 993095" d="M9,37h3.478v3.478H9Z" transform="translate(-9 -37)" fill="#ef7385"/>
          </g>
          <g id="Group_1155427" data-name="Group 1155427" transform="translate(6.957 24.349)">
            <path id="Path_993096" data-name="Path 993096" d="M9,29h3.478v3.478H9Z" transform="translate(-9 -29)" fill="#ef7385"/>
          </g>
          <g id="Group_1155428" data-name="Group 1155428" transform="translate(46.958 36.523)">
            <path id="Path_993097" data-name="Path 993097" d="M55,43h5.218V56.913H55Z" transform="translate(-55 -43)" fill="#ef7385"/>
          </g>
          <g id="Group_1155429" data-name="Group 1155429" transform="translate(33.044 34.784)">
            <path id="Path_993098" data-name="Path 993098" d="M44.218,56.653V44.478H41.609a2.411,2.411,0,0,1-.87-.157,2.468,2.468,0,0,1-.974-.609l-.609-.974A2.411,2.411,0,0,1,39,41.87a.872.872,0,0,1,.87-.87h8.844a5.944,5.944,0,0,1,4.2,1.739V56.653Z" transform="translate(-39 -41)" fill="#f0d0b4"/>
          </g>
          <g id="Group_1155430" data-name="Group 1155430" transform="translate(29.566 36.523)">
            <path id="Path_993099" data-name="Path 993099" d="M38.635,43l.609.974a2.468,2.468,0,0,0,.974.609v1.9H36.739A1.744,1.744,0,0,1,35,44.739,1.752,1.752,0,0,1,36.739,43h1.887Z" transform="translate(-35 -43)" fill="#f0d0b4"/>
          </g>
          <g id="Group_1155431" data-name="Group 1155431" transform="translate(29.566 40.001)">
            <path id="Path_993100" data-name="Path 993100" d="M40.218,47v3.478H36.739A1.752,1.752,0,0,1,35,48.739,1.744,1.744,0,0,1,36.739,47Z" transform="translate(-35 -47)" fill="#f0d0b4"/>
          </g>
          <g id="Group_1155432" data-name="Group 1155432" transform="translate(29.566 43.479)">
            <path id="Path_993101" data-name="Path 993101" d="M40.218,51v3.478H36.739A1.752,1.752,0,0,1,35,52.739,1.744,1.744,0,0,1,36.739,51Z" transform="translate(-35 -51)" fill="#f0d0b4"/>
          </g>
          <g id="Group_1155433" data-name="Group 1155433" transform="translate(31.305 46.958)">
            <path id="Path_993102" data-name="Path 993102" d="M40.478,55v3.478H38.739A1.744,1.744,0,0,1,37,56.739,1.752,1.752,0,0,1,38.739,55Z" transform="translate(-37 -55)" fill="#f0d0b4"/>
          </g>
          <g id="Group_1155434" data-name="Group 1155434" transform="translate(34.784 38.105)">
            <path id="Path_993103" data-name="Path 993103" d="M41.87,44.977h2.609V57.151a1.752,1.752,0,0,1-1.739,1.739A1.744,1.744,0,0,1,41,57.151V44.82A2.411,2.411,0,0,0,41.87,44.977Z" transform="translate(-41 -44.82)" fill="#aab2bd"/>
          </g>
          <g id="Group_1155435" data-name="Group 1155435" transform="translate(26.088 13.913)">
            <path id="Path_993104" data-name="Path 993104" d="M44.192,21.044A6.964,6.964,0,0,0,34.609,26.1a6.7,6.7,0,0,0-.13,1.33,6.957,6.957,0,1,0,9.713-6.391Zm-7.974-2.652A10.326,10.326,0,0,1,39.7,17.148,10.434,10.434,0,1,1,31,27.435a10.157,10.157,0,0,1,.313-2.539A10.436,10.436,0,0,1,36.218,18.391Z" transform="translate(-31 -17)" fill="#aab2bd"/>
          </g>
          <g id="Group_1155436" data-name="Group 1155436" transform="translate(29.696 17.392)">
            <path id="Path_993105" data-name="Path 993105" d="M44.733,21.565,42.272,26.5a2.6,2.6,0,0,0-3.609,1.426l-3.513-1.3a6.964,6.964,0,0,1,9.583-5.061Z" transform="translate(-35.15 -21)" fill="#4fc1e9"/>
          </g>
          <g id="Group_1155437" data-name="Group 1155437" transform="translate(29.566 17.957)">
            <path id="Path_993106" data-name="Path 993106" d="M44.713,21.65A6.958,6.958,0,1,1,35,28.041a6.7,6.7,0,0,1,.13-1.33l3.513,1.3a2.57,2.57,0,0,0-.165.9,2.609,2.609,0,1,0,3.774-2.33Z" transform="translate(-35 -21.65)" fill="#4fc1e9"/>
          </g>
          <g id="Group_1155438" data-name="Group 1155438" transform="translate(39.132)">
            <path id="Path_993107" data-name="Path 993107" d="M52.087,1a6.087,6.087,0,1,1,0,12.174,5.951,5.951,0,0,1-2.722-.643A6.086,6.086,0,0,1,52.087,1Z" transform="translate(-46 -1)" fill="#fcd770"/>
          </g>
          <g id="Group_1155439" data-name="Group 1155439" transform="translate(33.044 22.609)">
            <path id="Path_993108" data-name="Path 993108" d="M42.774,27.278A2.6,2.6,0,1,1,41.609,27,2.616,2.616,0,0,1,42.774,27.278Z" transform="translate(-39 -27)" fill="#fcd770"/>
          </g>
          <g id="Group_1155440" data-name="Group 1155440" transform="translate(15.653 15.653)">
            <path id="Path_993109" data-name="Path 993109" d="M22.478,19a3.477,3.477,0,0,1,3.478,3.478,3.418,3.418,0,0,1-.217,1.2A3.477,3.477,0,1,1,22.478,19Z" transform="translate(-19 -19)" fill="#fcd770"/>
          </g>
        </g>
        <g id="Group_1155442" data-name="Group 1155442" transform="translate(0 0)">
          <path id="Path_993110" data-name="Path 993110" d="M53.915,36.523H48.161a6.753,6.753,0,0,0-4.533-1.739h-.239a11.283,11.283,0,0,0-.518-19.447l.912-1.824a6.939,6.939,0,1,0-1.557-.775l-.94,1.88a11.256,11.256,0,0,0-3.893-.7c-.294,0-.582.022-.87.044V3.478a1.741,1.741,0,0,0-1.739-1.739h-8.7A1.741,1.741,0,0,0,24.348,0H12.174a1.741,1.741,0,0,0-1.739,1.739h-8.7A1.741,1.741,0,0,0,0,3.478V48.7a1.741,1.741,0,0,0,1.739,1.739H31.465a2.605,2.605,0,0,0,2.449,1.739h1.03a2.594,2.594,0,0,0,4.9,0H53.915ZM40.871,6.957a5.218,5.218,0,1,1,5.218,5.218A5.223,5.223,0,0,1,40.871,6.957Zm2.757,29.566a5.033,5.033,0,0,1,3.33,1.246V50.436H40V42.172a5.3,5.3,0,0,0,3.478,1.308V41.74A3.58,3.58,0,0,1,40,39.025l-.19-.764H36.523a1.741,1.741,0,0,1-1.739-1.739ZM32.175,46.958a.87.87,0,1,1,0-1.739h2.609v1.739ZM5.218,45.219V6.957H31.305v8.751a11.343,11.343,0,0,0-4.593,5.839l-2.429-.895a4.349,4.349,0,1,0-.6,1.632l2.589.954a11.216,11.216,0,0,0,6.974,12.487,1.717,1.717,0,0,0-.2.8h-.87a2.6,2.6,0,0,0-1.93,4.348,2.569,2.569,0,0,0,0,3.478,2.585,2.585,0,0,0-.518.87ZM22.609,20A2.609,2.609,0,1,1,20,17.392,2.612,2.612,0,0,1,22.609,20Zm9.565,23.479a.87.87,0,1,1,0-1.739h2.609v1.739Zm0-3.478a.87.87,0,1,1,0-1.739h1.353a3.483,3.483,0,0,0,1.256,1.256V40ZM40.5,16.182l-.782,1.564a7.9,7.9,0,1,0,1.59.709l.779-1.559a9.691,9.691,0,1,1-1.588-.713Zm-9.192,8.912,1.768.651a3.394,3.394,0,0,0-.035.342A3.478,3.478,0,1,0,38.8,23.479l1.733-3.466a6.084,6.084,0,1,1-9.227,5.205c0-.042.005-.082.006-.123Zm6.951.993a1.739,1.739,0,1,1-1.739-1.739A1.741,1.741,0,0,1,38.262,26.088Zm-1.012-3.4a3.452,3.452,0,0,0-3.582,1.421L31.6,23.348a6.054,6.054,0,0,1,7.325-4.013ZM34.784,3.478V14.229a11.106,11.106,0,0,0-1.739.557V5.218H26.088V3.478ZM24.349,1.739V5.218H12.174V1.739ZM1.739,3.478h8.7V5.218H3.478v41.74H29.726A2.6,2.6,0,0,0,31.5,48.6c-.013.032-.019.068-.031.1H1.739ZM33.044,49.567a.871.871,0,0,1,.87-.87h.87v1.739h-.87A.871.871,0,0,1,33.044,49.567Zm4.348,2.609a.871.871,0,0,1-.87-.87V40h1.739v11.3A.871.871,0,0,1,37.392,52.175Zm14.783-1.739H48.7V38.262h3.478Z" transform="translate(0 0)"/>
          <path id="Path_993111" data-name="Path 993111" d="M8,49.218h5.218V44H8Zm1.739-3.478h1.739v1.739H9.739Z" transform="translate(-1.043 -5.738)"/>
          <path id="Path_993112" data-name="Path 993112" d="M16,46H26.435v1.739H16Z" transform="translate(-2.087 -5.999)"/>
          <path id="Path_993113" data-name="Path 993113" d="M8,41.218h5.218V36H8Zm1.739-3.478h1.739v1.739H9.739Z" transform="translate(-1.043 -4.695)"/>
          <path id="Path_993114" data-name="Path 993114" d="M16,38H26.435v1.739H16Z" transform="translate(-2.087 -4.956)"/>
          <path id="Path_993115" data-name="Path 993115" d="M8,33.218h5.218V28H8Zm1.739-3.478h1.739v1.739H9.739Z" transform="translate(-1.043 -3.651)"/>
          <path id="Path_993116" data-name="Path 993116" d="M16,30H26.435v1.739H16Z" transform="translate(-2.087 -3.912)"/>
          <path id="Path_993117" data-name="Path 993117" d="M8,10H18.435v1.739H8Z" transform="translate(-1.043 -1.304)"/>
          <path id="Path_993118" data-name="Path 993118" d="M8,14h8.7v1.739H8Z" transform="translate(-1.043 -1.826)"/>
          <path id="Path_993119" data-name="Path 993119" d="M8,18h6.957v1.739H8Z" transform="translate(-1.043 -2.347)"/>
          <path id="Path_993120" data-name="Path 993120" d="M8,22H9.739v1.739H8Z" transform="translate(-1.043 -2.869)"/>
          <path id="Path_993121" data-name="Path 993121" d="M12,22h1.739v1.739H12Z" transform="translate(-1.565 -2.869)"/>
        </g>
      </g>
    </g>
  </g>
</svg>
