<svg xmlns="http://www.w3.org/2000/svg" xmlns:xlink="http://www.w3.org/1999/xlink" width="101.5" height="101.5" viewBox="0 0 101.5 101.5">
  <defs>
    <filter id="Path_982547" x="0" y="0" width="101.5" height="101.5" filterUnits="userSpaceOnUse">
      <feOffset dy="3" input="SourceAlpha"/>
      <feGaussianBlur stdDeviation="3" result="blur"/>
      <feFlood flood-opacity="0.161"/>
      <feComposite operator="in" in2="blur"/>
      <feComposite in="SourceGraphic"/>
    </filter>
  </defs>
  <g id="Group_1156435" data-name="Group 1156435" transform="translate(-192 -789)">
    <g id="Group_1156434" data-name="Group 1156434">
      <g id="Group_1156433" data-name="Group 1156433">
        <g id="Group_1154667" data-name="Group 1154667">
          <g id="Group_1150770" data-name="Group 1150770" transform="translate(-0.377 -10412.932)">
            <g id="Group_1149576" data-name="Group 1149576" transform="translate(-131.623 7497.754)">
              <g id="Group_1147086" data-name="Group 1147086" transform="translate(333 3710.178)">
                <g transform="matrix(1, 0, 0, 1, -9, -6)" filter="url(#Path_982547)">
                  <g id="Path_982547-2" data-name="Path 982547" transform="translate(9 6)" fill="#fdeffe">
                    <path d="M 41.75 82 C 36.31562423706055 82 31.04459953308105 80.93599700927734 26.08334159851074 78.83757781982422 C 21.29058837890625 76.81040191650391 16.98592948913574 73.90802001953125 13.28895282745361 70.21104431152344 C 9.591976165771484 66.51406860351562 6.689599990844727 62.20942306518555 4.662435531616211 57.41666030883789 C 2.563999891281128 52.45539855957031 1.5 47.18437576293945 1.5 41.75 C 1.5 36.31562423706055 2.563999891281128 31.04459953308105 4.662435531616211 26.08334159851074 C 6.689599990844727 21.29058837890625 9.591976165771484 16.98592948913574 13.28895282745361 13.28895282745361 C 16.98592948913574 9.591976165771484 21.29058837890625 6.689599990844727 26.08334159851074 4.662435531616211 C 31.04459953308105 2.563999891281128 36.31562423706055 1.5 41.75 1.5 C 47.18437576293945 1.5 52.45539855957031 2.563999891281128 57.41666030883789 4.662435531616211 C 62.20942306518555 6.689599990844727 66.51406860351562 9.591976165771484 70.21104431152344 13.28895282745361 C 73.90802001953125 16.98592948913574 76.81040191650391 21.29058837890625 78.83757781982422 26.08334159851074 C 80.93599700927734 31.04459953308105 82 36.31562423706055 82 41.75 C 82 47.18437576293945 80.93599700927734 52.45539855957031 78.83757781982422 57.41666030883789 C 76.81040191650391 62.20942306518555 73.90802001953125 66.51408386230469 70.21104431152344 70.21104431152344 C 66.51408386230469 73.90802001953125 62.20942306518555 76.81040191650391 57.41666030883789 78.83757781982422 C 52.45539855957031 80.93599700927734 47.18437576293945 82 41.75 82 Z" stroke="none"/>
                    <path d="M 41.75 3 C 36.5174674987793 3 31.44303894042969 4.024131774902344 26.66767883300781 6.043930053710938 C 22.05370712280273 7.9954833984375 17.90931701660156 10.7899169921875 14.34961700439453 14.34961700439453 C 10.7899169921875 17.90931701660156 7.9954833984375 22.05370712280273 6.043930053710938 26.66767883300781 C 4.024131774902344 31.44303894042969 3 36.5174674987793 3 41.75 C 3 46.9825325012207 4.024131774902344 52.05697250366211 6.043930053710938 56.83233261108398 C 7.9954833984375 61.44629287719727 10.7899169921875 65.59069061279297 14.34961700439453 69.150390625 C 17.90931701660156 72.71009063720703 22.05370712280273 75.5045166015625 26.66767883300781 77.45606994628906 C 31.44303894042969 79.47586822509766 36.5174674987793 80.5 41.75 80.5 C 46.9825325012207 80.5 52.05697250366211 79.47586822509766 56.83233261108398 77.45606994628906 C 61.44629287719727 75.5045166015625 65.59069061279297 72.71009063720703 69.150390625 69.150390625 C 72.71009063720703 65.59069061279297 75.5045166015625 61.44629287719727 77.45606994628906 56.83233261108398 C 79.47586822509766 52.05697250366211 80.5 46.9825325012207 80.5 41.75 C 80.5 36.5174674987793 79.47586822509766 31.44303894042969 77.45606994628906 26.66767883300781 C 75.5045166015625 22.05370712280273 72.71009063720703 17.90931701660156 69.150390625 14.34961700439453 C 65.59069061279297 10.7899169921875 61.44629287719727 7.9954833984375 56.83233261108398 6.043930053710938 C 52.05697250366211 4.024131774902344 46.9825325012207 3 41.75 3 M 41.75 0 C 64.80789184570312 0 83.5 18.69212341308594 83.5 41.75 C 83.5 64.80789184570312 64.80789184570312 83.5 41.75 83.5 C 18.69212341308594 83.5 0 64.80789184570312 0 41.75 C 0 18.69212341308594 18.69212341308594 0 41.75 0 Z" stroke="none" fill="#ee70f7"/>
                  </g>
                </g>
              </g>
            </g>
          </g>
          <g id="Layer_25" data-name="Layer 25" transform="translate(216 810)">
            <path id="Path_991157" data-name="Path 991157" d="M4,6H51.291V38.09H4Z" transform="translate(-0.467 -0.778)" fill="#ccc"/>
            <path id="Path_991158" data-name="Path 991158" d="M4,6V34.712H44.535a3.378,3.378,0,0,0,3.378-3.378V6Z" transform="translate(-0.467 -0.778)" fill="#f2f2f2"/>
            <rect id="Rectangle_409154" data-name="Rectangle 409154" width="32.935" height="21.957" rx="3" transform="translate(6.067 7.756)" fill="#fff"/>
            <path id="Path_991159" data-name="Path 991159" d="M8,12H35.023V33.957H8Z" transform="translate(-1.089 -1.711)" fill="#559b38"/>
            <path id="Path_991160" data-name="Path 991160" d="M8,12v4.222H29.957a2.533,2.533,0,0,0,2.533-2.533V12Z" transform="translate(-1.089 -1.711)" fill="#6bc148"/>
            <path id="Path_991161" data-name="Path 991161" d="M8,20H35.023V35.2H8Z" transform="translate(-1.089 -2.955)" fill="#ccc"/>
            <path id="Path_991162" data-name="Path 991162" d="M8,20V33.512H29.957a2.533,2.533,0,0,0,2.533-2.533V20Z" transform="translate(-1.089 -2.955)" fill="#f2f2f2"/>
            <path id="Path_991163" data-name="Path 991163" d="M2,44H52.669v3.378H2Z" transform="translate(-0.156 -6.687)" fill="#474747"/>
            <path id="Path_991164" data-name="Path 991164" d="M2,45.689H49.291A1.689,1.689,0,0,0,50.98,44H2Z" transform="translate(-0.156 -6.687)" fill="#686868"/>
            <path id="Path_991165" data-name="Path 991165" d="M2,2H52.669V5.378H2Z" transform="translate(-0.156 -0.156)" fill="#474747"/>
            <circle id="Ellipse_11673" data-name="Ellipse 11673" cx="2.533" cy="2.533" r="2.533" transform="translate(24.646 47.447)" fill="#f3a845"/>
            <path id="Path_991166" data-name="Path 991166" d="M2,3.689H49.291A1.689,1.689,0,0,0,50.98,2H2Z" transform="translate(-0.156 -0.156)" fill="#686868"/>
            <path id="Path_991167" data-name="Path 991167" d="M31.535,56a2.533,2.533,0,0,0-2.381,3.378H30.69a1.689,1.689,0,0,0,1.689-1.689V56.152A2.533,2.533,0,0,0,31.535,56Z" transform="translate(-4.356 -8.553)" fill="#eecc61"/>
            <path id="Path_991168" data-name="Path 991168" d="M52.513,6.067a.844.844,0,0,0,.844-.844V1.844A.844.844,0,0,0,52.513,1H1.844A.844.844,0,0,0,1,1.844V5.222a.844.844,0,0,0,.844.844h.844v30.4H1.844A.844.844,0,0,0,1,37.313v3.378a.844.844,0,0,0,.844.844h24.49V46.72a3.378,3.378,0,1,0,1.689,0V41.535h24.49a.844.844,0,0,0,.844-.844V37.313a.844.844,0,0,0-.844-.844h-.844V6.067ZM28.868,49.98a1.689,1.689,0,1,1-1.689-1.689A1.689,1.689,0,0,1,28.868,49.98ZM2.689,2.689h48.98V4.378H2.689Zm48.98,37.157H2.689V38.157h48.98ZM49.98,36.468H4.378V6.067h45.6Z"/>
            <path id="Path_991169" data-name="Path 991169" d="M7.844,34.646H34.868a.844.844,0,0,0,.844-.844V30.769l.245.253a.844.844,0,0,0,.6.245H49.224V29.579H36.9l-1.191-1.191v-8.6l2.035-2.035H49.224V16.067H37.4a.844.844,0,0,0-.6.245l-1.089,1.1V11.844A.844.844,0,0,0,34.868,11H7.844A.844.844,0,0,0,7,11.844V33.8A.844.844,0,0,0,7.844,34.646Zm.844-5.067H20.512v3.378H8.689Zm11.823-5.067V27.89H8.689V24.512ZM8.689,22.823V19.445H20.512v3.378ZM22.2,32.957V29.579H34.023v3.378ZM32.934,25.6l-1.2,1.2,1.1,1.089H22.2V24.512H34.023V26.7Zm1.089-2.778H22.2V19.445H33.677l-1.942,1.934,1.2,1.2,1.089-1.1Zm0-5.067H22.2V12.689H34.023ZM20.512,12.689v5.067H8.689V12.689Z" transform="translate(-0.933 -1.555)"/>
            <path id="Path_991170" data-name="Path 991170" d="M27,15h5.911v1.689H27Z" transform="translate(-4.043 -2.177)"/>
            <path id="Path_991171" data-name="Path 991171" d="M11,15h5.067v1.689H11Z" transform="translate(-1.555 -2.177)"/>
            <path id="Path_991172" data-name="Path 991172" d="M19,15h1.689v1.689H19Z" transform="translate(-2.799 -2.177)"/>
            <path id="Path_991173" data-name="Path 991173" d="M36,15h1.689v1.689H36Z" transform="translate(-5.443 -2.177)"/>
            <path id="Path_991174" data-name="Path 991174" d="M43,13h8.445v1.689H43Z" transform="translate(-6.532 -1.866)"/>
            <path id="Path_991175" data-name="Path 991175" d="M55,13h1.689v1.689H55Z" transform="translate(-8.398 -1.866)"/>
            <path id="Path_991176" data-name="Path 991176" d="M43,29h8.445v1.689H43Z" transform="translate(-6.532 -4.354)"/>
            <path id="Path_991177" data-name="Path 991177" d="M55,29h1.689v1.689H55Z" transform="translate(-8.398 -4.354)"/>
          </g>
        </g>
      </g>
    </g>
  </g>
</svg>
